<?xml version="1.0" encoding="UTF-8" standalone="no"?>
<!DOCTYPE svg PUBLIC "-//W3C//DTD SVG 1.1//EN"
 "http://www.w3.org/Graphics/SVG/1.1/DTD/svg11.dtd">
<!-- Generated by graphviz version 7.1.0 (20230121.1956)
 -->
<!-- Title: G Pages: 1 -->
<svg width="1885pt" height="740pt"
 viewBox="0.00 0.00 1884.82 740.00" xmlns="http://www.w3.org/2000/svg" xmlns:xlink="http://www.w3.org/1999/xlink">
<g id="graph0" class="graph" transform="scale(1 1) rotate(0) translate(4 736)">
<title>G</title>
<polygon fill="white" stroke="none" points="-4,4 -4,-736 1880.82,-736 1880.82,4 -4,4"/>
<!-- http___example_org_kb -->
<g id="node1" class="node">
<title>http___example_org_kb</title>
<ellipse fill="none" stroke="black" cx="1079.43" cy="-714" rx="106.68" ry="18"/>
<text text-anchor="middle" x="1079.43" y="-710.3" font-family="Times,serif" font-size="14.00">IRI &#45; http://example.org/kb</text>
</g>
<!-- http___example_org_shapes_case_corpora_local -->
<g id="node7" class="node">
<title>http___example_org_shapes_case_corpora_local</title>
<ellipse fill="none" stroke="black" cx="1079.43" cy="-627" rx="188.47" ry="18"/>
<text text-anchor="middle" x="1079.43" y="-623.3" font-family="Times,serif" font-size="14.00">IRI &#45; http://example.org/shapes/case&#45;corpora&#45;local</text>
</g>
<!-- http___example_org_kb&#45;&gt;http___example_org_shapes_case_corpora_local -->
<g id="edge1" class="edge">
<title>http___example_org_kb&#45;&gt;http___example_org_shapes_case_corpora_local</title>
<path fill="none" stroke="black" d="M1079.43,-695.8C1079.43,-684.58 1079.43,-669.67 1079.43,-656.69"/>
<polygon fill="black" stroke="black" points="1082.93,-656.98 1079.43,-646.98 1075.93,-656.98 1082.93,-656.98"/>
<text text-anchor="middle" x="1100.93" y="-666.8" font-family="Times,serif" font-size="14.00">imports</text>
</g>
<!-- http___www_w3_org_2004_02_skos_core -->
<g id="node2" class="node">
<title>http___www_w3_org_2004_02_skos_core</title>
<ellipse fill="none" stroke="black" cx="671.43" cy="-192" rx="163.57" ry="18"/>
<text text-anchor="middle" x="671.43" y="-188.3" font-family="Times,serif" font-size="14.00">IRI &#45; http://www.w3.org/2004/02/skos/core</text>
</g>
<!-- http___www_w3_org_2006_vcard_ns -->
<g id="node3" class="node">
<title>http___www_w3_org_2006_vcard_ns</title>
<ellipse fill="none" stroke="black" cx="1269.43" cy="-192" rx="149.47" ry="18"/>
<text text-anchor="middle" x="1269.43" y="-188.3" font-family="Times,serif" font-size="14.00">IRI &#45; http://www.w3.org/2006/vcard/ns</text>
</g>
<!-- http___www_w3_org_ns_dcat -->
<g id="node4" class="node">
<title>http___www_w3_org_ns_dcat</title>
<ellipse fill="none" stroke="black" cx="549.43" cy="-279" rx="124.28" ry="18"/>
<text text-anchor="middle" x="549.43" y="-275.3" font-family="Times,serif" font-size="14.00">IRI &#45; http://www.w3.org/ns/dcat</text>
</g>
<!-- http___www_w3_org_ns_dcat&#45;&gt;http___www_w3_org_2004_02_skos_core -->
<g id="edge4" class="edge">
<title>http___www_w3_org_ns_dcat&#45;&gt;http___www_w3_org_2004_02_skos_core</title>
<path fill="none" stroke="black" d="M558.86,-260.82C565.42,-250.18 575.02,-236.9 586.43,-228 593.17,-222.75 600.81,-218.16 608.67,-214.19"/>
<polygon fill="black" stroke="black" points="610.14,-217.37 617.72,-209.96 607.18,-211.03 610.14,-217.37"/>
<text text-anchor="middle" x="607.93" y="-231.8" font-family="Times,serif" font-size="14.00">imports</text>
</g>
<!-- http___purl_org_dc_terms_ -->
<g id="node19" class="node">
<title>http___purl_org_dc_terms_</title>
<ellipse fill="none" stroke="black" cx="765.43" cy="-105" rx="115.08" ry="18"/>
<text text-anchor="middle" x="765.43" y="-101.3" font-family="Times,serif" font-size="14.00">IRI &#45; http://purl.org/dc/terms/</text>
</g>
<!-- http___www_w3_org_ns_dcat&#45;&gt;http___purl_org_dc_terms_ -->
<g id="edge2" class="edge">
<title>http___www_w3_org_ns_dcat&#45;&gt;http___purl_org_dc_terms_</title>
<path fill="none" stroke="black" d="M515.31,-261.23C478.88,-241.11 429.65,-206.05 455.43,-174 480.46,-142.89 576.51,-125.21 655.14,-115.72"/>
<polygon fill="black" stroke="black" points="655.08,-119.25 664.61,-114.62 654.27,-112.3 655.08,-119.25"/>
<text text-anchor="middle" x="476.93" y="-188.3" font-family="Times,serif" font-size="14.00">imports</text>
</g>
<!-- http___www_w3_org_ns_prov_o_ -->
<g id="node20" class="node">
<title>http___www_w3_org_ns_prov_o_</title>
<ellipse fill="none" stroke="black" cx="272.43" cy="-192" rx="137.58" ry="18"/>
<text text-anchor="middle" x="272.43" y="-188.3" font-family="Times,serif" font-size="14.00">IRI &#45; http://www.w3.org/ns/prov&#45;o#</text>
</g>
<!-- http___www_w3_org_ns_dcat&#45;&gt;http___www_w3_org_ns_prov_o_ -->
<g id="edge6" class="edge">
<title>http___www_w3_org_ns_dcat&#45;&gt;http___www_w3_org_ns_prov_o_</title>
<path fill="none" stroke="black" d="M473.37,-264.42C446.55,-258.83 416.38,-251.62 389.43,-243 365.13,-235.23 338.95,-224.29 317.52,-214.63"/>
<polygon fill="black" stroke="black" points="319.03,-211.47 308.48,-210.49 316.12,-217.83 319.03,-211.47"/>
<text text-anchor="middle" x="410.93" y="-231.8" font-family="Times,serif" font-size="14.00">imports</text>
</g>
<!-- http___xmlns_com_foaf_0_1_ -->
<g id="node5" class="node">
<title>http___xmlns_com_foaf_0_1_</title>
<ellipse fill="none" stroke="black" cx="977.43" cy="-192" rx="124.28" ry="18"/>
<text text-anchor="middle" x="977.43" y="-188.3" font-family="Times,serif" font-size="14.00">IRI &#45; http://xmlns.com/foaf/0.1/</text>
</g>
<!-- http___example_org_ontology_case_corpora -->
<g id="node6" class="node">
<title>http___example_org_ontology_case_corpora</title>
<ellipse fill="none" stroke="black" cx="709.43" cy="-366" rx="176.57" ry="18"/>
<text text-anchor="middle" x="709.43" y="-362.3" font-family="Times,serif" font-size="14.00">IRI &#45; http://example.org/ontology/case&#45;corpora</text>
</g>
<!-- http___example_org_ontology_case_corpora&#45;&gt;http___www_w3_org_2006_vcard_ns -->
<g id="edge7" class="edge">
<title>http___example_org_ontology_case_corpora&#45;&gt;http___www_w3_org_2006_vcard_ns</title>
<path fill="none" stroke="black" d="M723.72,-347.96C748.32,-318.64 796.2,-261.68 797.43,-261 827.67,-244.25 1019.33,-220.42 1148.93,-205.87"/>
<polygon fill="black" stroke="black" points="1149.05,-209.38 1158.6,-204.79 1148.27,-202.42 1149.05,-209.38"/>
<text text-anchor="middle" x="818.93" y="-275.3" font-family="Times,serif" font-size="14.00">imports</text>
</g>
<!-- http___example_org_ontology_case_corpora&#45;&gt;http___www_w3_org_ns_dcat -->
<g id="edge9" class="edge">
<title>http___example_org_ontology_case_corpora&#45;&gt;http___www_w3_org_ns_dcat</title>
<path fill="none" stroke="black" d="M677.44,-348C652.61,-334.81 618,-316.43 591.03,-302.1"/>
<polygon fill="black" stroke="black" points="592.91,-299.13 582.43,-297.53 589.62,-305.31 592.91,-299.13"/>
<text text-anchor="middle" x="660.93" y="-318.8" font-family="Times,serif" font-size="14.00">imports</text>
</g>
<!-- http___example_org_ontology_case_corpora&#45;&gt;http___xmlns_com_foaf_0_1_ -->
<g id="edge11" class="edge">
<title>http___example_org_ontology_case_corpora&#45;&gt;http___xmlns_com_foaf_0_1_</title>
<path fill="none" stroke="black" d="M707.57,-347.69C706.09,-325.75 706.55,-287.62 723.43,-261 737.89,-238.2 749.29,-237.83 774.43,-228 793.39,-220.59 835.61,-212.85 876.67,-206.54"/>
<polygon fill="black" stroke="black" points="877.05,-210.02 886.42,-205.07 876.01,-203.1 877.05,-210.02"/>
<text text-anchor="middle" x="744.93" y="-275.3" font-family="Times,serif" font-size="14.00">imports</text>
</g>
<!-- https___ontology_caseontology_org_case_case_1_1_0 -->
<g id="node21" class="node">
<title>https___ontology_caseontology_org_case_case_1_1_0</title>
<ellipse fill="none" stroke="black" cx="203.43" cy="-279" rx="203.36" ry="18"/>
<text text-anchor="middle" x="203.43" y="-275.3" font-family="Times,serif" font-size="14.00">IRI &#45; https://ontology.caseontology.org/case/case/1.1.0</text>
</g>
<!-- http___example_org_ontology_case_corpora&#45;&gt;https___ontology_caseontology_org_case_case_1_1_0 -->
<g id="edge13" class="edge">
<title>http___example_org_ontology_case_corpora&#45;&gt;https___ontology_caseontology_org_case_case_1_1_0</title>
<path fill="none" stroke="black" d="M620.42,-350.05C532.77,-335.32 398.97,-312.85 306.69,-297.34"/>
<polygon fill="black" stroke="black" points="307.3,-293.9 296.85,-295.69 306.14,-300.8 307.3,-293.9"/>
<text text-anchor="middle" x="508.93" y="-318.8" font-family="Times,serif" font-size="14.00">imports</text>
</g>
<!-- http___example_org_shapes_case_corpora -->
<g id="node8" class="node">
<title>http___example_org_shapes_case_corpora</title>
<ellipse fill="none" stroke="black" cx="1079.43" cy="-540" rx="168.97" ry="18"/>
<text text-anchor="middle" x="1079.43" y="-536.3" font-family="Times,serif" font-size="14.00">IRI &#45; http://example.org/shapes/case&#45;corpora</text>
</g>
<!-- http___example_org_shapes_case_corpora_local&#45;&gt;http___example_org_shapes_case_corpora -->
<g id="edge14" class="edge">
<title>http___example_org_shapes_case_corpora_local&#45;&gt;http___example_org_shapes_case_corpora</title>
<path fill="none" stroke="black" d="M1079.43,-608.8C1079.43,-597.58 1079.43,-582.67 1079.43,-569.69"/>
<polygon fill="black" stroke="black" points="1082.93,-569.98 1079.43,-559.98 1075.93,-569.98 1082.93,-569.98"/>
<text text-anchor="middle" x="1100.93" y="-579.8" font-family="Times,serif" font-size="14.00">imports</text>
</g>
<!-- http___example_org_shapes_case_corpora&#45;&gt;http___example_org_ontology_case_corpora -->
<g id="edge15" class="edge">
<title>http___example_org_shapes_case_corpora&#45;&gt;http___example_org_ontology_case_corpora</title>
<path fill="none" stroke="black" d="M1020.02,-522.75C979.26,-510.68 924.45,-492.6 878.43,-471 828.9,-447.75 775.78,-413.32 742.59,-390.53"/>
<polygon fill="black" stroke="black" points="744.82,-387.82 734.61,-385 740.84,-393.57 744.82,-387.82"/>
<text text-anchor="middle" x="899.93" y="-449.3" font-family="Times,serif" font-size="14.00">imports</text>
</g>
<!-- http___example_org_shapes_dcat_us -->
<g id="node12" class="node">
<title>http___example_org_shapes_dcat_us</title>
<ellipse fill="none" stroke="black" cx="1079.43" cy="-453" rx="149.47" ry="18"/>
<text text-anchor="middle" x="1079.43" y="-449.3" font-family="Times,serif" font-size="14.00">IRI &#45; http://example.org/shapes/dcat&#45;us</text>
</g>
<!-- http___example_org_shapes_case_corpora&#45;&gt;http___example_org_shapes_dcat_us -->
<g id="edge16" class="edge">
<title>http___example_org_shapes_case_corpora&#45;&gt;http___example_org_shapes_dcat_us</title>
<path fill="none" stroke="black" d="M1079.43,-521.8C1079.43,-510.58 1079.43,-495.67 1079.43,-482.69"/>
<polygon fill="black" stroke="black" points="1082.93,-482.98 1079.43,-472.98 1075.93,-482.98 1082.93,-482.98"/>
<text text-anchor="middle" x="1100.93" y="-492.8" font-family="Times,serif" font-size="14.00">imports</text>
</g>
<!-- http___example_org_shapes_owl_abox -->
<g id="node15" class="node">
<title>http___example_org_shapes_owl_abox</title>
<ellipse fill="none" stroke="black" cx="1404.43" cy="-453" rx="157.07" ry="18"/>
<text text-anchor="middle" x="1404.43" y="-449.3" font-family="Times,serif" font-size="14.00">IRI &#45; http://example.org/shapes/owl&#45;abox</text>
</g>
<!-- http___example_org_shapes_case_corpora&#45;&gt;http___example_org_shapes_owl_abox -->
<g id="edge17" class="edge">
<title>http___example_org_shapes_case_corpora&#45;&gt;http___example_org_shapes_owl_abox</title>
<path fill="none" stroke="black" d="M1141.33,-522.81C1195.83,-508.56 1275.22,-487.79 1332.53,-472.81"/>
<polygon fill="black" stroke="black" points="1333.07,-476.28 1341.85,-470.37 1331.29,-469.51 1333.07,-476.28"/>
<text text-anchor="middle" x="1282.93" y="-492.8" font-family="Times,serif" font-size="14.00">imports</text>
</g>
<!-- http___example_org_shapes_dc -->
<g id="node9" class="node">
<title>http___example_org_shapes_dc</title>
<ellipse fill="none" stroke="black" cx="1736.43" cy="-105" rx="131.88" ry="18"/>
<text text-anchor="middle" x="1736.43" y="-101.3" font-family="Times,serif" font-size="14.00">IRI &#45; http://example.org/shapes/dc</text>
</g>
<!-- http___purl_org_dc_elements_1_1_ -->
<g id="node22" class="node">
<title>http___purl_org_dc_elements_1_1_</title>
<ellipse fill="none" stroke="black" cx="1736.43" cy="-18" rx="140.28" ry="18"/>
<text text-anchor="middle" x="1736.43" y="-14.3" font-family="Times,serif" font-size="14.00">IRI &#45; http://purl.org/dc/elements/1.1/</text>
</g>
<!-- http___example_org_shapes_dc&#45;&gt;http___purl_org_dc_elements_1_1_ -->
<g id="edge18" class="edge">
<title>http___example_org_shapes_dc&#45;&gt;http___purl_org_dc_elements_1_1_</title>
<path fill="none" stroke="black" d="M1736.43,-86.8C1736.43,-75.58 1736.43,-60.67 1736.43,-47.69"/>
<polygon fill="black" stroke="black" points="1739.93,-47.98 1736.43,-37.98 1732.93,-47.98 1739.93,-47.98"/>
<text text-anchor="middle" x="1757.93" y="-57.8" font-family="Times,serif" font-size="14.00">imports</text>
</g>
<!-- http___example_org_shapes_dcam -->
<g id="node10" class="node">
<title>http___example_org_shapes_dcam</title>
<ellipse fill="none" stroke="black" cx="1442.43" cy="-105" rx="143.77" ry="18"/>
<text text-anchor="middle" x="1442.43" y="-101.3" font-family="Times,serif" font-size="14.00">IRI &#45; http://example.org/shapes/dcam</text>
</g>
<!-- http___purl_org_dc_dcam_ -->
<g id="node23" class="node">
<title>http___purl_org_dc_dcam_</title>
<ellipse fill="none" stroke="black" cx="1442.43" cy="-18" rx="114.28" ry="18"/>
<text text-anchor="middle" x="1442.43" y="-14.3" font-family="Times,serif" font-size="14.00">IRI &#45; http://purl.org/dc/dcam/</text>
</g>
<!-- http___example_org_shapes_dcam&#45;&gt;http___purl_org_dc_dcam_ -->
<g id="edge19" class="edge">
<title>http___example_org_shapes_dcam&#45;&gt;http___purl_org_dc_dcam_</title>
<path fill="none" stroke="black" d="M1442.43,-86.8C1442.43,-75.58 1442.43,-60.67 1442.43,-47.69"/>
<polygon fill="black" stroke="black" points="1445.93,-47.98 1442.43,-37.98 1438.93,-47.98 1445.93,-47.98"/>
<text text-anchor="middle" x="1463.93" y="-57.8" font-family="Times,serif" font-size="14.00">imports</text>
</g>
<!-- http___example_org_shapes_dcat -->
<g id="node11" class="node">
<title>http___example_org_shapes_dcat</title>
<ellipse fill="none" stroke="black" cx="1229.43" cy="-366" rx="138.38" ry="18"/>
<text text-anchor="middle" x="1229.43" y="-362.3" font-family="Times,serif" font-size="14.00">IRI &#45; http://example.org/shapes/dcat</text>
</g>
<!-- http___example_org_shapes_dcat&#45;&gt;http___www_w3_org_ns_dcat -->
<g id="edge10" class="edge">
<title>http___example_org_shapes_dcat&#45;&gt;http___www_w3_org_ns_dcat</title>
<path fill="none" stroke="black" d="M1132,-352.82C1004.61,-336.9 782.42,-309.12 652.37,-292.87"/>
<polygon fill="black" stroke="black" points="653.09,-289.43 642.74,-291.66 652.22,-296.38 653.09,-289.43"/>
<text text-anchor="middle" x="951.93" y="-318.8" font-family="Times,serif" font-size="14.00">imports</text>
</g>
<!-- http___example_org_shapes_dcterms -->
<g id="node13" class="node">
<title>http___example_org_shapes_dcterms</title>
<ellipse fill="none" stroke="black" cx="1589.43" cy="-192" rx="152.17" ry="18"/>
<text text-anchor="middle" x="1589.43" y="-188.3" font-family="Times,serif" font-size="14.00">IRI &#45; http://example.org/shapes/dcterms</text>
</g>
<!-- http___example_org_shapes_dcat&#45;&gt;http___example_org_shapes_dcterms -->
<g id="edge20" class="edge">
<title>http___example_org_shapes_dcat&#45;&gt;http___example_org_shapes_dcterms</title>
<path fill="none" stroke="black" d="M1329.76,-353.22C1475.64,-335.85 1729.77,-304.61 1736.43,-297 1767.77,-261.17 1709.83,-231.17 1657.73,-212.74"/>
<polygon fill="black" stroke="black" points="1659.1,-209.51 1648.5,-209.59 1656.83,-216.14 1659.1,-209.51"/>
<text text-anchor="middle" x="1765.93" y="-275.3" font-family="Times,serif" font-size="14.00">imports</text>
</g>
<!-- http___example_org_shapes_foaf -->
<g id="node14" class="node">
<title>http___example_org_shapes_foaf</title>
<ellipse fill="none" stroke="black" cx="1589.43" cy="-279" rx="137.58" ry="18"/>
<text text-anchor="middle" x="1589.43" y="-275.3" font-family="Times,serif" font-size="14.00">IRI &#45; http://example.org/shapes/foaf</text>
</g>
<!-- http___example_org_shapes_dcat&#45;&gt;http___example_org_shapes_foaf -->
<g id="edge23" class="edge">
<title>http___example_org_shapes_dcat&#45;&gt;http___example_org_shapes_foaf</title>
<path fill="none" stroke="black" d="M1294.21,-349.71C1355.83,-335.16 1448.53,-313.27 1513.57,-297.91"/>
<polygon fill="black" stroke="black" points="1514.17,-301.37 1523.1,-295.66 1512.56,-294.55 1514.17,-301.37"/>
<text text-anchor="middle" x="1451.93" y="-318.8" font-family="Times,serif" font-size="14.00">imports</text>
</g>
<!-- http___example_org_shapes_vcard -->
<g id="node18" class="node">
<title>http___example_org_shapes_vcard</title>
<ellipse fill="none" stroke="black" cx="1290.43" cy="-279" rx="143.77" ry="18"/>
<text text-anchor="middle" x="1290.43" y="-275.3" font-family="Times,serif" font-size="14.00">IRI &#45; http://example.org/shapes/vcard</text>
</g>
<!-- http___example_org_shapes_dcat&#45;&gt;http___example_org_shapes_vcard -->
<g id="edge24" class="edge">
<title>http___example_org_shapes_dcat&#45;&gt;http___example_org_shapes_vcard</title>
<path fill="none" stroke="black" d="M1241.78,-347.8C1250.29,-335.93 1261.78,-319.93 1271.45,-306.45"/>
<polygon fill="black" stroke="black" points="1274.24,-308.57 1277.22,-298.41 1268.55,-304.49 1274.24,-308.57"/>
<text text-anchor="middle" x="1285.93" y="-318.8" font-family="Times,serif" font-size="14.00">imports</text>
</g>
<!-- http___example_org_shapes_dcat_us&#45;&gt;http___example_org_shapes_dcat -->
<g id="edge25" class="edge">
<title>http___example_org_shapes_dcat_us&#45;&gt;http___example_org_shapes_dcat</title>
<path fill="none" stroke="black" d="M1109.43,-435C1132.42,-421.97 1164.37,-403.87 1189.52,-389.62"/>
<polygon fill="black" stroke="black" points="1191.2,-392.69 1198.17,-384.71 1187.75,-386.6 1191.2,-392.69"/>
<text text-anchor="middle" x="1184.93" y="-405.8" font-family="Times,serif" font-size="14.00">imports</text>
</g>
<!-- http___example_org_shapes_pod -->
<g id="node16" class="node">
<title>http___example_org_shapes_pod</title>
<ellipse fill="none" stroke="black" cx="1523.43" cy="-366" rx="137.28" ry="18"/>
<text text-anchor="middle" x="1523.43" y="-362.3" font-family="Times,serif" font-size="14.00">IRI &#45; http://example.org/shapes/pod</text>
</g>
<!-- http___example_org_shapes_dcat_us&#45;&gt;http___example_org_shapes_pod -->
<g id="edge26" class="edge">
<title>http___example_org_shapes_dcat_us&#45;&gt;http___example_org_shapes_pod</title>
<path fill="none" stroke="black" d="M1156.77,-437.19C1234.96,-422.23 1355.55,-399.14 1436.88,-383.57"/>
<polygon fill="black" stroke="black" points="1437.44,-387.03 1446.6,-381.71 1436.12,-380.15 1437.44,-387.03"/>
<text text-anchor="middle" x="1349.93" y="-405.8" font-family="Times,serif" font-size="14.00">imports</text>
</g>
<!-- http___example_org_shapes_skos -->
<g id="node17" class="node">
<title>http___example_org_shapes_skos</title>
<ellipse fill="none" stroke="black" cx="989.43" cy="-279" rx="139.98" ry="18"/>
<text text-anchor="middle" x="989.43" y="-275.3" font-family="Times,serif" font-size="14.00">IRI &#45; http://example.org/shapes/skos</text>
</g>
<!-- http___example_org_shapes_dcat_us&#45;&gt;http___example_org_shapes_skos -->
<g id="edge27" class="edge">
<title>http___example_org_shapes_dcat_us&#45;&gt;http___example_org_shapes_skos</title>
<path fill="none" stroke="black" d="M1068.66,-434.62C1060.37,-421.01 1048.78,-401.52 1039.43,-384 1025.78,-358.41 1011.58,-328.5 1001.82,-307.35"/>
<polygon fill="black" stroke="black" points="1005.12,-306.16 997.77,-298.53 998.76,-309.08 1005.12,-306.16"/>
<text text-anchor="middle" x="1060.93" y="-362.3" font-family="Times,serif" font-size="14.00">imports</text>
</g>
<!-- http___example_org_shapes_dcterms&#45;&gt;http___example_org_shapes_dc -->
<g id="edge28" class="edge">
<title>http___example_org_shapes_dcterms&#45;&gt;http___example_org_shapes_dc</title>
<path fill="none" stroke="black" d="M1618.83,-174C1641.36,-160.97 1672.67,-142.87 1697.32,-128.62"/>
<polygon fill="black" stroke="black" points="1698.87,-131.76 1705.78,-123.72 1695.37,-125.7 1698.87,-131.76"/>
<text text-anchor="middle" x="1692.93" y="-144.8" font-family="Times,serif" font-size="14.00">imports</text>
</g>
<!-- http___example_org_shapes_dcterms&#45;&gt;http___example_org_shapes_dcam -->
<g id="edge29" class="edge">
<title>http___example_org_shapes_dcterms&#45;&gt;http___example_org_shapes_dcam</title>
<path fill="none" stroke="black" d="M1560.04,-174C1537.5,-160.97 1506.19,-142.87 1481.54,-128.62"/>
<polygon fill="black" stroke="black" points="1483.49,-125.7 1473.09,-123.72 1479.99,-131.76 1483.49,-125.7"/>
<text text-anchor="middle" x="1545.93" y="-144.8" font-family="Times,serif" font-size="14.00">imports</text>
</g>
<!-- http___example_org_shapes_dcterms&#45;&gt;http___purl_org_dc_terms_ -->
<g id="edge3" class="edge">
<title>http___example_org_shapes_dcterms&#45;&gt;http___purl_org_dc_terms_</title>
<path fill="none" stroke="black" d="M1478.76,-179.35C1461.58,-177.55 1444.03,-175.72 1427.43,-174 1230.91,-153.59 1001.52,-130.11 870.89,-116.76"/>
<polygon fill="black" stroke="black" points="871.53,-113.31 861.22,-115.77 870.82,-120.27 871.53,-113.31"/>
<text text-anchor="middle" x="1267.93" y="-144.8" font-family="Times,serif" font-size="14.00">imports</text>
</g>
<!-- http___example_org_shapes_foaf&#45;&gt;http___xmlns_com_foaf_0_1_ -->
<g id="edge12" class="edge">
<title>http___example_org_shapes_foaf&#45;&gt;http___xmlns_com_foaf_0_1_</title>
<path fill="none" stroke="black" d="M1508.55,-264.03C1473.96,-257.88 1433.16,-250.38 1396.43,-243 1366.09,-236.9 1359.03,-232.62 1328.43,-228 1232.74,-213.54 1207.68,-220.09 1111.43,-210 1100.59,-208.86 1089.26,-207.58 1077.99,-206.24"/>
<polygon fill="black" stroke="black" points="1078.6,-202.78 1068.25,-205.06 1077.76,-209.73 1078.6,-202.78"/>
<text text-anchor="middle" x="1417.93" y="-231.8" font-family="Times,serif" font-size="14.00">imports</text>
</g>
<!-- http___example_org_shapes_foaf&#45;&gt;http___example_org_shapes_dcterms -->
<g id="edge21" class="edge">
<title>http___example_org_shapes_foaf&#45;&gt;http___example_org_shapes_dcterms</title>
<path fill="none" stroke="black" d="M1589.43,-260.8C1589.43,-249.58 1589.43,-234.67 1589.43,-221.69"/>
<polygon fill="black" stroke="black" points="1592.93,-221.98 1589.43,-211.98 1585.93,-221.98 1592.93,-221.98"/>
<text text-anchor="middle" x="1610.93" y="-231.8" font-family="Times,serif" font-size="14.00">imports</text>
</g>
<!-- http___example_org_shapes_skos&#45;&gt;http___www_w3_org_2004_02_skos_core -->
<g id="edge5" class="edge">
<title>http___example_org_shapes_skos&#45;&gt;http___www_w3_org_2004_02_skos_core</title>
<path fill="none" stroke="black" d="M930.74,-262.31C877.74,-248.14 799.61,-227.26 742.98,-212.12"/>
<polygon fill="black" stroke="black" points="743.98,-208.77 733.41,-209.57 742.17,-215.53 743.98,-208.77"/>
<text text-anchor="middle" x="871.93" y="-231.8" font-family="Times,serif" font-size="14.00">imports</text>
</g>
<!-- http___example_org_shapes_skos&#45;&gt;http___example_org_shapes_dcterms -->
<g id="edge22" class="edge">
<title>http___example_org_shapes_skos&#45;&gt;http___example_org_shapes_dcterms</title>
<path fill="none" stroke="black" d="M1088.07,-265.9C1104.54,-264.1 1121.46,-262.39 1137.43,-261 1273.16,-249.22 1309.76,-269.31 1443.43,-243 1476.15,-236.56 1511.57,-224.56 1539.33,-213.93"/>
<polygon fill="black" stroke="black" points="1540.5,-217.23 1548.54,-210.34 1537.96,-210.71 1540.5,-217.23"/>
<text text-anchor="middle" x="1517.93" y="-231.8" font-family="Times,serif" font-size="14.00">imports</text>
</g>
<!-- http___example_org_shapes_vcard&#45;&gt;http___www_w3_org_2006_vcard_ns -->
<g id="edge8" class="edge">
<title>http___example_org_shapes_vcard&#45;&gt;http___www_w3_org_2006_vcard_ns</title>
<path fill="none" stroke="black" d="M1286.18,-260.8C1283.38,-249.47 1279.65,-234.36 1276.42,-221.29"/>
<polygon fill="black" stroke="black" points="1279.91,-220.81 1274.11,-211.94 1273.11,-222.48 1279.91,-220.81"/>
<text text-anchor="middle" x="1302.93" y="-231.8" font-family="Times,serif" font-size="14.00">imports</text>
</g>
</g>
</svg>
