<?xml version="1.0" encoding="UTF-8" standalone="no"?>
<!DOCTYPE svg PUBLIC "-//W3C//DTD SVG 1.1//EN"
 "http://www.w3.org/Graphics/SVG/1.1/DTD/svg11.dtd">
<!-- Generated by graphviz version 7.1.0 (20230121.1956)
 -->
<!-- Title: G Pages: 1 -->
<svg width="3226pt" height="740pt"
 viewBox="0.00 0.00 3226.00 740.00" xmlns="http://www.w3.org/2000/svg" xmlns:xlink="http://www.w3.org/1999/xlink">
<g id="graph0" class="graph" transform="scale(1 1) rotate(0) translate(4 736)">
<title>G</title>
<polygon fill="white" stroke="none" points="-4,4 -4,-736 3222,-736 3222,4 -4,4"/>
<!-- http___example_org_kb -->
<g id="node1" class="node">
<title>http___example_org_kb</title>
<ellipse fill="none" stroke="black" cx="1581.43" cy="-714" rx="106.68" ry="18"/>
<text text-anchor="middle" x="1581.43" y="-710.3" font-family="Times,serif" font-size="14.00">IRI &#45; http://example.org/kb</text>
</g>
<!-- http___example_org_shapes_case_corpora_local -->
<g id="node9" class="node">
<title>http___example_org_shapes_case_corpora_local</title>
<ellipse fill="none" stroke="black" cx="1581.43" cy="-627" rx="188.47" ry="18"/>
<text text-anchor="middle" x="1581.43" y="-623.3" font-family="Times,serif" font-size="14.00">IRI &#45; http://example.org/shapes/case&#45;corpora&#45;local</text>
</g>
<!-- http___example_org_kb&#45;&gt;http___example_org_shapes_case_corpora_local -->
<g id="edge1" class="edge">
<title>http___example_org_kb&#45;&gt;http___example_org_shapes_case_corpora_local</title>
<path fill="none" stroke="black" d="M1581.43,-695.8C1581.43,-684.58 1581.43,-669.67 1581.43,-656.69"/>
<polygon fill="black" stroke="black" points="1584.93,-656.98 1581.43,-646.98 1577.93,-656.98 1584.93,-656.98"/>
<text text-anchor="middle" x="1602.93" y="-666.8" font-family="Times,serif" font-size="14.00">imports</text>
</g>
<!-- http___www_w3_org_2004_02_skos_core -->
<g id="node2" class="node">
<title>http___www_w3_org_2004_02_skos_core</title>
<ellipse fill="none" stroke="black" cx="1090.43" cy="-192" rx="163.57" ry="18"/>
<text text-anchor="middle" x="1090.43" y="-188.3" font-family="Times,serif" font-size="14.00">IRI &#45; http://www.w3.org/2004/02/skos/core</text>
</g>
<!-- http___www_w3_org_2006_vcard_ns -->
<g id="node3" class="node">
<title>http___www_w3_org_2006_vcard_ns</title>
<ellipse fill="none" stroke="black" cx="386.43" cy="-192" rx="149.47" ry="18"/>
<text text-anchor="middle" x="386.43" y="-188.3" font-family="Times,serif" font-size="14.00">IRI &#45; http://www.w3.org/2006/vcard/ns</text>
</g>
<!-- http___www_w3_org_ns_dcat -->
<g id="node4" class="node">
<title>http___www_w3_org_ns_dcat</title>
<ellipse fill="none" stroke="black" cx="933.43" cy="-279" rx="124.28" ry="18"/>
<text text-anchor="middle" x="933.43" y="-275.3" font-family="Times,serif" font-size="14.00">IRI &#45; http://www.w3.org/ns/dcat</text>
</g>
<!-- http___www_w3_org_ns_dcat&#45;&gt;http___www_w3_org_2004_02_skos_core -->
<g id="edge4" class="edge">
<title>http___www_w3_org_ns_dcat&#45;&gt;http___www_w3_org_2004_02_skos_core</title>
<path fill="none" stroke="black" d="M949.9,-260.85C960.85,-250.22 976.02,-236.94 991.43,-228 1001.01,-222.44 1011.62,-217.55 1022.23,-213.33"/>
<polygon fill="black" stroke="black" points="1023.27,-216.67 1031.38,-209.85 1020.79,-210.13 1023.27,-216.67"/>
<text text-anchor="middle" x="1012.93" y="-231.8" font-family="Times,serif" font-size="14.00">imports</text>
</g>
<!-- http___purl_org_dc_terms_ -->
<g id="node25" class="node">
<title>http___purl_org_dc_terms_</title>
<ellipse fill="none" stroke="black" cx="1145.43" cy="-105" rx="115.08" ry="18"/>
<text text-anchor="middle" x="1145.43" y="-101.3" font-family="Times,serif" font-size="14.00">IRI &#45; http://purl.org/dc/terms/</text>
</g>
<!-- http___www_w3_org_ns_dcat&#45;&gt;http___purl_org_dc_terms_ -->
<g id="edge2" class="edge">
<title>http___www_w3_org_ns_dcat&#45;&gt;http___purl_org_dc_terms_</title>
<path fill="none" stroke="black" d="M911.45,-260.85C886.65,-239.42 852.47,-202.15 874.43,-174 895.59,-146.87 976.51,-128.93 1044.46,-118.32"/>
<polygon fill="black" stroke="black" points="1044.82,-121.81 1054.18,-116.85 1043.77,-114.89 1044.82,-121.81"/>
<text text-anchor="middle" x="895.93" y="-188.3" font-family="Times,serif" font-size="14.00">imports</text>
</g>
<!-- http___www_w3_org_ns_prov_o_ -->
<g id="node26" class="node">
<title>http___www_w3_org_ns_prov_o_</title>
<ellipse fill="none" stroke="black" cx="691.43" cy="-192" rx="137.58" ry="18"/>
<text text-anchor="middle" x="691.43" y="-188.3" font-family="Times,serif" font-size="14.00">IRI &#45; http://www.w3.org/ns/prov&#45;o#</text>
</g>
<!-- http___www_w3_org_ns_dcat&#45;&gt;http___www_w3_org_ns_prov_o_ -->
<g id="edge6" class="edge">
<title>http___www_w3_org_ns_dcat&#45;&gt;http___www_w3_org_ns_prov_o_</title>
<path fill="none" stroke="black" d="M873.17,-262.84C852.47,-257.18 829.26,-250.33 808.43,-243 784.72,-234.66 758.98,-223.85 737.69,-214.42"/>
<polygon fill="black" stroke="black" points="739.25,-211.29 728.7,-210.4 736.39,-217.68 739.25,-211.29"/>
<text text-anchor="middle" x="829.93" y="-231.8" font-family="Times,serif" font-size="14.00">imports</text>
</g>
<!-- http___www_w3_org_ns_sosa_ -->
<g id="node5" class="node">
<title>http___www_w3_org_ns_sosa_</title>
<ellipse fill="none" stroke="black" cx="2877.43" cy="-366" rx="127.28" ry="18"/>
<text text-anchor="middle" x="2877.43" y="-362.3" font-family="Times,serif" font-size="14.00">IRI &#45; http://www.w3.org/ns/sosa/</text>
</g>
<!-- https___raw_githubusercontent_com_casework_CASE_Corpora_main_dependencies_sosa_ttl -->
<g id="node23" class="node">
<title>https___raw_githubusercontent_com_casework_CASE_Corpora_main_dependencies_sosa_ttl</title>
<ellipse fill="none" stroke="gray" cx="2877.43" cy="-279" rx="340.64" ry="18"/>
<text text-anchor="middle" x="2877.43" y="-275.3" font-family="Times,serif" font-size="14.00">IRI &#45; https://raw.githubusercontent.com/casework/CASE&#45;Corpora/main/dependencies/sosa.ttl</text>
</g>
<!-- http___www_w3_org_ns_sosa_&#45;&gt;https___raw_githubusercontent_com_casework_CASE_Corpora_main_dependencies_sosa_ttl -->
<g id="edge37" class="edge">
<title>http___www_w3_org_ns_sosa_&#45;&gt;https___raw_githubusercontent_com_casework_CASE_Corpora_main_dependencies_sosa_ttl</title>
<path fill="none" stroke="gray" d="M2877.43,-347.8C2877.43,-336.58 2877.43,-321.67 2877.43,-308.69"/>
<polygon fill="gray" stroke="gray" points="2880.93,-308.98 2877.43,-298.98 2873.93,-308.98 2880.93,-308.98"/>
<text text-anchor="middle" x="2906.43" y="-318.8" font-family="Times,serif" font-size="14.00">versionIRI</text>
</g>
<!-- http___www_w3_org_ns_ssn_ -->
<g id="node6" class="node">
<title>http___www_w3_org_ns_ssn_</title>
<ellipse fill="none" stroke="black" cx="2590.43" cy="-366" rx="123.48" ry="18"/>
<text text-anchor="middle" x="2590.43" y="-362.3" font-family="Times,serif" font-size="14.00">IRI &#45; http://www.w3.org/ns/ssn/</text>
</g>
<!-- http___www_w3_org_ns_ssn_&#45;&gt;https___raw_githubusercontent_com_casework_CASE_Corpora_main_dependencies_sosa_ttl -->
<g id="edge7" class="edge">
<title>http___www_w3_org_ns_ssn_&#45;&gt;https___raw_githubusercontent_com_casework_CASE_Corpora_main_dependencies_sosa_ttl</title>
<path fill="none" stroke="black" d="M2657.8,-350.59C2682.95,-344.78 2711.65,-337.65 2737.43,-330 2765.79,-321.59 2796.83,-310.68 2822.45,-301.21"/>
<polygon fill="black" stroke="black" points="2823.51,-304.55 2831.66,-297.77 2821.07,-297.99 2823.51,-304.55"/>
<text text-anchor="middle" x="2800.93" y="-318.8" font-family="Times,serif" font-size="14.00">imports</text>
</g>
<!-- https___raw_githubusercontent_com_casework_CASE_Corpora_main_dependencies_ssn_ttl -->
<g id="node24" class="node">
<title>https___raw_githubusercontent_com_casework_CASE_Corpora_main_dependencies_ssn_ttl</title>
<ellipse fill="none" stroke="gray" cx="2182.43" cy="-279" rx="336.84" ry="18"/>
<text text-anchor="middle" x="2182.43" y="-275.3" font-family="Times,serif" font-size="14.00">IRI &#45; https://raw.githubusercontent.com/casework/CASE&#45;Corpora/main/dependencies/ssn.ttl</text>
</g>
<!-- http___www_w3_org_ns_ssn_&#45;&gt;https___raw_githubusercontent_com_casework_CASE_Corpora_main_dependencies_ssn_ttl -->
<g id="edge38" class="edge">
<title>http___www_w3_org_ns_ssn_&#45;&gt;https___raw_githubusercontent_com_casework_CASE_Corpora_main_dependencies_ssn_ttl</title>
<path fill="none" stroke="gray" d="M2521.68,-350.68C2453.82,-336.54 2349.62,-314.83 2274.61,-299.2"/>
<polygon fill="gray" stroke="gray" points="2275.75,-295.87 2265.25,-297.25 2274.32,-302.72 2275.75,-295.87"/>
<text text-anchor="middle" x="2439.43" y="-318.8" font-family="Times,serif" font-size="14.00">versionIRI</text>
</g>
<!-- http___xmlns_com_foaf_0_1_ -->
<g id="node7" class="node">
<title>http___xmlns_com_foaf_0_1_</title>
<ellipse fill="none" stroke="black" cx="1396.43" cy="-192" rx="124.28" ry="18"/>
<text text-anchor="middle" x="1396.43" y="-188.3" font-family="Times,serif" font-size="14.00">IRI &#45; http://xmlns.com/foaf/0.1/</text>
</g>
<!-- http___example_org_ontology_case_corpora -->
<g id="node8" class="node">
<title>http___example_org_ontology_case_corpora</title>
<ellipse fill="none" stroke="black" cx="791.43" cy="-366" rx="176.57" ry="18"/>
<text text-anchor="middle" x="791.43" y="-362.3" font-family="Times,serif" font-size="14.00">IRI &#45; http://example.org/ontology/case&#45;corpora</text>
</g>
<!-- http___example_org_ontology_case_corpora&#45;&gt;http___www_w3_org_2006_vcard_ns -->
<g id="edge9" class="edge">
<title>http___example_org_ontology_case_corpora&#45;&gt;http___www_w3_org_2006_vcard_ns</title>
<path fill="none" stroke="black" d="M677.08,-351.96C593.08,-340.59 487.58,-321.99 451.43,-297 424.67,-278.5 406.7,-245.03 396.56,-221.06"/>
<polygon fill="black" stroke="black" points="399.85,-219.87 392.89,-211.88 393.35,-222.47 399.85,-219.87"/>
<text text-anchor="middle" x="472.93" y="-275.3" font-family="Times,serif" font-size="14.00">imports</text>
</g>
<!-- http___example_org_ontology_case_corpora&#45;&gt;http___www_w3_org_ns_dcat -->
<g id="edge11" class="edge">
<title>http___example_org_ontology_case_corpora&#45;&gt;http___www_w3_org_ns_dcat</title>
<path fill="none" stroke="black" d="M820.17,-347.8C841.87,-334.81 871.85,-316.87 895.51,-302.7"/>
<polygon fill="black" stroke="black" points="897.14,-305.8 903.92,-297.66 893.55,-299.8 897.14,-305.8"/>
<text text-anchor="middle" x="892.93" y="-318.8" font-family="Times,serif" font-size="14.00">imports</text>
</g>
<!-- http___example_org_ontology_case_corpora&#45;&gt;http___xmlns_com_foaf_0_1_ -->
<g id="edge13" class="edge">
<title>http___example_org_ontology_case_corpora&#45;&gt;http___xmlns_com_foaf_0_1_</title>
<path fill="none" stroke="black" d="M917.14,-352.98C994.5,-345.11 1080.25,-335.33 1087.43,-330 1114.27,-310.05 1091.85,-282.54 1117.43,-261 1145.03,-237.76 1230.63,-219.06 1299.8,-207.2"/>
<polygon fill="black" stroke="black" points="1299.98,-210.71 1309.26,-205.6 1298.82,-203.81 1299.98,-210.71"/>
<text text-anchor="middle" x="1138.93" y="-275.3" font-family="Times,serif" font-size="14.00">imports</text>
</g>
<!-- http___example_org_ontology_case_corpora&#45;&gt;https___raw_githubusercontent_com_casework_CASE_Corpora_main_dependencies_ssn_ttl -->
<g id="edge16" class="edge">
<title>http___example_org_ontology_case_corpora&#45;&gt;https___raw_githubusercontent_com_casework_CASE_Corpora_main_dependencies_ssn_ttl</title>
<path fill="none" stroke="black" d="M916.7,-352.95C936.99,-351.17 957.79,-349.45 977.43,-348 1157.12,-334.72 1639.19,-308.6 1936.28,-292.88"/>
<polygon fill="black" stroke="black" points="1936.34,-296.38 1946.14,-292.36 1935.97,-289.39 1936.34,-296.38"/>
<text text-anchor="middle" x="1538.93" y="-318.8" font-family="Times,serif" font-size="14.00">imports</text>
</g>
<!-- https___ontology_caseontology_org_case_case_1_1_0 -->
<g id="node27" class="node">
<title>https___ontology_caseontology_org_case_case_1_1_0</title>
<ellipse fill="none" stroke="black" cx="203.43" cy="-279" rx="203.36" ry="18"/>
<text text-anchor="middle" x="203.43" y="-275.3" font-family="Times,serif" font-size="14.00">IRI &#45; https://ontology.caseontology.org/case/case/1.1.0</text>
</g>
<!-- http___example_org_ontology_case_corpora&#45;&gt;https___ontology_caseontology_org_case_case_1_1_0 -->
<g id="edge15" class="edge">
<title>http___example_org_ontology_case_corpora&#45;&gt;https___ontology_caseontology_org_case_case_1_1_0</title>
<path fill="none" stroke="black" d="M631.96,-357.98C556.76,-352.96 466.04,-344.42 385.43,-330 345.12,-322.79 300.79,-310.7 265.98,-300.22"/>
<polygon fill="black" stroke="black" points="267.06,-296.89 256.47,-297.32 265.02,-303.58 267.06,-296.89"/>
<text text-anchor="middle" x="406.93" y="-318.8" font-family="Times,serif" font-size="14.00">imports</text>
</g>
<!-- http___example_org_shapes_case_corpora -->
<g id="node10" class="node">
<title>http___example_org_shapes_case_corpora</title>
<ellipse fill="none" stroke="black" cx="1581.43" cy="-540" rx="168.97" ry="18"/>
<text text-anchor="middle" x="1581.43" y="-536.3" font-family="Times,serif" font-size="14.00">IRI &#45; http://example.org/shapes/case&#45;corpora</text>
</g>
<!-- http___example_org_shapes_case_corpora_local&#45;&gt;http___example_org_shapes_case_corpora -->
<g id="edge18" class="edge">
<title>http___example_org_shapes_case_corpora_local&#45;&gt;http___example_org_shapes_case_corpora</title>
<path fill="none" stroke="black" d="M1581.43,-608.8C1581.43,-597.58 1581.43,-582.67 1581.43,-569.69"/>
<polygon fill="black" stroke="black" points="1584.93,-569.98 1581.43,-559.98 1577.93,-569.98 1584.93,-569.98"/>
<text text-anchor="middle" x="1602.93" y="-579.8" font-family="Times,serif" font-size="14.00">imports</text>
</g>
<!-- http___example_org_shapes_case_corpora&#45;&gt;http___example_org_ontology_case_corpora -->
<g id="edge19" class="edge">
<title>http___example_org_shapes_case_corpora&#45;&gt;http___example_org_ontology_case_corpora</title>
<path fill="none" stroke="black" d="M1494.75,-524.18C1420.83,-511.22 1311.86,-491.33 1217.43,-471 1092.96,-444.2 949.31,-408.03 864.66,-386.17"/>
<polygon fill="black" stroke="black" points="865.65,-382.81 855.09,-383.7 863.9,-389.59 865.65,-382.81"/>
<text text-anchor="middle" x="1238.93" y="-449.3" font-family="Times,serif" font-size="14.00">imports</text>
</g>
<!-- http___example_org_shapes_dcat_us -->
<g id="node14" class="node">
<title>http___example_org_shapes_dcat_us</title>
<ellipse fill="none" stroke="black" cx="1418.43" cy="-453" rx="149.47" ry="18"/>
<text text-anchor="middle" x="1418.43" y="-449.3" font-family="Times,serif" font-size="14.00">IRI &#45; http://example.org/shapes/dcat&#45;us</text>
</g>
<!-- http___example_org_shapes_case_corpora&#45;&gt;http___example_org_shapes_dcat_us -->
<g id="edge20" class="edge">
<title>http___example_org_shapes_case_corpora&#45;&gt;http___example_org_shapes_dcat_us</title>
<path fill="none" stroke="black" d="M1548.84,-522C1523.63,-508.86 1488.52,-490.55 1461.07,-476.24"/>
<polygon fill="black" stroke="black" points="1462.8,-473.19 1452.31,-471.67 1459.56,-479.39 1462.8,-473.19"/>
<text text-anchor="middle" x="1531.93" y="-492.8" font-family="Times,serif" font-size="14.00">imports</text>
</g>
<!-- http___example_org_shapes_owl_abox -->
<g id="node17" class="node">
<title>http___example_org_shapes_owl_abox</title>
<ellipse fill="none" stroke="black" cx="1743.43" cy="-453" rx="157.07" ry="18"/>
<text text-anchor="middle" x="1743.43" y="-449.3" font-family="Times,serif" font-size="14.00">IRI &#45; http://example.org/shapes/owl&#45;abox</text>
</g>
<!-- http___example_org_shapes_case_corpora&#45;&gt;http___example_org_shapes_owl_abox -->
<g id="edge21" class="edge">
<title>http___example_org_shapes_case_corpora&#45;&gt;http___example_org_shapes_owl_abox</title>
<path fill="none" stroke="black" d="M1613.83,-522C1638.88,-508.86 1673.78,-490.55 1701.05,-476.24"/>
<polygon fill="black" stroke="black" points="1702.53,-479.42 1709.75,-471.67 1699.27,-473.22 1702.53,-479.42"/>
<text text-anchor="middle" x="1692.93" y="-492.8" font-family="Times,serif" font-size="14.00">imports</text>
</g>
<!-- http___example_org_shapes_ssn -->
<g id="node21" class="node">
<title>http___example_org_shapes_ssn</title>
<ellipse fill="none" stroke="black" cx="2072.43" cy="-453" rx="135.38" ry="18"/>
<text text-anchor="middle" x="2072.43" y="-449.3" font-family="Times,serif" font-size="14.00">IRI &#45; http://example.org/shapes/ssn</text>
</g>
<!-- http___example_org_shapes_case_corpora&#45;&gt;http___example_org_shapes_ssn -->
<g id="edge22" class="edge">
<title>http___example_org_shapes_case_corpora&#45;&gt;http___example_org_shapes_ssn</title>
<path fill="none" stroke="black" d="M1667.52,-524.1C1755.35,-508.89 1891.14,-485.39 1980.89,-469.85"/>
<polygon fill="black" stroke="black" points="1981.4,-473.31 1990.66,-468.16 1980.2,-466.41 1981.4,-473.31"/>
<text text-anchor="middle" x="1876.93" y="-492.8" font-family="Times,serif" font-size="14.00">imports</text>
</g>
<!-- http___example_org_shapes_dc -->
<g id="node11" class="node">
<title>http___example_org_shapes_dc</title>
<ellipse fill="none" stroke="black" cx="1543.43" cy="-105" rx="131.88" ry="18"/>
<text text-anchor="middle" x="1543.43" y="-101.3" font-family="Times,serif" font-size="14.00">IRI &#45; http://example.org/shapes/dc</text>
</g>
<!-- http___purl_org_dc_elements_1_1_ -->
<g id="node28" class="node">
<title>http___purl_org_dc_elements_1_1_</title>
<ellipse fill="none" stroke="black" cx="1543.43" cy="-18" rx="140.28" ry="18"/>
<text text-anchor="middle" x="1543.43" y="-14.3" font-family="Times,serif" font-size="14.00">IRI &#45; http://purl.org/dc/elements/1.1/</text>
</g>
<!-- http___example_org_shapes_dc&#45;&gt;http___purl_org_dc_elements_1_1_ -->
<g id="edge23" class="edge">
<title>http___example_org_shapes_dc&#45;&gt;http___purl_org_dc_elements_1_1_</title>
<path fill="none" stroke="black" d="M1543.43,-86.8C1543.43,-75.58 1543.43,-60.67 1543.43,-47.69"/>
<polygon fill="black" stroke="black" points="1546.93,-47.98 1543.43,-37.98 1539.93,-47.98 1546.93,-47.98"/>
<text text-anchor="middle" x="1564.93" y="-57.8" font-family="Times,serif" font-size="14.00">imports</text>
</g>
<!-- http___example_org_shapes_dcam -->
<g id="node12" class="node">
<title>http___example_org_shapes_dcam</title>
<ellipse fill="none" stroke="black" cx="1837.43" cy="-105" rx="143.77" ry="18"/>
<text text-anchor="middle" x="1837.43" y="-101.3" font-family="Times,serif" font-size="14.00">IRI &#45; http://example.org/shapes/dcam</text>
</g>
<!-- http___purl_org_dc_dcam_ -->
<g id="node29" class="node">
<title>http___purl_org_dc_dcam_</title>
<ellipse fill="none" stroke="black" cx="1837.43" cy="-18" rx="114.28" ry="18"/>
<text text-anchor="middle" x="1837.43" y="-14.3" font-family="Times,serif" font-size="14.00">IRI &#45; http://purl.org/dc/dcam/</text>
</g>
<!-- http___example_org_shapes_dcam&#45;&gt;http___purl_org_dc_dcam_ -->
<g id="edge24" class="edge">
<title>http___example_org_shapes_dcam&#45;&gt;http___purl_org_dc_dcam_</title>
<path fill="none" stroke="black" d="M1837.43,-86.8C1837.43,-75.58 1837.43,-60.67 1837.43,-47.69"/>
<polygon fill="black" stroke="black" points="1840.93,-47.98 1837.43,-37.98 1833.93,-47.98 1840.93,-47.98"/>
<text text-anchor="middle" x="1858.93" y="-57.8" font-family="Times,serif" font-size="14.00">imports</text>
</g>
<!-- http___example_org_shapes_dcat -->
<g id="node13" class="node">
<title>http___example_org_shapes_dcat</title>
<ellipse fill="none" stroke="black" cx="1124.43" cy="-366" rx="138.38" ry="18"/>
<text text-anchor="middle" x="1124.43" y="-362.3" font-family="Times,serif" font-size="14.00">IRI &#45; http://example.org/shapes/dcat</text>
</g>
<!-- http___example_org_shapes_dcat&#45;&gt;http___www_w3_org_ns_dcat -->
<g id="edge12" class="edge">
<title>http___example_org_shapes_dcat&#45;&gt;http___www_w3_org_ns_dcat</title>
<path fill="none" stroke="black" d="M1086.7,-348.21C1056.38,-334.72 1013.63,-315.69 980.98,-301.16"/>
<polygon fill="black" stroke="black" points="982.71,-298.1 972.15,-297.23 979.86,-304.49 982.71,-298.1"/>
<text text-anchor="middle" x="1061.93" y="-318.8" font-family="Times,serif" font-size="14.00">imports</text>
</g>
<!-- http___example_org_shapes_dcterms -->
<g id="node15" class="node">
<title>http___example_org_shapes_dcterms</title>
<ellipse fill="none" stroke="black" cx="1690.43" cy="-192" rx="152.17" ry="18"/>
<text text-anchor="middle" x="1690.43" y="-188.3" font-family="Times,serif" font-size="14.00">IRI &#45; http://example.org/shapes/dcterms</text>
</g>
<!-- http___example_org_shapes_dcat&#45;&gt;http___example_org_shapes_dcterms -->
<g id="edge25" class="edge">
<title>http___example_org_shapes_dcat&#45;&gt;http___example_org_shapes_dcterms</title>
<path fill="none" stroke="black" d="M1132.11,-347.6C1143.64,-323.72 1167.83,-281.41 1202.43,-261 1218.37,-251.6 1435.78,-223.83 1574.98,-206.83"/>
<polygon fill="black" stroke="black" points="1575.11,-210.34 1584.61,-205.65 1574.26,-203.39 1575.11,-210.34"/>
<text text-anchor="middle" x="1223.93" y="-275.3" font-family="Times,serif" font-size="14.00">imports</text>
</g>
<!-- http___example_org_shapes_foaf -->
<g id="node16" class="node">
<title>http___example_org_shapes_foaf</title>
<ellipse fill="none" stroke="black" cx="1690.43" cy="-279" rx="137.58" ry="18"/>
<text text-anchor="middle" x="1690.43" y="-275.3" font-family="Times,serif" font-size="14.00">IRI &#45; http://example.org/shapes/foaf</text>
</g>
<!-- http___example_org_shapes_dcat&#45;&gt;http___example_org_shapes_foaf -->
<g id="edge28" class="edge">
<title>http___example_org_shapes_dcat&#45;&gt;http___example_org_shapes_foaf</title>
<path fill="none" stroke="black" d="M1221.86,-352.84C1238.71,-351.02 1256.06,-349.31 1272.43,-348 1316.34,-344.48 1632.1,-354.9 1668.43,-330 1675.94,-324.86 1680.91,-316.54 1684.19,-308.16"/>
<polygon fill="black" stroke="black" points="1687.47,-309.39 1687.14,-298.8 1680.79,-307.29 1687.47,-309.39"/>
<text text-anchor="middle" x="1701.93" y="-318.8" font-family="Times,serif" font-size="14.00">imports</text>
</g>
<!-- http___example_org_shapes_vcard -->
<g id="node22" class="node">
<title>http___example_org_shapes_vcard</title>
<ellipse fill="none" stroke="black" cx="647.43" cy="-279" rx="143.77" ry="18"/>
<text text-anchor="middle" x="647.43" y="-275.3" font-family="Times,serif" font-size="14.00">IRI &#45; http://example.org/shapes/vcard</text>
</g>
<!-- http___example_org_shapes_dcat&#45;&gt;http___example_org_shapes_vcard -->
<g id="edge30" class="edge">
<title>http___example_org_shapes_dcat&#45;&gt;http___example_org_shapes_vcard</title>
<path fill="none" stroke="black" d="M1024.02,-353.26C1008.43,-351.47 992.5,-349.67 977.43,-348 901.92,-339.64 881.83,-345.41 807.43,-330 772.03,-322.67 733.3,-310.68 702.82,-300.27"/>
<polygon fill="black" stroke="black" points="704.01,-296.98 693.41,-297.02 701.72,-303.6 704.01,-296.98"/>
<text text-anchor="middle" x="828.93" y="-318.8" font-family="Times,serif" font-size="14.00">imports</text>
</g>
<!-- http___example_org_shapes_dcat_us&#45;&gt;http___example_org_shapes_dcat -->
<g id="edge31" class="edge">
<title>http___example_org_shapes_dcat_us&#45;&gt;http___example_org_shapes_dcat</title>
<path fill="none" stroke="black" d="M1362.79,-435.91C1313.68,-421.71 1242.02,-401 1190.11,-385.99"/>
<polygon fill="black" stroke="black" points="1191.38,-382.71 1180.81,-383.3 1189.44,-389.44 1191.38,-382.71"/>
<text text-anchor="middle" x="1310.93" y="-405.8" font-family="Times,serif" font-size="14.00">imports</text>
</g>
<!-- http___example_org_shapes_pod -->
<g id="node18" class="node">
<title>http___example_org_shapes_pod</title>
<ellipse fill="none" stroke="black" cx="1418.43" cy="-366" rx="137.28" ry="18"/>
<text text-anchor="middle" x="1418.43" y="-362.3" font-family="Times,serif" font-size="14.00">IRI &#45; http://example.org/shapes/pod</text>
</g>
<!-- http___example_org_shapes_dcat_us&#45;&gt;http___example_org_shapes_pod -->
<g id="edge32" class="edge">
<title>http___example_org_shapes_dcat_us&#45;&gt;http___example_org_shapes_pod</title>
<path fill="none" stroke="black" d="M1418.43,-434.8C1418.43,-423.58 1418.43,-408.67 1418.43,-395.69"/>
<polygon fill="black" stroke="black" points="1421.93,-395.98 1418.43,-385.98 1414.93,-395.98 1421.93,-395.98"/>
<text text-anchor="middle" x="1439.93" y="-405.8" font-family="Times,serif" font-size="14.00">imports</text>
</g>
<!-- http___example_org_shapes_skos -->
<g id="node19" class="node">
<title>http___example_org_shapes_skos</title>
<ellipse fill="none" stroke="black" cx="1394.43" cy="-279" rx="139.98" ry="18"/>
<text text-anchor="middle" x="1394.43" y="-275.3" font-family="Times,serif" font-size="14.00">IRI &#45; http://example.org/shapes/skos</text>
</g>
<!-- http___example_org_shapes_dcat_us&#45;&gt;http___example_org_shapes_skos -->
<g id="edge33" class="edge">
<title>http___example_org_shapes_dcat_us&#45;&gt;http___example_org_shapes_skos</title>
<path fill="none" stroke="black" d="M1477.38,-436.17C1529.13,-419.17 1592.17,-388.97 1564.43,-348 1547.44,-322.91 1519.54,-307.08 1491.2,-297.08"/>
<polygon fill="black" stroke="black" points="1492.37,-293.78 1481.78,-294 1490.19,-300.44 1492.37,-293.78"/>
<text text-anchor="middle" x="1592.93" y="-362.3" font-family="Times,serif" font-size="14.00">imports</text>
</g>
<!-- http___example_org_shapes_dcterms&#45;&gt;http___example_org_shapes_dc -->
<g id="edge34" class="edge">
<title>http___example_org_shapes_dcterms&#45;&gt;http___example_org_shapes_dc</title>
<path fill="none" stroke="black" d="M1661.04,-174C1638.5,-160.97 1607.19,-142.87 1582.54,-128.62"/>
<polygon fill="black" stroke="black" points="1584.49,-125.7 1574.09,-123.72 1580.99,-131.76 1584.49,-125.7"/>
<text text-anchor="middle" x="1647.93" y="-144.8" font-family="Times,serif" font-size="14.00">imports</text>
</g>
<!-- http___example_org_shapes_dcterms&#45;&gt;http___example_org_shapes_dcam -->
<g id="edge35" class="edge">
<title>http___example_org_shapes_dcterms&#45;&gt;http___example_org_shapes_dcam</title>
<path fill="none" stroke="black" d="M1719.83,-174C1742.36,-160.97 1773.67,-142.87 1798.32,-128.62"/>
<polygon fill="black" stroke="black" points="1799.87,-131.76 1806.78,-123.72 1796.37,-125.7 1799.87,-131.76"/>
<text text-anchor="middle" x="1793.93" y="-144.8" font-family="Times,serif" font-size="14.00">imports</text>
</g>
<!-- http___example_org_shapes_dcterms&#45;&gt;http___purl_org_dc_terms_ -->
<g id="edge3" class="edge">
<title>http___example_org_shapes_dcterms&#45;&gt;http___purl_org_dc_terms_</title>
<path fill="none" stroke="black" d="M1601.05,-177.06C1500.19,-161.33 1337.05,-135.88 1235.79,-120.09"/>
<polygon fill="black" stroke="black" points="1236.59,-116.67 1226.17,-118.59 1235.51,-123.59 1236.59,-116.67"/>
<text text-anchor="middle" x="1472.93" y="-144.8" font-family="Times,serif" font-size="14.00">imports</text>
</g>
<!-- http___example_org_shapes_foaf&#45;&gt;http___xmlns_com_foaf_0_1_ -->
<g id="edge14" class="edge">
<title>http___example_org_shapes_foaf&#45;&gt;http___xmlns_com_foaf_0_1_</title>
<path fill="none" stroke="black" d="M1594.24,-265.74C1548.71,-259.21 1499.72,-250.91 1478.43,-243 1460.74,-236.43 1442.66,-225.89 1427.99,-216.18"/>
<polygon fill="black" stroke="black" points="1430.37,-213.57 1420.14,-210.82 1426.43,-219.35 1430.37,-213.57"/>
<text text-anchor="middle" x="1499.93" y="-231.8" font-family="Times,serif" font-size="14.00">imports</text>
</g>
<!-- http___example_org_shapes_foaf&#45;&gt;http___example_org_shapes_dcterms -->
<g id="edge26" class="edge">
<title>http___example_org_shapes_foaf&#45;&gt;http___example_org_shapes_dcterms</title>
<path fill="none" stroke="black" d="M1690.43,-260.8C1690.43,-249.58 1690.43,-234.67 1690.43,-221.69"/>
<polygon fill="black" stroke="black" points="1693.93,-221.98 1690.43,-211.98 1686.93,-221.98 1693.93,-221.98"/>
<text text-anchor="middle" x="1711.93" y="-231.8" font-family="Times,serif" font-size="14.00">imports</text>
</g>
<!-- http___example_org_shapes_skos&#45;&gt;http___www_w3_org_2004_02_skos_core -->
<g id="edge5" class="edge">
<title>http___example_org_shapes_skos&#45;&gt;http___www_w3_org_2004_02_skos_core</title>
<path fill="none" stroke="black" d="M1337.61,-262.11C1287.12,-248 1213.2,-227.33 1159.36,-212.27"/>
<polygon fill="black" stroke="black" points="1160.56,-208.97 1149.99,-209.65 1158.67,-215.72 1160.56,-208.97"/>
<text text-anchor="middle" x="1282.93" y="-231.8" font-family="Times,serif" font-size="14.00">imports</text>
</g>
<!-- http___example_org_shapes_skos&#45;&gt;http___example_org_shapes_dcterms -->
<g id="edge27" class="edge">
<title>http___example_org_shapes_skos&#45;&gt;http___example_org_shapes_dcterms</title>
<path fill="none" stroke="black" d="M1452.66,-262.2C1474.28,-256.27 1499,-249.41 1521.43,-243 1555.91,-233.15 1594.23,-221.84 1625.66,-212.47"/>
<polygon fill="black" stroke="black" points="1626.44,-215.89 1635.02,-209.68 1624.43,-209.19 1626.44,-215.89"/>
<text text-anchor="middle" x="1594.93" y="-231.8" font-family="Times,serif" font-size="14.00">imports</text>
</g>
<!-- http___example_org_shapes_sosa -->
<g id="node20" class="node">
<title>http___example_org_shapes_sosa</title>
<ellipse fill="none" stroke="black" cx="2272.43" cy="-366" rx="139.18" ry="18"/>
<text text-anchor="middle" x="2272.43" y="-362.3" font-family="Times,serif" font-size="14.00">IRI &#45; http://example.org/shapes/sosa</text>
</g>
<!-- http___example_org_shapes_sosa&#45;&gt;http___example_org_shapes_foaf -->
<g id="edge29" class="edge">
<title>http___example_org_shapes_sosa&#45;&gt;http___example_org_shapes_foaf</title>
<path fill="none" stroke="black" d="M2182.45,-351.86C2076.49,-336.38 1900.99,-310.75 1790.74,-294.65"/>
<polygon fill="black" stroke="black" points="1791.51,-291.23 1781.11,-293.24 1790.5,-298.15 1791.51,-291.23"/>
<text text-anchor="middle" x="2036.93" y="-318.8" font-family="Times,serif" font-size="14.00">imports</text>
</g>
<!-- http___example_org_shapes_sosa&#45;&gt;https___raw_githubusercontent_com_casework_CASE_Corpora_main_dependencies_sosa_ttl -->
<g id="edge8" class="edge">
<title>http___example_org_shapes_sosa&#45;&gt;https___raw_githubusercontent_com_casework_CASE_Corpora_main_dependencies_sosa_ttl</title>
<path fill="none" stroke="black" d="M2364.32,-352.09C2467.09,-337.65 2634.24,-314.17 2749.7,-297.95"/>
<polygon fill="black" stroke="black" points="2750.14,-301.42 2759.56,-296.56 2749.17,-294.49 2750.14,-301.42"/>
<text text-anchor="middle" x="2631.93" y="-318.8" font-family="Times,serif" font-size="14.00">imports</text>
</g>
<!-- http___example_org_shapes_ssn&#45;&gt;http___example_org_shapes_sosa -->
<g id="edge36" class="edge">
<title>http___example_org_shapes_ssn&#45;&gt;http___example_org_shapes_sosa</title>
<path fill="none" stroke="black" d="M2111.47,-435.41C2143.3,-421.88 2188.46,-402.69 2222.85,-388.07"/>
<polygon fill="black" stroke="black" points="2223.93,-391.42 2231.76,-384.29 2221.19,-384.98 2223.93,-391.42"/>
<text text-anchor="middle" x="2204.93" y="-405.8" font-family="Times,serif" font-size="14.00">imports</text>
</g>
<!-- http___example_org_shapes_ssn&#45;&gt;https___raw_githubusercontent_com_casework_CASE_Corpora_main_dependencies_ssn_ttl -->
<g id="edge17" class="edge">
<title>http___example_org_shapes_ssn&#45;&gt;https___raw_githubusercontent_com_casework_CASE_Corpora_main_dependencies_ssn_ttl</title>
<path fill="none" stroke="black" d="M2069.64,-434.81C2067,-413.01 2065.52,-375.02 2081.43,-348 2092.8,-328.7 2112.06,-313.73 2130.73,-302.81"/>
<polygon fill="black" stroke="black" points="2132.3,-305.94 2139.37,-298.04 2128.92,-299.81 2132.3,-305.94"/>
<text text-anchor="middle" x="2102.93" y="-362.3" font-family="Times,serif" font-size="14.00">imports</text>
</g>
<!-- http___example_org_shapes_vcard&#45;&gt;http___www_w3_org_2006_vcard_ns -->
<g id="edge10" class="edge">
<title>http___example_org_shapes_vcard&#45;&gt;http___www_w3_org_2006_vcard_ns</title>
<path fill="none" stroke="black" d="M597.42,-261.71C554.75,-247.82 493.26,-227.79 447.66,-212.94"/>
<polygon fill="black" stroke="black" points="448.75,-209.62 438.16,-209.85 446.59,-216.27 448.75,-209.62"/>
<text text-anchor="middle" x="554.93" y="-231.8" font-family="Times,serif" font-size="14.00">imports</text>
</g>
</g>
</svg>
