<?xml version="1.0" encoding="UTF-8" standalone="no"?>
<!DOCTYPE svg PUBLIC "-//W3C//DTD SVG 1.1//EN"
 "http://www.w3.org/Graphics/SVG/1.1/DTD/svg11.dtd">
<!-- Generated by graphviz version 7.1.0 (20230121.1956)
 -->
<!-- Title: G Pages: 1 -->
<svg width="5150pt" height="740pt"
 viewBox="0.00 0.00 5150.21 740.00" xmlns="http://www.w3.org/2000/svg" xmlns:xlink="http://www.w3.org/1999/xlink">
<g id="graph0" class="graph" transform="scale(1 1) rotate(0) translate(4 736)">
<title>G</title>
<polygon fill="white" stroke="none" points="-4,4 -4,-736 5146.21,-736 5146.21,4 -4,4"/>
<!-- http___example_org_kb -->
<g id="node1" class="node">
<title>http___example_org_kb</title>
<ellipse fill="none" stroke="black" cx="2228.64" cy="-714" rx="106.68" ry="18"/>
<text text-anchor="middle" x="2228.64" y="-710.3" font-family="Times,serif" font-size="14.00">IRI &#45; http://example.org/kb</text>
</g>
<!-- http___example_org_shapes_case_corpora_local -->
<g id="node13" class="node">
<title>http___example_org_shapes_case_corpora_local</title>
<ellipse fill="none" stroke="black" cx="2228.64" cy="-627" rx="188.47" ry="18"/>
<text text-anchor="middle" x="2228.64" y="-623.3" font-family="Times,serif" font-size="14.00">IRI &#45; http://example.org/shapes/case&#45;corpora&#45;local</text>
</g>
<!-- http___example_org_kb&#45;&gt;http___example_org_shapes_case_corpora_local -->
<g id="edge1" class="edge">
<title>http___example_org_kb&#45;&gt;http___example_org_shapes_case_corpora_local</title>
<path fill="none" stroke="black" d="M2228.64,-695.8C2228.64,-684.58 2228.64,-669.67 2228.64,-656.69"/>
<polygon fill="black" stroke="black" points="2232.14,-656.98 2228.64,-646.98 2225.14,-656.98 2232.14,-656.98"/>
<text text-anchor="middle" x="2250.14" y="-666.8" font-family="Times,serif" font-size="14.00">imports</text>
</g>
<!-- http___purl_org_spar_cito -->
<g id="node2" class="node">
<title>http___purl_org_spar_cito</title>
<ellipse fill="none" stroke="black" cx="3380.64" cy="-366" rx="112.38" ry="18"/>
<text text-anchor="middle" x="3380.64" y="-362.3" font-family="Times,serif" font-size="14.00">IRI &#45; http://purl.org/spar/cito</text>
</g>
<!-- http___www_ontologydesignpatterns_org_cp_owl_situation_owl -->
<g id="node4" class="node">
<title>http___www_ontologydesignpatterns_org_cp_owl_situation_owl</title>
<ellipse fill="none" stroke="black" cx="3399.64" cy="-192" rx="243.16" ry="18"/>
<text text-anchor="middle" x="3399.64" y="-188.3" font-family="Times,serif" font-size="14.00">IRI &#45; http://www.ontologydesignpatterns.org/cp/owl/situation.owl</text>
</g>
<!-- http___purl_org_spar_cito&#45;&gt;http___www_ontologydesignpatterns_org_cp_owl_situation_owl -->
<g id="edge2" class="edge">
<title>http___purl_org_spar_cito&#45;&gt;http___www_ontologydesignpatterns_org_cp_owl_situation_owl</title>
<path fill="none" stroke="black" d="M3381.82,-347.67C3383.3,-327 3386.09,-291.42 3389.64,-261 3391.15,-248.02 3393.2,-233.71 3395.05,-221.57"/>
<polygon fill="black" stroke="black" points="3398.49,-222.21 3396.57,-211.79 3391.57,-221.13 3398.49,-222.21"/>
<text text-anchor="middle" x="3411.14" y="-275.3" font-family="Times,serif" font-size="14.00">imports</text>
</g>
<!-- http___purl_org_spar_cito_2018_02_16 -->
<g id="node31" class="node">
<title>http___purl_org_spar_cito_2018_02_16</title>
<ellipse fill="none" stroke="gray" cx="1979.64" cy="-279" rx="155.17" ry="18"/>
<text text-anchor="middle" x="1979.64" y="-275.3" font-family="Times,serif" font-size="14.00">IRI &#45; http://purl.org/spar/cito/2018&#45;02&#45;16</text>
</g>
<!-- http___purl_org_spar_cito&#45;&gt;http___purl_org_spar_cito_2018_02_16 -->
<g id="edge51" class="edge">
<title>http___purl_org_spar_cito&#45;&gt;http___purl_org_spar_cito_2018_02_16</title>
<path fill="none" stroke="gray" d="M3294.33,-354.17C3196.4,-342.36 3031.81,-323.94 2889.64,-315 2558.64,-294.18 2474.62,-318.11 2143.64,-297 2128.93,-296.06 2113.5,-294.81 2098.23,-293.42"/>
<polygon fill="gray" stroke="gray" points="2098.95,-289.97 2088.67,-292.52 2098.3,-296.94 2098.95,-289.97"/>
<text text-anchor="middle" x="3093.64" y="-318.8" font-family="Times,serif" font-size="14.00">versionIRI</text>
</g>
<!-- http___purl_org_spar_cito_2018_02_12 -->
<g id="node40" class="node">
<title>http___purl_org_spar_cito_2018_02_12</title>
<ellipse fill="none" stroke="black" cx="3596.64" cy="-279" rx="155.17" ry="18"/>
<text text-anchor="middle" x="3596.64" y="-275.3" font-family="Times,serif" font-size="14.00">IRI &#45; http://purl.org/spar/cito/2018&#45;02&#45;12</text>
</g>
<!-- http___purl_org_spar_cito&#45;&gt;http___purl_org_spar_cito_2018_02_12 -->
<g id="edge50" class="edge">
<title>http___purl_org_spar_cito&#45;&gt;http___purl_org_spar_cito_2018_02_12</title>
<path fill="none" stroke="gray" stroke-dasharray="5,2" d="M3421.77,-348.81C3456.46,-335.16 3506.31,-315.55 3543.92,-300.75"/>
<polygon fill="gray" stroke="gray" points="3544.75,-304.18 3552.77,-297.26 3542.18,-297.67 3544.75,-304.18"/>
<text text-anchor="middle" x="3534.64" y="-318.8" font-family="Times,serif" font-size="14.00">priorVersion</text>
</g>
<!-- http___purl_org_swan_2_0_discourse_relationships_ -->
<g id="node3" class="node">
<title>http___purl_org_swan_2_0_discourse_relationships_</title>
<ellipse fill="none" stroke="black" cx="2818.64" cy="-279" rx="199.56" ry="18"/>
<text text-anchor="middle" x="2818.64" y="-275.3" font-family="Times,serif" font-size="14.00">IRI &#45; http://purl.org/swan/2.0/discourse&#45;relationships/</text>
</g>
<!-- https___raw_githubusercontent_com_casework_CASE_Corpora_main_dependencies_discourse_relationships_ttl -->
<g id="node32" class="node">
<title>https___raw_githubusercontent_com_casework_CASE_Corpora_main_dependencies_discourse_relationships_ttl</title>
<ellipse fill="none" stroke="gray" cx="2732.64" cy="-192" rx="406.43" ry="18"/>
<text text-anchor="middle" x="2732.64" y="-188.3" font-family="Times,serif" font-size="14.00">IRI &#45; https://raw.githubusercontent.com/casework/CASE&#45;Corpora/main/dependencies/discourse&#45;relationships.ttl</text>
</g>
<!-- http___purl_org_swan_2_0_discourse_relationships_&#45;&gt;https___raw_githubusercontent_com_casework_CASE_Corpora_main_dependencies_discourse_relationships_ttl -->
<g id="edge52" class="edge">
<title>http___purl_org_swan_2_0_discourse_relationships_&#45;&gt;https___raw_githubusercontent_com_casework_CASE_Corpora_main_dependencies_discourse_relationships_ttl</title>
<path fill="none" stroke="gray" d="M2801.23,-260.8C2788.96,-248.67 2772.31,-232.21 2758.49,-218.55"/>
<polygon fill="gray" stroke="gray" points="2760.96,-216.07 2751.39,-211.53 2756.04,-221.05 2760.96,-216.07"/>
<text text-anchor="middle" x="2809.64" y="-231.8" font-family="Times,serif" font-size="14.00">versionIRI</text>
</g>
<!-- http___www_ontologydesignpatterns_org_schemas_cpannotationschema_owl -->
<g id="node5" class="node">
<title>http___www_ontologydesignpatterns_org_schemas_cpannotationschema_owl</title>
<ellipse fill="none" stroke="black" cx="3628.64" cy="-105" rx="291.35" ry="18"/>
<text text-anchor="middle" x="3628.64" y="-101.3" font-family="Times,serif" font-size="14.00">IRI &#45; http://www.ontologydesignpatterns.org/schemas/cpannotationschema.owl</text>
</g>
<!-- http___www_ontologydesignpatterns_org_cp_owl_situation_owl&#45;&gt;http___www_ontologydesignpatterns_org_schemas_cpannotationschema_owl -->
<g id="edge4" class="edge">
<title>http___www_ontologydesignpatterns_org_cp_owl_situation_owl&#45;&gt;http___www_ontologydesignpatterns_org_schemas_cpannotationschema_owl</title>
<path fill="none" stroke="black" d="M3445.7,-173.9C3482,-160.43 3532.78,-141.58 3571.63,-127.16"/>
<polygon fill="black" stroke="black" points="3572.68,-130.5 3580.83,-123.74 3570.24,-123.94 3572.68,-130.5"/>
<text text-anchor="middle" x="3549.14" y="-144.8" font-family="Times,serif" font-size="14.00">imports</text>
</g>
<!-- http___www_w3_org_2004_02_skos_core -->
<g id="node6" class="node">
<title>http___www_w3_org_2004_02_skos_core</title>
<ellipse fill="none" stroke="black" cx="523.64" cy="-192" rx="163.57" ry="18"/>
<text text-anchor="middle" x="523.64" y="-188.3" font-family="Times,serif" font-size="14.00">IRI &#45; http://www.w3.org/2004/02/skos/core</text>
</g>
<!-- http___www_w3_org_2006_vcard_ns -->
<g id="node7" class="node">
<title>http___www_w3_org_2006_vcard_ns</title>
<ellipse fill="none" stroke="black" cx="183.64" cy="-192" rx="149.47" ry="18"/>
<text text-anchor="middle" x="183.64" y="-188.3" font-family="Times,serif" font-size="14.00">IRI &#45; http://www.w3.org/2006/vcard/ns</text>
</g>
<!-- http___www_w3_org_ns_dcat -->
<g id="node8" class="node">
<title>http___www_w3_org_ns_dcat</title>
<ellipse fill="none" stroke="black" cx="885.64" cy="-279" rx="124.28" ry="18"/>
<text text-anchor="middle" x="885.64" y="-275.3" font-family="Times,serif" font-size="14.00">IRI &#45; http://www.w3.org/ns/dcat</text>
</g>
<!-- http___www_w3_org_ns_dcat&#45;&gt;http___www_w3_org_2004_02_skos_core -->
<g id="edge8" class="edge">
<title>http___www_w3_org_ns_dcat&#45;&gt;http___www_w3_org_2004_02_skos_core</title>
<path fill="none" stroke="black" d="M822.17,-263.1C760.92,-248.72 668.05,-226.91 602.18,-211.44"/>
<polygon fill="black" stroke="black" points="603.04,-208.05 592.5,-209.17 601.44,-214.86 603.04,-208.05"/>
<text text-anchor="middle" x="748.14" y="-231.8" font-family="Times,serif" font-size="14.00">imports</text>
</g>
<!-- http___purl_org_dc_terms_ -->
<g id="node35" class="node">
<title>http___purl_org_dc_terms_</title>
<ellipse fill="none" stroke="black" cx="1353.64" cy="-105" rx="115.08" ry="18"/>
<text text-anchor="middle" x="1353.64" y="-101.3" font-family="Times,serif" font-size="14.00">IRI &#45; http://purl.org/dc/terms/</text>
</g>
<!-- http___www_w3_org_ns_dcat&#45;&gt;http___purl_org_dc_terms_ -->
<g id="edge6" class="edge">
<title>http___www_w3_org_ns_dcat&#45;&gt;http___purl_org_dc_terms_</title>
<path fill="none" stroke="black" d="M973.18,-265.91C988.32,-264.08 1003.92,-262.35 1018.64,-261 1054.21,-257.73 1313.81,-267.67 1339.64,-243 1368.46,-215.47 1365.68,-165.7 1360.24,-134.33"/>
<polygon fill="black" stroke="black" points="1363.72,-133.92 1358.37,-124.78 1356.85,-135.26 1363.72,-133.92"/>
<text text-anchor="middle" x="1386.14" y="-188.3" font-family="Times,serif" font-size="14.00">imports</text>
</g>
<!-- http___www_w3_org_ns_prov_o_ -->
<g id="node36" class="node">
<title>http___www_w3_org_ns_prov_o_</title>
<ellipse fill="none" stroke="black" cx="857.64" cy="-192" rx="137.58" ry="18"/>
<text text-anchor="middle" x="857.64" y="-188.3" font-family="Times,serif" font-size="14.00">IRI &#45; http://www.w3.org/ns/prov&#45;o#</text>
</g>
<!-- http___www_w3_org_ns_dcat&#45;&gt;http___www_w3_org_ns_prov_o_ -->
<g id="edge10" class="edge">
<title>http___www_w3_org_ns_dcat&#45;&gt;http___www_w3_org_ns_prov_o_</title>
<path fill="none" stroke="black" d="M879.97,-260.8C876.24,-249.47 871.26,-234.36 866.96,-221.29"/>
<polygon fill="black" stroke="black" points="870.32,-220.31 863.86,-211.9 863.67,-222.5 870.32,-220.31"/>
<text text-anchor="middle" x="895.14" y="-231.8" font-family="Times,serif" font-size="14.00">imports</text>
</g>
<!-- http___www_w3_org_ns_sosa_ -->
<g id="node9" class="node">
<title>http___www_w3_org_ns_sosa_</title>
<ellipse fill="none" stroke="black" cx="4801.64" cy="-366" rx="127.28" ry="18"/>
<text text-anchor="middle" x="4801.64" y="-362.3" font-family="Times,serif" font-size="14.00">IRI &#45; http://www.w3.org/ns/sosa/</text>
</g>
<!-- https___raw_githubusercontent_com_casework_CASE_Corpora_main_dependencies_sosa_ttl -->
<g id="node33" class="node">
<title>https___raw_githubusercontent_com_casework_CASE_Corpora_main_dependencies_sosa_ttl</title>
<ellipse fill="none" stroke="gray" cx="4801.64" cy="-279" rx="340.64" ry="18"/>
<text text-anchor="middle" x="4801.64" y="-275.3" font-family="Times,serif" font-size="14.00">IRI &#45; https://raw.githubusercontent.com/casework/CASE&#45;Corpora/main/dependencies/sosa.ttl</text>
</g>
<!-- http___www_w3_org_ns_sosa_&#45;&gt;https___raw_githubusercontent_com_casework_CASE_Corpora_main_dependencies_sosa_ttl -->
<g id="edge53" class="edge">
<title>http___www_w3_org_ns_sosa_&#45;&gt;https___raw_githubusercontent_com_casework_CASE_Corpora_main_dependencies_sosa_ttl</title>
<path fill="none" stroke="gray" d="M4801.64,-347.8C4801.64,-336.58 4801.64,-321.67 4801.64,-308.69"/>
<polygon fill="gray" stroke="gray" points="4805.14,-308.98 4801.64,-298.98 4798.14,-308.98 4805.14,-308.98"/>
<text text-anchor="middle" x="4830.64" y="-318.8" font-family="Times,serif" font-size="14.00">versionIRI</text>
</g>
<!-- http___www_w3_org_ns_ssn_ -->
<g id="node10" class="node">
<title>http___www_w3_org_ns_ssn_</title>
<ellipse fill="none" stroke="black" cx="4271.64" cy="-366" rx="123.48" ry="18"/>
<text text-anchor="middle" x="4271.64" y="-362.3" font-family="Times,serif" font-size="14.00">IRI &#45; http://www.w3.org/ns/ssn/</text>
</g>
<!-- http___www_w3_org_ns_ssn_&#45;&gt;https___raw_githubusercontent_com_casework_CASE_Corpora_main_dependencies_sosa_ttl -->
<g id="edge11" class="edge">
<title>http___www_w3_org_ns_ssn_&#45;&gt;https___raw_githubusercontent_com_casework_CASE_Corpora_main_dependencies_sosa_ttl</title>
<path fill="none" stroke="black" d="M4352.42,-352.04C4441.66,-337.73 4586.06,-314.57 4686.99,-298.39"/>
<polygon fill="black" stroke="black" points="4687.33,-301.88 4696.65,-296.84 4686.23,-294.96 4687.33,-301.88"/>
<text text-anchor="middle" x="4589.14" y="-318.8" font-family="Times,serif" font-size="14.00">imports</text>
</g>
<!-- https___raw_githubusercontent_com_casework_CASE_Corpora_main_dependencies_ssn_ttl -->
<g id="node34" class="node">
<title>https___raw_githubusercontent_com_casework_CASE_Corpora_main_dependencies_ssn_ttl</title>
<ellipse fill="none" stroke="gray" cx="4106.64" cy="-279" rx="336.84" ry="18"/>
<text text-anchor="middle" x="4106.64" y="-275.3" font-family="Times,serif" font-size="14.00">IRI &#45; https://raw.githubusercontent.com/casework/CASE&#45;Corpora/main/dependencies/ssn.ttl</text>
</g>
<!-- http___www_w3_org_ns_ssn_&#45;&gt;https___raw_githubusercontent_com_casework_CASE_Corpora_main_dependencies_ssn_ttl -->
<g id="edge54" class="edge">
<title>http___www_w3_org_ns_ssn_&#45;&gt;https___raw_githubusercontent_com_casework_CASE_Corpora_main_dependencies_ssn_ttl</title>
<path fill="none" stroke="gray" d="M4239.04,-348.21C4213.61,-335.11 4178.05,-316.79 4150.19,-302.43"/>
<polygon fill="gray" stroke="gray" points="4152.14,-299.5 4141.65,-298.04 4148.93,-305.73 4152.14,-299.5"/>
<text text-anchor="middle" x="4227.64" y="-318.8" font-family="Times,serif" font-size="14.00">versionIRI</text>
</g>
<!-- http___xmlns_com_foaf_0_1_ -->
<g id="node11" class="node">
<title>http___xmlns_com_foaf_0_1_</title>
<ellipse fill="none" stroke="black" cx="1636.64" cy="-192" rx="124.28" ry="18"/>
<text text-anchor="middle" x="1636.64" y="-188.3" font-family="Times,serif" font-size="14.00">IRI &#45; http://xmlns.com/foaf/0.1/</text>
</g>
<!-- http___example_org_ontology_case_corpora -->
<g id="node12" class="node">
<title>http___example_org_ontology_case_corpora</title>
<ellipse fill="none" stroke="black" cx="1763.64" cy="-366" rx="176.57" ry="18"/>
<text text-anchor="middle" x="1763.64" y="-362.3" font-family="Times,serif" font-size="14.00">IRI &#45; http://example.org/ontology/case&#45;corpora</text>
</g>
<!-- http___example_org_ontology_case_corpora&#45;&gt;http___www_w3_org_2006_vcard_ns -->
<g id="edge15" class="edge">
<title>http___example_org_ontology_case_corpora&#45;&gt;http___www_w3_org_2006_vcard_ns</title>
<path fill="none" stroke="black" d="M1599.46,-359.09C1379.39,-351.1 1000.35,-337.02 861.64,-330 846.93,-329.26 346.06,-303.06 332.64,-297 312.01,-287.69 314.46,-274.94 296.64,-261 274.68,-243.83 248.06,-227.62 226.17,-215.33"/>
<polygon fill="black" stroke="black" points="227.93,-212.31 217.49,-210.53 224.55,-218.43 227.93,-212.31"/>
<text text-anchor="middle" x="354.14" y="-275.3" font-family="Times,serif" font-size="14.00">imports</text>
</g>
<!-- http___example_org_ontology_case_corpora&#45;&gt;http___www_w3_org_ns_dcat -->
<g id="edge17" class="edge">
<title>http___example_org_ontology_case_corpora&#45;&gt;http___www_w3_org_ns_dcat</title>
<path fill="none" stroke="black" d="M1601.12,-358.69C1375.05,-349.79 991.46,-334.16 976.64,-330 956.18,-324.26 935.27,-313.21 918.66,-302.95"/>
<polygon fill="black" stroke="black" points="921,-300.29 910.69,-297.86 917.24,-306.19 921,-300.29"/>
<text text-anchor="middle" x="998.14" y="-318.8" font-family="Times,serif" font-size="14.00">imports</text>
</g>
<!-- http___example_org_ontology_case_corpora&#45;&gt;http___xmlns_com_foaf_0_1_ -->
<g id="edge19" class="edge">
<title>http___example_org_ontology_case_corpora&#45;&gt;http___xmlns_com_foaf_0_1_</title>
<path fill="none" stroke="black" d="M1762.82,-347.61C1761.02,-325.6 1755.23,-287.38 1736.64,-261 1723.04,-241.71 1702.11,-226.25 1682.9,-214.97"/>
<polygon fill="black" stroke="black" points="1684.81,-212.03 1674.38,-210.2 1681.39,-218.14 1684.81,-212.03"/>
<text text-anchor="middle" x="1775.14" y="-275.3" font-family="Times,serif" font-size="14.00">imports</text>
</g>
<!-- http___example_org_ontology_case_corpora&#45;&gt;http___purl_org_spar_cito_2018_02_16 -->
<g id="edge13" class="edge">
<title>http___example_org_ontology_case_corpora&#45;&gt;http___purl_org_spar_cito_2018_02_16</title>
<path fill="none" stroke="black" d="M1837.47,-349.29C1856.76,-344.14 1877.28,-337.72 1895.64,-330 1912.83,-322.77 1930.75,-312.53 1945.6,-303.2"/>
<polygon fill="black" stroke="black" points="1947.08,-306.41 1953.6,-298.06 1943.29,-300.52 1947.08,-306.41"/>
<text text-anchor="middle" x="1946.14" y="-318.8" font-family="Times,serif" font-size="14.00">imports</text>
</g>
<!-- http___example_org_ontology_case_corpora&#45;&gt;https___raw_githubusercontent_com_casework_CASE_Corpora_main_dependencies_ssn_ttl -->
<g id="edge22" class="edge">
<title>http___example_org_ontology_case_corpora&#45;&gt;https___raw_githubusercontent_com_casework_CASE_Corpora_main_dependencies_ssn_ttl</title>
<path fill="none" stroke="black" d="M1923,-358C2008.56,-354.48 2115.84,-350.45 2211.64,-348 2816.38,-332.53 2968.55,-362.22 3572.64,-330 3703.3,-323.03 3851.42,-308.65 3958.46,-297.09"/>
<polygon fill="black" stroke="black" points="3958.6,-300.59 3968.17,-296.03 3957.85,-293.63 3958.6,-300.59"/>
<text text-anchor="middle" x="3785.14" y="-318.8" font-family="Times,serif" font-size="14.00">imports</text>
</g>
<!-- https___ontology_caseontology_org_case_case_1_1_0 -->
<g id="node37" class="node">
<title>https___ontology_caseontology_org_case_case_1_1_0</title>
<ellipse fill="none" stroke="black" cx="1524.64" cy="-279" rx="203.36" ry="18"/>
<text text-anchor="middle" x="1524.64" y="-275.3" font-family="Times,serif" font-size="14.00">IRI &#45; https://ontology.caseontology.org/case/case/1.1.0</text>
</g>
<!-- http___example_org_ontology_case_corpora&#45;&gt;https___ontology_caseontology_org_case_case_1_1_0 -->
<g id="edge21" class="edge">
<title>http___example_org_ontology_case_corpora&#45;&gt;https___ontology_caseontology_org_case_case_1_1_0</title>
<path fill="none" stroke="black" d="M1716.42,-348.21C1678.08,-334.57 1623.84,-315.28 1582.83,-300.69"/>
<polygon fill="black" stroke="black" points="1584.19,-297.46 1573.59,-297.41 1581.84,-304.06 1584.19,-297.46"/>
<text text-anchor="middle" x="1680.14" y="-318.8" font-family="Times,serif" font-size="14.00">imports</text>
</g>
<!-- http___example_org_shapes_case_corpora -->
<g id="node14" class="node">
<title>http___example_org_shapes_case_corpora</title>
<ellipse fill="none" stroke="black" cx="2228.64" cy="-540" rx="168.97" ry="18"/>
<text text-anchor="middle" x="2228.64" y="-536.3" font-family="Times,serif" font-size="14.00">IRI &#45; http://example.org/shapes/case&#45;corpora</text>
</g>
<!-- http___example_org_shapes_case_corpora_local&#45;&gt;http___example_org_shapes_case_corpora -->
<g id="edge24" class="edge">
<title>http___example_org_shapes_case_corpora_local&#45;&gt;http___example_org_shapes_case_corpora</title>
<path fill="none" stroke="black" d="M2228.64,-608.8C2228.64,-597.58 2228.64,-582.67 2228.64,-569.69"/>
<polygon fill="black" stroke="black" points="2232.14,-569.98 2228.64,-559.98 2225.14,-569.98 2232.14,-569.98"/>
<text text-anchor="middle" x="2250.14" y="-579.8" font-family="Times,serif" font-size="14.00">imports</text>
</g>
<!-- http___example_org_shapes_case_corpora&#45;&gt;http___example_org_ontology_case_corpora -->
<g id="edge25" class="edge">
<title>http___example_org_shapes_case_corpora&#45;&gt;http___example_org_ontology_case_corpora</title>
<path fill="none" stroke="black" d="M2183.2,-522.19C2097.69,-490.56 1913.07,-422.28 1819.88,-387.8"/>
<polygon fill="black" stroke="black" points="1821.27,-384.59 1810.67,-384.4 1818.84,-391.15 1821.27,-384.59"/>
<text text-anchor="middle" x="2064.14" y="-449.3" font-family="Times,serif" font-size="14.00">imports</text>
</g>
<!-- http___example_org_shapes_cito -->
<g id="node15" class="node">
<title>http___example_org_shapes_cito</title>
<ellipse fill="none" stroke="black" cx="2357.64" cy="-366" rx="137.28" ry="18"/>
<text text-anchor="middle" x="2357.64" y="-362.3" font-family="Times,serif" font-size="14.00">IRI &#45; http://example.org/shapes/cito</text>
</g>
<!-- http___example_org_shapes_case_corpora&#45;&gt;http___example_org_shapes_cito -->
<g id="edge26" class="edge">
<title>http___example_org_shapes_case_corpora&#45;&gt;http___example_org_shapes_cito</title>
<path fill="none" stroke="black" d="M2225.52,-521.61C2222.54,-499.6 2220.7,-461.38 2237.64,-435 2251.32,-413.69 2274.17,-398.38 2296.29,-387.76"/>
<polygon fill="black" stroke="black" points="2297.65,-390.98 2305.32,-383.68 2294.77,-384.6 2297.65,-390.98"/>
<text text-anchor="middle" x="2259.14" y="-449.3" font-family="Times,serif" font-size="14.00">imports</text>
</g>
<!-- http___example_org_shapes_dcat_us -->
<g id="node20" class="node">
<title>http___example_org_shapes_dcat_us</title>
<ellipse fill="none" stroke="black" cx="1110.64" cy="-453" rx="149.47" ry="18"/>
<text text-anchor="middle" x="1110.64" y="-449.3" font-family="Times,serif" font-size="14.00">IRI &#45; http://example.org/shapes/dcat&#45;us</text>
</g>
<!-- http___example_org_shapes_case_corpora&#45;&gt;http___example_org_shapes_dcat_us -->
<g id="edge27" class="edge">
<title>http___example_org_shapes_case_corpora&#45;&gt;http___example_org_shapes_dcat_us</title>
<path fill="none" stroke="black" d="M2094.06,-528.77C1879.21,-512.43 1461.06,-480.64 1245.83,-464.28"/>
<polygon fill="black" stroke="black" points="1246.22,-460.8 1235.98,-463.53 1245.69,-467.78 1246.22,-460.8"/>
<text text-anchor="middle" x="1758.14" y="-492.8" font-family="Times,serif" font-size="14.00">imports</text>
</g>
<!-- http___example_org_shapes_owl_abox -->
<g id="node24" class="node">
<title>http___example_org_shapes_owl_abox</title>
<ellipse fill="none" stroke="black" cx="2446.64" cy="-453" rx="157.07" ry="18"/>
<text text-anchor="middle" x="2446.64" y="-449.3" font-family="Times,serif" font-size="14.00">IRI &#45; http://example.org/shapes/owl&#45;abox</text>
</g>
<!-- http___example_org_shapes_case_corpora&#45;&gt;http___example_org_shapes_owl_abox -->
<g id="edge28" class="edge">
<title>http___example_org_shapes_case_corpora&#45;&gt;http___example_org_shapes_owl_abox</title>
<path fill="none" stroke="black" d="M2271.71,-522.21C2306.49,-508.64 2355.63,-489.49 2392.97,-474.93"/>
<polygon fill="black" stroke="black" points="2394.2,-478.2 2402.25,-471.31 2391.66,-471.68 2394.2,-478.2"/>
<text text-anchor="middle" x="2373.14" y="-492.8" font-family="Times,serif" font-size="14.00">imports</text>
</g>
<!-- http___example_org_shapes_ssn -->
<g id="node29" class="node">
<title>http___example_org_shapes_ssn</title>
<ellipse fill="none" stroke="black" cx="3840.64" cy="-453" rx="135.38" ry="18"/>
<text text-anchor="middle" x="3840.64" y="-449.3" font-family="Times,serif" font-size="14.00">IRI &#45; http://example.org/shapes/ssn</text>
</g>
<!-- http___example_org_shapes_case_corpora&#45;&gt;http___example_org_shapes_ssn -->
<g id="edge29" class="edge">
<title>http___example_org_shapes_case_corpora&#45;&gt;http___example_org_shapes_ssn</title>
<path fill="none" stroke="black" d="M2377.4,-531.16C2688.96,-514.73 3405.94,-476.92 3705.38,-461.13"/>
<polygon fill="black" stroke="black" points="3705.41,-464.64 3715.21,-460.61 3705.04,-457.65 3705.41,-464.64"/>
<text text-anchor="middle" x="3152.14" y="-492.8" font-family="Times,serif" font-size="14.00">imports</text>
</g>
<!-- http___example_org_shapes_dc -->
<g id="node17" class="node">
<title>http___example_org_shapes_dc</title>
<ellipse fill="none" stroke="black" cx="1948.64" cy="-105" rx="131.88" ry="18"/>
<text text-anchor="middle" x="1948.64" y="-101.3" font-family="Times,serif" font-size="14.00">IRI &#45; http://example.org/shapes/dc</text>
</g>
<!-- http___example_org_shapes_cito&#45;&gt;http___example_org_shapes_dc -->
<g id="edge30" class="edge">
<title>http___example_org_shapes_cito&#45;&gt;http___example_org_shapes_dc</title>
<path fill="none" stroke="black" d="M2449.99,-352.3C2525.13,-338.12 2612.55,-310.39 2571.64,-261 2557.93,-244.45 2497.71,-247.18 2476.64,-243 2405.85,-228.95 2387.75,-227.13 2317.64,-210 2209.4,-183.55 2084.93,-147.22 2011.74,-125.24"/>
<polygon fill="black" stroke="black" points="2012.92,-121.94 2002.33,-122.41 2010.9,-128.64 2012.92,-121.94"/>
<text text-anchor="middle" x="2498.14" y="-231.8" font-family="Times,serif" font-size="14.00">imports</text>
</g>
<!-- http___example_org_shapes_discourse_relationships -->
<g id="node22" class="node">
<title>http___example_org_shapes_discourse_relationships</title>
<ellipse fill="none" stroke="black" cx="2357.64" cy="-279" rx="204.96" ry="18"/>
<text text-anchor="middle" x="2357.64" y="-275.3" font-family="Times,serif" font-size="14.00">IRI &#45; http://example.org/shapes/discourse&#45;relationships</text>
</g>
<!-- http___example_org_shapes_cito&#45;&gt;http___example_org_shapes_discourse_relationships -->
<g id="edge32" class="edge">
<title>http___example_org_shapes_cito&#45;&gt;http___example_org_shapes_discourse_relationships</title>
<path fill="none" stroke="black" d="M2357.64,-347.8C2357.64,-336.58 2357.64,-321.67 2357.64,-308.69"/>
<polygon fill="black" stroke="black" points="2361.14,-308.98 2357.64,-298.98 2354.14,-308.98 2361.14,-308.98"/>
<text text-anchor="middle" x="2379.14" y="-318.8" font-family="Times,serif" font-size="14.00">imports</text>
</g>
<!-- http___example_org_shapes_situation -->
<g id="node26" class="node">
<title>http___example_org_shapes_situation</title>
<ellipse fill="none" stroke="black" cx="3190.64" cy="-279" rx="154.07" ry="18"/>
<text text-anchor="middle" x="3190.64" y="-275.3" font-family="Times,serif" font-size="14.00">IRI &#45; http://example.org/shapes/situation</text>
</g>
<!-- http___example_org_shapes_cito&#45;&gt;http___example_org_shapes_situation -->
<g id="edge33" class="edge">
<title>http___example_org_shapes_cito&#45;&gt;http___example_org_shapes_situation</title>
<path fill="none" stroke="black" d="M2464.11,-354.29C2596.29,-340.96 2828.61,-317.48 3027.64,-297 3040.57,-295.67 3054.08,-294.27 3067.55,-292.87"/>
<polygon fill="black" stroke="black" points="3067.76,-296.37 3077.34,-291.86 3067.03,-289.41 3067.76,-296.37"/>
<text text-anchor="middle" x="2864.14" y="-318.8" font-family="Times,serif" font-size="14.00">imports</text>
</g>
<!-- http___example_org_shapes_cito&#45;&gt;http___purl_org_spar_cito_2018_02_16 -->
<g id="edge14" class="edge">
<title>http___example_org_shapes_cito&#45;&gt;http___purl_org_spar_cito_2018_02_16</title>
<path fill="none" stroke="black" d="M2290.49,-349.9C2225.98,-335.4 2128.46,-313.46 2059.88,-298.04"/>
<polygon fill="black" stroke="black" points="2060.71,-294.64 2050.19,-295.86 2059.17,-301.47 2060.71,-294.64"/>
<text text-anchor="middle" x="2213.14" y="-318.8" font-family="Times,serif" font-size="14.00">imports</text>
</g>
<!-- http___example_org_shapes_cpannotationschema -->
<g id="node16" class="node">
<title>http___example_org_shapes_cpannotationschema</title>
<ellipse fill="none" stroke="black" cx="3856.64" cy="-192" rx="196.07" ry="18"/>
<text text-anchor="middle" x="3856.64" y="-188.3" font-family="Times,serif" font-size="14.00">IRI &#45; http://example.org/shapes/cpannotationschema</text>
</g>
<!-- http___example_org_shapes_cpannotationschema&#45;&gt;http___www_ontologydesignpatterns_org_schemas_cpannotationschema_owl -->
<g id="edge5" class="edge">
<title>http___example_org_shapes_cpannotationschema&#45;&gt;http___www_ontologydesignpatterns_org_schemas_cpannotationschema_owl</title>
<path fill="none" stroke="black" d="M3811.32,-174.11C3775.11,-160.61 3724.17,-141.62 3685.28,-127.12"/>
<polygon fill="black" stroke="black" points="3686.66,-123.9 3676.07,-123.68 3684.22,-130.46 3686.66,-123.9"/>
<text text-anchor="middle" x="3777.14" y="-144.8" font-family="Times,serif" font-size="14.00">imports</text>
</g>
<!-- http___purl_org_dc_elements_1_1_ -->
<g id="node38" class="node">
<title>http___purl_org_dc_elements_1_1_</title>
<ellipse fill="none" stroke="black" cx="1948.64" cy="-18" rx="140.28" ry="18"/>
<text text-anchor="middle" x="1948.64" y="-14.3" font-family="Times,serif" font-size="14.00">IRI &#45; http://purl.org/dc/elements/1.1/</text>
</g>
<!-- http___example_org_shapes_dc&#45;&gt;http___purl_org_dc_elements_1_1_ -->
<g id="edge34" class="edge">
<title>http___example_org_shapes_dc&#45;&gt;http___purl_org_dc_elements_1_1_</title>
<path fill="none" stroke="black" d="M1948.64,-86.8C1948.64,-75.58 1948.64,-60.67 1948.64,-47.69"/>
<polygon fill="black" stroke="black" points="1952.14,-47.98 1948.64,-37.98 1945.14,-47.98 1952.14,-47.98"/>
<text text-anchor="middle" x="1970.14" y="-57.8" font-family="Times,serif" font-size="14.00">imports</text>
</g>
<!-- http___example_org_shapes_dcam -->
<g id="node18" class="node">
<title>http___example_org_shapes_dcam</title>
<ellipse fill="none" stroke="black" cx="1076.64" cy="-105" rx="143.77" ry="18"/>
<text text-anchor="middle" x="1076.64" y="-101.3" font-family="Times,serif" font-size="14.00">IRI &#45; http://example.org/shapes/dcam</text>
</g>
<!-- http___purl_org_dc_dcam_ -->
<g id="node39" class="node">
<title>http___purl_org_dc_dcam_</title>
<ellipse fill="none" stroke="black" cx="1076.64" cy="-18" rx="114.28" ry="18"/>
<text text-anchor="middle" x="1076.64" y="-14.3" font-family="Times,serif" font-size="14.00">IRI &#45; http://purl.org/dc/dcam/</text>
</g>
<!-- http___example_org_shapes_dcam&#45;&gt;http___purl_org_dc_dcam_ -->
<g id="edge35" class="edge">
<title>http___example_org_shapes_dcam&#45;&gt;http___purl_org_dc_dcam_</title>
<path fill="none" stroke="black" d="M1076.64,-86.8C1076.64,-75.58 1076.64,-60.67 1076.64,-47.69"/>
<polygon fill="black" stroke="black" points="1080.14,-47.98 1076.64,-37.98 1073.14,-47.98 1080.14,-47.98"/>
<text text-anchor="middle" x="1098.14" y="-57.8" font-family="Times,serif" font-size="14.00">imports</text>
</g>
<!-- http___example_org_shapes_dcat -->
<g id="node19" class="node">
<title>http___example_org_shapes_dcat</title>
<ellipse fill="none" stroke="black" cx="849.64" cy="-366" rx="138.38" ry="18"/>
<text text-anchor="middle" x="849.64" y="-362.3" font-family="Times,serif" font-size="14.00">IRI &#45; http://example.org/shapes/dcat</text>
</g>
<!-- http___example_org_shapes_dcat&#45;&gt;http___www_w3_org_ns_dcat -->
<g id="edge18" class="edge">
<title>http___example_org_shapes_dcat&#45;&gt;http___www_w3_org_ns_dcat</title>
<path fill="none" stroke="black" d="M856.92,-347.8C861.77,-336.35 868.25,-321.06 873.82,-307.89"/>
<polygon fill="black" stroke="black" points="876.97,-309.43 877.65,-298.86 870.53,-306.7 876.97,-309.43"/>
<text text-anchor="middle" x="892.14" y="-318.8" font-family="Times,serif" font-size="14.00">imports</text>
</g>
<!-- http___example_org_shapes_dcterms -->
<g id="node21" class="node">
<title>http___example_org_shapes_dcterms</title>
<ellipse fill="none" stroke="black" cx="1165.64" cy="-192" rx="152.17" ry="18"/>
<text text-anchor="middle" x="1165.64" y="-188.3" font-family="Times,serif" font-size="14.00">IRI &#45; http://example.org/shapes/dcterms</text>
</g>
<!-- http___example_org_shapes_dcat&#45;&gt;http___example_org_shapes_dcterms -->
<g id="edge36" class="edge">
<title>http___example_org_shapes_dcat&#45;&gt;http___example_org_shapes_dcterms</title>
<path fill="none" stroke="black" d="M795.79,-349.13C744.2,-331.2 678.44,-299.44 709.64,-261 754.57,-205.64 796.27,-239.49 866.64,-228 900.29,-222.51 977.32,-213.52 1044.76,-206.03"/>
<polygon fill="black" stroke="black" points="1044.87,-209.54 1054.42,-204.96 1044.1,-202.58 1044.87,-209.54"/>
<text text-anchor="middle" x="731.14" y="-275.3" font-family="Times,serif" font-size="14.00">imports</text>
</g>
<!-- http___example_org_shapes_foaf -->
<g id="node23" class="node">
<title>http___example_org_shapes_foaf</title>
<ellipse fill="none" stroke="black" cx="1165.64" cy="-279" rx="137.58" ry="18"/>
<text text-anchor="middle" x="1165.64" y="-275.3" font-family="Times,serif" font-size="14.00">IRI &#45; http://example.org/shapes/foaf</text>
</g>
<!-- http___example_org_shapes_dcat&#45;&gt;http___example_org_shapes_foaf -->
<g id="edge40" class="edge">
<title>http___example_org_shapes_dcat&#45;&gt;http___example_org_shapes_foaf</title>
<path fill="none" stroke="black" d="M931.19,-351.04C960.55,-345.38 993.78,-338.22 1023.64,-330 1053.65,-321.74 1086.47,-310.35 1112.99,-300.52"/>
<polygon fill="black" stroke="black" points="1114.01,-303.87 1122.15,-297.09 1111.56,-297.32 1114.01,-303.87"/>
<text text-anchor="middle" x="1093.14" y="-318.8" font-family="Times,serif" font-size="14.00">imports</text>
</g>
<!-- http___example_org_shapes_vcard -->
<g id="node30" class="node">
<title>http___example_org_shapes_vcard</title>
<ellipse fill="none" stroke="black" cx="143.64" cy="-279" rx="143.77" ry="18"/>
<text text-anchor="middle" x="143.64" y="-275.3" font-family="Times,serif" font-size="14.00">IRI &#45; http://example.org/shapes/vcard</text>
</g>
<!-- http___example_org_shapes_dcat&#45;&gt;http___example_org_shapes_vcard -->
<g id="edge42" class="edge">
<title>http___example_org_shapes_dcat&#45;&gt;http___example_org_shapes_vcard</title>
<path fill="none" stroke="black" d="M750.73,-353.09C620.61,-337.43 392.52,-309.96 256.02,-293.53"/>
<polygon fill="black" stroke="black" points="256.58,-290.07 246.23,-292.35 255.74,-297.02 256.58,-290.07"/>
<text text-anchor="middle" x="561.14" y="-318.8" font-family="Times,serif" font-size="14.00">imports</text>
</g>
<!-- http___example_org_shapes_dcat_us&#45;&gt;http___example_org_shapes_dcat -->
<g id="edge43" class="edge">
<title>http___example_org_shapes_dcat_us&#45;&gt;http___example_org_shapes_dcat</title>
<path fill="none" stroke="black" d="M1060.31,-435.61C1017.48,-421.66 955.83,-401.58 910.28,-386.75"/>
<polygon fill="black" stroke="black" points="911.39,-383.43 900.8,-383.66 909.23,-390.09 911.39,-383.43"/>
<text text-anchor="middle" x="1018.14" y="-405.8" font-family="Times,serif" font-size="14.00">imports</text>
</g>
<!-- http___example_org_shapes_pod -->
<g id="node25" class="node">
<title>http___example_org_shapes_pod</title>
<ellipse fill="none" stroke="black" cx="1143.64" cy="-366" rx="137.28" ry="18"/>
<text text-anchor="middle" x="1143.64" y="-362.3" font-family="Times,serif" font-size="14.00">IRI &#45; http://example.org/shapes/pod</text>
</g>
<!-- http___example_org_shapes_dcat_us&#45;&gt;http___example_org_shapes_pod -->
<g id="edge44" class="edge">
<title>http___example_org_shapes_dcat_us&#45;&gt;http___example_org_shapes_pod</title>
<path fill="none" stroke="black" d="M1117.32,-434.8C1121.76,-423.35 1127.7,-408.06 1132.81,-394.89"/>
<polygon fill="black" stroke="black" points="1135.95,-396.47 1136.31,-385.88 1129.43,-393.93 1135.95,-396.47"/>
<text text-anchor="middle" x="1151.14" y="-405.8" font-family="Times,serif" font-size="14.00">imports</text>
</g>
<!-- http___example_org_shapes_skos -->
<g id="node27" class="node">
<title>http___example_org_shapes_skos</title>
<ellipse fill="none" stroke="black" cx="524.64" cy="-279" rx="139.98" ry="18"/>
<text text-anchor="middle" x="524.64" y="-275.3" font-family="Times,serif" font-size="14.00">IRI &#45; http://example.org/shapes/skos</text>
</g>
<!-- http___example_org_shapes_dcat_us&#45;&gt;http___example_org_shapes_skos -->
<g id="edge45" class="edge">
<title>http___example_org_shapes_dcat_us&#45;&gt;http___example_org_shapes_skos</title>
<path fill="none" stroke="black" d="M990.1,-442.01C876.75,-431.16 716.27,-411.6 659.64,-384 619.5,-364.44 622.56,-341.5 586.64,-315 580.69,-310.61 574.14,-306.36 567.59,-302.43"/>
<polygon fill="black" stroke="black" points="569.78,-299.66 559.37,-297.67 566.27,-305.71 569.78,-299.66"/>
<text text-anchor="middle" x="681.14" y="-362.3" font-family="Times,serif" font-size="14.00">imports</text>
</g>
<!-- http___example_org_shapes_dcterms&#45;&gt;http___example_org_shapes_dc -->
<g id="edge31" class="edge">
<title>http___example_org_shapes_dcterms&#45;&gt;http___example_org_shapes_dc</title>
<path fill="none" stroke="black" d="M1274.92,-179.14C1423.34,-163.02 1687.25,-134.38 1836.92,-118.13"/>
<polygon fill="black" stroke="black" points="1836.87,-121.65 1846.43,-117.09 1836.11,-114.69 1836.87,-121.65"/>
<text text-anchor="middle" x="1626.14" y="-144.8" font-family="Times,serif" font-size="14.00">imports</text>
</g>
<!-- http___example_org_shapes_dcterms&#45;&gt;http___example_org_shapes_dcam -->
<g id="edge46" class="edge">
<title>http___example_org_shapes_dcterms&#45;&gt;http___example_org_shapes_dcam</title>
<path fill="none" stroke="black" d="M1138.91,-173.92C1131.37,-168.58 1123.39,-162.4 1116.64,-156 1109.1,-148.86 1101.73,-140.27 1095.42,-132.24"/>
<polygon fill="black" stroke="black" points="1098.3,-130.24 1089.46,-124.4 1092.72,-134.48 1098.3,-130.24"/>
<text text-anchor="middle" x="1138.14" y="-144.8" font-family="Times,serif" font-size="14.00">imports</text>
</g>
<!-- http___example_org_shapes_dcterms&#45;&gt;http___purl_org_dc_terms_ -->
<g id="edge7" class="edge">
<title>http___example_org_shapes_dcterms&#45;&gt;http___purl_org_dc_terms_</title>
<path fill="none" stroke="black" d="M1178.39,-173.76C1187.37,-162.83 1200.3,-149.23 1214.64,-141 1229.33,-132.57 1246.04,-126.14 1262.66,-121.26"/>
<polygon fill="black" stroke="black" points="1263.37,-124.69 1272.08,-118.66 1261.51,-117.94 1263.37,-124.69"/>
<text text-anchor="middle" x="1236.14" y="-144.8" font-family="Times,serif" font-size="14.00">imports</text>
</g>
<!-- http___example_org_shapes_discourse_relationships&#45;&gt;http___example_org_shapes_dcterms -->
<g id="edge37" class="edge">
<title>http___example_org_shapes_discourse_relationships&#45;&gt;http___example_org_shapes_dcterms</title>
<path fill="none" stroke="black" d="M2216.12,-265.61C2191.96,-263.82 2167.09,-262.19 2143.64,-261 1960.94,-251.75 1501.03,-273.4 1320.64,-243 1285.25,-237.04 1246.86,-224.7 1217.13,-213.77"/>
<polygon fill="black" stroke="black" points="1218.6,-210.58 1208.01,-210.35 1216.15,-217.14 1218.6,-210.58"/>
<text text-anchor="middle" x="1342.14" y="-231.8" font-family="Times,serif" font-size="14.00">imports</text>
</g>
<!-- http___example_org_shapes_discourse_relationships&#45;&gt;https___raw_githubusercontent_com_casework_CASE_Corpora_main_dependencies_discourse_relationships_ttl -->
<g id="edge47" class="edge">
<title>http___example_org_shapes_discourse_relationships&#45;&gt;https___raw_githubusercontent_com_casework_CASE_Corpora_main_dependencies_discourse_relationships_ttl</title>
<path fill="none" stroke="black" d="M2429.5,-261.71C2491.22,-247.72 2580.36,-227.52 2646.01,-212.63"/>
<polygon fill="black" stroke="black" points="2646.71,-216.07 2655.69,-210.44 2645.16,-209.24 2646.71,-216.07"/>
<text text-anchor="middle" x="2589.14" y="-231.8" font-family="Times,serif" font-size="14.00">imports</text>
</g>
<!-- http___example_org_shapes_foaf&#45;&gt;http___xmlns_com_foaf_0_1_ -->
<g id="edge20" class="edge">
<title>http___example_org_shapes_foaf&#45;&gt;http___xmlns_com_foaf_0_1_</title>
<path fill="none" stroke="black" d="M1247.25,-264.09C1284.05,-257.76 1328.05,-250.11 1367.64,-243 1429.4,-231.91 1499.05,-218.95 1552,-209.01"/>
<polygon fill="black" stroke="black" points="1552.37,-212.5 1561.55,-207.21 1551.08,-205.62 1552.37,-212.5"/>
<text text-anchor="middle" x="1471.14" y="-231.8" font-family="Times,serif" font-size="14.00">imports</text>
</g>
<!-- http___example_org_shapes_foaf&#45;&gt;http___example_org_shapes_dcterms -->
<g id="edge38" class="edge">
<title>http___example_org_shapes_foaf&#45;&gt;http___example_org_shapes_dcterms</title>
<path fill="none" stroke="black" d="M1165.64,-260.8C1165.64,-249.58 1165.64,-234.67 1165.64,-221.69"/>
<polygon fill="black" stroke="black" points="1169.14,-221.98 1165.64,-211.98 1162.14,-221.98 1169.14,-221.98"/>
<text text-anchor="middle" x="1187.14" y="-231.8" font-family="Times,serif" font-size="14.00">imports</text>
</g>
<!-- http___example_org_shapes_situation&#45;&gt;http___www_ontologydesignpatterns_org_cp_owl_situation_owl -->
<g id="edge3" class="edge">
<title>http___example_org_shapes_situation&#45;&gt;http___www_ontologydesignpatterns_org_cp_owl_situation_owl</title>
<path fill="none" stroke="black" d="M3231.93,-261.21C3264.95,-247.78 3311.47,-228.86 3347.13,-214.35"/>
<polygon fill="black" stroke="black" points="3348.01,-217.78 3355.95,-210.77 3345.37,-211.29 3348.01,-217.78"/>
<text text-anchor="middle" x="3329.14" y="-231.8" font-family="Times,serif" font-size="14.00">imports</text>
</g>
<!-- http___example_org_shapes_situation&#45;&gt;http___example_org_shapes_cpannotationschema -->
<g id="edge48" class="edge">
<title>http___example_org_shapes_situation&#45;&gt;http___example_org_shapes_cpannotationschema</title>
<path fill="none" stroke="black" d="M3291.79,-265.09C3410.38,-249.95 3606.87,-224.88 3734.03,-208.65"/>
<polygon fill="black" stroke="black" points="3734.37,-212.13 3743.85,-207.39 3733.49,-205.19 3734.37,-212.13"/>
<text text-anchor="middle" x="3584.14" y="-231.8" font-family="Times,serif" font-size="14.00">imports</text>
</g>
<!-- http___example_org_shapes_skos&#45;&gt;http___www_w3_org_2004_02_skos_core -->
<g id="edge9" class="edge">
<title>http___example_org_shapes_skos&#45;&gt;http___www_w3_org_2004_02_skos_core</title>
<path fill="none" stroke="black" d="M516.77,-260.54C514.67,-255.04 512.69,-248.87 511.64,-243 510.35,-235.82 511.1,-228.13 512.73,-220.99"/>
<polygon fill="black" stroke="black" points="516.06,-222.05 515.53,-211.47 509.35,-220.08 516.06,-222.05"/>
<text text-anchor="middle" x="533.14" y="-231.8" font-family="Times,serif" font-size="14.00">imports</text>
</g>
<!-- http___example_org_shapes_skos&#45;&gt;http___example_org_shapes_dcterms -->
<g id="edge39" class="edge">
<title>http___example_org_shapes_skos&#45;&gt;http___example_org_shapes_dcterms</title>
<path fill="none" stroke="black" d="M554.46,-261.02C576.42,-249.43 607.43,-234.97 636.64,-228 716.27,-208.99 923,-216.3 1004.64,-210 1018.59,-208.92 1033.21,-207.62 1047.71,-206.22"/>
<polygon fill="black" stroke="black" points="1047.64,-209.75 1057.25,-205.29 1046.96,-202.78 1047.64,-209.75"/>
<text text-anchor="middle" x="658.14" y="-231.8" font-family="Times,serif" font-size="14.00">imports</text>
</g>
<!-- http___example_org_shapes_sosa -->
<g id="node28" class="node">
<title>http___example_org_shapes_sosa</title>
<ellipse fill="none" stroke="black" cx="3840.64" cy="-366" rx="139.18" ry="18"/>
<text text-anchor="middle" x="3840.64" y="-362.3" font-family="Times,serif" font-size="14.00">IRI &#45; http://example.org/shapes/sosa</text>
</g>
<!-- http___example_org_shapes_sosa&#45;&gt;http___example_org_shapes_foaf -->
<g id="edge41" class="edge">
<title>http___example_org_shapes_sosa&#45;&gt;http___example_org_shapes_foaf</title>
<path fill="none" stroke="black" d="M3716.31,-357.6C3652.21,-354.07 3572.76,-350.17 3501.64,-348 3134.45,-336.8 2215.38,-351.18 1848.64,-330 1784.84,-326.31 1769.36,-319.8 1705.64,-315 1531.28,-301.87 1486.92,-311.05 1312.64,-297 1300.06,-295.99 1286.9,-294.74 1273.84,-293.38"/>
<polygon fill="black" stroke="black" points="1274.23,-289.9 1263.91,-292.32 1273.48,-296.86 1274.23,-289.9"/>
<text text-anchor="middle" x="1870.14" y="-318.8" font-family="Times,serif" font-size="14.00">imports</text>
</g>
<!-- http___example_org_shapes_sosa&#45;&gt;https___raw_githubusercontent_com_casework_CASE_Corpora_main_dependencies_sosa_ttl -->
<g id="edge12" class="edge">
<title>http___example_org_shapes_sosa&#45;&gt;https___raw_githubusercontent_com_casework_CASE_Corpora_main_dependencies_sosa_ttl</title>
<path fill="none" stroke="black" d="M3912.65,-350.19C3971.34,-338.71 4056.49,-323.39 4131.64,-315 4152.74,-312.64 4367.19,-301.62 4547.88,-292.56"/>
<polygon fill="black" stroke="black" points="4547.85,-296.07 4557.67,-292.07 4547.5,-289.07 4547.85,-296.07"/>
<text text-anchor="middle" x="4153.14" y="-318.8" font-family="Times,serif" font-size="14.00">imports</text>
</g>
<!-- http___example_org_shapes_ssn&#45;&gt;http___example_org_shapes_sosa -->
<g id="edge49" class="edge">
<title>http___example_org_shapes_ssn&#45;&gt;http___example_org_shapes_sosa</title>
<path fill="none" stroke="black" d="M3840.64,-434.8C3840.64,-423.58 3840.64,-408.67 3840.64,-395.69"/>
<polygon fill="black" stroke="black" points="3844.14,-395.98 3840.64,-385.98 3837.14,-395.98 3844.14,-395.98"/>
<text text-anchor="middle" x="3862.14" y="-405.8" font-family="Times,serif" font-size="14.00">imports</text>
</g>
<!-- http___example_org_shapes_ssn&#45;&gt;https___raw_githubusercontent_com_casework_CASE_Corpora_main_dependencies_ssn_ttl -->
<g id="edge23" class="edge">
<title>http___example_org_shapes_ssn&#45;&gt;https___raw_githubusercontent_com_casework_CASE_Corpora_main_dependencies_ssn_ttl</title>
<path fill="none" stroke="black" d="M3885.13,-435.54C3915.47,-423.37 3955.92,-405.27 3988.64,-384 4023.96,-361.03 4059.57,-327.97 4082.28,-305.33"/>
<polygon fill="black" stroke="black" points="4084.72,-307.85 4089.27,-298.28 4079.74,-302.92 4084.72,-307.85"/>
<text text-anchor="middle" x="4055.14" y="-362.3" font-family="Times,serif" font-size="14.00">imports</text>
</g>
<!-- http___example_org_shapes_vcard&#45;&gt;http___www_w3_org_2006_vcard_ns -->
<g id="edge16" class="edge">
<title>http___example_org_shapes_vcard&#45;&gt;http___www_w3_org_2006_vcard_ns</title>
<path fill="none" stroke="black" d="M151.73,-260.8C157.17,-249.24 164.46,-233.75 170.7,-220.5"/>
<polygon fill="black" stroke="black" points="173.68,-222.38 174.77,-211.84 167.35,-219.39 173.68,-222.38"/>
<text text-anchor="middle" x="188.14" y="-231.8" font-family="Times,serif" font-size="14.00">imports</text>
</g>
</g>
</svg>
