<?xml version="1.0" encoding="UTF-8" standalone="no"?>
<!DOCTYPE svg PUBLIC "-//W3C//DTD SVG 1.1//EN"
 "http://www.w3.org/Graphics/SVG/1.1/DTD/svg11.dtd">
<!-- Generated by graphviz version 7.1.0 (20230121.1956)
 -->
<!-- Title: G Pages: 1 -->
<svg width="3765pt" height="740pt"
 viewBox="0.00 0.00 3765.49 740.00" xmlns="http://www.w3.org/2000/svg" xmlns:xlink="http://www.w3.org/1999/xlink">
<g id="graph0" class="graph" transform="scale(1 1) rotate(0) translate(4 736)">
<title>G</title>
<polygon fill="white" stroke="none" points="-4,4 -4,-736 3761.49,-736 3761.49,4 -4,4"/>
<!-- http___example_org_kb -->
<g id="node1" class="node">
<title>http___example_org_kb</title>
<ellipse fill="none" stroke="black" cx="1670.49" cy="-714" rx="106.68" ry="18"/>
<text text-anchor="middle" x="1670.49" y="-710.3" font-family="Times,serif" font-size="14.00">IRI &#45; http://example.org/kb</text>
</g>
<!-- http___example_org_shapes_case_corpora_local -->
<g id="node11" class="node">
<title>http___example_org_shapes_case_corpora_local</title>
<ellipse fill="none" stroke="black" cx="1670.49" cy="-627" rx="188.47" ry="18"/>
<text text-anchor="middle" x="1670.49" y="-623.3" font-family="Times,serif" font-size="14.00">IRI &#45; http://example.org/shapes/case&#45;corpora&#45;local</text>
</g>
<!-- http___example_org_kb&#45;&gt;http___example_org_shapes_case_corpora_local -->
<g id="edge1" class="edge">
<title>http___example_org_kb&#45;&gt;http___example_org_shapes_case_corpora_local</title>
<path fill="none" stroke="black" d="M1670.49,-695.8C1670.49,-684.58 1670.49,-669.67 1670.49,-656.69"/>
<polygon fill="black" stroke="black" points="1673.99,-656.98 1670.49,-646.98 1666.99,-656.98 1673.99,-656.98"/>
<text text-anchor="middle" x="1691.99" y="-666.8" font-family="Times,serif" font-size="14.00">imports</text>
</g>
<!-- http___purl_org_spar_cito -->
<g id="node2" class="node">
<title>http___purl_org_spar_cito</title>
<ellipse fill="none" stroke="black" cx="3542.49" cy="-366" rx="112.38" ry="18"/>
<text text-anchor="middle" x="3542.49" y="-362.3" font-family="Times,serif" font-size="14.00">IRI &#45; http://purl.org/spar/cito</text>
</g>
<!-- http___www_ontologydesignpatterns_org_cp_owl_situation_owl -->
<g id="node4" class="node">
<title>http___www_ontologydesignpatterns_org_cp_owl_situation_owl</title>
<ellipse fill="none" stroke="black" cx="3385.49" cy="-192" rx="243.16" ry="18"/>
<text text-anchor="middle" x="3385.49" y="-188.3" font-family="Times,serif" font-size="14.00">IRI &#45; http://www.ontologydesignpatterns.org/cp/owl/situation.owl</text>
</g>
<!-- http___purl_org_spar_cito&#45;&gt;http___www_ontologydesignpatterns_org_cp_owl_situation_owl -->
<g id="edge2" class="edge">
<title>http___purl_org_spar_cito&#45;&gt;http___www_ontologydesignpatterns_org_cp_owl_situation_owl</title>
<path fill="none" stroke="black" d="M3605.39,-350.7C3665.14,-334.18 3741.09,-303.7 3706.49,-261 3685.29,-234.85 3615.26,-218.35 3546,-208.17"/>
<polygon fill="black" stroke="black" points="3546.79,-204.74 3536.39,-206.8 3545.8,-211.67 3546.79,-204.74"/>
<text text-anchor="middle" x="3735.99" y="-275.3" font-family="Times,serif" font-size="14.00">imports</text>
</g>
<!-- http___purl_org_spar_cito_2018_02_16 -->
<g id="node27" class="node">
<title>http___purl_org_spar_cito_2018_02_16</title>
<ellipse fill="none" stroke="gray" cx="3213.49" cy="-279" rx="155.17" ry="18"/>
<text text-anchor="middle" x="3213.49" y="-275.3" font-family="Times,serif" font-size="14.00">IRI &#45; http://purl.org/spar/cito/2018&#45;02&#45;16</text>
</g>
<!-- http___purl_org_spar_cito&#45;&gt;http___purl_org_spar_cito_2018_02_16 -->
<g id="edge43" class="edge">
<title>http___purl_org_spar_cito&#45;&gt;http___purl_org_spar_cito_2018_02_16</title>
<path fill="none" stroke="gray" d="M3485.18,-350.19C3429.89,-335.91 3345.99,-314.23 3286.06,-298.75"/>
<polygon fill="gray" stroke="gray" points="3287.19,-295.43 3276.63,-296.31 3285.44,-302.2 3287.19,-295.43"/>
<text text-anchor="middle" x="3426.49" y="-318.8" font-family="Times,serif" font-size="14.00">versionIRI</text>
</g>
<!-- http___purl_org_spar_cito_2018_02_12 -->
<g id="node34" class="node">
<title>http___purl_org_spar_cito_2018_02_12</title>
<ellipse fill="none" stroke="black" cx="3542.49" cy="-279" rx="155.17" ry="18"/>
<text text-anchor="middle" x="3542.49" y="-275.3" font-family="Times,serif" font-size="14.00">IRI &#45; http://purl.org/spar/cito/2018&#45;02&#45;12</text>
</g>
<!-- http___purl_org_spar_cito&#45;&gt;http___purl_org_spar_cito_2018_02_12 -->
<g id="edge42" class="edge">
<title>http___purl_org_spar_cito&#45;&gt;http___purl_org_spar_cito_2018_02_12</title>
<path fill="none" stroke="gray" stroke-dasharray="5,2" d="M3542.49,-347.8C3542.49,-336.58 3542.49,-321.67 3542.49,-308.69"/>
<polygon fill="gray" stroke="gray" points="3545.99,-308.98 3542.49,-298.98 3538.99,-308.98 3545.99,-308.98"/>
<text text-anchor="middle" x="3576.49" y="-318.8" font-family="Times,serif" font-size="14.00">priorVersion</text>
</g>
<!-- http___purl_org_swan_2_0_discourse_relationships_ -->
<g id="node3" class="node">
<title>http___purl_org_swan_2_0_discourse_relationships_</title>
<ellipse fill="none" stroke="black" cx="2476.49" cy="-279" rx="199.56" ry="18"/>
<text text-anchor="middle" x="2476.49" y="-275.3" font-family="Times,serif" font-size="14.00">IRI &#45; http://purl.org/swan/2.0/discourse&#45;relationships/</text>
</g>
<!-- https___raw_githubusercontent_com_casework_CASE_Corpora_main_dependencies_discourse_relationships_ttl -->
<g id="node28" class="node">
<title>https___raw_githubusercontent_com_casework_CASE_Corpora_main_dependencies_discourse_relationships_ttl</title>
<ellipse fill="none" stroke="gray" cx="2269.49" cy="-192" rx="406.43" ry="18"/>
<text text-anchor="middle" x="2269.49" y="-188.3" font-family="Times,serif" font-size="14.00">IRI &#45; https://raw.githubusercontent.com/casework/CASE&#45;Corpora/main/dependencies/discourse&#45;relationships.ttl</text>
</g>
<!-- http___purl_org_swan_2_0_discourse_relationships_&#45;&gt;https___raw_githubusercontent_com_casework_CASE_Corpora_main_dependencies_discourse_relationships_ttl -->
<g id="edge44" class="edge">
<title>http___purl_org_swan_2_0_discourse_relationships_&#45;&gt;https___raw_githubusercontent_com_casework_CASE_Corpora_main_dependencies_discourse_relationships_ttl</title>
<path fill="none" stroke="gray" d="M2435.09,-261C2402.59,-247.66 2357.12,-228.98 2322.04,-214.58"/>
<polygon fill="gray" stroke="gray" points="2323.5,-211.39 2312.92,-210.83 2320.84,-217.87 2323.5,-211.39"/>
<text text-anchor="middle" x="2413.49" y="-231.8" font-family="Times,serif" font-size="14.00">versionIRI</text>
</g>
<!-- http___www_ontologydesignpatterns_org_schemas_cpannotationschema_owl -->
<g id="node5" class="node">
<title>http___www_ontologydesignpatterns_org_schemas_cpannotationschema_owl</title>
<ellipse fill="none" stroke="black" cx="3156.49" cy="-105" rx="291.35" ry="18"/>
<text text-anchor="middle" x="3156.49" y="-101.3" font-family="Times,serif" font-size="14.00">IRI &#45; http://www.ontologydesignpatterns.org/schemas/cpannotationschema.owl</text>
</g>
<!-- http___www_ontologydesignpatterns_org_cp_owl_situation_owl&#45;&gt;http___www_ontologydesignpatterns_org_schemas_cpannotationschema_owl -->
<g id="edge4" class="edge">
<title>http___www_ontologydesignpatterns_org_cp_owl_situation_owl&#45;&gt;http___www_ontologydesignpatterns_org_schemas_cpannotationschema_owl</title>
<path fill="none" stroke="black" d="M3339.42,-173.9C3303.13,-160.43 3252.35,-141.58 3213.49,-127.16"/>
<polygon fill="black" stroke="black" points="3214.88,-123.94 3204.29,-123.74 3212.45,-130.5 3214.88,-123.94"/>
<text text-anchor="middle" x="3305.99" y="-144.8" font-family="Times,serif" font-size="14.00">imports</text>
</g>
<!-- http___www_w3_org_2004_02_skos_core -->
<g id="node6" class="node">
<title>http___www_w3_org_2004_02_skos_core</title>
<ellipse fill="none" stroke="black" cx="1358.49" cy="-192" rx="163.57" ry="18"/>
<text text-anchor="middle" x="1358.49" y="-188.3" font-family="Times,serif" font-size="14.00">IRI &#45; http://www.w3.org/2004/02/skos/core</text>
</g>
<!-- http___www_w3_org_2006_vcard_ns -->
<g id="node7" class="node">
<title>http___www_w3_org_2006_vcard_ns</title>
<ellipse fill="none" stroke="black" cx="149.49" cy="-192" rx="149.47" ry="18"/>
<text text-anchor="middle" x="149.49" y="-188.3" font-family="Times,serif" font-size="14.00">IRI &#45; http://www.w3.org/2006/vcard/ns</text>
</g>
<!-- http___www_w3_org_ns_dcat -->
<g id="node8" class="node">
<title>http___www_w3_org_ns_dcat</title>
<ellipse fill="none" stroke="black" cx="1037.49" cy="-279" rx="124.28" ry="18"/>
<text text-anchor="middle" x="1037.49" y="-275.3" font-family="Times,serif" font-size="14.00">IRI &#45; http://www.w3.org/ns/dcat</text>
</g>
<!-- http___www_w3_org_ns_dcat&#45;&gt;http___www_w3_org_2004_02_skos_core -->
<g id="edge8" class="edge">
<title>http___www_w3_org_ns_dcat&#45;&gt;http___www_w3_org_2004_02_skos_core</title>
<path fill="none" stroke="black" d="M1090.76,-262.32C1108.9,-256.64 1129.21,-249.92 1147.49,-243 1162.93,-237.15 1165.73,-232.97 1181.49,-228 1204.93,-220.61 1230.64,-214.46 1255.01,-209.49"/>
<polygon fill="black" stroke="black" points="1255.5,-212.96 1264.62,-207.58 1254.13,-206.09 1255.5,-212.96"/>
<text text-anchor="middle" x="1202.99" y="-231.8" font-family="Times,serif" font-size="14.00">imports</text>
</g>
<!-- http___purl_org_dc_terms_ -->
<g id="node29" class="node">
<title>http___purl_org_dc_terms_</title>
<ellipse fill="none" stroke="black" cx="1274.49" cy="-105" rx="115.08" ry="18"/>
<text text-anchor="middle" x="1274.49" y="-101.3" font-family="Times,serif" font-size="14.00">IRI &#45; http://purl.org/dc/terms/</text>
</g>
<!-- http___www_w3_org_ns_dcat&#45;&gt;http___purl_org_dc_terms_ -->
<g id="edge6" class="edge">
<title>http___www_w3_org_ns_dcat&#45;&gt;http___purl_org_dc_terms_</title>
<path fill="none" stroke="black" d="M1055.1,-260.71C1069.07,-246.98 1089.06,-227.3 1106.49,-210 1122.55,-194.06 1124.21,-187.34 1142.49,-174 1167.92,-155.43 1199.14,-139.1 1224.84,-127.1"/>
<polygon fill="black" stroke="black" points="1226.1,-130.37 1233.73,-123.02 1223.18,-124 1226.1,-130.37"/>
<text text-anchor="middle" x="1163.99" y="-188.3" font-family="Times,serif" font-size="14.00">imports</text>
</g>
<!-- http___www_w3_org_ns_prov_o_ -->
<g id="node30" class="node">
<title>http___www_w3_org_ns_prov_o_</title>
<ellipse fill="none" stroke="black" cx="959.49" cy="-192" rx="137.58" ry="18"/>
<text text-anchor="middle" x="959.49" y="-188.3" font-family="Times,serif" font-size="14.00">IRI &#45; http://www.w3.org/ns/prov&#45;o#</text>
</g>
<!-- http___www_w3_org_ns_dcat&#45;&gt;http___www_w3_org_ns_prov_o_ -->
<g id="edge10" class="edge">
<title>http___www_w3_org_ns_dcat&#45;&gt;http___www_w3_org_ns_prov_o_</title>
<path fill="none" stroke="black" d="M1021.7,-260.8C1010.5,-248.59 995.27,-231.99 982.68,-218.28"/>
<polygon fill="black" stroke="black" points="985.61,-216.29 976.27,-211.29 980.45,-221.02 985.61,-216.29"/>
<text text-anchor="middle" x="1024.99" y="-231.8" font-family="Times,serif" font-size="14.00">imports</text>
</g>
<!-- http___xmlns_com_foaf_0_1_ -->
<g id="node9" class="node">
<title>http___xmlns_com_foaf_0_1_</title>
<ellipse fill="none" stroke="black" cx="613.49" cy="-192" rx="124.28" ry="18"/>
<text text-anchor="middle" x="613.49" y="-188.3" font-family="Times,serif" font-size="14.00">IRI &#45; http://xmlns.com/foaf/0.1/</text>
</g>
<!-- http___example_org_ontology_case_corpora -->
<g id="node10" class="node">
<title>http___example_org_ontology_case_corpora</title>
<ellipse fill="none" stroke="black" cx="546.49" cy="-366" rx="176.57" ry="18"/>
<text text-anchor="middle" x="546.49" y="-362.3" font-family="Times,serif" font-size="14.00">IRI &#45; http://example.org/ontology/case&#45;corpora</text>
</g>
<!-- http___example_org_ontology_case_corpora&#45;&gt;http___www_w3_org_2006_vcard_ns -->
<g id="edge11" class="edge">
<title>http___example_org_ontology_case_corpora&#45;&gt;http___www_w3_org_2006_vcard_ns</title>
<path fill="none" stroke="black" d="M404.91,-354.92C267.23,-343.64 75.53,-323.43 52.49,-297 27.42,-268.25 67.93,-236.33 104,-215.53"/>
<polygon fill="black" stroke="black" points="105.63,-218.63 112.67,-210.71 102.23,-212.51 105.63,-218.63"/>
<text text-anchor="middle" x="73.99" y="-275.3" font-family="Times,serif" font-size="14.00">imports</text>
</g>
<!-- http___example_org_ontology_case_corpora&#45;&gt;http___www_w3_org_ns_dcat -->
<g id="edge13" class="edge">
<title>http___example_org_ontology_case_corpora&#45;&gt;http___www_w3_org_ns_dcat</title>
<path fill="none" stroke="black" d="M633.7,-349.9C722.5,-334.53 859.45,-310.82 948.78,-295.36"/>
<polygon fill="black" stroke="black" points="949.23,-298.83 958.48,-293.68 948.03,-291.93 949.23,-298.83"/>
<text text-anchor="middle" x="842.99" y="-318.8" font-family="Times,serif" font-size="14.00">imports</text>
</g>
<!-- http___example_org_ontology_case_corpora&#45;&gt;http___xmlns_com_foaf_0_1_ -->
<g id="edge15" class="edge">
<title>http___example_org_ontology_case_corpora&#45;&gt;http___xmlns_com_foaf_0_1_</title>
<path fill="none" stroke="black" d="M544.85,-347.67C543.53,-326.39 543.53,-289.59 555.49,-261 562.19,-244.99 574.1,-229.99 585.4,-218.17"/>
<polygon fill="black" stroke="black" points="587.75,-220.77 592.36,-211.23 582.81,-215.81 587.75,-220.77"/>
<text text-anchor="middle" x="576.99" y="-275.3" font-family="Times,serif" font-size="14.00">imports</text>
</g>
<!-- https___ontology_caseontology_org_case_case_1_1_0 -->
<g id="node31" class="node">
<title>https___ontology_caseontology_org_case_case_1_1_0</title>
<ellipse fill="none" stroke="black" cx="307.49" cy="-279" rx="203.36" ry="18"/>
<text text-anchor="middle" x="307.49" y="-275.3" font-family="Times,serif" font-size="14.00">IRI &#45; https://ontology.caseontology.org/case/case/1.1.0</text>
</g>
<!-- http___example_org_ontology_case_corpora&#45;&gt;https___ontology_caseontology_org_case_case_1_1_0 -->
<g id="edge17" class="edge">
<title>http___example_org_ontology_case_corpora&#45;&gt;https___ontology_caseontology_org_case_case_1_1_0</title>
<path fill="none" stroke="black" d="M499.27,-348.21C460.93,-334.57 406.69,-315.28 365.67,-300.69"/>
<polygon fill="black" stroke="black" points="367.04,-297.46 356.44,-297.41 364.69,-304.06 367.04,-297.46"/>
<text text-anchor="middle" x="462.99" y="-318.8" font-family="Times,serif" font-size="14.00">imports</text>
</g>
<!-- http___example_org_shapes_case_corpora -->
<g id="node12" class="node">
<title>http___example_org_shapes_case_corpora</title>
<ellipse fill="none" stroke="black" cx="1670.49" cy="-540" rx="168.97" ry="18"/>
<text text-anchor="middle" x="1670.49" y="-536.3" font-family="Times,serif" font-size="14.00">IRI &#45; http://example.org/shapes/case&#45;corpora</text>
</g>
<!-- http___example_org_shapes_case_corpora_local&#45;&gt;http___example_org_shapes_case_corpora -->
<g id="edge18" class="edge">
<title>http___example_org_shapes_case_corpora_local&#45;&gt;http___example_org_shapes_case_corpora</title>
<path fill="none" stroke="black" d="M1670.49,-608.8C1670.49,-597.58 1670.49,-582.67 1670.49,-569.69"/>
<polygon fill="black" stroke="black" points="1673.99,-569.98 1670.49,-559.98 1666.99,-569.98 1673.99,-569.98"/>
<text text-anchor="middle" x="1691.99" y="-579.8" font-family="Times,serif" font-size="14.00">imports</text>
</g>
<!-- http___example_org_shapes_case_corpora&#45;&gt;http___example_org_ontology_case_corpora -->
<g id="edge19" class="edge">
<title>http___example_org_shapes_case_corpora&#45;&gt;http___example_org_ontology_case_corpora</title>
<path fill="none" stroke="black" d="M1576.59,-524.63C1368.89,-492.85 871.63,-416.76 652.86,-383.28"/>
<polygon fill="black" stroke="black" points="653.61,-379.85 643.2,-381.8 652.55,-386.77 653.61,-379.85"/>
<text text-anchor="middle" x="1241.99" y="-449.3" font-family="Times,serif" font-size="14.00">imports</text>
</g>
<!-- http___example_org_shapes_cito -->
<g id="node13" class="node">
<title>http___example_org_shapes_cito</title>
<ellipse fill="none" stroke="black" cx="2704.49" cy="-366" rx="137.28" ry="18"/>
<text text-anchor="middle" x="2704.49" y="-362.3" font-family="Times,serif" font-size="14.00">IRI &#45; http://example.org/shapes/cito</text>
</g>
<!-- http___example_org_shapes_case_corpora&#45;&gt;http___example_org_shapes_cito -->
<g id="edge20" class="edge">
<title>http___example_org_shapes_case_corpora&#45;&gt;http___example_org_shapes_cito</title>
<path fill="none" stroke="black" d="M1674.27,-521.84C1680.55,-497.82 1695.65,-454.91 1726.49,-435 1794.52,-391.09 2301.81,-374.89 2557.73,-369.46"/>
<polygon fill="black" stroke="black" points="2557.54,-372.97 2567.46,-369.26 2557.39,-365.97 2557.54,-372.97"/>
<text text-anchor="middle" x="1747.99" y="-449.3" font-family="Times,serif" font-size="14.00">imports</text>
</g>
<!-- http___example_org_shapes_dcat_us -->
<g id="node18" class="node">
<title>http___example_org_shapes_dcat_us</title>
<ellipse fill="none" stroke="black" cx="1525.49" cy="-453" rx="149.47" ry="18"/>
<text text-anchor="middle" x="1525.49" y="-449.3" font-family="Times,serif" font-size="14.00">IRI &#45; http://example.org/shapes/dcat&#45;us</text>
</g>
<!-- http___example_org_shapes_case_corpora&#45;&gt;http___example_org_shapes_dcat_us -->
<g id="edge21" class="edge">
<title>http___example_org_shapes_case_corpora&#45;&gt;http___example_org_shapes_dcat_us</title>
<path fill="none" stroke="black" d="M1641.14,-521.8C1618.99,-508.81 1588.37,-490.87 1564.21,-476.7"/>
<polygon fill="black" stroke="black" points="1565.99,-473.69 1555.6,-471.65 1562.45,-479.73 1565.99,-473.69"/>
<text text-anchor="middle" x="1628.99" y="-492.8" font-family="Times,serif" font-size="14.00">imports</text>
</g>
<!-- http___example_org_shapes_owl_abox -->
<g id="node22" class="node">
<title>http___example_org_shapes_owl_abox</title>
<ellipse fill="none" stroke="black" cx="1935.49" cy="-453" rx="157.07" ry="18"/>
<text text-anchor="middle" x="1935.49" y="-449.3" font-family="Times,serif" font-size="14.00">IRI &#45; http://example.org/shapes/owl&#45;abox</text>
</g>
<!-- http___example_org_shapes_case_corpora&#45;&gt;http___example_org_shapes_owl_abox -->
<g id="edge22" class="edge">
<title>http___example_org_shapes_case_corpora&#45;&gt;http___example_org_shapes_owl_abox</title>
<path fill="none" stroke="black" d="M1722.21,-522.41C1765.58,-508.5 1827.61,-488.6 1873.61,-473.85"/>
<polygon fill="black" stroke="black" points="1874.45,-477.25 1882.9,-470.87 1872.31,-470.59 1874.45,-477.25"/>
<text text-anchor="middle" x="1840.99" y="-492.8" font-family="Times,serif" font-size="14.00">imports</text>
</g>
<!-- http___example_org_shapes_dc -->
<g id="node15" class="node">
<title>http___example_org_shapes_dc</title>
<ellipse fill="none" stroke="black" cx="2236.49" cy="-105" rx="131.88" ry="18"/>
<text text-anchor="middle" x="2236.49" y="-101.3" font-family="Times,serif" font-size="14.00">IRI &#45; http://example.org/shapes/dc</text>
</g>
<!-- http___example_org_shapes_cito&#45;&gt;http___example_org_shapes_dc -->
<g id="edge23" class="edge">
<title>http___example_org_shapes_cito&#45;&gt;http___example_org_shapes_dc</title>
<path fill="none" stroke="black" d="M2708.83,-347.67C2717.04,-310.34 2730.19,-221.87 2684.49,-174 2643.18,-130.74 2492.88,-114.88 2377.64,-109.13"/>
<polygon fill="black" stroke="black" points="2377.92,-105.64 2367.77,-108.66 2377.59,-112.63 2377.92,-105.64"/>
<text text-anchor="middle" x="2735.99" y="-231.8" font-family="Times,serif" font-size="14.00">imports</text>
</g>
<!-- http___example_org_shapes_discourse_relationships -->
<g id="node20" class="node">
<title>http___example_org_shapes_discourse_relationships</title>
<ellipse fill="none" stroke="black" cx="2054.49" cy="-279" rx="204.96" ry="18"/>
<text text-anchor="middle" x="2054.49" y="-275.3" font-family="Times,serif" font-size="14.00">IRI &#45; http://example.org/shapes/discourse&#45;relationships</text>
</g>
<!-- http___example_org_shapes_cito&#45;&gt;http___example_org_shapes_discourse_relationships -->
<g id="edge25" class="edge">
<title>http___example_org_shapes_cito&#45;&gt;http___example_org_shapes_discourse_relationships</title>
<path fill="none" stroke="black" d="M2609.62,-352.59C2495.13,-337.62 2302.36,-312.41 2176.79,-295.99"/>
<polygon fill="black" stroke="black" points="2177.48,-292.55 2167.11,-294.73 2176.57,-299.49 2177.48,-292.55"/>
<text text-anchor="middle" x="2438.99" y="-318.8" font-family="Times,serif" font-size="14.00">imports</text>
</g>
<!-- http___example_org_shapes_situation -->
<g id="node24" class="node">
<title>http___example_org_shapes_situation</title>
<ellipse fill="none" stroke="black" cx="2886.49" cy="-279" rx="154.07" ry="18"/>
<text text-anchor="middle" x="2886.49" y="-275.3" font-family="Times,serif" font-size="14.00">IRI &#45; http://example.org/shapes/situation</text>
</g>
<!-- http___example_org_shapes_cito&#45;&gt;http___example_org_shapes_situation -->
<g id="edge26" class="edge">
<title>http___example_org_shapes_cito&#45;&gt;http___example_org_shapes_situation</title>
<path fill="none" stroke="black" d="M2740.44,-348.21C2769.02,-334.86 2809.19,-316.1 2840.17,-301.63"/>
<polygon fill="black" stroke="black" points="2841.34,-304.95 2848.92,-297.54 2838.38,-298.6 2841.34,-304.95"/>
<text text-anchor="middle" x="2826.99" y="-318.8" font-family="Times,serif" font-size="14.00">imports</text>
</g>
<!-- http___example_org_shapes_cito&#45;&gt;http___purl_org_spar_cito_2018_02_16 -->
<g id="edge27" class="edge">
<title>http___example_org_shapes_cito&#45;&gt;http___purl_org_spar_cito_2018_02_16</title>
<path fill="none" stroke="black" d="M2787.12,-351.2C2877.16,-336.16 3021.09,-312.13 3116.44,-296.21"/>
<polygon fill="black" stroke="black" points="3116.75,-299.7 3126.04,-294.6 3115.6,-292.8 3116.75,-299.7"/>
<text text-anchor="middle" x="3009.99" y="-318.8" font-family="Times,serif" font-size="14.00">imports</text>
</g>
<!-- http___example_org_shapes_cpannotationschema -->
<g id="node14" class="node">
<title>http___example_org_shapes_cpannotationschema</title>
<ellipse fill="none" stroke="black" cx="2928.49" cy="-192" rx="196.07" ry="18"/>
<text text-anchor="middle" x="2928.49" y="-188.3" font-family="Times,serif" font-size="14.00">IRI &#45; http://example.org/shapes/cpannotationschema</text>
</g>
<!-- http___example_org_shapes_cpannotationschema&#45;&gt;http___www_ontologydesignpatterns_org_schemas_cpannotationschema_owl -->
<g id="edge5" class="edge">
<title>http___example_org_shapes_cpannotationschema&#45;&gt;http___www_ontologydesignpatterns_org_schemas_cpannotationschema_owl</title>
<path fill="none" stroke="black" d="M2973.8,-174.11C3010.01,-160.61 3060.95,-141.62 3099.85,-127.12"/>
<polygon fill="black" stroke="black" points="3100.91,-130.46 3109.06,-123.68 3098.46,-123.9 3100.91,-130.46"/>
<text text-anchor="middle" x="3076.99" y="-144.8" font-family="Times,serif" font-size="14.00">imports</text>
</g>
<!-- http___purl_org_dc_elements_1_1_ -->
<g id="node32" class="node">
<title>http___purl_org_dc_elements_1_1_</title>
<ellipse fill="none" stroke="black" cx="2236.49" cy="-18" rx="140.28" ry="18"/>
<text text-anchor="middle" x="2236.49" y="-14.3" font-family="Times,serif" font-size="14.00">IRI &#45; http://purl.org/dc/elements/1.1/</text>
</g>
<!-- http___example_org_shapes_dc&#45;&gt;http___purl_org_dc_elements_1_1_ -->
<g id="edge28" class="edge">
<title>http___example_org_shapes_dc&#45;&gt;http___purl_org_dc_elements_1_1_</title>
<path fill="none" stroke="black" d="M2236.49,-86.8C2236.49,-75.58 2236.49,-60.67 2236.49,-47.69"/>
<polygon fill="black" stroke="black" points="2239.99,-47.98 2236.49,-37.98 2232.99,-47.98 2239.99,-47.98"/>
<text text-anchor="middle" x="2257.99" y="-57.8" font-family="Times,serif" font-size="14.00">imports</text>
</g>
<!-- http___example_org_shapes_dcam -->
<g id="node16" class="node">
<title>http___example_org_shapes_dcam</title>
<ellipse fill="none" stroke="black" cx="1692.49" cy="-105" rx="143.77" ry="18"/>
<text text-anchor="middle" x="1692.49" y="-101.3" font-family="Times,serif" font-size="14.00">IRI &#45; http://example.org/shapes/dcam</text>
</g>
<!-- http___purl_org_dc_dcam_ -->
<g id="node33" class="node">
<title>http___purl_org_dc_dcam_</title>
<ellipse fill="none" stroke="black" cx="1692.49" cy="-18" rx="114.28" ry="18"/>
<text text-anchor="middle" x="1692.49" y="-14.3" font-family="Times,serif" font-size="14.00">IRI &#45; http://purl.org/dc/dcam/</text>
</g>
<!-- http___example_org_shapes_dcam&#45;&gt;http___purl_org_dc_dcam_ -->
<g id="edge29" class="edge">
<title>http___example_org_shapes_dcam&#45;&gt;http___purl_org_dc_dcam_</title>
<path fill="none" stroke="black" d="M1692.49,-86.8C1692.49,-75.58 1692.49,-60.67 1692.49,-47.69"/>
<polygon fill="black" stroke="black" points="1695.99,-47.98 1692.49,-37.98 1688.99,-47.98 1695.99,-47.98"/>
<text text-anchor="middle" x="1713.99" y="-57.8" font-family="Times,serif" font-size="14.00">imports</text>
</g>
<!-- http___example_org_shapes_dcat -->
<g id="node17" class="node">
<title>http___example_org_shapes_dcat</title>
<ellipse fill="none" stroke="black" cx="1225.49" cy="-366" rx="138.38" ry="18"/>
<text text-anchor="middle" x="1225.49" y="-362.3" font-family="Times,serif" font-size="14.00">IRI &#45; http://example.org/shapes/dcat</text>
</g>
<!-- http___example_org_shapes_dcat&#45;&gt;http___www_w3_org_ns_dcat -->
<g id="edge14" class="edge">
<title>http___example_org_shapes_dcat&#45;&gt;http___www_w3_org_ns_dcat</title>
<path fill="none" stroke="black" d="M1188.34,-348.21C1158.64,-334.78 1116.79,-315.86 1084.71,-301.35"/>
<polygon fill="black" stroke="black" points="1086.17,-298.17 1075.61,-297.24 1083.28,-304.55 1086.17,-298.17"/>
<text text-anchor="middle" x="1164.99" y="-318.8" font-family="Times,serif" font-size="14.00">imports</text>
</g>
<!-- http___example_org_shapes_dcterms -->
<g id="node19" class="node">
<title>http___example_org_shapes_dcterms</title>
<ellipse fill="none" stroke="black" cx="1692.49" cy="-192" rx="152.17" ry="18"/>
<text text-anchor="middle" x="1692.49" y="-188.3" font-family="Times,serif" font-size="14.00">IRI &#45; http://example.org/shapes/dcterms</text>
</g>
<!-- http___example_org_shapes_dcat&#45;&gt;http___example_org_shapes_dcterms -->
<g id="edge30" class="edge">
<title>http___example_org_shapes_dcat&#45;&gt;http___example_org_shapes_dcterms</title>
<path fill="none" stroke="black" d="M1327.05,-353.44C1372.72,-344.13 1425.09,-327.32 1464.49,-297 1492.76,-275.24 1476.24,-248.43 1505.49,-228 1517.81,-219.39 1545.04,-212.47 1574.99,-207.14"/>
<polygon fill="black" stroke="black" points="1575.37,-210.62 1584.64,-205.5 1574.19,-203.72 1575.37,-210.62"/>
<text text-anchor="middle" x="1506.99" y="-275.3" font-family="Times,serif" font-size="14.00">imports</text>
</g>
<!-- http___example_org_shapes_foaf -->
<g id="node21" class="node">
<title>http___example_org_shapes_foaf</title>
<ellipse fill="none" stroke="black" cx="1317.49" cy="-279" rx="137.58" ry="18"/>
<text text-anchor="middle" x="1317.49" y="-275.3" font-family="Times,serif" font-size="14.00">IRI &#45; http://example.org/shapes/foaf</text>
</g>
<!-- http___example_org_shapes_dcat&#45;&gt;http___example_org_shapes_foaf -->
<g id="edge34" class="edge">
<title>http___example_org_shapes_dcat&#45;&gt;http___example_org_shapes_foaf</title>
<path fill="none" stroke="black" d="M1244.1,-347.8C1257.45,-335.47 1275.62,-318.68 1290.55,-304.89"/>
<polygon fill="black" stroke="black" points="1292.82,-307.56 1297.79,-298.2 1288.07,-302.42 1292.82,-307.56"/>
<text text-anchor="middle" x="1298.99" y="-318.8" font-family="Times,serif" font-size="14.00">imports</text>
</g>
<!-- http___example_org_shapes_vcard -->
<g id="node26" class="node">
<title>http___example_org_shapes_vcard</title>
<ellipse fill="none" stroke="black" cx="751.49" cy="-279" rx="143.77" ry="18"/>
<text text-anchor="middle" x="751.49" y="-275.3" font-family="Times,serif" font-size="14.00">IRI &#45; http://example.org/shapes/vcard</text>
</g>
<!-- http___example_org_shapes_dcat&#45;&gt;http___example_org_shapes_vcard -->
<g id="edge35" class="edge">
<title>http___example_org_shapes_dcat&#45;&gt;http___example_org_shapes_vcard</title>
<path fill="none" stroke="black" d="M1146.42,-350.82C1062.77,-335.82 930.94,-312.18 842.89,-296.39"/>
<polygon fill="black" stroke="black" points="843.52,-292.95 833.06,-294.63 842.29,-299.84 843.52,-292.95"/>
<text text-anchor="middle" x="1038.99" y="-318.8" font-family="Times,serif" font-size="14.00">imports</text>
</g>
<!-- http___example_org_shapes_dcat_us&#45;&gt;http___example_org_shapes_dcat -->
<g id="edge36" class="edge">
<title>http___example_org_shapes_dcat_us&#45;&gt;http___example_org_shapes_dcat</title>
<path fill="none" stroke="black" d="M1468.71,-435.91C1418.59,-421.71 1345.48,-401 1292.51,-385.99"/>
<polygon fill="black" stroke="black" points="1293.56,-382.65 1282.98,-383.29 1291.65,-389.38 1293.56,-382.65"/>
<text text-anchor="middle" x="1414.99" y="-405.8" font-family="Times,serif" font-size="14.00">imports</text>
</g>
<!-- http___example_org_shapes_pod -->
<g id="node23" class="node">
<title>http___example_org_shapes_pod</title>
<ellipse fill="none" stroke="black" cx="1519.49" cy="-366" rx="137.28" ry="18"/>
<text text-anchor="middle" x="1519.49" y="-362.3" font-family="Times,serif" font-size="14.00">IRI &#45; http://example.org/shapes/pod</text>
</g>
<!-- http___example_org_shapes_dcat_us&#45;&gt;http___example_org_shapes_pod -->
<g id="edge37" class="edge">
<title>http___example_org_shapes_dcat_us&#45;&gt;http___example_org_shapes_pod</title>
<path fill="none" stroke="black" d="M1524.27,-434.8C1523.48,-423.58 1522.43,-408.67 1521.51,-395.69"/>
<polygon fill="black" stroke="black" points="1525.02,-395.71 1520.83,-385.98 1518.04,-396.2 1525.02,-395.71"/>
<text text-anchor="middle" x="1544.99" y="-405.8" font-family="Times,serif" font-size="14.00">imports</text>
</g>
<!-- http___example_org_shapes_skos -->
<g id="node25" class="node">
<title>http___example_org_shapes_skos</title>
<ellipse fill="none" stroke="black" cx="1692.49" cy="-279" rx="139.98" ry="18"/>
<text text-anchor="middle" x="1692.49" y="-275.3" font-family="Times,serif" font-size="14.00">IRI &#45; http://example.org/shapes/skos</text>
</g>
<!-- http___example_org_shapes_dcat_us&#45;&gt;http___example_org_shapes_skos -->
<g id="edge38" class="edge">
<title>http___example_org_shapes_dcat_us&#45;&gt;http___example_org_shapes_skos</title>
<path fill="none" stroke="black" d="M1584.64,-436.05C1612.89,-425.59 1644.94,-409.08 1665.49,-384 1682.92,-362.72 1689.23,-331.44 1691.44,-308.74"/>
<polygon fill="black" stroke="black" points="1694.92,-309.19 1692.17,-298.96 1687.94,-308.67 1694.92,-309.19"/>
<text text-anchor="middle" x="1705.99" y="-362.3" font-family="Times,serif" font-size="14.00">imports</text>
</g>
<!-- http___example_org_shapes_dcterms&#45;&gt;http___example_org_shapes_dc -->
<g id="edge24" class="edge">
<title>http___example_org_shapes_dcterms&#45;&gt;http___example_org_shapes_dc</title>
<path fill="none" stroke="black" d="M1781.71,-177.06C1880.64,-161.6 2039.6,-136.76 2140.99,-120.92"/>
<polygon fill="black" stroke="black" points="2141.3,-124.41 2150.64,-119.41 2140.22,-117.5 2141.3,-124.41"/>
<text text-anchor="middle" x="2017.99" y="-144.8" font-family="Times,serif" font-size="14.00">imports</text>
</g>
<!-- http___example_org_shapes_dcterms&#45;&gt;http___example_org_shapes_dcam -->
<g id="edge39" class="edge">
<title>http___example_org_shapes_dcterms&#45;&gt;http___example_org_shapes_dcam</title>
<path fill="none" stroke="black" d="M1692.49,-173.8C1692.49,-162.58 1692.49,-147.67 1692.49,-134.69"/>
<polygon fill="black" stroke="black" points="1695.99,-134.98 1692.49,-124.98 1688.99,-134.98 1695.99,-134.98"/>
<text text-anchor="middle" x="1713.99" y="-144.8" font-family="Times,serif" font-size="14.00">imports</text>
</g>
<!-- http___example_org_shapes_dcterms&#45;&gt;http___purl_org_dc_terms_ -->
<g id="edge7" class="edge">
<title>http___example_org_shapes_dcterms&#45;&gt;http___purl_org_dc_terms_</title>
<path fill="none" stroke="black" d="M1618.24,-175.9C1543.89,-160.78 1429.88,-137.6 1353.79,-122.13"/>
<polygon fill="black" stroke="black" points="1354.83,-118.77 1344.33,-120.2 1353.44,-125.63 1354.83,-118.77"/>
<text text-anchor="middle" x="1530.99" y="-144.8" font-family="Times,serif" font-size="14.00">imports</text>
</g>
<!-- http___example_org_shapes_discourse_relationships&#45;&gt;http___example_org_shapes_dcterms -->
<g id="edge31" class="edge">
<title>http___example_org_shapes_discourse_relationships&#45;&gt;http___example_org_shapes_dcterms</title>
<path fill="none" stroke="black" d="M1984.69,-261.61C1923.25,-247.18 1833.9,-226.2 1770.2,-211.25"/>
<polygon fill="black" stroke="black" points="1771.02,-207.85 1760.49,-208.97 1769.42,-214.66 1771.02,-207.85"/>
<text text-anchor="middle" x="1915.99" y="-231.8" font-family="Times,serif" font-size="14.00">imports</text>
</g>
<!-- http___example_org_shapes_discourse_relationships&#45;&gt;https___raw_githubusercontent_com_casework_CASE_Corpora_main_dependencies_discourse_relationships_ttl -->
<g id="edge40" class="edge">
<title>http___example_org_shapes_discourse_relationships&#45;&gt;https___raw_githubusercontent_com_casework_CASE_Corpora_main_dependencies_discourse_relationships_ttl</title>
<path fill="none" stroke="black" d="M2097.48,-261C2131.38,-247.6 2178.88,-228.82 2215.37,-214.39"/>
<polygon fill="black" stroke="black" points="2216.41,-217.75 2224.43,-210.82 2213.84,-211.24 2216.41,-217.75"/>
<text text-anchor="middle" x="2195.99" y="-231.8" font-family="Times,serif" font-size="14.00">imports</text>
</g>
<!-- http___example_org_shapes_foaf&#45;&gt;http___xmlns_com_foaf_0_1_ -->
<g id="edge16" class="edge">
<title>http___example_org_shapes_foaf&#45;&gt;http___xmlns_com_foaf_0_1_</title>
<path fill="none" stroke="black" d="M1293.13,-260.95C1275.09,-249.33 1249.41,-234.86 1224.49,-228 1136.13,-203.69 903.94,-215.9 812.49,-210 784.81,-208.21 755,-205.88 727.1,-203.53"/>
<polygon fill="black" stroke="black" points="727.45,-200.04 717.19,-202.68 726.86,-207.02 727.45,-200.04"/>
<text text-anchor="middle" x="1283.99" y="-231.8" font-family="Times,serif" font-size="14.00">imports</text>
</g>
<!-- http___example_org_shapes_foaf&#45;&gt;http___example_org_shapes_dcterms -->
<g id="edge32" class="edge">
<title>http___example_org_shapes_foaf&#45;&gt;http___example_org_shapes_dcterms</title>
<path fill="none" stroke="black" d="M1350.42,-261.09C1373.4,-250.01 1405.1,-236.11 1434.49,-228 1460.37,-220.85 1517.8,-212.8 1571.92,-206.22"/>
<polygon fill="black" stroke="black" points="1572.04,-209.74 1581.55,-205.07 1571.2,-202.79 1572.04,-209.74"/>
<text text-anchor="middle" x="1455.99" y="-231.8" font-family="Times,serif" font-size="14.00">imports</text>
</g>
<!-- http___example_org_shapes_situation&#45;&gt;http___www_ontologydesignpatterns_org_cp_owl_situation_owl -->
<g id="edge3" class="edge">
<title>http___example_org_shapes_situation&#45;&gt;http___www_ontologydesignpatterns_org_cp_owl_situation_owl</title>
<path fill="none" stroke="black" d="M2971.14,-263.58C3056.42,-249.05 3188.21,-226.6 3280.19,-210.94"/>
<polygon fill="black" stroke="black" points="3280.73,-214.4 3290,-209.27 3279.55,-207.49 3280.73,-214.4"/>
<text text-anchor="middle" x="3186.99" y="-231.8" font-family="Times,serif" font-size="14.00">imports</text>
</g>
<!-- http___example_org_shapes_situation&#45;&gt;http___example_org_shapes_cpannotationschema -->
<g id="edge41" class="edge">
<title>http___example_org_shapes_situation&#45;&gt;http___example_org_shapes_cpannotationschema</title>
<path fill="none" stroke="black" d="M2894.99,-260.8C2900.7,-249.24 2908.35,-233.75 2914.9,-220.5"/>
<polygon fill="black" stroke="black" points="2917.89,-222.34 2919.19,-211.82 2911.62,-219.24 2917.89,-222.34"/>
<text text-anchor="middle" x="2930.99" y="-231.8" font-family="Times,serif" font-size="14.00">imports</text>
</g>
<!-- http___example_org_shapes_skos&#45;&gt;http___www_w3_org_2004_02_skos_core -->
<g id="edge9" class="edge">
<title>http___example_org_shapes_skos&#45;&gt;http___www_w3_org_2004_02_skos_core</title>
<path fill="none" stroke="black" d="M1631.23,-262.41C1575.2,-248.15 1492.21,-227.03 1432.5,-211.83"/>
<polygon fill="black" stroke="black" points="1433.65,-208.52 1423.1,-209.44 1431.92,-215.3 1433.65,-208.52"/>
<text text-anchor="middle" x="1566.99" y="-231.8" font-family="Times,serif" font-size="14.00">imports</text>
</g>
<!-- http___example_org_shapes_skos&#45;&gt;http___example_org_shapes_dcterms -->
<g id="edge33" class="edge">
<title>http___example_org_shapes_skos&#45;&gt;http___example_org_shapes_dcterms</title>
<path fill="none" stroke="black" d="M1692.49,-260.8C1692.49,-249.58 1692.49,-234.67 1692.49,-221.69"/>
<polygon fill="black" stroke="black" points="1695.99,-221.98 1692.49,-211.98 1688.99,-221.98 1695.99,-221.98"/>
<text text-anchor="middle" x="1713.99" y="-231.8" font-family="Times,serif" font-size="14.00">imports</text>
</g>
<!-- http___example_org_shapes_vcard&#45;&gt;http___www_w3_org_2006_vcard_ns -->
<g id="edge12" class="edge">
<title>http___example_org_shapes_vcard&#45;&gt;http___www_w3_org_2006_vcard_ns</title>
<path fill="none" stroke="black" d="M658.74,-264.91C549.74,-249.51 369.27,-224.03 255.01,-207.9"/>
<polygon fill="black" stroke="black" points="255.71,-204.46 245.32,-206.53 254.74,-211.4 255.71,-204.46"/>
<text text-anchor="middle" x="508.99" y="-231.8" font-family="Times,serif" font-size="14.00">imports</text>
</g>
</g>
</svg>
