<?xml version="1.0" encoding="UTF-8" standalone="no"?>
<!DOCTYPE svg PUBLIC "-//W3C//DTD SVG 1.1//EN"
 "http://www.w3.org/Graphics/SVG/1.1/DTD/svg11.dtd">
<!-- Generated by graphviz version 7.1.0 (20230121.1956)
 -->
<!-- Title: G Pages: 1 -->
<svg width="3941pt" height="740pt"
 viewBox="0.00 0.00 3940.72 740.00" xmlns="http://www.w3.org/2000/svg" xmlns:xlink="http://www.w3.org/1999/xlink">
<g id="graph0" class="graph" transform="scale(1 1) rotate(0) translate(4 736)">
<title>G</title>
<polygon fill="white" stroke="none" points="-4,4 -4,-736 3936.72,-736 3936.72,4 -4,4"/>
<!-- http___example_org_kb -->
<g id="node1" class="node">
<title>http___example_org_kb</title>
<ellipse fill="none" stroke="black" cx="1536.64" cy="-714" rx="106.68" ry="18"/>
<text text-anchor="middle" x="1536.64" y="-710.3" font-family="Times,serif" font-size="14.00">IRI &#45; http://example.org/kb</text>
</g>
<!-- http___example_org_shapes_case_corpora_local -->
<g id="node11" class="node">
<title>http___example_org_shapes_case_corpora_local</title>
<ellipse fill="none" stroke="black" cx="1536.64" cy="-627" rx="188.47" ry="18"/>
<text text-anchor="middle" x="1536.64" y="-623.3" font-family="Times,serif" font-size="14.00">IRI &#45; http://example.org/shapes/case&#45;corpora&#45;local</text>
</g>
<!-- http___example_org_kb&#45;&gt;http___example_org_shapes_case_corpora_local -->
<g id="edge1" class="edge">
<title>http___example_org_kb&#45;&gt;http___example_org_shapes_case_corpora_local</title>
<path fill="none" stroke="black" d="M1536.64,-695.8C1536.64,-684.58 1536.64,-669.67 1536.64,-656.69"/>
<polygon fill="black" stroke="black" points="1540.14,-656.98 1536.64,-646.98 1533.14,-656.98 1540.14,-656.98"/>
<text text-anchor="middle" x="1558.14" y="-666.8" font-family="Times,serif" font-size="14.00">imports</text>
</g>
<!-- http___purl_org_spar_cito -->
<g id="node2" class="node">
<title>http___purl_org_spar_cito</title>
<ellipse fill="none" stroke="black" cx="3517.64" cy="-366" rx="112.38" ry="18"/>
<text text-anchor="middle" x="3517.64" y="-362.3" font-family="Times,serif" font-size="14.00">IRI &#45; http://purl.org/spar/cito</text>
</g>
<!-- http___www_ontologydesignpatterns_org_cp_owl_situation_owl -->
<g id="node4" class="node">
<title>http___www_ontologydesignpatterns_org_cp_owl_situation_owl</title>
<ellipse fill="none" stroke="black" cx="3689.64" cy="-192" rx="243.16" ry="18"/>
<text text-anchor="middle" x="3689.64" y="-188.3" font-family="Times,serif" font-size="14.00">IRI &#45; http://www.ontologydesignpatterns.org/cp/owl/situation.owl</text>
</g>
<!-- http___purl_org_spar_cito&#45;&gt;http___www_ontologydesignpatterns_org_cp_owl_situation_owl -->
<g id="edge2" class="edge">
<title>http___purl_org_spar_cito&#45;&gt;http___www_ontologydesignpatterns_org_cp_owl_situation_owl</title>
<path fill="none" stroke="black" d="M3592.31,-352.21C3625.01,-342.62 3660.65,-325.95 3681.64,-297 3697.31,-275.38 3697.58,-244.15 3694.99,-221.56"/>
<polygon fill="black" stroke="black" points="3698.48,-221.23 3693.61,-211.82 3691.55,-222.22 3698.48,-221.23"/>
<text text-anchor="middle" x="3716.14" y="-275.3" font-family="Times,serif" font-size="14.00">imports</text>
</g>
<!-- http___purl_org_spar_cito_2018_02_16 -->
<g id="node27" class="node">
<title>http___purl_org_spar_cito_2018_02_16</title>
<ellipse fill="none" stroke="gray" cx="2407.64" cy="-279" rx="155.17" ry="18"/>
<text text-anchor="middle" x="2407.64" y="-275.3" font-family="Times,serif" font-size="14.00">IRI &#45; http://purl.org/spar/cito/2018&#45;02&#45;16</text>
</g>
<!-- http___purl_org_spar_cito&#45;&gt;http___purl_org_spar_cito_2018_02_16 -->
<g id="edge44" class="edge">
<title>http___purl_org_spar_cito&#45;&gt;http___purl_org_spar_cito_2018_02_16</title>
<path fill="none" stroke="gray" d="M3414.32,-358.64C3240.3,-347.7 2877.76,-323.86 2571.64,-297 2558.02,-295.81 2543.79,-294.47 2529.63,-293.08"/>
<polygon fill="gray" stroke="gray" points="2530.11,-289.61 2519.81,-292.1 2529.42,-296.57 2530.11,-289.61"/>
<text text-anchor="middle" x="3015.64" y="-318.8" font-family="Times,serif" font-size="14.00">versionIRI</text>
</g>
<!-- http___purl_org_spar_cito_2018_02_12 -->
<g id="node34" class="node">
<title>http___purl_org_spar_cito_2018_02_12</title>
<ellipse fill="none" stroke="black" cx="3517.64" cy="-279" rx="155.17" ry="18"/>
<text text-anchor="middle" x="3517.64" y="-275.3" font-family="Times,serif" font-size="14.00">IRI &#45; http://purl.org/spar/cito/2018&#45;02&#45;12</text>
</g>
<!-- http___purl_org_spar_cito&#45;&gt;http___purl_org_spar_cito_2018_02_12 -->
<g id="edge43" class="edge">
<title>http___purl_org_spar_cito&#45;&gt;http___purl_org_spar_cito_2018_02_12</title>
<path fill="none" stroke="gray" stroke-dasharray="5,2" d="M3517.64,-347.8C3517.64,-336.58 3517.64,-321.67 3517.64,-308.69"/>
<polygon fill="gray" stroke="gray" points="3521.14,-308.98 3517.64,-298.98 3514.14,-308.98 3521.14,-308.98"/>
<text text-anchor="middle" x="3551.64" y="-318.8" font-family="Times,serif" font-size="14.00">priorVersion</text>
</g>
<!-- http___purl_org_swan_2_0_discourse_relationships_ -->
<g id="node3" class="node">
<title>http___purl_org_swan_2_0_discourse_relationships_</title>
<ellipse fill="none" stroke="black" cx="2780.64" cy="-279" rx="199.56" ry="18"/>
<text text-anchor="middle" x="2780.64" y="-275.3" font-family="Times,serif" font-size="14.00">IRI &#45; http://purl.org/swan/2.0/discourse&#45;relationships/</text>
</g>
<!-- https___raw_githubusercontent_com_casework_CASE_Corpora_main_dependencies_discourse_relationships_ttl -->
<g id="node28" class="node">
<title>https___raw_githubusercontent_com_casework_CASE_Corpora_main_dependencies_discourse_relationships_ttl</title>
<ellipse fill="none" stroke="gray" cx="2449.64" cy="-192" rx="406.43" ry="18"/>
<text text-anchor="middle" x="2449.64" y="-188.3" font-family="Times,serif" font-size="14.00">IRI &#45; https://raw.githubusercontent.com/casework/CASE&#45;Corpora/main/dependencies/discourse&#45;relationships.ttl</text>
</g>
<!-- http___purl_org_swan_2_0_discourse_relationships_&#45;&gt;https___raw_githubusercontent_com_casework_CASE_Corpora_main_dependencies_discourse_relationships_ttl -->
<g id="edge45" class="edge">
<title>http___purl_org_swan_2_0_discourse_relationships_&#45;&gt;https___raw_githubusercontent_com_casework_CASE_Corpora_main_dependencies_discourse_relationships_ttl</title>
<path fill="none" stroke="gray" d="M2716.42,-261.51C2662.47,-247.65 2585.17,-227.81 2527.66,-213.04"/>
<polygon fill="gray" stroke="gray" points="2528.82,-209.72 2518.26,-210.62 2527.08,-216.5 2528.82,-209.72"/>
<text text-anchor="middle" x="2663.64" y="-231.8" font-family="Times,serif" font-size="14.00">versionIRI</text>
</g>
<!-- http___www_ontologydesignpatterns_org_schemas_cpannotationschema_owl -->
<g id="node5" class="node">
<title>http___www_ontologydesignpatterns_org_schemas_cpannotationschema_owl</title>
<ellipse fill="none" stroke="black" cx="3461.64" cy="-105" rx="291.35" ry="18"/>
<text text-anchor="middle" x="3461.64" y="-101.3" font-family="Times,serif" font-size="14.00">IRI &#45; http://www.ontologydesignpatterns.org/schemas/cpannotationschema.owl</text>
</g>
<!-- http___www_ontologydesignpatterns_org_cp_owl_situation_owl&#45;&gt;http___www_ontologydesignpatterns_org_schemas_cpannotationschema_owl -->
<g id="edge4" class="edge">
<title>http___www_ontologydesignpatterns_org_cp_owl_situation_owl&#45;&gt;http___www_ontologydesignpatterns_org_schemas_cpannotationschema_owl</title>
<path fill="none" stroke="black" d="M3643.77,-173.9C3607.64,-160.43 3557.08,-141.58 3518.39,-127.16"/>
<polygon fill="black" stroke="black" points="3519.83,-123.96 3509.24,-123.75 3517.38,-130.52 3519.83,-123.96"/>
<text text-anchor="middle" x="3610.14" y="-144.8" font-family="Times,serif" font-size="14.00">imports</text>
</g>
<!-- http___www_w3_org_2004_02_skos_core -->
<g id="node6" class="node">
<title>http___www_w3_org_2004_02_skos_core</title>
<ellipse fill="none" stroke="black" cx="1362.64" cy="-192" rx="163.57" ry="18"/>
<text text-anchor="middle" x="1362.64" y="-188.3" font-family="Times,serif" font-size="14.00">IRI &#45; http://www.w3.org/2004/02/skos/core</text>
</g>
<!-- http___www_w3_org_2006_vcard_ns -->
<g id="node7" class="node">
<title>http___www_w3_org_2006_vcard_ns</title>
<ellipse fill="none" stroke="black" cx="323.64" cy="-192" rx="149.47" ry="18"/>
<text text-anchor="middle" x="323.64" y="-188.3" font-family="Times,serif" font-size="14.00">IRI &#45; http://www.w3.org/2006/vcard/ns</text>
</g>
<!-- http___www_w3_org_ns_dcat -->
<g id="node8" class="node">
<title>http___www_w3_org_ns_dcat</title>
<ellipse fill="none" stroke="black" cx="1682.64" cy="-279" rx="124.28" ry="18"/>
<text text-anchor="middle" x="1682.64" y="-275.3" font-family="Times,serif" font-size="14.00">IRI &#45; http://www.w3.org/ns/dcat</text>
</g>
<!-- http___www_w3_org_ns_dcat&#45;&gt;http___www_w3_org_2004_02_skos_core -->
<g id="edge8" class="edge">
<title>http___www_w3_org_ns_dcat&#45;&gt;http___www_w3_org_2004_02_skos_core</title>
<path fill="none" stroke="black" d="M1631.21,-262.18C1597.36,-251.96 1552.02,-238.64 1511.64,-228 1489.77,-222.24 1465.97,-216.44 1443.94,-211.26"/>
<polygon fill="black" stroke="black" points="1444.95,-207.91 1434.42,-209.04 1443.36,-214.72 1444.95,-207.91"/>
<text text-anchor="middle" x="1585.14" y="-231.8" font-family="Times,serif" font-size="14.00">imports</text>
</g>
<!-- http___purl_org_dc_terms_ -->
<g id="node29" class="node">
<title>http___purl_org_dc_terms_</title>
<ellipse fill="none" stroke="black" cx="1669.64" cy="-105" rx="115.08" ry="18"/>
<text text-anchor="middle" x="1669.64" y="-101.3" font-family="Times,serif" font-size="14.00">IRI &#45; http://purl.org/dc/terms/</text>
</g>
<!-- http___www_w3_org_ns_dcat&#45;&gt;http___purl_org_dc_terms_ -->
<g id="edge6" class="edge">
<title>http___www_w3_org_ns_dcat&#45;&gt;http___purl_org_dc_terms_</title>
<path fill="none" stroke="black" d="M1778.54,-267.19C1807.36,-261.84 1833.72,-254.08 1842.64,-243 1854.82,-227.87 1855.84,-204.95 1829.64,-174 1808.88,-149.48 1777.73,-133.6 1748.41,-123.41"/>
<polygon fill="black" stroke="black" points="1749.75,-120.16 1739.15,-120.38 1747.57,-126.81 1749.75,-120.16"/>
<text text-anchor="middle" x="1872.14" y="-188.3" font-family="Times,serif" font-size="14.00">imports</text>
</g>
<!-- http___www_w3_org_ns_prov_o_ -->
<g id="node30" class="node">
<title>http___www_w3_org_ns_prov_o_</title>
<ellipse fill="none" stroke="black" cx="1682.64" cy="-192" rx="137.58" ry="18"/>
<text text-anchor="middle" x="1682.64" y="-188.3" font-family="Times,serif" font-size="14.00">IRI &#45; http://www.w3.org/ns/prov&#45;o#</text>
</g>
<!-- http___www_w3_org_ns_dcat&#45;&gt;http___www_w3_org_ns_prov_o_ -->
<g id="edge10" class="edge">
<title>http___www_w3_org_ns_dcat&#45;&gt;http___www_w3_org_ns_prov_o_</title>
<path fill="none" stroke="black" d="M1682.64,-260.8C1682.64,-249.58 1682.64,-234.67 1682.64,-221.69"/>
<polygon fill="black" stroke="black" points="1686.14,-221.98 1682.64,-211.98 1679.14,-221.98 1686.14,-221.98"/>
<text text-anchor="middle" x="1704.14" y="-231.8" font-family="Times,serif" font-size="14.00">imports</text>
</g>
<!-- http___xmlns_com_foaf_0_1_ -->
<g id="node9" class="node">
<title>http___xmlns_com_foaf_0_1_</title>
<ellipse fill="none" stroke="black" cx="1056.64" cy="-192" rx="124.28" ry="18"/>
<text text-anchor="middle" x="1056.64" y="-188.3" font-family="Times,serif" font-size="14.00">IRI &#45; http://xmlns.com/foaf/0.1/</text>
</g>
<!-- http___example_org_ontology_case_corpora -->
<g id="node10" class="node">
<title>http___example_org_ontology_case_corpora</title>
<ellipse fill="none" stroke="black" cx="1497.64" cy="-366" rx="176.57" ry="18"/>
<text text-anchor="middle" x="1497.64" y="-362.3" font-family="Times,serif" font-size="14.00">IRI &#45; http://example.org/ontology/case&#45;corpora</text>
</g>
<!-- http___example_org_ontology_case_corpora&#45;&gt;http___www_w3_org_2006_vcard_ns -->
<g id="edge13" class="edge">
<title>http___example_org_ontology_case_corpora&#45;&gt;http___www_w3_org_2006_vcard_ns</title>
<path fill="none" stroke="black" d="M1336.97,-358.25C1044.69,-345.52 452.22,-317.39 411.64,-297 410.5,-296.43 370.74,-249.17 345.06,-218.56"/>
<polygon fill="black" stroke="black" points="348,-216.62 338.89,-211.21 342.64,-221.12 348,-216.62"/>
<text text-anchor="middle" x="433.14" y="-275.3" font-family="Times,serif" font-size="14.00">imports</text>
</g>
<!-- http___example_org_ontology_case_corpora&#45;&gt;http___www_w3_org_ns_dcat -->
<g id="edge15" class="edge">
<title>http___example_org_ontology_case_corpora&#45;&gt;http___www_w3_org_ns_dcat</title>
<path fill="none" stroke="black" d="M1534.63,-348C1563.81,-334.6 1604.68,-315.82 1636.08,-301.39"/>
<polygon fill="black" stroke="black" points="1637.34,-304.66 1644.96,-297.31 1634.42,-298.3 1637.34,-304.66"/>
<text text-anchor="middle" x="1623.14" y="-318.8" font-family="Times,serif" font-size="14.00">imports</text>
</g>
<!-- http___example_org_ontology_case_corpora&#45;&gt;http___xmlns_com_foaf_0_1_ -->
<g id="edge17" class="edge">
<title>http___example_org_ontology_case_corpora&#45;&gt;http___xmlns_com_foaf_0_1_</title>
<path fill="none" stroke="black" d="M1498.48,-347.76C1498.6,-324.45 1495.02,-283.26 1470.64,-261 1459.02,-250.4 1274.71,-223.16 1155.97,-206.55"/>
<polygon fill="black" stroke="black" points="1156.57,-203.1 1146.19,-205.19 1155.61,-210.04 1156.57,-203.1"/>
<text text-anchor="middle" x="1513.14" y="-275.3" font-family="Times,serif" font-size="14.00">imports</text>
</g>
<!-- http___example_org_ontology_case_corpora&#45;&gt;http___purl_org_spar_cito_2018_02_16 -->
<g id="edge11" class="edge">
<title>http___example_org_ontology_case_corpora&#45;&gt;http___purl_org_spar_cito_2018_02_16</title>
<path fill="none" stroke="black" d="M1671.53,-362.59C1860.62,-358.97 2150.33,-350.25 2258.64,-330 2292.29,-323.71 2328.75,-311.57 2357.18,-300.83"/>
<polygon fill="black" stroke="black" points="2358.17,-304.2 2366.24,-297.34 2355.65,-297.67 2358.17,-304.2"/>
<text text-anchor="middle" x="2334.14" y="-318.8" font-family="Times,serif" font-size="14.00">imports</text>
</g>
<!-- https___ontology_caseontology_org_case_case_1_1_0 -->
<g id="node31" class="node">
<title>https___ontology_caseontology_org_case_case_1_1_0</title>
<ellipse fill="none" stroke="black" cx="1258.64" cy="-279" rx="203.36" ry="18"/>
<text text-anchor="middle" x="1258.64" y="-275.3" font-family="Times,serif" font-size="14.00">IRI &#45; https://ontology.caseontology.org/case/case/1.1.0</text>
</g>
<!-- http___example_org_ontology_case_corpora&#45;&gt;https___ontology_caseontology_org_case_case_1_1_0 -->
<g id="edge19" class="edge">
<title>http___example_org_ontology_case_corpora&#45;&gt;https___ontology_caseontology_org_case_case_1_1_0</title>
<path fill="none" stroke="black" d="M1383.42,-351.91C1360.93,-346.83 1338.01,-339.78 1317.64,-330 1304.72,-323.8 1292.32,-314.08 1282.24,-304.85"/>
<polygon fill="black" stroke="black" points="1284.77,-302.42 1275.13,-298.01 1279.92,-307.47 1284.77,-302.42"/>
<text text-anchor="middle" x="1339.14" y="-318.8" font-family="Times,serif" font-size="14.00">imports</text>
</g>
<!-- http___example_org_shapes_case_corpora -->
<g id="node12" class="node">
<title>http___example_org_shapes_case_corpora</title>
<ellipse fill="none" stroke="black" cx="1536.64" cy="-540" rx="168.97" ry="18"/>
<text text-anchor="middle" x="1536.64" y="-536.3" font-family="Times,serif" font-size="14.00">IRI &#45; http://example.org/shapes/case&#45;corpora</text>
</g>
<!-- http___example_org_shapes_case_corpora_local&#45;&gt;http___example_org_shapes_case_corpora -->
<g id="edge20" class="edge">
<title>http___example_org_shapes_case_corpora_local&#45;&gt;http___example_org_shapes_case_corpora</title>
<path fill="none" stroke="black" d="M1536.64,-608.8C1536.64,-597.58 1536.64,-582.67 1536.64,-569.69"/>
<polygon fill="black" stroke="black" points="1540.14,-569.98 1536.64,-559.98 1533.14,-569.98 1540.14,-569.98"/>
<text text-anchor="middle" x="1558.14" y="-579.8" font-family="Times,serif" font-size="14.00">imports</text>
</g>
<!-- http___example_org_shapes_case_corpora&#45;&gt;http___example_org_ontology_case_corpora -->
<g id="edge21" class="edge">
<title>http___example_org_shapes_case_corpora&#45;&gt;http___example_org_ontology_case_corpora</title>
<path fill="none" stroke="black" d="M1529.09,-521.72C1523.46,-508.17 1516.03,-488.7 1511.64,-471 1505.41,-445.87 1501.78,-416.59 1499.78,-395.52"/>
<polygon fill="black" stroke="black" points="1503.28,-395.31 1498.92,-385.66 1496.31,-395.92 1503.28,-395.31"/>
<text text-anchor="middle" x="1533.14" y="-449.3" font-family="Times,serif" font-size="14.00">imports</text>
</g>
<!-- http___example_org_shapes_cito -->
<g id="node13" class="node">
<title>http___example_org_shapes_cito</title>
<ellipse fill="none" stroke="black" cx="2407.64" cy="-366" rx="137.28" ry="18"/>
<text text-anchor="middle" x="2407.64" y="-362.3" font-family="Times,serif" font-size="14.00">IRI &#45; http://example.org/shapes/cito</text>
</g>
<!-- http___example_org_shapes_case_corpora&#45;&gt;http___example_org_shapes_cito -->
<g id="edge22" class="edge">
<title>http___example_org_shapes_case_corpora&#45;&gt;http___example_org_shapes_cito</title>
<path fill="none" stroke="black" d="M1539.38,-521.56C1544.16,-497.62 1556.45,-455.25 1585.64,-435 1639.88,-397.37 2042.55,-378.67 2263.5,-371.15"/>
<polygon fill="black" stroke="black" points="2263.47,-374.65 2273.34,-370.82 2263.23,-367.66 2263.47,-374.65"/>
<text text-anchor="middle" x="1607.14" y="-449.3" font-family="Times,serif" font-size="14.00">imports</text>
</g>
<!-- http___example_org_shapes_dcat_us -->
<g id="node18" class="node">
<title>http___example_org_shapes_dcat_us</title>
<ellipse fill="none" stroke="black" cx="702.64" cy="-453" rx="149.47" ry="18"/>
<text text-anchor="middle" x="702.64" y="-449.3" font-family="Times,serif" font-size="14.00">IRI &#45; http://example.org/shapes/dcat&#45;us</text>
</g>
<!-- http___example_org_shapes_case_corpora&#45;&gt;http___example_org_shapes_dcat_us -->
<g id="edge23" class="edge">
<title>http___example_org_shapes_case_corpora&#45;&gt;http___example_org_shapes_dcat_us</title>
<path fill="none" stroke="black" d="M1417.59,-526.87C1260.24,-510.83 984.43,-482.72 825.29,-466.5"/>
<polygon fill="black" stroke="black" points="825.85,-463.04 815.55,-465.51 825.14,-470 825.85,-463.04"/>
<text text-anchor="middle" x="1191.14" y="-492.8" font-family="Times,serif" font-size="14.00">imports</text>
</g>
<!-- http___example_org_shapes_owl_abox -->
<g id="node22" class="node">
<title>http___example_org_shapes_owl_abox</title>
<ellipse fill="none" stroke="black" cx="1794.64" cy="-453" rx="157.07" ry="18"/>
<text text-anchor="middle" x="1794.64" y="-449.3" font-family="Times,serif" font-size="14.00">IRI &#45; http://example.org/shapes/owl&#45;abox</text>
</g>
<!-- http___example_org_shapes_case_corpora&#45;&gt;http___example_org_shapes_owl_abox -->
<g id="edge24" class="edge">
<title>http___example_org_shapes_case_corpora&#45;&gt;http___example_org_shapes_owl_abox</title>
<path fill="none" stroke="black" d="M1586.99,-522.41C1629.13,-508.53 1689.36,-488.68 1734.11,-473.94"/>
<polygon fill="black" stroke="black" points="1735.01,-477.33 1743.41,-470.88 1732.82,-470.68 1735.01,-477.33"/>
<text text-anchor="middle" x="1703.14" y="-492.8" font-family="Times,serif" font-size="14.00">imports</text>
</g>
<!-- http___example_org_shapes_dc -->
<g id="node15" class="node">
<title>http___example_org_shapes_dc</title>
<ellipse fill="none" stroke="black" cx="2191.64" cy="-105" rx="131.88" ry="18"/>
<text text-anchor="middle" x="2191.64" y="-101.3" font-family="Times,serif" font-size="14.00">IRI &#45; http://example.org/shapes/dc</text>
</g>
<!-- http___example_org_shapes_cito&#45;&gt;http___example_org_shapes_dc -->
<g id="edge25" class="edge">
<title>http___example_org_shapes_cito&#45;&gt;http___example_org_shapes_dc</title>
<path fill="none" stroke="black" d="M2534.94,-358.97C2697.08,-349.96 2959.94,-330.37 2989.64,-297 3000.27,-285.05 2997.05,-275.18 2989.64,-261 2958.3,-201.01 2928.12,-197.49 2864.64,-174 2769.35,-138.75 2495.44,-120.08 2327.88,-111.69"/>
<polygon fill="black" stroke="black" points="2328.18,-108.2 2318.02,-111.2 2327.83,-115.19 2328.18,-108.2"/>
<text text-anchor="middle" x="3000.14" y="-231.8" font-family="Times,serif" font-size="14.00">imports</text>
</g>
<!-- http___example_org_shapes_discourse_relationships -->
<g id="node20" class="node">
<title>http___example_org_shapes_discourse_relationships</title>
<ellipse fill="none" stroke="black" cx="2029.64" cy="-279" rx="204.96" ry="18"/>
<text text-anchor="middle" x="2029.64" y="-275.3" font-family="Times,serif" font-size="14.00">IRI &#45; http://example.org/shapes/discourse&#45;relationships</text>
</g>
<!-- http___example_org_shapes_cito&#45;&gt;http___example_org_shapes_discourse_relationships -->
<g id="edge27" class="edge">
<title>http___example_org_shapes_cito&#45;&gt;http___example_org_shapes_discourse_relationships</title>
<path fill="none" stroke="black" d="M2324.17,-351.33C2290.35,-345.38 2251.01,-337.96 2215.64,-330 2176.34,-321.15 2132.84,-309.56 2097.8,-299.77"/>
<polygon fill="black" stroke="black" points="2098.76,-296.4 2088.19,-297.06 2096.87,-303.14 2098.76,-296.4"/>
<text text-anchor="middle" x="2237.14" y="-318.8" font-family="Times,serif" font-size="14.00">imports</text>
</g>
<!-- http___example_org_shapes_situation -->
<g id="node24" class="node">
<title>http___example_org_shapes_situation</title>
<ellipse fill="none" stroke="black" cx="3190.64" cy="-279" rx="154.07" ry="18"/>
<text text-anchor="middle" x="3190.64" y="-275.3" font-family="Times,serif" font-size="14.00">IRI &#45; http://example.org/shapes/situation</text>
</g>
<!-- http___example_org_shapes_cito&#45;&gt;http___example_org_shapes_situation -->
<g id="edge28" class="edge">
<title>http___example_org_shapes_cito&#45;&gt;http___example_org_shapes_situation</title>
<path fill="none" stroke="black" d="M2542.53,-362.47C2734.1,-358.26 3067.74,-348.39 3120.64,-330 3136.37,-324.53 3151.69,-314.33 3163.96,-304.56"/>
<polygon fill="black" stroke="black" points="3166.11,-307.33 3171.55,-298.23 3161.63,-301.95 3166.11,-307.33"/>
<text text-anchor="middle" x="3169.14" y="-318.8" font-family="Times,serif" font-size="14.00">imports</text>
</g>
<!-- http___example_org_shapes_cito&#45;&gt;http___purl_org_spar_cito_2018_02_16 -->
<g id="edge12" class="edge">
<title>http___example_org_shapes_cito&#45;&gt;http___purl_org_spar_cito_2018_02_16</title>
<path fill="none" stroke="black" d="M2407.64,-347.8C2407.64,-336.58 2407.64,-321.67 2407.64,-308.69"/>
<polygon fill="black" stroke="black" points="2411.14,-308.98 2407.64,-298.98 2404.14,-308.98 2411.14,-308.98"/>
<text text-anchor="middle" x="2429.14" y="-318.8" font-family="Times,serif" font-size="14.00">imports</text>
</g>
<!-- http___example_org_shapes_cpannotationschema -->
<g id="node14" class="node">
<title>http___example_org_shapes_cpannotationschema</title>
<ellipse fill="none" stroke="black" cx="3232.64" cy="-192" rx="196.07" ry="18"/>
<text text-anchor="middle" x="3232.64" y="-188.3" font-family="Times,serif" font-size="14.00">IRI &#45; http://example.org/shapes/cpannotationschema</text>
</g>
<!-- http___example_org_shapes_cpannotationschema&#45;&gt;http___www_ontologydesignpatterns_org_schemas_cpannotationschema_owl -->
<g id="edge5" class="edge">
<title>http___example_org_shapes_cpannotationschema&#45;&gt;http___www_ontologydesignpatterns_org_schemas_cpannotationschema_owl</title>
<path fill="none" stroke="black" d="M3278.15,-174.11C3314.52,-160.61 3365.68,-141.62 3404.75,-127.12"/>
<polygon fill="black" stroke="black" points="3405.85,-130.44 3414,-123.68 3403.41,-123.88 3405.85,-130.44"/>
<text text-anchor="middle" x="3382.14" y="-144.8" font-family="Times,serif" font-size="14.00">imports</text>
</g>
<!-- http___purl_org_dc_elements_1_1_ -->
<g id="node32" class="node">
<title>http___purl_org_dc_elements_1_1_</title>
<ellipse fill="none" stroke="black" cx="2191.64" cy="-18" rx="140.28" ry="18"/>
<text text-anchor="middle" x="2191.64" y="-14.3" font-family="Times,serif" font-size="14.00">IRI &#45; http://purl.org/dc/elements/1.1/</text>
</g>
<!-- http___example_org_shapes_dc&#45;&gt;http___purl_org_dc_elements_1_1_ -->
<g id="edge29" class="edge">
<title>http___example_org_shapes_dc&#45;&gt;http___purl_org_dc_elements_1_1_</title>
<path fill="none" stroke="black" d="M2191.64,-86.8C2191.64,-75.58 2191.64,-60.67 2191.64,-47.69"/>
<polygon fill="black" stroke="black" points="2195.14,-47.98 2191.64,-37.98 2188.14,-47.98 2195.14,-47.98"/>
<text text-anchor="middle" x="2213.14" y="-57.8" font-family="Times,serif" font-size="14.00">imports</text>
</g>
<!-- http___example_org_shapes_dcam -->
<g id="node16" class="node">
<title>http___example_org_shapes_dcam</title>
<ellipse fill="none" stroke="black" cx="762.64" cy="-105" rx="143.77" ry="18"/>
<text text-anchor="middle" x="762.64" y="-101.3" font-family="Times,serif" font-size="14.00">IRI &#45; http://example.org/shapes/dcam</text>
</g>
<!-- http___purl_org_dc_dcam_ -->
<g id="node33" class="node">
<title>http___purl_org_dc_dcam_</title>
<ellipse fill="none" stroke="black" cx="762.64" cy="-18" rx="114.28" ry="18"/>
<text text-anchor="middle" x="762.64" y="-14.3" font-family="Times,serif" font-size="14.00">IRI &#45; http://purl.org/dc/dcam/</text>
</g>
<!-- http___example_org_shapes_dcam&#45;&gt;http___purl_org_dc_dcam_ -->
<g id="edge30" class="edge">
<title>http___example_org_shapes_dcam&#45;&gt;http___purl_org_dc_dcam_</title>
<path fill="none" stroke="black" d="M762.64,-86.8C762.64,-75.58 762.64,-60.67 762.64,-47.69"/>
<polygon fill="black" stroke="black" points="766.14,-47.98 762.64,-37.98 759.14,-47.98 766.14,-47.98"/>
<text text-anchor="middle" x="784.14" y="-57.8" font-family="Times,serif" font-size="14.00">imports</text>
</g>
<!-- http___example_org_shapes_dcat -->
<g id="node17" class="node">
<title>http___example_org_shapes_dcat</title>
<ellipse fill="none" stroke="black" cx="356.64" cy="-366" rx="138.38" ry="18"/>
<text text-anchor="middle" x="356.64" y="-362.3" font-family="Times,serif" font-size="14.00">IRI &#45; http://example.org/shapes/dcat</text>
</g>
<!-- http___example_org_shapes_dcat&#45;&gt;http___www_w3_org_ns_dcat -->
<g id="edge16" class="edge">
<title>http___example_org_shapes_dcat&#45;&gt;http___www_w3_org_ns_dcat</title>
<path fill="none" stroke="black" d="M469.59,-355.3C505.39,-352.54 545.15,-349.8 581.64,-348 927.53,-330.95 1015.68,-360.64 1360.64,-330 1442.27,-322.75 1534.63,-307.69 1599.43,-295.99"/>
<polygon fill="black" stroke="black" points="1599.69,-299.5 1608.91,-294.26 1598.44,-292.61 1599.69,-299.5"/>
<text text-anchor="middle" x="1498.14" y="-318.8" font-family="Times,serif" font-size="14.00">imports</text>
</g>
<!-- http___example_org_shapes_dcterms -->
<g id="node19" class="node">
<title>http___example_org_shapes_dcterms</title>
<ellipse fill="none" stroke="black" cx="762.64" cy="-192" rx="152.17" ry="18"/>
<text text-anchor="middle" x="762.64" y="-188.3" font-family="Times,serif" font-size="14.00">IRI &#45; http://example.org/shapes/dcterms</text>
</g>
<!-- http___example_org_shapes_dcat&#45;&gt;http___example_org_shapes_dcterms -->
<g id="edge31" class="edge">
<title>http___example_org_shapes_dcat&#45;&gt;http___example_org_shapes_dcterms</title>
<path fill="none" stroke="black" d="M345.88,-347.69C333.33,-325.07 316.8,-285.44 337.64,-261 371.94,-220.77 498.15,-204.24 604.2,-197.5"/>
<polygon fill="black" stroke="black" points="604.1,-201.01 613.87,-196.91 603.67,-194.03 604.1,-201.01"/>
<text text-anchor="middle" x="359.14" y="-275.3" font-family="Times,serif" font-size="14.00">imports</text>
</g>
<!-- http___example_org_shapes_foaf -->
<g id="node21" class="node">
<title>http___example_org_shapes_foaf</title>
<ellipse fill="none" stroke="black" cx="899.64" cy="-279" rx="137.58" ry="18"/>
<text text-anchor="middle" x="899.64" y="-275.3" font-family="Times,serif" font-size="14.00">IRI &#45; http://example.org/shapes/foaf</text>
</g>
<!-- http___example_org_shapes_dcat&#45;&gt;http___example_org_shapes_foaf -->
<g id="edge35" class="edge">
<title>http___example_org_shapes_dcat&#45;&gt;http___example_org_shapes_foaf</title>
<path fill="none" stroke="black" d="M442.68,-351.53C540.68,-336.19 700.44,-311.18 802.74,-295.17"/>
<polygon fill="black" stroke="black" points="803.17,-298.64 812.5,-293.64 802.08,-291.73 803.17,-298.64"/>
<text text-anchor="middle" x="683.14" y="-318.8" font-family="Times,serif" font-size="14.00">imports</text>
</g>
<!-- http___example_org_shapes_vcard -->
<g id="node26" class="node">
<title>http___example_org_shapes_vcard</title>
<ellipse fill="none" stroke="black" cx="143.64" cy="-279" rx="143.77" ry="18"/>
<text text-anchor="middle" x="143.64" y="-275.3" font-family="Times,serif" font-size="14.00">IRI &#45; http://example.org/shapes/vcard</text>
</g>
<!-- http___example_org_shapes_dcat&#45;&gt;http___example_org_shapes_vcard -->
<g id="edge36" class="edge">
<title>http___example_org_shapes_dcat&#45;&gt;http___example_org_shapes_vcard</title>
<path fill="none" stroke="black" d="M314.01,-348.57C299.01,-342.76 282.06,-336.13 266.64,-330 242.98,-320.59 216.85,-310 194.78,-300.99"/>
<polygon fill="black" stroke="black" points="196.28,-297.82 185.7,-297.28 193.63,-304.3 196.28,-297.82"/>
<text text-anchor="middle" x="288.14" y="-318.8" font-family="Times,serif" font-size="14.00">imports</text>
</g>
<!-- http___example_org_shapes_dcat_us&#45;&gt;http___example_org_shapes_dcat -->
<g id="edge37" class="edge">
<title>http___example_org_shapes_dcat_us&#45;&gt;http___example_org_shapes_dcat</title>
<path fill="none" stroke="black" d="M631.84,-436.69C605.09,-430.76 574.41,-423.77 546.64,-417 506.24,-407.16 461.24,-395.35 425.18,-385.68"/>
<polygon fill="black" stroke="black" points="426.31,-382.37 415.75,-383.15 424.5,-389.13 426.31,-382.37"/>
<text text-anchor="middle" x="568.14" y="-405.8" font-family="Times,serif" font-size="14.00">imports</text>
</g>
<!-- http___example_org_shapes_pod -->
<g id="node23" class="node">
<title>http___example_org_shapes_pod</title>
<ellipse fill="none" stroke="black" cx="801.64" cy="-366" rx="137.28" ry="18"/>
<text text-anchor="middle" x="801.64" y="-362.3" font-family="Times,serif" font-size="14.00">IRI &#45; http://example.org/shapes/pod</text>
</g>
<!-- http___example_org_shapes_dcat_us&#45;&gt;http___example_org_shapes_pod -->
<g id="edge38" class="edge">
<title>http___example_org_shapes_dcat_us&#45;&gt;http___example_org_shapes_pod</title>
<path fill="none" stroke="black" d="M722.67,-434.8C737.16,-422.36 756.95,-405.36 773.1,-391.5"/>
<polygon fill="black" stroke="black" points="775.18,-394.33 780.48,-385.16 770.62,-389.02 775.18,-394.33"/>
<text text-anchor="middle" x="780.14" y="-405.8" font-family="Times,serif" font-size="14.00">imports</text>
</g>
<!-- http___example_org_shapes_skos -->
<g id="node25" class="node">
<title>http___example_org_shapes_skos</title>
<ellipse fill="none" stroke="black" cx="603.64" cy="-279" rx="139.98" ry="18"/>
<text text-anchor="middle" x="603.64" y="-275.3" font-family="Times,serif" font-size="14.00">IRI &#45; http://example.org/shapes/skos</text>
</g>
<!-- http___example_org_shapes_dcat_us&#45;&gt;http___example_org_shapes_skos -->
<g id="edge39" class="edge">
<title>http___example_org_shapes_dcat_us&#45;&gt;http___example_org_shapes_skos</title>
<path fill="none" stroke="black" d="M668.1,-435.25C648.33,-423.73 625.05,-406.45 612.64,-384 599.91,-360.98 598.72,-330.64 600.08,-308.67"/>
<polygon fill="black" stroke="black" points="603.55,-309.2 600.91,-298.94 596.57,-308.61 603.55,-309.2"/>
<text text-anchor="middle" x="634.14" y="-362.3" font-family="Times,serif" font-size="14.00">imports</text>
</g>
<!-- http___example_org_shapes_dcterms&#45;&gt;http___example_org_shapes_dc -->
<g id="edge26" class="edge">
<title>http___example_org_shapes_dcterms&#45;&gt;http___example_org_shapes_dc</title>
<path fill="none" stroke="black" d="M869.51,-178.81C887.56,-177.01 906.12,-175.32 923.64,-174 1098.88,-160.77 1143.13,-165.02 1318.64,-156 1582.76,-142.42 1891.69,-124.17 2062.13,-113.89"/>
<polygon fill="black" stroke="black" points="2062.12,-117.4 2071.89,-113.3 2061.7,-110.41 2062.12,-117.4"/>
<text text-anchor="middle" x="1605.14" y="-144.8" font-family="Times,serif" font-size="14.00">imports</text>
</g>
<!-- http___example_org_shapes_dcterms&#45;&gt;http___example_org_shapes_dcam -->
<g id="edge40" class="edge">
<title>http___example_org_shapes_dcterms&#45;&gt;http___example_org_shapes_dcam</title>
<path fill="none" stroke="black" d="M762.64,-173.8C762.64,-162.58 762.64,-147.67 762.64,-134.69"/>
<polygon fill="black" stroke="black" points="766.14,-134.98 762.64,-124.98 759.14,-134.98 766.14,-134.98"/>
<text text-anchor="middle" x="784.14" y="-144.8" font-family="Times,serif" font-size="14.00">imports</text>
</g>
<!-- http___example_org_shapes_dcterms&#45;&gt;http___purl_org_dc_terms_ -->
<g id="edge7" class="edge">
<title>http___example_org_shapes_dcterms&#45;&gt;http___purl_org_dc_terms_</title>
<path fill="none" stroke="black" d="M872.61,-179.18C889.69,-177.4 907.13,-175.62 923.64,-174 1149.59,-151.77 1414.29,-128.24 1559.82,-115.52"/>
<polygon fill="black" stroke="black" points="1559.78,-119.03 1569.44,-114.68 1559.17,-112.06 1559.78,-119.03"/>
<text text-anchor="middle" x="1293.14" y="-144.8" font-family="Times,serif" font-size="14.00">imports</text>
</g>
<!-- http___example_org_shapes_discourse_relationships&#45;&gt;http___example_org_shapes_dcterms -->
<g id="edge32" class="edge">
<title>http___example_org_shapes_discourse_relationships&#45;&gt;http___example_org_shapes_dcterms</title>
<path fill="none" stroke="black" d="M1952.02,-261.93C1891.69,-250.2 1805.73,-235.15 1729.64,-228 1372.9,-194.46 1281.22,-232.83 923.64,-210 909.22,-209.08 894.1,-207.84 879.15,-206.46"/>
<polygon fill="black" stroke="black" points="879.55,-202.98 869.26,-205.51 878.88,-209.95 879.55,-202.98"/>
<text text-anchor="middle" x="1859.14" y="-231.8" font-family="Times,serif" font-size="14.00">imports</text>
</g>
<!-- http___example_org_shapes_discourse_relationships&#45;&gt;https___raw_githubusercontent_com_casework_CASE_Corpora_main_dependencies_discourse_relationships_ttl -->
<g id="edge41" class="edge">
<title>http___example_org_shapes_discourse_relationships&#45;&gt;https___raw_githubusercontent_com_casework_CASE_Corpora_main_dependencies_discourse_relationships_ttl</title>
<path fill="none" stroke="black" d="M2108.64,-262.01C2178.25,-247.92 2279.84,-227.36 2354.03,-212.35"/>
<polygon fill="black" stroke="black" points="2354.64,-215.8 2363.74,-210.38 2353.25,-208.94 2354.64,-215.8"/>
<text text-anchor="middle" x="2286.14" y="-231.8" font-family="Times,serif" font-size="14.00">imports</text>
</g>
<!-- http___example_org_shapes_foaf&#45;&gt;http___xmlns_com_foaf_0_1_ -->
<g id="edge18" class="edge">
<title>http___example_org_shapes_foaf&#45;&gt;http___xmlns_com_foaf_0_1_</title>
<path fill="none" stroke="black" d="M931.03,-261C955.28,-247.87 989.06,-229.59 1015.47,-215.29"/>
<polygon fill="black" stroke="black" points="1017.11,-218.38 1024.23,-210.54 1013.77,-212.23 1017.11,-218.38"/>
<text text-anchor="middle" x="1009.14" y="-231.8" font-family="Times,serif" font-size="14.00">imports</text>
</g>
<!-- http___example_org_shapes_foaf&#45;&gt;http___example_org_shapes_dcterms -->
<g id="edge33" class="edge">
<title>http___example_org_shapes_foaf&#45;&gt;http___example_org_shapes_dcterms</title>
<path fill="none" stroke="black" d="M880.72,-260.74C868.88,-250.45 853.01,-237.59 837.64,-228 830.09,-223.3 821.81,-218.82 813.6,-214.74"/>
<polygon fill="black" stroke="black" points="815.18,-211.61 804.65,-210.45 812.15,-217.93 815.18,-211.61"/>
<text text-anchor="middle" x="879.14" y="-231.8" font-family="Times,serif" font-size="14.00">imports</text>
</g>
<!-- http___example_org_shapes_situation&#45;&gt;http___www_ontologydesignpatterns_org_cp_owl_situation_owl -->
<g id="edge3" class="edge">
<title>http___example_org_shapes_situation&#45;&gt;http___www_ontologydesignpatterns_org_cp_owl_situation_owl</title>
<path fill="none" stroke="black" d="M3275.29,-263.58C3360.57,-249.05 3492.37,-226.6 3584.34,-210.94"/>
<polygon fill="black" stroke="black" points="3584.88,-214.4 3594.15,-209.27 3583.7,-207.49 3584.88,-214.4"/>
<text text-anchor="middle" x="3491.14" y="-231.8" font-family="Times,serif" font-size="14.00">imports</text>
</g>
<!-- http___example_org_shapes_situation&#45;&gt;http___example_org_shapes_cpannotationschema -->
<g id="edge42" class="edge">
<title>http___example_org_shapes_situation&#45;&gt;http___example_org_shapes_cpannotationschema</title>
<path fill="none" stroke="black" d="M3199.14,-260.8C3204.85,-249.24 3212.5,-233.75 3219.05,-220.5"/>
<polygon fill="black" stroke="black" points="3222.04,-222.34 3223.34,-211.82 3215.77,-219.24 3222.04,-222.34"/>
<text text-anchor="middle" x="3235.14" y="-231.8" font-family="Times,serif" font-size="14.00">imports</text>
</g>
<!-- http___example_org_shapes_skos&#45;&gt;http___www_w3_org_2004_02_skos_core -->
<g id="edge9" class="edge">
<title>http___example_org_shapes_skos&#45;&gt;http___www_w3_org_2004_02_skos_core</title>
<path fill="none" stroke="black" d="M666.53,-262.51C689.86,-256.61 716.51,-249.7 740.64,-243 762.99,-236.79 767.76,-231.89 790.64,-228 965.64,-198.27 1012.58,-222.68 1189.64,-210 1204.78,-208.92 1220.64,-207.6 1236.37,-206.19"/>
<polygon fill="black" stroke="black" points="1236.64,-209.68 1246.28,-205.28 1236,-202.71 1236.64,-209.68"/>
<text text-anchor="middle" x="812.14" y="-231.8" font-family="Times,serif" font-size="14.00">imports</text>
</g>
<!-- http___example_org_shapes_skos&#45;&gt;http___example_org_shapes_dcterms -->
<g id="edge34" class="edge">
<title>http___example_org_shapes_skos&#45;&gt;http___example_org_shapes_dcterms</title>
<path fill="none" stroke="black" d="M635.43,-261C660.02,-247.86 694.27,-229.55 721.04,-215.24"/>
<polygon fill="black" stroke="black" points="722.39,-218.48 729.56,-210.68 719.09,-212.31 722.39,-218.48"/>
<text text-anchor="middle" x="715.14" y="-231.8" font-family="Times,serif" font-size="14.00">imports</text>
</g>
<!-- http___example_org_shapes_vcard&#45;&gt;http___www_w3_org_2006_vcard_ns -->
<g id="edge14" class="edge">
<title>http___example_org_shapes_vcard&#45;&gt;http___www_w3_org_2006_vcard_ns</title>
<path fill="none" stroke="black" d="M179.2,-261.21C207.46,-247.86 247.19,-229.1 277.83,-214.63"/>
<polygon fill="black" stroke="black" points="278.92,-217.98 286.47,-210.55 275.94,-211.66 278.92,-217.98"/>
<text text-anchor="middle" x="266.14" y="-231.8" font-family="Times,serif" font-size="14.00">imports</text>
</g>
</g>
</svg>
