<?xml version="1.0" encoding="UTF-8" standalone="no"?>
<!DOCTYPE svg PUBLIC "-//W3C//DTD SVG 1.1//EN"
 "http://www.w3.org/Graphics/SVG/1.1/DTD/svg11.dtd">
<!-- Generated by graphviz version 7.1.0 (20230121.1956)
 -->
<!-- Title: G Pages: 1 -->
<svg width="2464pt" height="740pt"
 viewBox="0.00 0.00 2464.42 740.00" xmlns="http://www.w3.org/2000/svg" xmlns:xlink="http://www.w3.org/1999/xlink">
<g id="graph0" class="graph" transform="scale(1 1) rotate(0) translate(4 736)">
<title>G</title>
<polygon fill="white" stroke="none" points="-4,4 -4,-736 2460.42,-736 2460.42,4 -4,4"/>
<!-- http___example_org_kb -->
<g id="node1" class="node">
<title>http___example_org_kb</title>
<ellipse fill="none" stroke="black" cx="1490.14" cy="-714" rx="106.68" ry="18"/>
<text text-anchor="middle" x="1490.14" y="-710.3" font-family="Times,serif" font-size="14.00">IRI &#45; http://example.org/kb</text>
</g>
<!-- http___example_org_shapes_case_corpora_local -->
<g id="node8" class="node">
<title>http___example_org_shapes_case_corpora_local</title>
<ellipse fill="none" stroke="black" cx="1490.14" cy="-627" rx="188.47" ry="18"/>
<text text-anchor="middle" x="1490.14" y="-623.3" font-family="Times,serif" font-size="14.00">IRI &#45; http://example.org/shapes/case&#45;corpora&#45;local</text>
</g>
<!-- http___example_org_kb&#45;&gt;http___example_org_shapes_case_corpora_local -->
<g id="edge1" class="edge">
<title>http___example_org_kb&#45;&gt;http___example_org_shapes_case_corpora_local</title>
<path fill="none" stroke="black" d="M1490.14,-695.8C1490.14,-684.58 1490.14,-669.67 1490.14,-656.69"/>
<polygon fill="black" stroke="black" points="1493.64,-656.98 1490.14,-646.98 1486.64,-656.98 1493.64,-656.98"/>
<text text-anchor="middle" x="1511.64" y="-666.8" font-family="Times,serif" font-size="14.00">imports</text>
</g>
<!-- http___www_w3_org_2004_02_skos_core -->
<g id="node2" class="node">
<title>http___www_w3_org_2004_02_skos_core</title>
<ellipse fill="none" stroke="black" cx="1383.14" cy="-192" rx="163.57" ry="18"/>
<text text-anchor="middle" x="1383.14" y="-188.3" font-family="Times,serif" font-size="14.00">IRI &#45; http://www.w3.org/2004/02/skos/core</text>
</g>
<!-- http___www_w3_org_2006_time -->
<g id="node3" class="node">
<title>http___www_w3_org_2006_time</title>
<ellipse fill="none" stroke="black" cx="2169.14" cy="-366" rx="135.68" ry="18"/>
<text text-anchor="middle" x="2169.14" y="-362.3" font-family="Times,serif" font-size="14.00">IRI &#45; http://www.w3.org/2006/time</text>
</g>
<!-- http___www_w3_org_2006_time_2016 -->
<g id="node21" class="node">
<title>http___www_w3_org_2006_time_2016</title>
<ellipse fill="none" stroke="gray" cx="1966.14" cy="-279" rx="157.07" ry="18"/>
<text text-anchor="middle" x="1966.14" y="-275.3" font-family="Times,serif" font-size="14.00">IRI &#45; http://www.w3.org/2006/time#2016</text>
</g>
<!-- http___www_w3_org_2006_time&#45;&gt;http___www_w3_org_2006_time_2016 -->
<g id="edge35" class="edge">
<title>http___www_w3_org_2006_time&#45;&gt;http___www_w3_org_2006_time_2016</title>
<path fill="none" stroke="gray" d="M2129.51,-348.41C2097.31,-334.92 2051.66,-315.81 2016.8,-301.21"/>
<polygon fill="gray" stroke="gray" points="2018.33,-298.06 2007.75,-297.42 2015.62,-304.51 2018.33,-298.06"/>
<text text-anchor="middle" x="2108.14" y="-318.8" font-family="Times,serif" font-size="14.00">versionIRI</text>
</g>
<!-- http___www_w3_org_2006_time_2006 -->
<g id="node27" class="node">
<title>http___www_w3_org_2006_time_2006</title>
<ellipse fill="none" stroke="black" cx="2299.14" cy="-279" rx="157.07" ry="18"/>
<text text-anchor="middle" x="2299.14" y="-275.3" font-family="Times,serif" font-size="14.00">IRI &#45; http://www.w3.org/2006/time#2006</text>
</g>
<!-- http___www_w3_org_2006_time&#45;&gt;http___www_w3_org_2006_time_2006 -->
<g id="edge34" class="edge">
<title>http___www_w3_org_2006_time&#45;&gt;http___www_w3_org_2006_time_2006</title>
<path fill="none" stroke="gray" stroke-dasharray="5,2" d="M2195.13,-348C2214.79,-335.15 2242.01,-317.35 2263.67,-303.19"/>
<polygon fill="gray" stroke="gray" points="2265.47,-306.2 2271.92,-297.8 2261.64,-300.34 2265.47,-306.2"/>
<text text-anchor="middle" x="2275.14" y="-318.8" font-family="Times,serif" font-size="14.00">priorVersion</text>
</g>
<!-- http___www_w3_org_2006_vcard_ns -->
<g id="node4" class="node">
<title>http___www_w3_org_2006_vcard_ns</title>
<ellipse fill="none" stroke="black" cx="208.14" cy="-192" rx="149.47" ry="18"/>
<text text-anchor="middle" x="208.14" y="-188.3" font-family="Times,serif" font-size="14.00">IRI &#45; http://www.w3.org/2006/vcard/ns</text>
</g>
<!-- http___www_w3_org_ns_dcat -->
<g id="node5" class="node">
<title>http___www_w3_org_ns_dcat</title>
<ellipse fill="none" stroke="black" cx="917.14" cy="-279" rx="124.28" ry="18"/>
<text text-anchor="middle" x="917.14" y="-275.3" font-family="Times,serif" font-size="14.00">IRI &#45; http://www.w3.org/ns/dcat</text>
</g>
<!-- http___www_w3_org_ns_dcat&#45;&gt;http___www_w3_org_2004_02_skos_core -->
<g id="edge4" class="edge">
<title>http___www_w3_org_ns_dcat&#45;&gt;http___www_w3_org_2004_02_skos_core</title>
<path fill="none" stroke="black" d="M982.64,-263.32C1030.56,-252.81 1097.22,-238.7 1156.14,-228 1194.7,-221 1237.12,-214.21 1274.74,-208.51"/>
<polygon fill="black" stroke="black" points="1274.87,-212.03 1284.24,-207.08 1273.83,-205.11 1274.87,-212.03"/>
<text text-anchor="middle" x="1177.64" y="-231.8" font-family="Times,serif" font-size="14.00">imports</text>
</g>
<!-- http___purl_org_dc_terms_ -->
<g id="node22" class="node">
<title>http___purl_org_dc_terms_</title>
<ellipse fill="none" stroke="black" cx="1172.14" cy="-105" rx="115.08" ry="18"/>
<text text-anchor="middle" x="1172.14" y="-101.3" font-family="Times,serif" font-size="14.00">IRI &#45; http://purl.org/dc/terms/</text>
</g>
<!-- http___www_w3_org_ns_dcat&#45;&gt;http___purl_org_dc_terms_ -->
<g id="edge2" class="edge">
<title>http___www_w3_org_ns_dcat&#45;&gt;http___purl_org_dc_terms_</title>
<path fill="none" stroke="black" d="M907.44,-260.92C896.17,-238.55 881.47,-199.21 901.14,-174 922.3,-146.87 1003.22,-128.93 1071.17,-118.32"/>
<polygon fill="black" stroke="black" points="1071.53,-121.81 1080.89,-116.85 1070.48,-114.89 1071.53,-121.81"/>
<text text-anchor="middle" x="922.64" y="-188.3" font-family="Times,serif" font-size="14.00">imports</text>
</g>
<!-- http___www_w3_org_ns_prov_o_ -->
<g id="node23" class="node">
<title>http___www_w3_org_ns_prov_o_</title>
<ellipse fill="none" stroke="black" cx="718.14" cy="-192" rx="137.58" ry="18"/>
<text text-anchor="middle" x="718.14" y="-188.3" font-family="Times,serif" font-size="14.00">IRI &#45; http://www.w3.org/ns/prov&#45;o#</text>
</g>
<!-- http___www_w3_org_ns_dcat&#45;&gt;http___www_w3_org_ns_prov_o_ -->
<g id="edge6" class="edge">
<title>http___www_w3_org_ns_dcat&#45;&gt;http___www_w3_org_ns_prov_o_</title>
<path fill="none" stroke="black" d="M878.34,-261.45C864.69,-255.62 849.23,-249.02 835.14,-243 812.99,-233.54 788.5,-223.07 767.66,-214.17"/>
<polygon fill="black" stroke="black" points="769.1,-210.98 758.53,-210.27 766.35,-217.41 769.1,-210.98"/>
<text text-anchor="middle" x="856.64" y="-231.8" font-family="Times,serif" font-size="14.00">imports</text>
</g>
<!-- http___xmlns_com_foaf_0_1_ -->
<g id="node6" class="node">
<title>http___xmlns_com_foaf_0_1_</title>
<ellipse fill="none" stroke="black" cx="1077.14" cy="-192" rx="124.28" ry="18"/>
<text text-anchor="middle" x="1077.14" y="-188.3" font-family="Times,serif" font-size="14.00">IRI &#45; http://xmlns.com/foaf/0.1/</text>
</g>
<!-- http___example_org_ontology_case_corpora -->
<g id="node7" class="node">
<title>http___example_org_ontology_case_corpora</title>
<ellipse fill="none" stroke="black" cx="710.14" cy="-366" rx="176.57" ry="18"/>
<text text-anchor="middle" x="710.14" y="-362.3" font-family="Times,serif" font-size="14.00">IRI &#45; http://example.org/ontology/case&#45;corpora</text>
</g>
<!-- http___example_org_ontology_case_corpora&#45;&gt;http___www_w3_org_2006_vcard_ns -->
<g id="edge9" class="edge">
<title>http___example_org_ontology_case_corpora&#45;&gt;http___www_w3_org_2006_vcard_ns</title>
<path fill="none" stroke="black" d="M542.14,-360.27C346.72,-353 46.19,-335.63 11.14,-297 -27.72,-254.18 46,-225.91 114.05,-209.79"/>
<polygon fill="black" stroke="black" points="114.46,-213.29 123.43,-207.64 112.9,-206.46 114.46,-213.29"/>
<text text-anchor="middle" x="32.64" y="-275.3" font-family="Times,serif" font-size="14.00">imports</text>
</g>
<!-- http___example_org_ontology_case_corpora&#45;&gt;http___www_w3_org_ns_dcat -->
<g id="edge11" class="edge">
<title>http___example_org_ontology_case_corpora&#45;&gt;http___www_w3_org_ns_dcat</title>
<path fill="none" stroke="black" d="M751.03,-348.21C784.13,-334.61 830.92,-315.4 866.41,-300.83"/>
<polygon fill="black" stroke="black" points="867.71,-304.08 875.63,-297.04 865.05,-297.6 867.71,-304.08"/>
<text text-anchor="middle" x="847.64" y="-318.8" font-family="Times,serif" font-size="14.00">imports</text>
</g>
<!-- http___example_org_ontology_case_corpora&#45;&gt;http___xmlns_com_foaf_0_1_ -->
<g id="edge13" class="edge">
<title>http___example_org_ontology_case_corpora&#45;&gt;http___xmlns_com_foaf_0_1_</title>
<path fill="none" stroke="black" d="M838.04,-353.25C938.23,-343.9 1061.08,-332.06 1063.14,-330 1077.89,-315.29 1079.05,-257.1 1078.28,-221.46"/>
<polygon fill="black" stroke="black" points="1081.79,-221.74 1078,-211.85 1074.79,-221.94 1081.79,-221.74"/>
<text text-anchor="middle" x="1099.64" y="-275.3" font-family="Times,serif" font-size="14.00">imports</text>
</g>
<!-- http___example_org_ontology_case_corpora&#45;&gt;http___www_w3_org_2006_time_2016 -->
<g id="edge7" class="edge">
<title>http___example_org_ontology_case_corpora&#45;&gt;http___www_w3_org_2006_time_2016</title>
<path fill="none" stroke="black" d="M833.88,-352.78C854.65,-350.99 875.99,-349.31 896.14,-348 1100.75,-334.66 1152.42,-341.62 1357.14,-330 1554.25,-318.81 1603.47,-314.39 1800.14,-297 1813.8,-295.79 1828.09,-294.45 1842.3,-293.06"/>
<polygon fill="black" stroke="black" points="1842.55,-296.55 1852.16,-292.09 1841.87,-289.59 1842.55,-296.55"/>
<text text-anchor="middle" x="1608.64" y="-318.8" font-family="Times,serif" font-size="14.00">imports</text>
</g>
<!-- https___ontology_caseontology_org_case_case_1_1_0 -->
<g id="node24" class="node">
<title>https___ontology_caseontology_org_case_case_1_1_0</title>
<ellipse fill="none" stroke="black" cx="266.14" cy="-279" rx="203.36" ry="18"/>
<text text-anchor="middle" x="266.14" y="-275.3" font-family="Times,serif" font-size="14.00">IRI &#45; https://ontology.caseontology.org/case/case/1.1.0</text>
</g>
<!-- http___example_org_ontology_case_corpora&#45;&gt;https___ontology_caseontology_org_case_case_1_1_0 -->
<g id="edge15" class="edge">
<title>http___example_org_ontology_case_corpora&#45;&gt;https___ontology_caseontology_org_case_case_1_1_0</title>
<path fill="none" stroke="black" d="M629.47,-349.56C553.54,-335.02 439.84,-313.25 359.9,-297.95"/>
<polygon fill="black" stroke="black" points="360.82,-294.56 350.34,-296.12 359.51,-301.44 360.82,-294.56"/>
<text text-anchor="middle" x="536.64" y="-318.8" font-family="Times,serif" font-size="14.00">imports</text>
</g>
<!-- http___example_org_shapes_case_corpora -->
<g id="node9" class="node">
<title>http___example_org_shapes_case_corpora</title>
<ellipse fill="none" stroke="black" cx="1490.14" cy="-540" rx="168.97" ry="18"/>
<text text-anchor="middle" x="1490.14" y="-536.3" font-family="Times,serif" font-size="14.00">IRI &#45; http://example.org/shapes/case&#45;corpora</text>
</g>
<!-- http___example_org_shapes_case_corpora_local&#45;&gt;http___example_org_shapes_case_corpora -->
<g id="edge16" class="edge">
<title>http___example_org_shapes_case_corpora_local&#45;&gt;http___example_org_shapes_case_corpora</title>
<path fill="none" stroke="black" d="M1490.14,-608.8C1490.14,-597.58 1490.14,-582.67 1490.14,-569.69"/>
<polygon fill="black" stroke="black" points="1493.64,-569.98 1490.14,-559.98 1486.64,-569.98 1493.64,-569.98"/>
<text text-anchor="middle" x="1511.64" y="-579.8" font-family="Times,serif" font-size="14.00">imports</text>
</g>
<!-- http___example_org_shapes_case_corpora&#45;&gt;http___example_org_ontology_case_corpora -->
<g id="edge17" class="edge">
<title>http___example_org_shapes_case_corpora&#45;&gt;http___example_org_ontology_case_corpora</title>
<path fill="none" stroke="black" d="M1408.39,-523.84C1338.36,-510.63 1234.91,-490.57 1145.14,-471 1018.49,-443.39 872.04,-407.57 785.47,-385.98"/>
<polygon fill="black" stroke="black" points="786.46,-382.62 775.91,-383.59 784.76,-389.41 786.46,-382.62"/>
<text text-anchor="middle" x="1166.64" y="-449.3" font-family="Times,serif" font-size="14.00">imports</text>
</g>
<!-- http___example_org_shapes_dcat_us -->
<g id="node13" class="node">
<title>http___example_org_shapes_dcat_us</title>
<ellipse fill="none" stroke="black" cx="1346.14" cy="-453" rx="149.47" ry="18"/>
<text text-anchor="middle" x="1346.14" y="-449.3" font-family="Times,serif" font-size="14.00">IRI &#45; http://example.org/shapes/dcat&#45;us</text>
</g>
<!-- http___example_org_shapes_case_corpora&#45;&gt;http___example_org_shapes_dcat_us -->
<g id="edge18" class="edge">
<title>http___example_org_shapes_case_corpora&#45;&gt;http___example_org_shapes_dcat_us</title>
<path fill="none" stroke="black" d="M1461,-521.8C1438.99,-508.81 1408.59,-490.87 1384.59,-476.7"/>
<polygon fill="black" stroke="black" points="1386.44,-473.72 1376.05,-471.65 1382.88,-479.75 1386.44,-473.72"/>
<text text-anchor="middle" x="1448.64" y="-492.8" font-family="Times,serif" font-size="14.00">imports</text>
</g>
<!-- http___example_org_shapes_owl_abox -->
<g id="node16" class="node">
<title>http___example_org_shapes_owl_abox</title>
<ellipse fill="none" stroke="black" cx="1753.14" cy="-453" rx="157.07" ry="18"/>
<text text-anchor="middle" x="1753.14" y="-449.3" font-family="Times,serif" font-size="14.00">IRI &#45; http://example.org/shapes/owl&#45;abox</text>
</g>
<!-- http___example_org_shapes_case_corpora&#45;&gt;http___example_org_shapes_owl_abox -->
<g id="edge19" class="edge">
<title>http___example_org_shapes_case_corpora&#45;&gt;http___example_org_shapes_owl_abox</title>
<path fill="none" stroke="black" d="M1541.47,-522.41C1584.42,-508.53 1645.82,-488.68 1691.44,-473.94"/>
<polygon fill="black" stroke="black" points="1692.5,-477.28 1700.94,-470.87 1690.35,-470.61 1692.5,-477.28"/>
<text text-anchor="middle" x="1659.64" y="-492.8" font-family="Times,serif" font-size="14.00">imports</text>
</g>
<!-- http___example_org_shapes_time -->
<g id="node19" class="node">
<title>http___example_org_shapes_time</title>
<ellipse fill="none" stroke="black" cx="1711.14" cy="-366" rx="139.98" ry="18"/>
<text text-anchor="middle" x="1711.14" y="-362.3" font-family="Times,serif" font-size="14.00">IRI &#45; http://example.org/shapes/time</text>
</g>
<!-- http___example_org_shapes_case_corpora&#45;&gt;http___example_org_shapes_time -->
<g id="edge20" class="edge">
<title>http___example_org_shapes_case_corpora&#45;&gt;http___example_org_shapes_time</title>
<path fill="none" stroke="black" d="M1495.03,-521.56C1502.25,-498.78 1517.83,-458.99 1544.14,-435 1569.38,-411.98 1603.45,-396.23 1634.24,-385.74"/>
<polygon fill="black" stroke="black" points="1635.1,-389.13 1643.53,-382.71 1632.94,-382.48 1635.1,-389.13"/>
<text text-anchor="middle" x="1565.64" y="-449.3" font-family="Times,serif" font-size="14.00">imports</text>
</g>
<!-- http___example_org_shapes_dc -->
<g id="node10" class="node">
<title>http___example_org_shapes_dc</title>
<ellipse fill="none" stroke="black" cx="1570.14" cy="-105" rx="131.88" ry="18"/>
<text text-anchor="middle" x="1570.14" y="-101.3" font-family="Times,serif" font-size="14.00">IRI &#45; http://example.org/shapes/dc</text>
</g>
<!-- http___purl_org_dc_elements_1_1_ -->
<g id="node25" class="node">
<title>http___purl_org_dc_elements_1_1_</title>
<ellipse fill="none" stroke="black" cx="1570.14" cy="-18" rx="140.28" ry="18"/>
<text text-anchor="middle" x="1570.14" y="-14.3" font-family="Times,serif" font-size="14.00">IRI &#45; http://purl.org/dc/elements/1.1/</text>
</g>
<!-- http___example_org_shapes_dc&#45;&gt;http___purl_org_dc_elements_1_1_ -->
<g id="edge21" class="edge">
<title>http___example_org_shapes_dc&#45;&gt;http___purl_org_dc_elements_1_1_</title>
<path fill="none" stroke="black" d="M1570.14,-86.8C1570.14,-75.58 1570.14,-60.67 1570.14,-47.69"/>
<polygon fill="black" stroke="black" points="1573.64,-47.98 1570.14,-37.98 1566.64,-47.98 1573.64,-47.98"/>
<text text-anchor="middle" x="1591.64" y="-57.8" font-family="Times,serif" font-size="14.00">imports</text>
</g>
<!-- http___example_org_shapes_dcam -->
<g id="node11" class="node">
<title>http___example_org_shapes_dcam</title>
<ellipse fill="none" stroke="black" cx="1864.14" cy="-105" rx="143.77" ry="18"/>
<text text-anchor="middle" x="1864.14" y="-101.3" font-family="Times,serif" font-size="14.00">IRI &#45; http://example.org/shapes/dcam</text>
</g>
<!-- http___purl_org_dc_dcam_ -->
<g id="node26" class="node">
<title>http___purl_org_dc_dcam_</title>
<ellipse fill="none" stroke="black" cx="1864.14" cy="-18" rx="114.28" ry="18"/>
<text text-anchor="middle" x="1864.14" y="-14.3" font-family="Times,serif" font-size="14.00">IRI &#45; http://purl.org/dc/dcam/</text>
</g>
<!-- http___example_org_shapes_dcam&#45;&gt;http___purl_org_dc_dcam_ -->
<g id="edge22" class="edge">
<title>http___example_org_shapes_dcam&#45;&gt;http___purl_org_dc_dcam_</title>
<path fill="none" stroke="black" d="M1864.14,-86.8C1864.14,-75.58 1864.14,-60.67 1864.14,-47.69"/>
<polygon fill="black" stroke="black" points="1867.64,-47.98 1864.14,-37.98 1860.64,-47.98 1867.64,-47.98"/>
<text text-anchor="middle" x="1885.64" y="-57.8" font-family="Times,serif" font-size="14.00">imports</text>
</g>
<!-- http___example_org_shapes_dcat -->
<g id="node12" class="node">
<title>http___example_org_shapes_dcat</title>
<ellipse fill="none" stroke="black" cx="1336.14" cy="-366" rx="138.38" ry="18"/>
<text text-anchor="middle" x="1336.14" y="-362.3" font-family="Times,serif" font-size="14.00">IRI &#45; http://example.org/shapes/dcat</text>
</g>
<!-- http___example_org_shapes_dcat&#45;&gt;http___www_w3_org_ns_dcat -->
<g id="edge12" class="edge">
<title>http___example_org_shapes_dcat&#45;&gt;http___www_w3_org_ns_dcat</title>
<path fill="none" stroke="black" d="M1263.63,-350.29C1189.74,-335.3 1075.35,-312.1 998.43,-296.49"/>
<polygon fill="black" stroke="black" points="999.34,-293.1 988.84,-294.55 997.95,-299.97 999.34,-293.1"/>
<text text-anchor="middle" x="1173.64" y="-318.8" font-family="Times,serif" font-size="14.00">imports</text>
</g>
<!-- http___example_org_shapes_dcterms -->
<g id="node14" class="node">
<title>http___example_org_shapes_dcterms</title>
<ellipse fill="none" stroke="black" cx="1717.14" cy="-192" rx="152.17" ry="18"/>
<text text-anchor="middle" x="1717.14" y="-188.3" font-family="Times,serif" font-size="14.00">IRI &#45; http://example.org/shapes/dcterms</text>
</g>
<!-- http___example_org_shapes_dcat&#45;&gt;http___example_org_shapes_dcterms -->
<g id="edge23" class="edge">
<title>http___example_org_shapes_dcat&#45;&gt;http___example_org_shapes_dcterms</title>
<path fill="none" stroke="black" d="M1359.65,-347.85C1377.52,-334.52 1402.46,-315.29 1423.14,-297 1440.08,-282 1442.58,-276.43 1459.14,-261 1475.5,-245.75 1476.87,-237.46 1497.14,-228 1515.4,-219.48 1555.24,-212.1 1596.07,-206.34"/>
<polygon fill="black" stroke="black" points="1596.38,-209.83 1605.81,-205 1595.43,-202.9 1596.38,-209.83"/>
<text text-anchor="middle" x="1480.64" y="-275.3" font-family="Times,serif" font-size="14.00">imports</text>
</g>
<!-- http___example_org_shapes_foaf -->
<g id="node15" class="node">
<title>http___example_org_shapes_foaf</title>
<ellipse fill="none" stroke="black" cx="1276.14" cy="-279" rx="137.58" ry="18"/>
<text text-anchor="middle" x="1276.14" y="-275.3" font-family="Times,serif" font-size="14.00">IRI &#45; http://example.org/shapes/foaf</text>
</g>
<!-- http___example_org_shapes_dcat&#45;&gt;http___example_org_shapes_foaf -->
<g id="edge26" class="edge">
<title>http___example_org_shapes_dcat&#45;&gt;http___example_org_shapes_foaf</title>
<path fill="none" stroke="black" d="M1324,-347.8C1315.62,-335.93 1304.32,-319.93 1294.81,-306.45"/>
<polygon fill="black" stroke="black" points="1297.76,-304.56 1289.13,-298.41 1292.04,-308.6 1297.76,-304.56"/>
<text text-anchor="middle" x="1331.64" y="-318.8" font-family="Times,serif" font-size="14.00">imports</text>
</g>
<!-- http___example_org_shapes_vcard -->
<g id="node20" class="node">
<title>http___example_org_shapes_vcard</title>
<ellipse fill="none" stroke="black" cx="631.14" cy="-279" rx="143.77" ry="18"/>
<text text-anchor="middle" x="631.14" y="-275.3" font-family="Times,serif" font-size="14.00">IRI &#45; http://example.org/shapes/vcard</text>
</g>
<!-- http___example_org_shapes_dcat&#45;&gt;http___example_org_shapes_vcard -->
<g id="edge27" class="edge">
<title>http___example_org_shapes_dcat&#45;&gt;http___example_org_shapes_vcard</title>
<path fill="none" stroke="black" d="M1237,-353.05C1107.05,-337.38 879.72,-309.97 743.52,-293.55"/>
<polygon fill="black" stroke="black" points="744.11,-290.1 733.76,-292.37 743.27,-297.05 744.11,-290.1"/>
<text text-anchor="middle" x="1047.64" y="-318.8" font-family="Times,serif" font-size="14.00">imports</text>
</g>
<!-- http___example_org_shapes_dcat_us&#45;&gt;http___example_org_shapes_dcat -->
<g id="edge28" class="edge">
<title>http___example_org_shapes_dcat_us&#45;&gt;http___example_org_shapes_dcat</title>
<path fill="none" stroke="black" d="M1344.11,-434.8C1342.79,-423.58 1341.04,-408.67 1339.51,-395.69"/>
<polygon fill="black" stroke="black" points="1343.01,-395.49 1338.37,-385.97 1336.06,-396.31 1343.01,-395.49"/>
<text text-anchor="middle" x="1363.64" y="-405.8" font-family="Times,serif" font-size="14.00">imports</text>
</g>
<!-- http___example_org_shapes_pod -->
<g id="node17" class="node">
<title>http___example_org_shapes_pod</title>
<ellipse fill="none" stroke="black" cx="1042.14" cy="-366" rx="137.28" ry="18"/>
<text text-anchor="middle" x="1042.14" y="-362.3" font-family="Times,serif" font-size="14.00">IRI &#45; http://example.org/shapes/pod</text>
</g>
<!-- http___example_org_shapes_dcat_us&#45;&gt;http___example_org_shapes_pod -->
<g id="edge29" class="edge">
<title>http___example_org_shapes_dcat_us&#45;&gt;http___example_org_shapes_pod</title>
<path fill="none" stroke="black" d="M1288.96,-436.01C1238.03,-421.77 1163.46,-400.92 1109.62,-385.87"/>
<polygon fill="black" stroke="black" points="1110.83,-382.57 1100.26,-383.25 1108.95,-389.32 1110.83,-382.57"/>
<text text-anchor="middle" x="1234.64" y="-405.8" font-family="Times,serif" font-size="14.00">imports</text>
</g>
<!-- http___example_org_shapes_skos -->
<g id="node18" class="node">
<title>http___example_org_shapes_skos</title>
<ellipse fill="none" stroke="black" cx="1651.14" cy="-279" rx="139.98" ry="18"/>
<text text-anchor="middle" x="1651.14" y="-275.3" font-family="Times,serif" font-size="14.00">IRI &#45; http://example.org/shapes/skos</text>
</g>
<!-- http___example_org_shapes_dcat_us&#45;&gt;http___example_org_shapes_skos -->
<g id="edge30" class="edge">
<title>http___example_org_shapes_dcat_us&#45;&gt;http___example_org_shapes_skos</title>
<path fill="none" stroke="black" d="M1395.29,-435.59C1423.43,-424.38 1458.02,-407.29 1483.14,-384 1509.29,-359.74 1495.78,-336.64 1524.14,-315 1533.6,-307.78 1544.47,-302.04 1555.78,-297.49"/>
<polygon fill="black" stroke="black" points="1556.66,-300.9 1564.84,-294.16 1554.25,-294.33 1556.66,-300.9"/>
<text text-anchor="middle" x="1524.64" y="-362.3" font-family="Times,serif" font-size="14.00">imports</text>
</g>
<!-- http___example_org_shapes_dcterms&#45;&gt;http___example_org_shapes_dc -->
<g id="edge32" class="edge">
<title>http___example_org_shapes_dcterms&#45;&gt;http___example_org_shapes_dc</title>
<path fill="none" stroke="black" d="M1687.74,-174C1665.21,-160.97 1633.9,-142.87 1609.25,-128.62"/>
<polygon fill="black" stroke="black" points="1611.2,-125.7 1600.79,-123.72 1607.7,-131.76 1611.2,-125.7"/>
<text text-anchor="middle" x="1674.64" y="-144.8" font-family="Times,serif" font-size="14.00">imports</text>
</g>
<!-- http___example_org_shapes_dcterms&#45;&gt;http___example_org_shapes_dcam -->
<g id="edge33" class="edge">
<title>http___example_org_shapes_dcterms&#45;&gt;http___example_org_shapes_dcam</title>
<path fill="none" stroke="black" d="M1746.53,-174C1769.07,-160.97 1800.38,-142.87 1825.02,-128.62"/>
<polygon fill="black" stroke="black" points="1826.58,-131.76 1833.48,-123.72 1823.07,-125.7 1826.58,-131.76"/>
<text text-anchor="middle" x="1820.64" y="-144.8" font-family="Times,serif" font-size="14.00">imports</text>
</g>
<!-- http___example_org_shapes_dcterms&#45;&gt;http___purl_org_dc_terms_ -->
<g id="edge3" class="edge">
<title>http___example_org_shapes_dcterms&#45;&gt;http___purl_org_dc_terms_</title>
<path fill="none" stroke="black" d="M1627.75,-177.06C1526.9,-161.33 1363.75,-135.88 1262.5,-120.09"/>
<polygon fill="black" stroke="black" points="1263.29,-116.67 1252.87,-118.59 1262.21,-123.59 1263.29,-116.67"/>
<text text-anchor="middle" x="1499.64" y="-144.8" font-family="Times,serif" font-size="14.00">imports</text>
</g>
<!-- http___example_org_shapes_foaf&#45;&gt;http___xmlns_com_foaf_0_1_ -->
<g id="edge14" class="edge">
<title>http___example_org_shapes_foaf&#45;&gt;http___xmlns_com_foaf_0_1_</title>
<path fill="none" stroke="black" d="M1255.23,-260.92C1241.21,-250.18 1221.94,-236.75 1203.14,-228 1188.34,-221.11 1171.91,-215.33 1155.94,-210.58"/>
<polygon fill="black" stroke="black" points="1157.01,-207.24 1146.44,-207.87 1155.09,-213.98 1157.01,-207.24"/>
<text text-anchor="middle" x="1250.64" y="-231.8" font-family="Times,serif" font-size="14.00">imports</text>
</g>
<!-- http___example_org_shapes_foaf&#45;&gt;http___example_org_shapes_dcterms -->
<g id="edge24" class="edge">
<title>http___example_org_shapes_foaf&#45;&gt;http___example_org_shapes_dcterms</title>
<path fill="none" stroke="black" d="M1308.5,-261.08C1331.49,-249.84 1363.43,-235.77 1393.14,-228 1395.68,-227.33 1504.72,-215.62 1595.6,-205.92"/>
<polygon fill="black" stroke="black" points="1595.8,-209.42 1605.37,-204.88 1595.05,-202.46 1595.8,-209.42"/>
<text text-anchor="middle" x="1414.64" y="-231.8" font-family="Times,serif" font-size="14.00">imports</text>
</g>
<!-- http___example_org_shapes_skos&#45;&gt;http___www_w3_org_2004_02_skos_core -->
<g id="edge5" class="edge">
<title>http___example_org_shapes_skos&#45;&gt;http___www_w3_org_2004_02_skos_core</title>
<path fill="none" stroke="black" d="M1600.1,-261.81C1556.23,-247.9 1492.81,-227.78 1445.86,-212.89"/>
<polygon fill="black" stroke="black" points="1446.93,-209.56 1436.34,-209.87 1444.82,-216.23 1446.93,-209.56"/>
<text text-anchor="middle" x="1555.64" y="-231.8" font-family="Times,serif" font-size="14.00">imports</text>
</g>
<!-- http___example_org_shapes_skos&#45;&gt;http___example_org_shapes_dcterms -->
<g id="edge25" class="edge">
<title>http___example_org_shapes_skos&#45;&gt;http___example_org_shapes_dcterms</title>
<path fill="none" stroke="black" d="M1664.49,-260.8C1673.8,-248.82 1686.38,-232.62 1696.9,-219.06"/>
<polygon fill="black" stroke="black" points="1699.5,-221.42 1702.87,-211.37 1693.97,-217.12 1699.5,-221.42"/>
<text text-anchor="middle" x="1708.64" y="-231.8" font-family="Times,serif" font-size="14.00">imports</text>
</g>
<!-- http___example_org_shapes_time&#45;&gt;http___example_org_shapes_skos -->
<g id="edge31" class="edge">
<title>http___example_org_shapes_time&#45;&gt;http___example_org_shapes_skos</title>
<path fill="none" stroke="black" d="M1699,-347.8C1690.62,-335.93 1679.32,-319.93 1669.81,-306.45"/>
<polygon fill="black" stroke="black" points="1672.76,-304.56 1664.13,-298.41 1667.04,-308.6 1672.76,-304.56"/>
<text text-anchor="middle" x="1705.64" y="-318.8" font-family="Times,serif" font-size="14.00">imports</text>
</g>
<!-- http___example_org_shapes_time&#45;&gt;http___www_w3_org_2006_time_2016 -->
<g id="edge8" class="edge">
<title>http___example_org_shapes_time&#45;&gt;http___www_w3_org_2006_time_2016</title>
<path fill="none" stroke="black" d="M1760,-348.71C1801.55,-334.86 1861.38,-314.92 1905.89,-300.08"/>
<polygon fill="black" stroke="black" points="1906.75,-303.48 1915.13,-297 1904.54,-296.84 1906.75,-303.48"/>
<text text-anchor="middle" x="1874.64" y="-318.8" font-family="Times,serif" font-size="14.00">imports</text>
</g>
<!-- http___example_org_shapes_vcard&#45;&gt;http___www_w3_org_2006_vcard_ns -->
<g id="edge10" class="edge">
<title>http___example_org_shapes_vcard&#45;&gt;http___www_w3_org_2006_vcard_ns</title>
<path fill="none" stroke="black" d="M557.46,-263.19C484.02,-248.44 371.32,-225.79 293.91,-210.23"/>
<polygon fill="black" stroke="black" points="294.73,-206.83 284.23,-208.29 293.35,-213.69 294.73,-206.83"/>
<text text-anchor="middle" x="466.64" y="-231.8" font-family="Times,serif" font-size="14.00">imports</text>
</g>
</g>
</svg>
