<?xml version="1.0" encoding="UTF-8" standalone="no"?>
<!DOCTYPE svg PUBLIC "-//W3C//DTD SVG 1.1//EN"
 "http://www.w3.org/Graphics/SVG/1.1/DTD/svg11.dtd">
<!-- Generated by graphviz version 7.1.0 (20230121.1956)
 -->
<!-- Title: G Pages: 1 -->
<svg width="3303pt" height="740pt"
 viewBox="0.00 0.00 3302.65 740.00" xmlns="http://www.w3.org/2000/svg" xmlns:xlink="http://www.w3.org/1999/xlink">
<g id="graph0" class="graph" transform="scale(1 1) rotate(0) translate(4 736)">
<title>G</title>
<polygon fill="white" stroke="none" points="-4,4 -4,-736 3298.65,-736 3298.65,4 -4,4"/>
<!-- http___example_org_kb -->
<g id="node1" class="node">
<title>http___example_org_kb</title>
<ellipse fill="none" stroke="black" cx="1085.43" cy="-714" rx="106.68" ry="18"/>
<text text-anchor="middle" x="1085.43" y="-710.3" font-family="Times,serif" font-size="14.00">IRI &#45; http://example.org/kb</text>
</g>
<!-- http___example_org_shapes_case_corpora_local -->
<g id="node11" class="node">
<title>http___example_org_shapes_case_corpora_local</title>
<ellipse fill="none" stroke="black" cx="1085.43" cy="-627" rx="188.47" ry="18"/>
<text text-anchor="middle" x="1085.43" y="-623.3" font-family="Times,serif" font-size="14.00">IRI &#45; http://example.org/shapes/case&#45;corpora&#45;local</text>
</g>
<!-- http___example_org_kb&#45;&gt;http___example_org_shapes_case_corpora_local -->
<g id="edge1" class="edge">
<title>http___example_org_kb&#45;&gt;http___example_org_shapes_case_corpora_local</title>
<path fill="none" stroke="black" d="M1085.43,-695.8C1085.43,-684.58 1085.43,-669.67 1085.43,-656.69"/>
<polygon fill="black" stroke="black" points="1088.93,-656.98 1085.43,-646.98 1081.93,-656.98 1088.93,-656.98"/>
<text text-anchor="middle" x="1106.93" y="-666.8" font-family="Times,serif" font-size="14.00">imports</text>
</g>
<!-- http___purl_org_spar_cito -->
<g id="node2" class="node">
<title>http___purl_org_spar_cito</title>
<ellipse fill="none" stroke="black" cx="1979.43" cy="-714" rx="112.38" ry="18"/>
<text text-anchor="middle" x="1979.43" y="-710.3" font-family="Times,serif" font-size="14.00">IRI &#45; http://purl.org/spar/cito</text>
</g>
<!-- http___www_ontologydesignpatterns_org_cp_owl_situation_owl -->
<g id="node4" class="node">
<title>http___www_ontologydesignpatterns_org_cp_owl_situation_owl</title>
<ellipse fill="none" stroke="black" cx="1563.43" cy="-627" rx="243.16" ry="18"/>
<text text-anchor="middle" x="1563.43" y="-623.3" font-family="Times,serif" font-size="14.00">IRI &#45; http://www.ontologydesignpatterns.org/cp/owl/situation.owl</text>
</g>
<!-- http___purl_org_spar_cito&#45;&gt;http___www_ontologydesignpatterns_org_cp_owl_situation_owl -->
<g id="edge2" class="edge">
<title>http___purl_org_spar_cito&#45;&gt;http___www_ontologydesignpatterns_org_cp_owl_situation_owl</title>
<path fill="none" stroke="black" d="M1912.13,-699.25C1842.32,-684.99 1732.71,-662.59 1655.04,-646.72"/>
<polygon fill="black" stroke="black" points="1655.8,-643.3 1645.3,-644.73 1654.4,-650.16 1655.8,-643.3"/>
<text text-anchor="middle" x="1817.93" y="-666.8" font-family="Times,serif" font-size="14.00">imports</text>
</g>
<!-- http___purl_org_spar_cito_2018_02_16 -->
<g id="node23" class="node">
<title>http___purl_org_spar_cito_2018_02_16</title>
<ellipse fill="none" stroke="gray" cx="1979.43" cy="-627" rx="155.17" ry="18"/>
<text text-anchor="middle" x="1979.43" y="-623.3" font-family="Times,serif" font-size="14.00">IRI &#45; http://purl.org/spar/cito/2018&#45;02&#45;16</text>
</g>
<!-- http___purl_org_spar_cito&#45;&gt;http___purl_org_spar_cito_2018_02_16 -->
<g id="edge33" class="edge">
<title>http___purl_org_spar_cito&#45;&gt;http___purl_org_spar_cito_2018_02_16</title>
<path fill="none" stroke="gray" d="M1979.43,-695.8C1979.43,-684.58 1979.43,-669.67 1979.43,-656.69"/>
<polygon fill="gray" stroke="gray" points="1982.93,-656.98 1979.43,-646.98 1975.93,-656.98 1982.93,-656.98"/>
<text text-anchor="middle" x="2008.43" y="-666.8" font-family="Times,serif" font-size="14.00">versionIRI</text>
</g>
<!-- http___purl_org_spar_cito_2018_02_12 -->
<g id="node30" class="node">
<title>http___purl_org_spar_cito_2018_02_12</title>
<ellipse fill="none" stroke="black" cx="2308.43" cy="-627" rx="155.17" ry="18"/>
<text text-anchor="middle" x="2308.43" y="-623.3" font-family="Times,serif" font-size="14.00">IRI &#45; http://purl.org/spar/cito/2018&#45;02&#45;12</text>
</g>
<!-- http___purl_org_spar_cito&#45;&gt;http___purl_org_spar_cito_2018_02_12 -->
<g id="edge32" class="edge">
<title>http___purl_org_spar_cito&#45;&gt;http___purl_org_spar_cito_2018_02_12</title>
<path fill="none" stroke="gray" stroke-dasharray="5,2" d="M2036.74,-698.19C2092.03,-683.91 2175.93,-662.23 2235.86,-646.75"/>
<polygon fill="gray" stroke="gray" points="2236.48,-650.2 2245.29,-644.31 2234.73,-643.43 2236.48,-650.2"/>
<text text-anchor="middle" x="2198.43" y="-666.8" font-family="Times,serif" font-size="14.00">priorVersion</text>
</g>
<!-- http___purl_org_swan_2_0_discourse_relationships_ -->
<g id="node3" class="node">
<title>http___purl_org_swan_2_0_discourse_relationships_</title>
<ellipse fill="none" stroke="black" cx="2888.43" cy="-714" rx="199.56" ry="18"/>
<text text-anchor="middle" x="2888.43" y="-710.3" font-family="Times,serif" font-size="14.00">IRI &#45; http://purl.org/swan/2.0/discourse&#45;relationships/</text>
</g>
<!-- https___raw_githubusercontent_com_casework_CASE_Corpora_main_dependencies_discourse_relationships_ttl -->
<g id="node24" class="node">
<title>https___raw_githubusercontent_com_casework_CASE_Corpora_main_dependencies_discourse_relationships_ttl</title>
<ellipse fill="none" stroke="gray" cx="2888.43" cy="-627" rx="406.43" ry="18"/>
<text text-anchor="middle" x="2888.43" y="-623.3" font-family="Times,serif" font-size="14.00">IRI &#45; https://raw.githubusercontent.com/casework/CASE&#45;Corpora/main/dependencies/discourse&#45;relationships.ttl</text>
</g>
<!-- http___purl_org_swan_2_0_discourse_relationships_&#45;&gt;https___raw_githubusercontent_com_casework_CASE_Corpora_main_dependencies_discourse_relationships_ttl -->
<g id="edge34" class="edge">
<title>http___purl_org_swan_2_0_discourse_relationships_&#45;&gt;https___raw_githubusercontent_com_casework_CASE_Corpora_main_dependencies_discourse_relationships_ttl</title>
<path fill="none" stroke="gray" d="M2888.43,-695.8C2888.43,-684.58 2888.43,-669.67 2888.43,-656.69"/>
<polygon fill="gray" stroke="gray" points="2891.93,-656.98 2888.43,-646.98 2884.93,-656.98 2891.93,-656.98"/>
<text text-anchor="middle" x="2917.43" y="-666.8" font-family="Times,serif" font-size="14.00">versionIRI</text>
</g>
<!-- http___www_ontologydesignpatterns_org_schemas_cpannotationschema_owl -->
<g id="node5" class="node">
<title>http___www_ontologydesignpatterns_org_schemas_cpannotationschema_owl</title>
<ellipse fill="none" stroke="black" cx="1563.43" cy="-540" rx="291.35" ry="18"/>
<text text-anchor="middle" x="1563.43" y="-536.3" font-family="Times,serif" font-size="14.00">IRI &#45; http://www.ontologydesignpatterns.org/schemas/cpannotationschema.owl</text>
</g>
<!-- http___www_ontologydesignpatterns_org_cp_owl_situation_owl&#45;&gt;http___www_ontologydesignpatterns_org_schemas_cpannotationschema_owl -->
<g id="edge3" class="edge">
<title>http___www_ontologydesignpatterns_org_cp_owl_situation_owl&#45;&gt;http___www_ontologydesignpatterns_org_schemas_cpannotationschema_owl</title>
<path fill="none" stroke="black" d="M1563.43,-608.8C1563.43,-597.58 1563.43,-582.67 1563.43,-569.69"/>
<polygon fill="black" stroke="black" points="1566.93,-569.98 1563.43,-559.98 1559.93,-569.98 1566.93,-569.98"/>
<text text-anchor="middle" x="1584.93" y="-579.8" font-family="Times,serif" font-size="14.00">imports</text>
</g>
<!-- http___www_w3_org_2004_02_skos_core -->
<g id="node6" class="node">
<title>http___www_w3_org_2004_02_skos_core</title>
<ellipse fill="none" stroke="black" cx="671.43" cy="-192" rx="163.57" ry="18"/>
<text text-anchor="middle" x="671.43" y="-188.3" font-family="Times,serif" font-size="14.00">IRI &#45; http://www.w3.org/2004/02/skos/core</text>
</g>
<!-- http___www_w3_org_2006_vcard_ns -->
<g id="node7" class="node">
<title>http___www_w3_org_2006_vcard_ns</title>
<ellipse fill="none" stroke="black" cx="1269.43" cy="-192" rx="149.47" ry="18"/>
<text text-anchor="middle" x="1269.43" y="-188.3" font-family="Times,serif" font-size="14.00">IRI &#45; http://www.w3.org/2006/vcard/ns</text>
</g>
<!-- http___www_w3_org_ns_dcat -->
<g id="node8" class="node">
<title>http___www_w3_org_ns_dcat</title>
<ellipse fill="none" stroke="black" cx="549.43" cy="-279" rx="124.28" ry="18"/>
<text text-anchor="middle" x="549.43" y="-275.3" font-family="Times,serif" font-size="14.00">IRI &#45; http://www.w3.org/ns/dcat</text>
</g>
<!-- http___www_w3_org_ns_dcat&#45;&gt;http___www_w3_org_2004_02_skos_core -->
<g id="edge6" class="edge">
<title>http___www_w3_org_ns_dcat&#45;&gt;http___www_w3_org_2004_02_skos_core</title>
<path fill="none" stroke="black" d="M558.86,-260.82C565.42,-250.18 575.02,-236.9 586.43,-228 593.17,-222.75 600.81,-218.16 608.67,-214.19"/>
<polygon fill="black" stroke="black" points="610.14,-217.37 617.72,-209.96 607.18,-211.03 610.14,-217.37"/>
<text text-anchor="middle" x="607.93" y="-231.8" font-family="Times,serif" font-size="14.00">imports</text>
</g>
<!-- http___purl_org_dc_terms_ -->
<g id="node25" class="node">
<title>http___purl_org_dc_terms_</title>
<ellipse fill="none" stroke="black" cx="765.43" cy="-105" rx="115.08" ry="18"/>
<text text-anchor="middle" x="765.43" y="-101.3" font-family="Times,serif" font-size="14.00">IRI &#45; http://purl.org/dc/terms/</text>
</g>
<!-- http___www_w3_org_ns_dcat&#45;&gt;http___purl_org_dc_terms_ -->
<g id="edge4" class="edge">
<title>http___www_w3_org_ns_dcat&#45;&gt;http___purl_org_dc_terms_</title>
<path fill="none" stroke="black" d="M515.31,-261.23C478.88,-241.11 429.65,-206.05 455.43,-174 480.46,-142.89 576.51,-125.21 655.14,-115.72"/>
<polygon fill="black" stroke="black" points="655.08,-119.25 664.61,-114.62 654.27,-112.3 655.08,-119.25"/>
<text text-anchor="middle" x="476.93" y="-188.3" font-family="Times,serif" font-size="14.00">imports</text>
</g>
<!-- http___www_w3_org_ns_prov_o_ -->
<g id="node26" class="node">
<title>http___www_w3_org_ns_prov_o_</title>
<ellipse fill="none" stroke="black" cx="272.43" cy="-192" rx="137.58" ry="18"/>
<text text-anchor="middle" x="272.43" y="-188.3" font-family="Times,serif" font-size="14.00">IRI &#45; http://www.w3.org/ns/prov&#45;o#</text>
</g>
<!-- http___www_w3_org_ns_dcat&#45;&gt;http___www_w3_org_ns_prov_o_ -->
<g id="edge8" class="edge">
<title>http___www_w3_org_ns_dcat&#45;&gt;http___www_w3_org_ns_prov_o_</title>
<path fill="none" stroke="black" d="M473.37,-264.42C446.55,-258.83 416.38,-251.62 389.43,-243 365.13,-235.23 338.95,-224.29 317.52,-214.63"/>
<polygon fill="black" stroke="black" points="319.03,-211.47 308.48,-210.49 316.12,-217.83 319.03,-211.47"/>
<text text-anchor="middle" x="410.93" y="-231.8" font-family="Times,serif" font-size="14.00">imports</text>
</g>
<!-- http___xmlns_com_foaf_0_1_ -->
<g id="node9" class="node">
<title>http___xmlns_com_foaf_0_1_</title>
<ellipse fill="none" stroke="black" cx="977.43" cy="-192" rx="124.28" ry="18"/>
<text text-anchor="middle" x="977.43" y="-188.3" font-family="Times,serif" font-size="14.00">IRI &#45; http://xmlns.com/foaf/0.1/</text>
</g>
<!-- http___example_org_ontology_case_corpora -->
<g id="node10" class="node">
<title>http___example_org_ontology_case_corpora</title>
<ellipse fill="none" stroke="black" cx="709.43" cy="-366" rx="176.57" ry="18"/>
<text text-anchor="middle" x="709.43" y="-362.3" font-family="Times,serif" font-size="14.00">IRI &#45; http://example.org/ontology/case&#45;corpora</text>
</g>
<!-- http___example_org_ontology_case_corpora&#45;&gt;http___www_w3_org_2006_vcard_ns -->
<g id="edge9" class="edge">
<title>http___example_org_ontology_case_corpora&#45;&gt;http___www_w3_org_2006_vcard_ns</title>
<path fill="none" stroke="black" d="M723.72,-347.96C748.32,-318.64 796.2,-261.68 797.43,-261 827.67,-244.25 1019.33,-220.42 1148.93,-205.87"/>
<polygon fill="black" stroke="black" points="1149.05,-209.38 1158.6,-204.79 1148.27,-202.42 1149.05,-209.38"/>
<text text-anchor="middle" x="818.93" y="-275.3" font-family="Times,serif" font-size="14.00">imports</text>
</g>
<!-- http___example_org_ontology_case_corpora&#45;&gt;http___www_w3_org_ns_dcat -->
<g id="edge11" class="edge">
<title>http___example_org_ontology_case_corpora&#45;&gt;http___www_w3_org_ns_dcat</title>
<path fill="none" stroke="black" d="M677.44,-348C652.61,-334.81 618,-316.43 591.03,-302.1"/>
<polygon fill="black" stroke="black" points="592.91,-299.13 582.43,-297.53 589.62,-305.31 592.91,-299.13"/>
<text text-anchor="middle" x="660.93" y="-318.8" font-family="Times,serif" font-size="14.00">imports</text>
</g>
<!-- http___example_org_ontology_case_corpora&#45;&gt;http___xmlns_com_foaf_0_1_ -->
<g id="edge13" class="edge">
<title>http___example_org_ontology_case_corpora&#45;&gt;http___xmlns_com_foaf_0_1_</title>
<path fill="none" stroke="black" d="M707.57,-347.69C706.09,-325.75 706.55,-287.62 723.43,-261 737.89,-238.2 749.29,-237.83 774.43,-228 793.39,-220.59 835.61,-212.85 876.67,-206.54"/>
<polygon fill="black" stroke="black" points="877.05,-210.02 886.42,-205.07 876.01,-203.1 877.05,-210.02"/>
<text text-anchor="middle" x="744.93" y="-275.3" font-family="Times,serif" font-size="14.00">imports</text>
</g>
<!-- https___ontology_caseontology_org_case_case_1_1_0 -->
<g id="node27" class="node">
<title>https___ontology_caseontology_org_case_case_1_1_0</title>
<ellipse fill="none" stroke="black" cx="203.43" cy="-279" rx="203.36" ry="18"/>
<text text-anchor="middle" x="203.43" y="-275.3" font-family="Times,serif" font-size="14.00">IRI &#45; https://ontology.caseontology.org/case/case/1.1.0</text>
</g>
<!-- http___example_org_ontology_case_corpora&#45;&gt;https___ontology_caseontology_org_case_case_1_1_0 -->
<g id="edge15" class="edge">
<title>http___example_org_ontology_case_corpora&#45;&gt;https___ontology_caseontology_org_case_case_1_1_0</title>
<path fill="none" stroke="black" d="M620.42,-350.05C532.77,-335.32 398.97,-312.85 306.69,-297.34"/>
<polygon fill="black" stroke="black" points="307.3,-293.9 296.85,-295.69 306.14,-300.8 307.3,-293.9"/>
<text text-anchor="middle" x="508.93" y="-318.8" font-family="Times,serif" font-size="14.00">imports</text>
</g>
<!-- http___example_org_shapes_case_corpora -->
<g id="node12" class="node">
<title>http___example_org_shapes_case_corpora</title>
<ellipse fill="none" stroke="black" cx="1085.43" cy="-540" rx="168.97" ry="18"/>
<text text-anchor="middle" x="1085.43" y="-536.3" font-family="Times,serif" font-size="14.00">IRI &#45; http://example.org/shapes/case&#45;corpora</text>
</g>
<!-- http___example_org_shapes_case_corpora_local&#45;&gt;http___example_org_shapes_case_corpora -->
<g id="edge16" class="edge">
<title>http___example_org_shapes_case_corpora_local&#45;&gt;http___example_org_shapes_case_corpora</title>
<path fill="none" stroke="black" d="M1085.43,-608.8C1085.43,-597.58 1085.43,-582.67 1085.43,-569.69"/>
<polygon fill="black" stroke="black" points="1088.93,-569.98 1085.43,-559.98 1081.93,-569.98 1088.93,-569.98"/>
<text text-anchor="middle" x="1106.93" y="-579.8" font-family="Times,serif" font-size="14.00">imports</text>
</g>
<!-- http___example_org_shapes_case_corpora&#45;&gt;http___example_org_ontology_case_corpora -->
<g id="edge17" class="edge">
<title>http___example_org_shapes_case_corpora&#45;&gt;http___example_org_ontology_case_corpora</title>
<path fill="none" stroke="black" d="M1026.56,-522.65C985.81,-510.48 930.78,-492.33 884.43,-471 833.37,-447.51 778.21,-413.06 743.75,-390.34"/>
<polygon fill="black" stroke="black" points="746.13,-387.72 735.86,-385.1 742.25,-393.55 746.13,-387.72"/>
<text text-anchor="middle" x="905.93" y="-449.3" font-family="Times,serif" font-size="14.00">imports</text>
</g>
<!-- http___example_org_shapes_dcat_us -->
<g id="node16" class="node">
<title>http___example_org_shapes_dcat_us</title>
<ellipse fill="none" stroke="black" cx="1085.43" cy="-453" rx="149.47" ry="18"/>
<text text-anchor="middle" x="1085.43" y="-449.3" font-family="Times,serif" font-size="14.00">IRI &#45; http://example.org/shapes/dcat&#45;us</text>
</g>
<!-- http___example_org_shapes_case_corpora&#45;&gt;http___example_org_shapes_dcat_us -->
<g id="edge18" class="edge">
<title>http___example_org_shapes_case_corpora&#45;&gt;http___example_org_shapes_dcat_us</title>
<path fill="none" stroke="black" d="M1085.43,-521.8C1085.43,-510.58 1085.43,-495.67 1085.43,-482.69"/>
<polygon fill="black" stroke="black" points="1088.93,-482.98 1085.43,-472.98 1081.93,-482.98 1088.93,-482.98"/>
<text text-anchor="middle" x="1106.93" y="-492.8" font-family="Times,serif" font-size="14.00">imports</text>
</g>
<!-- http___example_org_shapes_owl_abox -->
<g id="node19" class="node">
<title>http___example_org_shapes_owl_abox</title>
<ellipse fill="none" stroke="black" cx="1410.43" cy="-453" rx="157.07" ry="18"/>
<text text-anchor="middle" x="1410.43" y="-449.3" font-family="Times,serif" font-size="14.00">IRI &#45; http://example.org/shapes/owl&#45;abox</text>
</g>
<!-- http___example_org_shapes_case_corpora&#45;&gt;http___example_org_shapes_owl_abox -->
<g id="edge19" class="edge">
<title>http___example_org_shapes_case_corpora&#45;&gt;http___example_org_shapes_owl_abox</title>
<path fill="none" stroke="black" d="M1147.33,-522.81C1201.83,-508.56 1281.22,-487.79 1338.53,-472.81"/>
<polygon fill="black" stroke="black" points="1339.07,-476.28 1347.85,-470.37 1337.29,-469.51 1339.07,-476.28"/>
<text text-anchor="middle" x="1288.93" y="-492.8" font-family="Times,serif" font-size="14.00">imports</text>
</g>
<!-- http___example_org_shapes_dc -->
<g id="node13" class="node">
<title>http___example_org_shapes_dc</title>
<ellipse fill="none" stroke="black" cx="1736.43" cy="-105" rx="131.88" ry="18"/>
<text text-anchor="middle" x="1736.43" y="-101.3" font-family="Times,serif" font-size="14.00">IRI &#45; http://example.org/shapes/dc</text>
</g>
<!-- http___purl_org_dc_elements_1_1_ -->
<g id="node28" class="node">
<title>http___purl_org_dc_elements_1_1_</title>
<ellipse fill="none" stroke="black" cx="1736.43" cy="-18" rx="140.28" ry="18"/>
<text text-anchor="middle" x="1736.43" y="-14.3" font-family="Times,serif" font-size="14.00">IRI &#45; http://purl.org/dc/elements/1.1/</text>
</g>
<!-- http___example_org_shapes_dc&#45;&gt;http___purl_org_dc_elements_1_1_ -->
<g id="edge20" class="edge">
<title>http___example_org_shapes_dc&#45;&gt;http___purl_org_dc_elements_1_1_</title>
<path fill="none" stroke="black" d="M1736.43,-86.8C1736.43,-75.58 1736.43,-60.67 1736.43,-47.69"/>
<polygon fill="black" stroke="black" points="1739.93,-47.98 1736.43,-37.98 1732.93,-47.98 1739.93,-47.98"/>
<text text-anchor="middle" x="1757.93" y="-57.8" font-family="Times,serif" font-size="14.00">imports</text>
</g>
<!-- http___example_org_shapes_dcam -->
<g id="node14" class="node">
<title>http___example_org_shapes_dcam</title>
<ellipse fill="none" stroke="black" cx="1442.43" cy="-105" rx="143.77" ry="18"/>
<text text-anchor="middle" x="1442.43" y="-101.3" font-family="Times,serif" font-size="14.00">IRI &#45; http://example.org/shapes/dcam</text>
</g>
<!-- http___purl_org_dc_dcam_ -->
<g id="node29" class="node">
<title>http___purl_org_dc_dcam_</title>
<ellipse fill="none" stroke="black" cx="1442.43" cy="-18" rx="114.28" ry="18"/>
<text text-anchor="middle" x="1442.43" y="-14.3" font-family="Times,serif" font-size="14.00">IRI &#45; http://purl.org/dc/dcam/</text>
</g>
<!-- http___example_org_shapes_dcam&#45;&gt;http___purl_org_dc_dcam_ -->
<g id="edge21" class="edge">
<title>http___example_org_shapes_dcam&#45;&gt;http___purl_org_dc_dcam_</title>
<path fill="none" stroke="black" d="M1442.43,-86.8C1442.43,-75.58 1442.43,-60.67 1442.43,-47.69"/>
<polygon fill="black" stroke="black" points="1445.93,-47.98 1442.43,-37.98 1438.93,-47.98 1445.93,-47.98"/>
<text text-anchor="middle" x="1463.93" y="-57.8" font-family="Times,serif" font-size="14.00">imports</text>
</g>
<!-- http___example_org_shapes_dcat -->
<g id="node15" class="node">
<title>http___example_org_shapes_dcat</title>
<ellipse fill="none" stroke="black" cx="1252.43" cy="-366" rx="138.38" ry="18"/>
<text text-anchor="middle" x="1252.43" y="-362.3" font-family="Times,serif" font-size="14.00">IRI &#45; http://example.org/shapes/dcat</text>
</g>
<!-- http___example_org_shapes_dcat&#45;&gt;http___www_w3_org_ns_dcat -->
<g id="edge12" class="edge">
<title>http___example_org_shapes_dcat&#45;&gt;http___www_w3_org_ns_dcat</title>
<path fill="none" stroke="black" d="M1152.91,-353.11C1040.04,-339.6 850.48,-316.85 687.43,-297 676.26,-295.64 664.59,-294.21 652.96,-292.79"/>
<polygon fill="black" stroke="black" points="653.7,-289.35 643.35,-291.6 652.85,-296.3 653.7,-289.35"/>
<text text-anchor="middle" x="972.93" y="-318.8" font-family="Times,serif" font-size="14.00">imports</text>
</g>
<!-- http___example_org_shapes_dcterms -->
<g id="node17" class="node">
<title>http___example_org_shapes_dcterms</title>
<ellipse fill="none" stroke="black" cx="1589.43" cy="-192" rx="152.17" ry="18"/>
<text text-anchor="middle" x="1589.43" y="-188.3" font-family="Times,serif" font-size="14.00">IRI &#45; http://example.org/shapes/dcterms</text>
</g>
<!-- http___example_org_shapes_dcat&#45;&gt;http___example_org_shapes_dcterms -->
<g id="edge22" class="edge">
<title>http___example_org_shapes_dcat&#45;&gt;http___example_org_shapes_dcterms</title>
<path fill="none" stroke="black" d="M1350.23,-352.88C1489.8,-335.37 1730.12,-304.26 1736.43,-297 1767.66,-261.08 1709.74,-231.1 1657.67,-212.7"/>
<polygon fill="black" stroke="black" points="1659.05,-209.47 1648.46,-209.55 1656.79,-216.09 1659.05,-209.47"/>
<text text-anchor="middle" x="1766.93" y="-275.3" font-family="Times,serif" font-size="14.00">imports</text>
</g>
<!-- http___example_org_shapes_foaf -->
<g id="node18" class="node">
<title>http___example_org_shapes_foaf</title>
<ellipse fill="none" stroke="black" cx="1589.43" cy="-279" rx="137.58" ry="18"/>
<text text-anchor="middle" x="1589.43" y="-275.3" font-family="Times,serif" font-size="14.00">IRI &#45; http://example.org/shapes/foaf</text>
</g>
<!-- http___example_org_shapes_dcat&#45;&gt;http___example_org_shapes_foaf -->
<g id="edge25" class="edge">
<title>http___example_org_shapes_dcat&#45;&gt;http___example_org_shapes_foaf</title>
<path fill="none" stroke="black" d="M1313.85,-349.51C1371.04,-335.08 1456.34,-313.57 1516.86,-298.3"/>
<polygon fill="black" stroke="black" points="1517.56,-301.74 1526.4,-295.9 1515.85,-294.95 1517.56,-301.74"/>
<text text-anchor="middle" x="1462.93" y="-318.8" font-family="Times,serif" font-size="14.00">imports</text>
</g>
<!-- http___example_org_shapes_vcard -->
<g id="node22" class="node">
<title>http___example_org_shapes_vcard</title>
<ellipse fill="none" stroke="black" cx="1290.43" cy="-279" rx="143.77" ry="18"/>
<text text-anchor="middle" x="1290.43" y="-275.3" font-family="Times,serif" font-size="14.00">IRI &#45; http://example.org/shapes/vcard</text>
</g>
<!-- http___example_org_shapes_dcat&#45;&gt;http___example_org_shapes_vcard -->
<g id="edge26" class="edge">
<title>http___example_org_shapes_dcat&#45;&gt;http___example_org_shapes_vcard</title>
<path fill="none" stroke="black" d="M1260.12,-347.8C1265.24,-336.35 1272.08,-321.06 1277.96,-307.89"/>
<polygon fill="black" stroke="black" points="1281.12,-309.41 1282.01,-298.85 1274.73,-306.55 1281.12,-309.41"/>
<text text-anchor="middle" x="1295.93" y="-318.8" font-family="Times,serif" font-size="14.00">imports</text>
</g>
<!-- http___example_org_shapes_dcat_us&#45;&gt;http___example_org_shapes_dcat -->
<g id="edge27" class="edge">
<title>http___example_org_shapes_dcat_us&#45;&gt;http___example_org_shapes_dcat</title>
<path fill="none" stroke="black" d="M1118.83,-435C1144.85,-421.76 1181.18,-403.26 1209.39,-388.91"/>
<polygon fill="black" stroke="black" points="1210.71,-392.16 1218.03,-384.51 1207.53,-385.93 1210.71,-392.16"/>
<text text-anchor="middle" x="1200.93" y="-405.8" font-family="Times,serif" font-size="14.00">imports</text>
</g>
<!-- http___example_org_shapes_pod -->
<g id="node20" class="node">
<title>http___example_org_shapes_pod</title>
<ellipse fill="none" stroke="black" cx="1546.43" cy="-366" rx="137.28" ry="18"/>
<text text-anchor="middle" x="1546.43" y="-362.3" font-family="Times,serif" font-size="14.00">IRI &#45; http://example.org/shapes/pod</text>
</g>
<!-- http___example_org_shapes_dcat_us&#45;&gt;http___example_org_shapes_pod -->
<g id="edge28" class="edge">
<title>http___example_org_shapes_dcat_us&#45;&gt;http___example_org_shapes_pod</title>
<path fill="none" stroke="black" d="M1164.94,-437.34C1246.54,-422.3 1373.2,-398.94 1457.93,-383.32"/>
<polygon fill="black" stroke="black" points="1458.39,-386.79 1467.59,-381.54 1457.12,-379.91 1458.39,-386.79"/>
<text text-anchor="middle" x="1365.93" y="-405.8" font-family="Times,serif" font-size="14.00">imports</text>
</g>
<!-- http___example_org_shapes_skos -->
<g id="node21" class="node">
<title>http___example_org_shapes_skos</title>
<ellipse fill="none" stroke="black" cx="989.43" cy="-279" rx="139.98" ry="18"/>
<text text-anchor="middle" x="989.43" y="-275.3" font-family="Times,serif" font-size="14.00">IRI &#45; http://example.org/shapes/skos</text>
</g>
<!-- http___example_org_shapes_dcat_us&#45;&gt;http___example_org_shapes_skos -->
<g id="edge29" class="edge">
<title>http___example_org_shapes_dcat_us&#45;&gt;http___example_org_shapes_skos</title>
<path fill="none" stroke="black" d="M1075.5,-434.69C1061.99,-411.09 1037.15,-367.48 1016.43,-330 1012.34,-322.61 1007.97,-314.56 1003.96,-307.13"/>
<polygon fill="black" stroke="black" points="1007.14,-305.65 999.31,-298.5 1000.97,-308.97 1007.14,-305.65"/>
<text text-anchor="middle" x="1067.93" y="-362.3" font-family="Times,serif" font-size="14.00">imports</text>
</g>
<!-- http___example_org_shapes_dcterms&#45;&gt;http___example_org_shapes_dc -->
<g id="edge30" class="edge">
<title>http___example_org_shapes_dcterms&#45;&gt;http___example_org_shapes_dc</title>
<path fill="none" stroke="black" d="M1618.83,-174C1641.36,-160.97 1672.67,-142.87 1697.32,-128.62"/>
<polygon fill="black" stroke="black" points="1698.87,-131.76 1705.78,-123.72 1695.37,-125.7 1698.87,-131.76"/>
<text text-anchor="middle" x="1693.93" y="-144.8" font-family="Times,serif" font-size="14.00">imports</text>
</g>
<!-- http___example_org_shapes_dcterms&#45;&gt;http___example_org_shapes_dcam -->
<g id="edge31" class="edge">
<title>http___example_org_shapes_dcterms&#45;&gt;http___example_org_shapes_dcam</title>
<path fill="none" stroke="black" d="M1560.04,-174C1537.5,-160.97 1506.19,-142.87 1481.54,-128.62"/>
<polygon fill="black" stroke="black" points="1483.49,-125.7 1473.09,-123.72 1479.99,-131.76 1483.49,-125.7"/>
<text text-anchor="middle" x="1546.93" y="-144.8" font-family="Times,serif" font-size="14.00">imports</text>
</g>
<!-- http___example_org_shapes_dcterms&#45;&gt;http___purl_org_dc_terms_ -->
<g id="edge5" class="edge">
<title>http___example_org_shapes_dcterms&#45;&gt;http___purl_org_dc_terms_</title>
<path fill="none" stroke="black" d="M1478.76,-179.35C1461.58,-177.55 1444.03,-175.72 1427.43,-174 1230.91,-153.59 1001.52,-130.11 870.89,-116.76"/>
<polygon fill="black" stroke="black" points="871.53,-113.31 861.22,-115.77 870.82,-120.27 871.53,-113.31"/>
<text text-anchor="middle" x="1267.93" y="-144.8" font-family="Times,serif" font-size="14.00">imports</text>
</g>
<!-- http___example_org_shapes_foaf&#45;&gt;http___xmlns_com_foaf_0_1_ -->
<g id="edge14" class="edge">
<title>http___example_org_shapes_foaf&#45;&gt;http___xmlns_com_foaf_0_1_</title>
<path fill="none" stroke="black" d="M1499.89,-264.93C1463.3,-259.06 1420.68,-251.52 1382.43,-243 1358.12,-237.58 1352.95,-232.38 1328.43,-228 1233.17,-210.97 1207.68,-220.09 1111.43,-210 1100.59,-208.86 1089.26,-207.58 1077.99,-206.24"/>
<polygon fill="black" stroke="black" points="1078.6,-202.78 1068.25,-205.06 1077.76,-209.73 1078.6,-202.78"/>
<text text-anchor="middle" x="1403.93" y="-231.8" font-family="Times,serif" font-size="14.00">imports</text>
</g>
<!-- http___example_org_shapes_foaf&#45;&gt;http___example_org_shapes_dcterms -->
<g id="edge23" class="edge">
<title>http___example_org_shapes_foaf&#45;&gt;http___example_org_shapes_dcterms</title>
<path fill="none" stroke="black" d="M1589.43,-260.8C1589.43,-249.58 1589.43,-234.67 1589.43,-221.69"/>
<polygon fill="black" stroke="black" points="1592.93,-221.98 1589.43,-211.98 1585.93,-221.98 1592.93,-221.98"/>
<text text-anchor="middle" x="1610.93" y="-231.8" font-family="Times,serif" font-size="14.00">imports</text>
</g>
<!-- http___example_org_shapes_skos&#45;&gt;http___www_w3_org_2004_02_skos_core -->
<g id="edge7" class="edge">
<title>http___example_org_shapes_skos&#45;&gt;http___www_w3_org_2004_02_skos_core</title>
<path fill="none" stroke="black" d="M930.74,-262.31C877.74,-248.14 799.61,-227.26 742.98,-212.12"/>
<polygon fill="black" stroke="black" points="743.98,-208.77 733.41,-209.57 742.17,-215.53 743.98,-208.77"/>
<text text-anchor="middle" x="871.93" y="-231.8" font-family="Times,serif" font-size="14.00">imports</text>
</g>
<!-- http___example_org_shapes_skos&#45;&gt;http___example_org_shapes_dcterms -->
<g id="edge24" class="edge">
<title>http___example_org_shapes_skos&#45;&gt;http___example_org_shapes_dcterms</title>
<path fill="none" stroke="black" d="M1088.47,-265.89C1104.81,-264.1 1121.59,-262.4 1137.43,-261 1266.95,-249.58 1301.56,-266.56 1429.43,-243 1465.53,-236.35 1504.9,-224.11 1535.55,-213.41"/>
<polygon fill="black" stroke="black" points="1536.33,-216.85 1544.58,-210.21 1533.99,-210.25 1536.33,-216.85"/>
<text text-anchor="middle" x="1509.93" y="-231.8" font-family="Times,serif" font-size="14.00">imports</text>
</g>
<!-- http___example_org_shapes_vcard&#45;&gt;http___www_w3_org_2006_vcard_ns -->
<g id="edge10" class="edge">
<title>http___example_org_shapes_vcard&#45;&gt;http___www_w3_org_2006_vcard_ns</title>
<path fill="none" stroke="black" d="M1286.18,-260.8C1283.38,-249.47 1279.65,-234.36 1276.42,-221.29"/>
<polygon fill="black" stroke="black" points="1279.91,-220.81 1274.11,-211.94 1273.11,-222.48 1279.91,-220.81"/>
<text text-anchor="middle" x="1302.93" y="-231.8" font-family="Times,serif" font-size="14.00">imports</text>
</g>
</g>
</svg>
