<?xml version="1.0" encoding="UTF-8" standalone="no"?>
<!DOCTYPE svg PUBLIC "-//W3C//DTD SVG 1.1//EN"
 "http://www.w3.org/Graphics/SVG/1.1/DTD/svg11.dtd">
<!-- Generated by graphviz version 7.1.0 (20230121.1956)
 -->
<!-- Title: PROV&#45;O render Pages: 1 -->
<svg width="711pt" height="414pt"
 viewBox="0.00 0.00 710.70 414.10" xmlns="http://www.w3.org/2000/svg" xmlns:xlink="http://www.w3.org/1999/xlink">
<g id="graph0" class="graph" transform="scale(1 1) rotate(0) translate(4 410.1)">
<title>PROV&#45;O render</title>
<polygon fill="white" stroke="none" points="-4,4 -4,-410.1 706.7,-410.1 706.7,4 -4,4"/>
<!-- _1f04d829546c397900d5164d5f2d881a9d7141a66bfedb6c9fbc0aa88bbfc164 -->
<g id="node1" class="node">
<title>_1f04d829546c397900d5164d5f2d881a9d7141a66bfedb6c9fbc0aa88bbfc164</title>
<ellipse fill="#fff68f" stroke="#808080" cx="219.2" cy="-38.18" rx="219.41" ry="38.37"/>
<text text-anchor="middle" x="219.2" y="-49.98" font-family="Times,serif" font-size="14.00">ID &#45; kb:file&#45;2352f3d0&#45;d02f&#45;40ba&#45;85a4&#45;b00dd97050c8</text>
<text text-anchor="middle" x="219.2" y="-18.98" font-family="Times,serif" font-size="14.00">android_7.tar.gz</text>
</g>
<!-- _c1a739983405a7bfa4936ec3a1ea5fbf93592d8df15f9a6b45f2537d7c543d15 -->
<g id="node2" class="node">
<title>_c1a739983405a7bfa4936ec3a1ea5fbf93592d8df15f9a6b45f2537d7c543d15</title>
<ellipse fill="#fff68f" stroke="#808080" cx="316.2" cy="-244.55" rx="216.25" ry="38.37"/>
<text text-anchor="middle" x="316.2" y="-256.35" font-family="Times,serif" font-size="14.00">ID &#45; kb:file&#45;3af91026&#45;4c09&#45;4047&#45;a914&#45;15e75a711ff0</text>
<text text-anchor="middle" x="316.2" y="-225.35" font-family="Times,serif" font-size="14.00">Android7&#45;ImageCreationDocumentation.pdf</text>
</g>
<!-- _1f04d829546c397900d5164d5f2d881a9d7141a66bfedb6c9fbc0aa88bbfc164&#45;&gt;_c1a739983405a7bfa4936ec3a1ea5fbf93592d8df15f9a6b45f2537d7c543d15 -->
<g id="edge1" class="edge">
<title>_1f04d829546c397900d5164d5f2d881a9d7141a66bfedb6c9fbc0aa88bbfc164&#45;&gt;_c1a739983405a7bfa4936ec3a1ea5fbf93592d8df15f9a6b45f2537d7c543d15</title>
<path fill="none" stroke="black" d="M215.26,-76.96C214.29,-101.56 216.1,-133.73 228.2,-159.37 235.17,-174.12 245.94,-187.64 257.58,-199.31"/>
<polygon fill="black" stroke="black" points="254.99,-201.68 264.65,-206.05 259.82,-196.62 254.99,-201.68"/>
<text text-anchor="middle" x="263.2" y="-138.87" font-family="Times,serif" font-size="10.00">wasDerivedFrom</text>
</g>
<!-- _5090b4bd42dac0fe6075f8ff9b6b3a5930561b67224e38a36ae608fd7cdd8b9e -->
<g id="node3" class="node">
<title>_5090b4bd42dac0fe6075f8ff9b6b3a5930561b67224e38a36ae608fd7cdd8b9e</title>
<ellipse fill="#fff68f" stroke="#808080" cx="316.2" cy="-367.92" rx="230.53" ry="38.37"/>
<text text-anchor="middle" x="316.2" y="-379.72" font-family="Times,serif" font-size="14.00">ID &#45; kb:image&#45;a3c3e13d&#45;98ef&#45;4901&#45;b984&#45;81c10142d90e</text>
<text text-anchor="middle" x="316.2" y="-348.72" font-family="Times,serif" font-size="14.00">blk0_mmcblk0.bin, as generated by imaging process</text>
</g>
<!-- _1f04d829546c397900d5164d5f2d881a9d7141a66bfedb6c9fbc0aa88bbfc164&#45;&gt;_5090b4bd42dac0fe6075f8ff9b6b3a5930561b67224e38a36ae608fd7cdd8b9e -->
<g id="edge2" class="edge">
<title>_1f04d829546c397900d5164d5f2d881a9d7141a66bfedb6c9fbc0aa88bbfc164&#45;&gt;_5090b4bd42dac0fe6075f8ff9b6b3a5930561b67224e38a36ae608fd7cdd8b9e</title>
<path fill="none" stroke="black" d="M175.02,-75.85C121.31,-124.95 43.43,-213.85 91.2,-282.74 106.87,-305.33 129.39,-321.86 154.19,-333.97"/>
<polygon fill="black" stroke="black" points="152.63,-337.11 163.18,-338.09 155.55,-330.74 152.63,-337.11"/>
<text text-anchor="middle" x="127.2" y="-180.37" font-family="Times,serif" font-size="10.00">wasDerivedFrom</text>
</g>
<!-- _a02c2e16e16ca8e40604e0031a59adedf64d57096fdb251d9226c253b8a229a9 -->
<g id="node4" class="node">
<title>_a02c2e16e16ca8e40604e0031a59adedf64d57096fdb251d9226c253b8a229a9</title>
<polygon fill="#cdc673" stroke="#808080" points="702.7,-159.37 699.7,-163.37 678.7,-163.37 675.7,-159.37 307.7,-159.37 307.7,-123.37 702.7,-123.37 702.7,-159.37"/>
<text text-anchor="middle" x="505.2" y="-137.67" font-family="Times,serif" font-size="14.00">ID &#45; kb:provenance&#45;record&#45;2dbd4ba1&#45;76b1&#45;4041&#45;a460&#45;8a5922940f79</text>
</g>
<!-- _1f04d829546c397900d5164d5f2d881a9d7141a66bfedb6c9fbc0aa88bbfc164&#45;&gt;_a02c2e16e16ca8e40604e0031a59adedf64d57096fdb251d9226c253b8a229a9 -->
<g id="edge3" class="edge">
<title>_1f04d829546c397900d5164d5f2d881a9d7141a66bfedb6c9fbc0aa88bbfc164&#45;&gt;_a02c2e16e16ca8e40604e0031a59adedf64d57096fdb251d9226c253b8a229a9</title>
<path fill="none" stroke="black" d="M314.83,-73.02C357.84,-88.23 407.3,-105.73 445.02,-119.08"/>
<polygon fill="black" stroke="black" points="443.81,-122.36 454.4,-122.4 446.14,-115.76 443.81,-122.36"/>
<text text-anchor="middle" x="440.2" y="-97.37" font-family="Times,serif" font-size="10.00">wasDerivedFrom</text>
</g>
<!-- _c1a739983405a7bfa4936ec3a1ea5fbf93592d8df15f9a6b45f2537d7c543d15&#45;&gt;_5090b4bd42dac0fe6075f8ff9b6b3a5930561b67224e38a36ae608fd7cdd8b9e -->
<g id="edge4" class="edge">
<title>_c1a739983405a7bfa4936ec3a1ea5fbf93592d8df15f9a6b45f2537d7c543d15&#45;&gt;_5090b4bd42dac0fe6075f8ff9b6b3a5930561b67224e38a36ae608fd7cdd8b9e</title>
<path fill="none" stroke="black" d="M316.2,-283.29C316.2,-294.25 316.2,-306.38 316.2,-317.92"/>
<polygon fill="black" stroke="black" points="312.7,-317.69 316.2,-327.69 319.7,-317.69 312.7,-317.69"/>
<text text-anchor="middle" x="351.2" y="-303.74" font-family="Times,serif" font-size="10.00">wasDerivedFrom</text>
</g>
<!-- _a02c2e16e16ca8e40604e0031a59adedf64d57096fdb251d9226c253b8a229a9&#45;&gt;_c1a739983405a7bfa4936ec3a1ea5fbf93592d8df15f9a6b45f2537d7c543d15 -->
<g id="edge5" class="edge">
<title>_a02c2e16e16ca8e40604e0031a59adedf64d57096fdb251d9226c253b8a229a9&#45;&gt;_c1a739983405a7bfa4936ec3a1ea5fbf93592d8df15f9a6b45f2537d7c543d15</title>
<path fill="none" stroke="black" d="M472.71,-159.76C450.81,-171.49 420.95,-187.47 393.19,-202.34"/>
<polygon fill="black" stroke="black" points="391.57,-199.23 384.4,-207.04 394.87,-205.41 391.57,-199.23"/>
<text text-anchor="middle" x="462.7" y="-180.37" font-family="Times,serif" font-size="10.00">hadMember</text>
</g>
<!-- _a02c2e16e16ca8e40604e0031a59adedf64d57096fdb251d9226c253b8a229a9&#45;&gt;_5090b4bd42dac0fe6075f8ff9b6b3a5930561b67224e38a36ae608fd7cdd8b9e -->
<g id="edge6" class="edge">
<title>_a02c2e16e16ca8e40604e0031a59adedf64d57096fdb251d9226c253b8a229a9&#45;&gt;_5090b4bd42dac0fe6075f8ff9b6b3a5930561b67224e38a36ae608fd7cdd8b9e</title>
<path fill="none" stroke="black" d="M517.79,-159.49C536.78,-187.61 567.87,-244.28 541.2,-282.74 525.54,-305.33 503.02,-321.86 478.22,-333.97"/>
<polygon fill="black" stroke="black" points="476.86,-330.74 469.22,-338.09 479.77,-337.11 476.86,-330.74"/>
<text text-anchor="middle" x="586.2" y="-242.05" font-family="Times,serif" font-size="10.00">wasDerivedFrom</text>
</g>
<!-- _357f00248bdc728725be43338ec69113a99cec9793681d0accd1f777e4dd5fbf -->
<g id="node5" class="node">
<title>_357f00248bdc728725be43338ec69113a99cec9793681d0accd1f777e4dd5fbf</title>
<polygon fill="#cdc673" stroke="#808080" points="620.2,-56.18 617.2,-60.18 596.2,-60.18 593.2,-56.18 456.2,-56.18 456.2,-20.18 620.2,-20.18 620.2,-56.18"/>
<text text-anchor="middle" x="538.2" y="-34.48" font-family="Times,serif" font-size="14.00">ID &#45; prov:EmptyCollection</text>
</g>
</g>
</svg>
