<?xml version="1.0" encoding="UTF-8" standalone="no"?>
<!DOCTYPE svg PUBLIC "-//W3C//DTD SVG 1.1//EN"
 "http://www.w3.org/Graphics/SVG/1.1/DTD/svg11.dtd">
<!-- Generated by graphviz version 7.1.0 (20230121.1956)
 -->
<!-- Title: PROV&#45;O render Pages: 1 -->
<svg width="2655pt" height="913pt"
 viewBox="0.00 0.00 2655.00 913.47" xmlns="http://www.w3.org/2000/svg" xmlns:xlink="http://www.w3.org/1999/xlink">
<g id="graph0" class="graph" transform="scale(1 1) rotate(0) translate(4 909.47)">
<title>PROV&#45;O render</title>
<polygon fill="white" stroke="none" points="-4,4 -4,-909.47 2651,-909.47 2651,4 -4,4"/>
<!-- _1f04d829546c397900d5164d5f2d881a9d7141a66bfedb6c9fbc0aa88bbfc164 -->
<g id="node1" class="node">
<title>_1f04d829546c397900d5164d5f2d881a9d7141a66bfedb6c9fbc0aa88bbfc164</title>
<ellipse fill="#fff68f" stroke="#808080" cx="1050" cy="-38.18" rx="219.41" ry="38.37"/>
<text text-anchor="middle" x="1050" y="-49.98" font-family="Times,serif" font-size="14.00">ID &#45; kb:file&#45;2352f3d0&#45;d02f&#45;40ba&#45;85a4&#45;b00dd97050c8</text>
<text text-anchor="middle" x="1050" y="-18.98" font-family="Times,serif" font-size="14.00">android_7.tar.gz</text>
</g>
<!-- _c1a739983405a7bfa4936ec3a1ea5fbf93592d8df15f9a6b45f2537d7c543d15 -->
<g id="node2" class="node">
<title>_c1a739983405a7bfa4936ec3a1ea5fbf93592d8df15f9a6b45f2537d7c543d15</title>
<ellipse fill="#fff68f" stroke="#808080" cx="613" cy="-302.55" rx="216.25" ry="38.37"/>
<text text-anchor="middle" x="613" y="-314.35" font-family="Times,serif" font-size="14.00">ID &#45; kb:file&#45;3af91026&#45;4c09&#45;4047&#45;a914&#45;15e75a711ff0</text>
<text text-anchor="middle" x="613" y="-283.35" font-family="Times,serif" font-size="14.00">Android7&#45;ImageCreationDocumentation.pdf</text>
</g>
<!-- _1f04d829546c397900d5164d5f2d881a9d7141a66bfedb6c9fbc0aa88bbfc164&#45;&gt;_c1a739983405a7bfa4936ec3a1ea5fbf93592d8df15f9a6b45f2537d7c543d15 -->
<g id="edge1" class="edge">
<title>_1f04d829546c397900d5164d5f2d881a9d7141a66bfedb6c9fbc0aa88bbfc164&#45;&gt;_c1a739983405a7bfa4936ec3a1ea5fbf93592d8df15f9a6b45f2537d7c543d15</title>
<path fill="none" stroke="black" d="M846.28,-52.69C744.22,-64.16 635.68,-85.15 604,-123.37 574.52,-158.93 582.44,-213.53 594.19,-252.91"/>
<polygon fill="black" stroke="black" points="590.84,-253.93 597.21,-262.4 597.51,-251.81 590.84,-253.93"/>
<text text-anchor="middle" x="639" y="-138.87" font-family="Times,serif" font-size="10.00">wasDerivedFrom</text>
</g>
<!-- _2a4fbbcb7bd477dfe0f7d0497df08f1814dc4799866304fbb2c1d587e028daee -->
<g id="node3" class="node">
<title>_2a4fbbcb7bd477dfe0f7d0497df08f1814dc4799866304fbb2c1d587e028daee</title>
<ellipse fill="#fff68f" stroke="#808080" cx="2177" cy="-642.92" rx="219.82" ry="38.37"/>
<text text-anchor="middle" x="2177" y="-654.72" font-family="Times,serif" font-size="14.00">ID &#45; kb:file&#45;736c63b5&#45;5e15&#45;4a48&#45;b948&#45;13757bae0aae</text>
<text text-anchor="middle" x="2177" y="-623.72" font-family="Times,serif" font-size="14.00">LG GSM_H790 Nexus 5X.ufd</text>
</g>
<!-- _1f04d829546c397900d5164d5f2d881a9d7141a66bfedb6c9fbc0aa88bbfc164&#45;&gt;_2a4fbbcb7bd477dfe0f7d0497df08f1814dc4799866304fbb2c1d587e028daee -->
<g id="edge2" class="edge">
<title>_1f04d829546c397900d5164d5f2d881a9d7141a66bfedb6c9fbc0aa88bbfc164&#45;&gt;_2a4fbbcb7bd477dfe0f7d0497df08f1814dc4799866304fbb2c1d587e028daee</title>
<path fill="none" stroke="black" d="M1201.45,-66.33C1226.94,-70.19 1253.17,-73.74 1278,-76.37 1349.85,-83.97 2577,-68.11 2577,-140.37 2577,-140.37 2577,-140.37 2577,-365.24 2577,-394.59 2457.76,-570.97 2433,-586.74 2412.88,-599.55 2390.25,-609.43 2367,-617.04"/>
<polygon fill="black" stroke="black" points="2366.22,-613.61 2357.72,-619.92 2368.31,-620.29 2366.22,-613.61"/>
<text text-anchor="middle" x="2612" y="-361.74" font-family="Times,serif" font-size="10.00">wasDerivedFrom</text>
</g>
<!-- _5fcc6a159804d07e43abe88b4f66d9c983ba2225ac3ef98b4b1685e6009042ca -->
<g id="node4" class="node">
<title>_5fcc6a159804d07e43abe88b4f66d9c983ba2225ac3ef98b4b1685e6009042ca</title>
<ellipse fill="#fff68f" stroke="#808080" cx="1704" cy="-302.55" rx="219.82" ry="38.37"/>
<text text-anchor="middle" x="1704" y="-314.35" font-family="Times,serif" font-size="14.00">ID &#45; kb:file&#45;cee5a02b&#45;56a7&#45;4ad6&#45;9e78&#45;d297e6b92517</text>
<text text-anchor="middle" x="1704" y="-283.35" font-family="Times,serif" font-size="14.00">Android 7 Hashes.pdf</text>
</g>
<!-- _1f04d829546c397900d5164d5f2d881a9d7141a66bfedb6c9fbc0aa88bbfc164&#45;&gt;_5fcc6a159804d07e43abe88b4f66d9c983ba2225ac3ef98b4b1685e6009042ca -->
<g id="edge3" class="edge">
<title>_1f04d829546c397900d5164d5f2d881a9d7141a66bfedb6c9fbc0aa88bbfc164&#45;&gt;_5fcc6a159804d07e43abe88b4f66d9c983ba2225ac3ef98b4b1685e6009042ca</title>
<path fill="none" stroke="black" d="M1161.89,-71.56C1184.27,-78.63 1207.5,-86.39 1229,-94.37 1368.24,-146.01 1525.39,-217.19 1619.48,-261.24"/>
<polygon fill="black" stroke="black" points="1617.88,-264.36 1628.42,-265.44 1620.85,-258.02 1617.88,-264.36"/>
<text text-anchor="middle" x="1426" y="-138.87" font-family="Times,serif" font-size="10.00">wasDerivedFrom</text>
</g>
<!-- _457e8792d4af0b60ec728dc4a5ed79d03fe6e76d0730385fad463089f8a49c0e -->
<g id="node5" class="node">
<title>_457e8792d4af0b60ec728dc4a5ed79d03fe6e76d0730385fad463089f8a49c0e</title>
<ellipse fill="#fff68f" stroke="#808080" cx="1458" cy="-867.29" rx="226.05" ry="38.37"/>
<text text-anchor="middle" x="1458" y="-879.09" font-family="Times,serif" font-size="14.00">ID &#45; kb:image&#45;9c77c0e9&#45;fd0b&#45;4912&#45;afcf&#45;0d1b1b86f4d6</text>
<text text-anchor="middle" x="1458" y="-848.09" font-family="Times,serif" font-size="14.00">blk32_mmcblk0rpmb.bin</text>
</g>
<!-- _1f04d829546c397900d5164d5f2d881a9d7141a66bfedb6c9fbc0aa88bbfc164&#45;&gt;_457e8792d4af0b60ec728dc4a5ed79d03fe6e76d0730385fad463089f8a49c0e -->
<g id="edge4" class="edge">
<title>_1f04d829546c397900d5164d5f2d881a9d7141a66bfedb6c9fbc0aa88bbfc164&#45;&gt;_457e8792d4af0b60ec728dc4a5ed79d03fe6e76d0730385fad463089f8a49c0e</title>
<path fill="none" stroke="black" d="M830.21,-38.83C522.35,-41.31 0,-57.7 0,-140.37 0,-140.37 0,-140.37 0,-756.1 0,-794.69 111.54,-796.68 252,-811.1 587.44,-845.54 977.58,-858.49 1221.18,-863.35"/>
<polygon fill="black" stroke="black" points="1221.09,-866.85 1231.15,-863.55 1221.22,-859.85 1221.09,-866.85"/>
<text text-anchor="middle" x="35" y="-462.74" font-family="Times,serif" font-size="10.00">wasDerivedFrom</text>
</g>
<!-- _ebc267bba83123d50851bec30bc40b11891becea7dea22c9a75002f38bd181f3 -->
<g id="node6" class="node">
<title>_ebc267bba83123d50851bec30bc40b11891becea7dea22c9a75002f38bd181f3</title>
<polygon fill="#cdc673" stroke="#808080" points="1919,-441.74 1916,-445.74 1895,-445.74 1892,-441.74 1529,-441.74 1529,-387.74 1919,-387.74 1919,-441.74"/>
<text text-anchor="middle" x="1724" y="-426.54" font-family="Times,serif" font-size="14.00">ID &#45; kb:provenance&#45;record&#45;1fd441e5&#45;e7c6&#45;4610&#45;aeaa&#45;3530aa37873c</text>
<text text-anchor="middle" x="1724" y="-395.54" font-family="Times,serif" font-size="14.00">Record of blk32_mmcblk0rpmb.bin being hashed</text>
</g>
<!-- _1f04d829546c397900d5164d5f2d881a9d7141a66bfedb6c9fbc0aa88bbfc164&#45;&gt;_ebc267bba83123d50851bec30bc40b11891becea7dea22c9a75002f38bd181f3 -->
<g id="edge5" class="edge">
<title>_1f04d829546c397900d5164d5f2d881a9d7141a66bfedb6c9fbc0aa88bbfc164&#45;&gt;_ebc267bba83123d50851bec30bc40b11891becea7dea22c9a75002f38bd181f3</title>
<path fill="none" stroke="black" d="M1092.63,-76.09C1122.33,-102.79 1162,-140.51 1193,-177.37 1223.07,-213.12 1232.06,-222.12 1252,-264.37 1272.84,-308.51 1245.05,-339.03 1283,-369.74 1301.89,-385.02 1464.35,-385.16 1517.39,-387.85"/>
<polygon fill="black" stroke="black" points="1516.86,-391.32 1527.08,-388.52 1517.34,-384.34 1516.86,-391.32"/>
<text text-anchor="middle" x="1279" y="-209.37" font-family="Times,serif" font-size="10.00">wasDerivedFrom</text>
</g>
<!-- _1aa3504fd0f5004a0b62e45f40456297227f4299319f47b6ae52f20305601d7f -->
<g id="node7" class="node">
<title>_1aa3504fd0f5004a0b62e45f40456297227f4299319f47b6ae52f20305601d7f</title>
<polygon fill="#cdc673" stroke="#808080" points="1100.5,-441.74 1097.5,-445.74 1076.5,-445.74 1073.5,-441.74 705.5,-441.74 705.5,-387.74 1100.5,-387.74 1100.5,-441.74"/>
<text text-anchor="middle" x="903" y="-426.54" font-family="Times,serif" font-size="14.00">ID &#45; kb:provenance&#45;record&#45;27610dc7&#45;3dc7&#45;4d57&#45;8143&#45;629c72fb6be7</text>
<text text-anchor="middle" x="903" y="-395.54" font-family="Times,serif" font-size="14.00">Record of procdata.zip being hashed</text>
</g>
<!-- _1f04d829546c397900d5164d5f2d881a9d7141a66bfedb6c9fbc0aa88bbfc164&#45;&gt;_1aa3504fd0f5004a0b62e45f40456297227f4299319f47b6ae52f20305601d7f -->
<g id="edge6" class="edge">
<title>_1f04d829546c397900d5164d5f2d881a9d7141a66bfedb6c9fbc0aa88bbfc164&#45;&gt;_1aa3504fd0f5004a0b62e45f40456297227f4299319f47b6ae52f20305601d7f</title>
<path fill="none" stroke="black" d="M1070.63,-76.8C1101.02,-137.87 1148.55,-259.88 1093,-340.74 1080.73,-358.59 1063.44,-372.08 1044.24,-382.28"/>
<polygon fill="black" stroke="black" points="1042.81,-379.08 1035.39,-386.64 1045.91,-385.35 1042.81,-379.08"/>
<text text-anchor="middle" x="1154" y="-209.37" font-family="Times,serif" font-size="10.00">wasDerivedFrom</text>
</g>
<!-- _a02c2e16e16ca8e40604e0031a59adedf64d57096fdb251d9226c253b8a229a9 -->
<g id="node8" class="node">
<title>_a02c2e16e16ca8e40604e0031a59adedf64d57096fdb251d9226c253b8a229a9</title>
<polygon fill="#cdc673" stroke="#808080" points="1078.5,-159.37 1075.5,-163.37 1054.5,-163.37 1051.5,-159.37 683.5,-159.37 683.5,-123.37 1078.5,-123.37 1078.5,-159.37"/>
<text text-anchor="middle" x="881" y="-137.67" font-family="Times,serif" font-size="14.00">ID &#45; kb:provenance&#45;record&#45;2dbd4ba1&#45;76b1&#45;4041&#45;a460&#45;8a5922940f79</text>
</g>
<!-- _1f04d829546c397900d5164d5f2d881a9d7141a66bfedb6c9fbc0aa88bbfc164&#45;&gt;_a02c2e16e16ca8e40604e0031a59adedf64d57096fdb251d9226c253b8a229a9 -->
<g id="edge7" class="edge">
<title>_1f04d829546c397900d5164d5f2d881a9d7141a66bfedb6c9fbc0aa88bbfc164&#45;&gt;_a02c2e16e16ca8e40604e0031a59adedf64d57096fdb251d9226c253b8a229a9</title>
<path fill="none" stroke="black" d="M989.46,-75.43C966.19,-89.36 940.26,-104.89 919.6,-117.26"/>
<polygon fill="black" stroke="black" points="917.99,-114.14 911.21,-122.28 921.59,-120.15 917.99,-114.14"/>
<text text-anchor="middle" x="991" y="-97.37" font-family="Times,serif" font-size="10.00">wasDerivedFrom</text>
</g>
<!-- _b5ab4f9e376265609eda39155c81c1c21d11e2e36515c2a87670364c122d98c3 -->
<g id="node10" class="node">
<title>_b5ab4f9e376265609eda39155c81c1c21d11e2e36515c2a87670364c122d98c3</title>
<polygon fill="#cdc673" stroke="#808080" points="440.5,-246.37 437.5,-250.37 416.5,-250.37 413.5,-246.37 53.5,-246.37 53.5,-177.37 440.5,-177.37 440.5,-246.37"/>
<text text-anchor="middle" x="247" y="-231.17" font-family="Times,serif" font-size="14.00">ID &#45; kb:provenance&#45;record&#45;529f9bf1&#45;c9ca&#45;450c&#45;8311&#45;98c8a800fac5</text>
<text text-anchor="middle" x="247" y="-200.17" font-family="Times,serif" font-size="14.00">Record of blk0_mmcblk0.bin being hashed before entry into </text>
<text text-anchor="middle" x="247" y="-185.17" font-family="Times,serif" font-size="14.00">tarball</text>
</g>
<!-- _1f04d829546c397900d5164d5f2d881a9d7141a66bfedb6c9fbc0aa88bbfc164&#45;&gt;_b5ab4f9e376265609eda39155c81c1c21d11e2e36515c2a87670364c122d98c3 -->
<g id="edge8" class="edge">
<title>_1f04d829546c397900d5164d5f2d881a9d7141a66bfedb6c9fbc0aa88bbfc164&#45;&gt;_b5ab4f9e376265609eda39155c81c1c21d11e2e36515c2a87670364c122d98c3</title>
<path fill="none" stroke="black" d="M834.43,-45.79C734.7,-52.77 615.46,-66.71 511,-94.37 443.24,-112.31 370.68,-145.44 318.82,-171.8"/>
<polygon fill="black" stroke="black" points="317.37,-168.6 310.07,-176.28 320.57,-174.83 317.37,-168.6"/>
<text text-anchor="middle" x="546" y="-97.37" font-family="Times,serif" font-size="10.00">wasDerivedFrom</text>
</g>
<!-- _6a1d9937c527b268c070285fc3407ad96b2d20f53ce7fc4a27809bff44fd0bf2 -->
<g id="node11" class="node">
<title>_6a1d9937c527b268c070285fc3407ad96b2d20f53ce7fc4a27809bff44fd0bf2</title>
<polygon fill="#cdc673" stroke="#808080" points="2077,-159.37 2074,-163.37 2053,-163.37 2050,-159.37 1683,-159.37 1683,-123.37 2077,-123.37 2077,-159.37"/>
<text text-anchor="middle" x="1880" y="-137.67" font-family="Times,serif" font-size="14.00">ID &#45; kb:provenance&#45;record&#45;5bd7940a&#45;0618&#45;4f0e&#45;b641&#45;d24d683f704b</text>
</g>
<!-- _1f04d829546c397900d5164d5f2d881a9d7141a66bfedb6c9fbc0aa88bbfc164&#45;&gt;_6a1d9937c527b268c070285fc3407ad96b2d20f53ce7fc4a27809bff44fd0bf2 -->
<g id="edge9" class="edge">
<title>_1f04d829546c397900d5164d5f2d881a9d7141a66bfedb6c9fbc0aa88bbfc164&#45;&gt;_6a1d9937c527b268c070285fc3407ad96b2d20f53ce7fc4a27809bff44fd0bf2</title>
<path fill="none" stroke="black" d="M1205.28,-65.7C1229.59,-69.5 1254.45,-73.2 1278,-76.37 1411.2,-94.3 1561.54,-110.28 1678.65,-121.79"/>
<polygon fill="black" stroke="black" points="1678.08,-125.25 1688.38,-122.75 1678.76,-118.29 1678.08,-125.25"/>
<text text-anchor="middle" x="1545" y="-97.37" font-family="Times,serif" font-size="10.00">wasDerivedFrom</text>
</g>
<!-- _0a56478b124850e46a803da26039a994826dbcfde99c095ebc9693539de82b15 -->
<g id="node13" class="node">
<title>_0a56478b124850e46a803da26039a994826dbcfde99c095ebc9693539de82b15</title>
<polygon fill="#cdc673" stroke="#808080" points="1400.5,-557.74 1397.5,-561.74 1376.5,-561.74 1373.5,-557.74 1005.5,-557.74 1005.5,-488.74 1400.5,-488.74 1400.5,-557.74"/>
<text text-anchor="middle" x="1203" y="-542.54" font-family="Times,serif" font-size="14.00">ID &#45; kb:provenance&#45;record&#45;8c357d9b&#45;13a4&#45;4333&#45;9e11&#45;2194bfdd534b</text>
<text text-anchor="middle" x="1203" y="-511.54" font-family="Times,serif" font-size="14.00">Record of phone imaging process being completed, including </text>
<text text-anchor="middle" x="1203" y="-496.54" font-family="Times,serif" font-size="14.00">log</text>
</g>
<!-- _1f04d829546c397900d5164d5f2d881a9d7141a66bfedb6c9fbc0aa88bbfc164&#45;&gt;_0a56478b124850e46a803da26039a994826dbcfde99c095ebc9693539de82b15 -->
<g id="edge10" class="edge">
<title>_1f04d829546c397900d5164d5f2d881a9d7141a66bfedb6c9fbc0aa88bbfc164&#45;&gt;_0a56478b124850e46a803da26039a994826dbcfde99c095ebc9693539de82b15</title>
<path fill="none" stroke="black" d="M846.37,-52.81C569.19,-73.51 101.7,-116.97 52,-177.37 32.51,-201.05 48.02,-215.96 52,-246.37 63.65,-335.46 34.95,-384.24 104,-441.74 170.61,-497.2 693.7,-514.48 993.57,-519.84"/>
<polygon fill="black" stroke="black" points="993.45,-523.34 1003.51,-520.01 993.57,-516.34 993.45,-523.34"/>
<text text-anchor="middle" x="91" y="-300.05" font-family="Times,serif" font-size="10.00">wasDerivedFrom</text>
</g>
<!-- _c1a739983405a7bfa4936ec3a1ea5fbf93592d8df15f9a6b45f2537d7c543d15&#45;&gt;_457e8792d4af0b60ec728dc4a5ed79d03fe6e76d0730385fad463089f8a49c0e -->
<g id="edge11" class="edge">
<title>_c1a739983405a7bfa4936ec3a1ea5fbf93592d8df15f9a6b45f2537d7c543d15&#45;&gt;_457e8792d4af0b60ec728dc4a5ed79d03fe6e76d0730385fad463089f8a49c0e</title>
<path fill="none" stroke="black" d="M589.24,-341.13C566.07,-376.83 531.68,-427.16 513,-441.74 496.02,-454.98 483.92,-445.23 468,-459.74 444.93,-480.76 436,-491.03 436,-522.24 436,-522.24 436,-522.24 436,-756.1 436,-834.66 919.46,-857.28 1221.35,-863.74"/>
<polygon fill="black" stroke="black" points="1220.87,-867.23 1230.94,-863.94 1221.01,-860.24 1220.87,-867.23"/>
<text text-anchor="middle" x="471" y="-578.74" font-family="Times,serif" font-size="10.00">wasDerivedFrom</text>
</g>
<!-- _c1a739983405a7bfa4936ec3a1ea5fbf93592d8df15f9a6b45f2537d7c543d15&#45;&gt;_ebc267bba83123d50851bec30bc40b11891becea7dea22c9a75002f38bd181f3 -->
<g id="edge12" class="edge">
<title>_c1a739983405a7bfa4936ec3a1ea5fbf93592d8df15f9a6b45f2537d7c543d15&#45;&gt;_ebc267bba83123d50851bec30bc40b11891becea7dea22c9a75002f38bd181f3</title>
<path fill="none" stroke="black" d="M779.08,-327.5C812.78,-332.1 848.01,-336.73 881,-340.74 1004.76,-355.75 1035.7,-360.17 1160,-369.74 1316.14,-381.74 1358.54,-373.97 1517.45,-387.55"/>
<polygon fill="black" stroke="black" points="1516.82,-391.01 1527.09,-388.39 1517.43,-384.03 1516.82,-391.01"/>
<text text-anchor="middle" x="1195" y="-361.74" font-family="Times,serif" font-size="10.00">wasDerivedFrom</text>
</g>
<!-- _c1a739983405a7bfa4936ec3a1ea5fbf93592d8df15f9a6b45f2537d7c543d15&#45;&gt;_1aa3504fd0f5004a0b62e45f40456297227f4299319f47b6ae52f20305601d7f -->
<g id="edge13" class="edge">
<title>_c1a739983405a7bfa4936ec3a1ea5fbf93592d8df15f9a6b45f2537d7c543d15&#45;&gt;_1aa3504fd0f5004a0b62e45f40456297227f4299319f47b6ae52f20305601d7f</title>
<path fill="none" stroke="black" d="M652.9,-340.59C666.38,-351.4 682.07,-362.3 698,-369.74 709.35,-375.03 721.36,-379.7 733.64,-383.81"/>
<polygon fill="black" stroke="black" points="732.46,-387.11 743.05,-386.82 734.59,-380.44 732.46,-387.11"/>
<text text-anchor="middle" x="733" y="-361.74" font-family="Times,serif" font-size="10.00">wasDerivedFrom</text>
</g>
<!-- _d39fd74adc51b4a1f5dbc40716bcb6c4f44db1c4f75fe9dece0d18b9c6a9370b -->
<g id="node12" class="node">
<title>_d39fd74adc51b4a1f5dbc40716bcb6c4f44db1c4f75fe9dece0d18b9c6a9370b</title>
<polygon fill="#cdc673" stroke="#808080" points="504.5,-441.74 501.5,-445.74 480.5,-445.74 477.5,-441.74 113.5,-441.74 113.5,-387.74 504.5,-387.74 504.5,-441.74"/>
<text text-anchor="middle" x="309" y="-426.54" font-family="Times,serif" font-size="14.00">ID &#45; kb:provenance&#45;record&#45;75fb2a26&#45;0b7e&#45;428b&#45;acba&#45;17d114caca39</text>
<text text-anchor="middle" x="309" y="-395.54" font-family="Times,serif" font-size="14.00">Record of blk0_mmcblk0.bin being hashed</text>
</g>
<!-- _c1a739983405a7bfa4936ec3a1ea5fbf93592d8df15f9a6b45f2537d7c543d15&#45;&gt;_d39fd74adc51b4a1f5dbc40716bcb6c4f44db1c4f75fe9dece0d18b9c6a9370b -->
<g id="edge14" class="edge">
<title>_c1a739983405a7bfa4936ec3a1ea5fbf93592d8df15f9a6b45f2537d7c543d15&#45;&gt;_d39fd74adc51b4a1f5dbc40716bcb6c4f44db1c4f75fe9dece0d18b9c6a9370b</title>
<path fill="none" stroke="black" d="M511.68,-336.77C490.88,-343.83 469.18,-351.38 449,-358.74 428.11,-366.35 405.62,-374.98 384.92,-383.12"/>
<polygon fill="black" stroke="black" points="383.7,-379.84 375.68,-386.76 386.26,-386.35 383.7,-379.84"/>
<text text-anchor="middle" x="484" y="-361.74" font-family="Times,serif" font-size="10.00">wasDerivedFrom</text>
</g>
<!-- _c1a739983405a7bfa4936ec3a1ea5fbf93592d8df15f9a6b45f2537d7c543d15&#45;&gt;_0a56478b124850e46a803da26039a994826dbcfde99c095ebc9693539de82b15 -->
<g id="edge15" class="edge">
<title>_c1a739983405a7bfa4936ec3a1ea5fbf93592d8df15f9a6b45f2537d7c543d15&#45;&gt;_0a56478b124850e46a803da26039a994826dbcfde99c095ebc9693539de82b15</title>
<path fill="none" stroke="black" d="M594.44,-341.26C582.74,-370.94 573.2,-412.11 593,-441.74 611.71,-469.74 630.32,-462.6 663,-470.74 770.24,-497.43 892.64,-510.47 993.76,-516.77"/>
<polygon fill="black" stroke="black" points="993.33,-520.25 1003.53,-517.36 993.75,-513.26 993.33,-520.25"/>
<text text-anchor="middle" x="628" y="-412.24" font-family="Times,serif" font-size="10.00">wasDerivedFrom</text>
</g>
<!-- _2a4fbbcb7bd477dfe0f7d0497df08f1814dc4799866304fbb2c1d587e028daee&#45;&gt;_457e8792d4af0b60ec728dc4a5ed79d03fe6e76d0730385fad463089f8a49c0e -->
<g id="edge16" class="edge">
<title>_2a4fbbcb7bd477dfe0f7d0497df08f1814dc4799866304fbb2c1d587e028daee&#45;&gt;_457e8792d4af0b60ec728dc4a5ed79d03fe6e76d0730385fad463089f8a49c0e</title>
<path fill="none" stroke="black" d="M2138.47,-681.07C2094.88,-720.65 2019.9,-781.56 1943,-811.1 1894.96,-829.56 1783.35,-842.92 1679.29,-851.87"/>
<polygon fill="black" stroke="black" points="1679.12,-848.38 1669.46,-852.71 1679.72,-855.35 1679.12,-848.38"/>
<text text-anchor="middle" x="2116" y="-752.6" font-family="Times,serif" font-size="10.00">wasDerivedFrom</text>
</g>
<!-- _e264b7293df474c115e21778029b26cd0c594a392b8edd2ecdc026d38239a600 -->
<g id="node9" class="node">
<title>_e264b7293df474c115e21778029b26cd0c594a392b8edd2ecdc026d38239a600</title>
<polygon fill="#cdc673" stroke="#808080" points="1900.5,-782.1 1897.5,-786.1 1876.5,-786.1 1873.5,-782.1 1505.5,-782.1 1505.5,-728.1 1900.5,-728.1 1900.5,-782.1"/>
<text text-anchor="middle" x="1703" y="-766.9" font-family="Times,serif" font-size="14.00">ID &#45; kb:provenance&#45;record&#45;37290c6d&#45;3dc2&#45;4519&#45;a80f&#45;136e73981d8b</text>
<text text-anchor="middle" x="1703" y="-735.9" font-family="Times,serif" font-size="14.00">Record of blk32_mmcblk0rpmb.bin being hashed</text>
</g>
<!-- _2a4fbbcb7bd477dfe0f7d0497df08f1814dc4799866304fbb2c1d587e028daee&#45;&gt;_e264b7293df474c115e21778029b26cd0c594a392b8edd2ecdc026d38239a600 -->
<g id="edge17" class="edge">
<title>_2a4fbbcb7bd477dfe0f7d0497df08f1814dc4799866304fbb2c1d587e028daee&#45;&gt;_e264b7293df474c115e21778029b26cd0c594a392b8edd2ecdc026d38239a600</title>
<path fill="none" stroke="black" d="M2046.85,-674.17C1978.57,-690.04 1895.33,-709.39 1827.85,-725.08"/>
<polygon fill="black" stroke="black" points="1827.15,-721.65 1818.21,-727.32 1828.74,-728.47 1827.15,-721.65"/>
<text text-anchor="middle" x="1961" y="-702.1" font-family="Times,serif" font-size="10.00">wasDerivedFrom</text>
</g>
<!-- _5fcc6a159804d07e43abe88b4f66d9c983ba2225ac3ef98b4b1685e6009042ca&#45;&gt;_2a4fbbcb7bd477dfe0f7d0497df08f1814dc4799866304fbb2c1d587e028daee -->
<g id="edge18" class="edge">
<title>_5fcc6a159804d07e43abe88b4f66d9c983ba2225ac3ef98b4b1685e6009042ca&#45;&gt;_2a4fbbcb7bd477dfe0f7d0497df08f1814dc4799866304fbb2c1d587e028daee</title>
<path fill="none" stroke="black" d="M1879.92,-325.87C1904.42,-333.79 1928.27,-344.44 1949,-358.74 1985.43,-383.85 1977.26,-406.48 2004,-441.74 2045.99,-497.08 2098.74,-556.9 2134.89,-596.59"/>
<polygon fill="black" stroke="black" points="2131.99,-598.61 2141.32,-603.63 2137.16,-593.89 2131.99,-598.61"/>
<text text-anchor="middle" x="2062" y="-462.74" font-family="Times,serif" font-size="10.00">wasDerivedFrom</text>
</g>
<!-- _5fcc6a159804d07e43abe88b4f66d9c983ba2225ac3ef98b4b1685e6009042ca&#45;&gt;_457e8792d4af0b60ec728dc4a5ed79d03fe6e76d0730385fad463089f8a49c0e -->
<g id="edge19" class="edge">
<title>_5fcc6a159804d07e43abe88b4f66d9c983ba2225ac3ef98b4b1685e6009042ca&#45;&gt;_457e8792d4af0b60ec728dc4a5ed79d03fe6e76d0730385fad463089f8a49c0e</title>
<path fill="none" stroke="black" d="M1853.26,-331.14C1882.62,-343.58 1909.91,-361.61 1928,-387.74 1935.39,-398.41 1952.32,-732.82 1909,-782.1 1877.42,-818.04 1776.18,-838.78 1677.6,-850.68"/>
<polygon fill="black" stroke="black" points="1677.25,-847.2 1667.73,-851.84 1678.07,-854.15 1677.25,-847.2"/>
<text text-anchor="middle" x="1973" y="-578.74" font-family="Times,serif" font-size="10.00">wasDerivedFrom</text>
</g>
<!-- _5fcc6a159804d07e43abe88b4f66d9c983ba2225ac3ef98b4b1685e6009042ca&#45;&gt;_ebc267bba83123d50851bec30bc40b11891becea7dea22c9a75002f38bd181f3 -->
<g id="edge20" class="edge">
<title>_5fcc6a159804d07e43abe88b4f66d9c983ba2225ac3ef98b4b1685e6009042ca&#45;&gt;_ebc267bba83123d50851bec30bc40b11891becea7dea22c9a75002f38bd181f3</title>
<path fill="none" stroke="black" d="M1710.83,-341.16C1712.88,-352.45 1715.12,-364.83 1717.17,-376.12"/>
<polygon fill="black" stroke="black" points="1713.72,-376.7 1718.95,-385.91 1720.61,-375.45 1713.72,-376.7"/>
<text text-anchor="middle" x="1751" y="-361.74" font-family="Times,serif" font-size="10.00">wasDerivedFrom</text>
</g>
<!-- _5fcc6a159804d07e43abe88b4f66d9c983ba2225ac3ef98b4b1685e6009042ca&#45;&gt;_1aa3504fd0f5004a0b62e45f40456297227f4299319f47b6ae52f20305601d7f -->
<g id="edge21" class="edge">
<title>_5fcc6a159804d07e43abe88b4f66d9c983ba2225ac3ef98b4b1685e6009042ca&#45;&gt;_1aa3504fd0f5004a0b62e45f40456297227f4299319f47b6ae52f20305601d7f</title>
<path fill="none" stroke="black" d="M1539.66,-328.38C1511.11,-332.58 1481.7,-336.84 1454,-340.74 1341.06,-356.61 1214.96,-373.39 1111.92,-386.85"/>
<polygon fill="black" stroke="black" points="1111.71,-383.35 1102.25,-388.12 1112.62,-390.29 1111.71,-383.35"/>
<text text-anchor="middle" x="1354" y="-361.74" font-family="Times,serif" font-size="10.00">wasDerivedFrom</text>
</g>
<!-- _8e090a4846743715bfc8c54f6e4ebd12640da5ad993b80d4a32b0055adb56411 -->
<g id="node14" class="node">
<title>_8e090a4846743715bfc8c54f6e4ebd12640da5ad993b80d4a32b0055adb56411</title>
<polygon fill="#cdc673" stroke="#808080" points="2405,-441.74 2402,-445.74 2381,-445.74 2378,-441.74 2013,-441.74 2013,-387.74 2405,-387.74 2405,-441.74"/>
<text text-anchor="middle" x="2209" y="-426.54" font-family="Times,serif" font-size="14.00">ID &#45; kb:provenance&#45;record&#45;8cc02f8e&#45;66be&#45;4166&#45;9055&#45;9cc96635e5a8</text>
<text text-anchor="middle" x="2209" y="-395.54" font-family="Times,serif" font-size="14.00">Record of LG GSM_H790 Nexus 5X.ufd being hashed</text>
</g>
<!-- _5fcc6a159804d07e43abe88b4f66d9c983ba2225ac3ef98b4b1685e6009042ca&#45;&gt;_8e090a4846743715bfc8c54f6e4ebd12640da5ad993b80d4a32b0055adb56411 -->
<g id="edge22" class="edge">
<title>_5fcc6a159804d07e43abe88b4f66d9c983ba2225ac3ef98b4b1685e6009042ca&#45;&gt;_8e090a4846743715bfc8c54f6e4ebd12640da5ad993b80d4a32b0055adb56411</title>
<path fill="none" stroke="black" d="M1858.3,-330.27C1903.75,-338.72 1953.5,-348.53 1999,-358.74 2032.87,-366.33 2069.54,-375.57 2102.62,-384.3"/>
<polygon fill="black" stroke="black" points="2101.67,-387.67 2112.23,-386.85 2103.46,-380.91 2101.67,-387.67"/>
<text text-anchor="middle" x="2081" y="-361.74" font-family="Times,serif" font-size="10.00">wasDerivedFrom</text>
</g>
<!-- _9cfd5565cbbaf8bd9699f51cd8349fa74ad2aee4a992853a18ad8e8e17ab633c -->
<g id="node15" class="node">
<title>_9cfd5565cbbaf8bd9699f51cd8349fa74ad2aee4a992853a18ad8e8e17ab633c</title>
<polygon fill="#cdc673" stroke="#808080" points="1511,-441.74 1508,-445.74 1487,-445.74 1484,-441.74 1119,-441.74 1119,-387.74 1511,-387.74 1511,-441.74"/>
<text text-anchor="middle" x="1315" y="-426.54" font-family="Times,serif" font-size="14.00">ID &#45; kb:provenance&#45;record&#45;e0b96677&#45;b01f&#45;4d96&#45;bfa2&#45;847e099c70b8</text>
<text text-anchor="middle" x="1315" y="-395.54" font-family="Times,serif" font-size="14.00">Record of blk0_mmcblk0.bin being hashed</text>
</g>
<!-- _5fcc6a159804d07e43abe88b4f66d9c983ba2225ac3ef98b4b1685e6009042ca&#45;&gt;_9cfd5565cbbaf8bd9699f51cd8349fa74ad2aee4a992853a18ad8e8e17ab633c -->
<g id="edge23" class="edge">
<title>_5fcc6a159804d07e43abe88b4f66d9c983ba2225ac3ef98b4b1685e6009042ca&#45;&gt;_9cfd5565cbbaf8bd9699f51cd8349fa74ad2aee4a992853a18ad8e8e17ab633c</title>
<path fill="none" stroke="black" d="M1624.92,-338.77C1598.03,-349.8 1567.56,-361.28 1539,-369.74 1520.41,-375.24 1500.74,-380.24 1481.09,-384.74"/>
<polygon fill="black" stroke="black" points="1480.33,-381.33 1471.34,-386.93 1481.86,-388.16 1480.33,-381.33"/>
<text text-anchor="middle" x="1607" y="-361.74" font-family="Times,serif" font-size="10.00">wasDerivedFrom</text>
</g>
<!-- _ebc267bba83123d50851bec30bc40b11891becea7dea22c9a75002f38bd181f3&#45;&gt;_457e8792d4af0b60ec728dc4a5ed79d03fe6e76d0730385fad463089f8a49c0e -->
<g id="edge24" class="edge">
<title>_ebc267bba83123d50851bec30bc40b11891becea7dea22c9a75002f38bd181f3&#45;&gt;_457e8792d4af0b60ec728dc4a5ed79d03fe6e76d0730385fad463089f8a49c0e</title>
<path fill="none" stroke="black" d="M1699.6,-441.97C1653.3,-493.12 1552.3,-611.39 1496,-728.1 1482.38,-756.34 1472.96,-790.26 1466.91,-817.42"/>
<polygon fill="black" stroke="black" points="1463.5,-816.62 1464.83,-827.13 1470.35,-818.08 1463.5,-816.62"/>
<text text-anchor="middle" x="1594.5" y="-640.42" font-family="Times,serif" font-size="10.00">hadMember</text>
</g>
<!-- _ebc267bba83123d50851bec30bc40b11891becea7dea22c9a75002f38bd181f3&#45;&gt;_457e8792d4af0b60ec728dc4a5ed79d03fe6e76d0730385fad463089f8a49c0e -->
<g id="edge25" class="edge">
<title>_ebc267bba83123d50851bec30bc40b11891becea7dea22c9a75002f38bd181f3&#45;&gt;_457e8792d4af0b60ec728dc4a5ed79d03fe6e76d0730385fad463089f8a49c0e</title>
<path fill="none" stroke="black" d="M1587.34,-442.16C1514.2,-460.35 1439,-487.51 1439,-522.24 1439,-522.24 1439,-522.24 1439,-756.1 1439,-776.37 1442.16,-798.44 1445.9,-817.46"/>
<polygon fill="black" stroke="black" points="1442.44,-818.02 1447.91,-827.09 1449.3,-816.59 1442.44,-818.02"/>
<text text-anchor="middle" x="1474" y="-640.42" font-family="Times,serif" font-size="10.00">wasDerivedFrom</text>
</g>
<!-- _ebc267bba83123d50851bec30bc40b11891becea7dea22c9a75002f38bd181f3&#45;&gt;_0a56478b124850e46a803da26039a994826dbcfde99c095ebc9693539de82b15 -->
<g id="edge26" class="edge">
<title>_ebc267bba83123d50851bec30bc40b11891becea7dea22c9a75002f38bd181f3&#45;&gt;_0a56478b124850e46a803da26039a994826dbcfde99c095ebc9693539de82b15</title>
<path fill="none" stroke="black" d="M1528.57,-440.72C1525.69,-441.06 1522.84,-441.4 1520,-441.74 1446.74,-450.4 1426.49,-441.53 1355,-459.74 1331.49,-465.72 1306.83,-474.63 1284.37,-483.85"/>
<polygon fill="black" stroke="black" points="1283.15,-480.57 1275.28,-487.66 1285.85,-487.03 1283.15,-480.57"/>
<text text-anchor="middle" x="1390" y="-462.74" font-family="Times,serif" font-size="10.00">wasDerivedFrom</text>
</g>
<!-- _1aa3504fd0f5004a0b62e45f40456297227f4299319f47b6ae52f20305601d7f&#45;&gt;_0a56478b124850e46a803da26039a994826dbcfde99c095ebc9693539de82b15 -->
<g id="edge27" class="edge">
<title>_1aa3504fd0f5004a0b62e45f40456297227f4299319f47b6ae52f20305601d7f&#45;&gt;_0a56478b124850e46a803da26039a994826dbcfde99c095ebc9693539de82b15</title>
<path fill="none" stroke="black" d="M977.54,-442.2C1013.47,-454.95 1057.2,-470.48 1096.55,-484.45"/>
<polygon fill="black" stroke="black" points="1095.24,-487.69 1105.83,-487.74 1097.58,-481.1 1095.24,-487.69"/>
<text text-anchor="middle" x="1088" y="-462.74" font-family="Times,serif" font-size="10.00">wasDerivedFrom</text>
</g>
<!-- _a02c2e16e16ca8e40604e0031a59adedf64d57096fdb251d9226c253b8a229a9&#45;&gt;_c1a739983405a7bfa4936ec3a1ea5fbf93592d8df15f9a6b45f2537d7c543d15 -->
<g id="edge28" class="edge">
<title>_a02c2e16e16ca8e40604e0031a59adedf64d57096fdb251d9226c253b8a229a9&#45;&gt;_c1a739983405a7bfa4936ec3a1ea5fbf93592d8df15f9a6b45f2537d7c543d15</title>
<path fill="none" stroke="black" d="M832.28,-159.79C819.56,-164.92 806.05,-170.91 794,-177.37 750.21,-200.83 704.09,-232.6 669.36,-258.13"/>
<polygon fill="black" stroke="black" points="667.51,-255.15 661.55,-263.91 671.67,-260.77 667.51,-255.15"/>
<text text-anchor="middle" x="818.5" y="-209.37" font-family="Times,serif" font-size="10.00">hadMember</text>
</g>
<!-- _a02c2e16e16ca8e40604e0031a59adedf64d57096fdb251d9226c253b8a229a9&#45;&gt;_457e8792d4af0b60ec728dc4a5ed79d03fe6e76d0730385fad463089f8a49c0e -->
<g id="edge29" class="edge">
<title>_a02c2e16e16ca8e40604e0031a59adedf64d57096fdb251d9226c253b8a229a9&#45;&gt;_457e8792d4af0b60ec728dc4a5ed79d03fe6e76d0730385fad463089f8a49c0e</title>
<path fill="none" stroke="black" d="M683.15,-158.94C578.2,-167.78 470.59,-176.93 470,-177.37 443.36,-197 468.3,-226.28 442,-246.37 388.64,-287.13 347.84,-227.08 292,-264.37 259.61,-286 279.15,-316.07 249,-340.74 196.57,-383.63 150.2,-338.18 104,-387.74 80.11,-413.36 85,-429.2 85,-464.24 85,-464.24 85,-464.24 85,-756.1 85,-812.58 832.96,-845.71 1224.77,-859.19"/>
<polygon fill="black" stroke="black" points="1224.63,-862.69 1234.75,-859.53 1224.87,-855.69 1224.63,-862.69"/>
<text text-anchor="middle" x="120" y="-520.74" font-family="Times,serif" font-size="10.00">wasDerivedFrom</text>
</g>
<!-- _a02c2e16e16ca8e40604e0031a59adedf64d57096fdb251d9226c253b8a229a9&#45;&gt;_ebc267bba83123d50851bec30bc40b11891becea7dea22c9a75002f38bd181f3 -->
<g id="edge30" class="edge">
<title>_a02c2e16e16ca8e40604e0031a59adedf64d57096fdb251d9226c253b8a229a9&#45;&gt;_ebc267bba83123d50851bec30bc40b11891becea7dea22c9a75002f38bd181f3</title>
<path fill="none" stroke="black" d="M894.28,-159.63C928.67,-203.8 1020.9,-319.01 1064,-340.74 1130.27,-374.13 1157.94,-341.01 1230,-358.74 1242.98,-361.93 1244.96,-366.8 1258,-369.74 1368.31,-394.57 1401.76,-377.5 1517.16,-387.54"/>
<polygon fill="black" stroke="black" points="1516.8,-391.02 1527.08,-388.45 1517.45,-384.05 1516.8,-391.02"/>
<text text-anchor="middle" x="1099" y="-300.05" font-family="Times,serif" font-size="10.00">wasDerivedFrom</text>
</g>
<!-- _a02c2e16e16ca8e40604e0031a59adedf64d57096fdb251d9226c253b8a229a9&#45;&gt;_1aa3504fd0f5004a0b62e45f40456297227f4299319f47b6ae52f20305601d7f -->
<g id="edge31" class="edge">
<title>_a02c2e16e16ca8e40604e0031a59adedf64d57096fdb251d9226c253b8a229a9&#45;&gt;_1aa3504fd0f5004a0b62e45f40456297227f4299319f47b6ae52f20305601d7f</title>
<path fill="none" stroke="black" d="M882.41,-159.76C885.92,-203.07 895.12,-316.59 899.95,-376.1"/>
<polygon fill="black" stroke="black" points="896.43,-376.05 900.73,-385.74 903.41,-375.49 896.43,-376.05"/>
<text text-anchor="middle" x="932" y="-300.05" font-family="Times,serif" font-size="10.00">wasDerivedFrom</text>
</g>
<!-- _a02c2e16e16ca8e40604e0031a59adedf64d57096fdb251d9226c253b8a229a9&#45;&gt;_d39fd74adc51b4a1f5dbc40716bcb6c4f44db1c4f75fe9dece0d18b9c6a9370b -->
<g id="edge32" class="edge">
<title>_a02c2e16e16ca8e40604e0031a59adedf64d57096fdb251d9226c253b8a229a9&#45;&gt;_d39fd74adc51b4a1f5dbc40716bcb6c4f44db1c4f75fe9dece0d18b9c6a9370b</title>
<path fill="none" stroke="black" d="M768.53,-159.87C741.06,-164.85 711.85,-170.75 685,-177.37 586.33,-201.68 566.32,-224.85 467,-246.37 434.4,-253.43 340.86,-240.09 318,-264.37 290.36,-293.72 292.92,-342.38 299.23,-376.15"/>
<polygon fill="black" stroke="black" points="295.8,-376.86 301.27,-385.94 302.66,-375.43 295.8,-376.86"/>
<text text-anchor="middle" x="353" y="-300.05" font-family="Times,serif" font-size="10.00">wasDerivedFrom</text>
</g>
<!-- _a02c2e16e16ca8e40604e0031a59adedf64d57096fdb251d9226c253b8a229a9&#45;&gt;_0a56478b124850e46a803da26039a994826dbcfde99c095ebc9693539de82b15 -->
<g id="edge33" class="edge">
<title>_a02c2e16e16ca8e40604e0031a59adedf64d57096fdb251d9226c253b8a229a9&#45;&gt;_0a56478b124850e46a803da26039a994826dbcfde99c095ebc9693539de82b15</title>
<path fill="none" stroke="black" d="M879.28,-159.86C874.73,-203.02 861.09,-313.08 838,-340.74 816.42,-366.58 799.98,-359.18 768,-369.74 736.68,-380.08 716.3,-361.74 696,-387.74 681.23,-406.65 680.42,-423.48 696,-441.74 734.79,-487.17 872,-507.09 993.9,-515.77"/>
<polygon fill="black" stroke="black" points="993.55,-519.25 1003.76,-516.44 994.03,-512.27 993.55,-519.25"/>
<text text-anchor="middle" x="849" y="-361.74" font-family="Times,serif" font-size="10.00">wasDerivedFrom</text>
</g>
<!-- _e264b7293df474c115e21778029b26cd0c594a392b8edd2ecdc026d38239a600&#45;&gt;_457e8792d4af0b60ec728dc4a5ed79d03fe6e76d0730385fad463089f8a49c0e -->
<g id="edge34" class="edge">
<title>_e264b7293df474c115e21778029b26cd0c594a392b8edd2ecdc026d38239a600&#45;&gt;_457e8792d4af0b60ec728dc4a5ed79d03fe6e76d0730385fad463089f8a49c0e</title>
<path fill="none" stroke="black" d="M1616.07,-782.54C1601.17,-787.86 1585.99,-793.77 1572,-800.1 1556.52,-807.11 1540.43,-815.62 1525.39,-824.17"/>
<polygon fill="black" stroke="black" points="1523.9,-820.99 1516.99,-829.02 1527.4,-827.05 1523.9,-820.99"/>
<text text-anchor="middle" x="1596.5" y="-803.1" font-family="Times,serif" font-size="10.00">hadMember</text>
</g>
<!-- _e264b7293df474c115e21778029b26cd0c594a392b8edd2ecdc026d38239a600&#45;&gt;_457e8792d4af0b60ec728dc4a5ed79d03fe6e76d0730385fad463089f8a49c0e -->
<g id="edge35" class="edge">
<title>_e264b7293df474c115e21778029b26cd0c594a392b8edd2ecdc026d38239a600&#45;&gt;_457e8792d4af0b60ec728dc4a5ed79d03fe6e76d0730385fad463089f8a49c0e</title>
<path fill="none" stroke="black" d="M1668.31,-782.34C1654.15,-792.25 1637.29,-803.06 1621,-811.1 1607.63,-817.7 1593.29,-823.82 1578.85,-829.41"/>
<polygon fill="black" stroke="black" points="1577.87,-826.03 1569.75,-832.84 1580.34,-832.58 1577.87,-826.03"/>
<text text-anchor="middle" x="1675" y="-803.1" font-family="Times,serif" font-size="10.00">wasDerivedFrom</text>
</g>
<!-- _b5ab4f9e376265609eda39155c81c1c21d11e2e36515c2a87670364c122d98c3&#45;&gt;_d39fd74adc51b4a1f5dbc40716bcb6c4f44db1c4f75fe9dece0d18b9c6a9370b -->
<g id="edge36" class="edge">
<title>_b5ab4f9e376265609eda39155c81c1c21d11e2e36515c2a87670364c122d98c3&#45;&gt;_d39fd74adc51b4a1f5dbc40716bcb6c4f44db1c4f75fe9dece0d18b9c6a9370b</title>
<path fill="none" stroke="black" d="M224.02,-246.67C221.13,-252.36 218.62,-258.37 217,-264.37 208.15,-297.14 202.24,-310.17 217,-340.74 224.57,-356.4 237.31,-369.73 250.93,-380.54"/>
<polygon fill="black" stroke="black" points="248.65,-383.2 258.76,-386.38 252.83,-377.59 248.65,-383.2"/>
<text text-anchor="middle" x="252" y="-300.05" font-family="Times,serif" font-size="10.00">wasDerivedFrom</text>
</g>
<!-- _6a1d9937c527b268c070285fc3407ad96b2d20f53ce7fc4a27809bff44fd0bf2&#45;&gt;_2a4fbbcb7bd477dfe0f7d0497df08f1814dc4799866304fbb2c1d587e028daee -->
<g id="edge37" class="edge">
<title>_6a1d9937c527b268c070285fc3407ad96b2d20f53ce7fc4a27809bff44fd0bf2&#45;&gt;_2a4fbbcb7bd477dfe0f7d0497df08f1814dc4799866304fbb2c1d587e028daee</title>
<path fill="none" stroke="black" d="M2067.98,-159.86C2231.01,-180.41 2441,-222.27 2441,-301.55 2441,-301.55 2441,-301.55 2441,-524.24 2441,-570.34 2406.99,-598.51 2363.38,-615.68"/>
<polygon fill="black" stroke="black" points="2362.32,-612.34 2354.15,-619.08 2364.74,-618.91 2362.32,-612.34"/>
<text text-anchor="middle" x="2476" y="-412.24" font-family="Times,serif" font-size="10.00">wasDerivedFrom</text>
</g>
<!-- _6a1d9937c527b268c070285fc3407ad96b2d20f53ce7fc4a27809bff44fd0bf2&#45;&gt;_5fcc6a159804d07e43abe88b4f66d9c983ba2225ac3ef98b4b1685e6009042ca -->
<g id="edge38" class="edge">
<title>_6a1d9937c527b268c070285fc3407ad96b2d20f53ce7fc4a27809bff44fd0bf2&#45;&gt;_5fcc6a159804d07e43abe88b4f66d9c983ba2225ac3ef98b4b1685e6009042ca</title>
<path fill="none" stroke="black" d="M1860.83,-159.71C1835.26,-182.83 1789.08,-224.6 1753.43,-256.84"/>
<polygon fill="black" stroke="black" points="1751.27,-254.08 1746.2,-263.39 1755.96,-259.27 1751.27,-254.08"/>
<text text-anchor="middle" x="1862.5" y="-209.37" font-family="Times,serif" font-size="10.00">hadMember</text>
</g>
<!-- _6a1d9937c527b268c070285fc3407ad96b2d20f53ce7fc4a27809bff44fd0bf2&#45;&gt;_457e8792d4af0b60ec728dc4a5ed79d03fe6e76d0730385fad463089f8a49c0e -->
<g id="edge39" class="edge">
<title>_6a1d9937c527b268c070285fc3407ad96b2d20f53ce7fc4a27809bff44fd0bf2&#45;&gt;_457e8792d4af0b60ec728dc4a5ed79d03fe6e76d0730385fad463089f8a49c0e</title>
<path fill="none" stroke="black" d="M2077.43,-150.75C2168.18,-156.19 2265.06,-164.67 2308,-177.37 2419.78,-210.41 2539,-184.99 2539,-301.55 2539,-301.55 2539,-301.55 2539,-756.1 2539,-840.29 2013.39,-860.64 1695.19,-865.25"/>
<polygon fill="black" stroke="black" points="1695.42,-861.75 1685.47,-865.39 1695.52,-868.75 1695.42,-861.75"/>
<text text-anchor="middle" x="2574" y="-520.74" font-family="Times,serif" font-size="10.00">wasDerivedFrom</text>
</g>
<!-- _6a1d9937c527b268c070285fc3407ad96b2d20f53ce7fc4a27809bff44fd0bf2&#45;&gt;_ebc267bba83123d50851bec30bc40b11891becea7dea22c9a75002f38bd181f3 -->
<g id="edge40" class="edge">
<title>_6a1d9937c527b268c070285fc3407ad96b2d20f53ce7fc4a27809bff44fd0bf2&#45;&gt;_ebc267bba83123d50851bec30bc40b11891becea7dea22c9a75002f38bd181f3</title>
<path fill="none" stroke="black" d="M1893.42,-159.72C1920.08,-196.43 1973.76,-283.33 1933,-340.74 1920.35,-358.55 1903.02,-372.05 1883.7,-382.28"/>
<polygon fill="black" stroke="black" points="1882.22,-379.11 1874.79,-386.66 1885.31,-385.39 1882.22,-379.11"/>
<text text-anchor="middle" x="1983" y="-300.05" font-family="Times,serif" font-size="10.00">wasDerivedFrom</text>
</g>
<!-- _6a1d9937c527b268c070285fc3407ad96b2d20f53ce7fc4a27809bff44fd0bf2&#45;&gt;_1aa3504fd0f5004a0b62e45f40456297227f4299319f47b6ae52f20305601d7f -->
<g id="edge41" class="edge">
<title>_6a1d9937c527b268c070285fc3407ad96b2d20f53ce7fc4a27809bff44fd0bf2&#45;&gt;_1aa3504fd0f5004a0b62e45f40456297227f4299319f47b6ae52f20305601d7f</title>
<path fill="none" stroke="black" d="M1682.79,-149.71C1585.15,-154.97 1478.42,-163.62 1432,-177.37 1354.39,-200.36 1341.42,-222.74 1272,-264.37 1198.98,-308.16 1190.59,-336.98 1112,-369.74 1098.98,-375.16 1085.21,-379.95 1071.2,-384.17"/>
<polygon fill="black" stroke="black" points="1070.54,-380.71 1061.91,-386.86 1072.49,-387.44 1070.54,-380.71"/>
<text text-anchor="middle" x="1307" y="-300.05" font-family="Times,serif" font-size="10.00">wasDerivedFrom</text>
</g>
<!-- _6a1d9937c527b268c070285fc3407ad96b2d20f53ce7fc4a27809bff44fd0bf2&#45;&gt;_8e090a4846743715bfc8c54f6e4ebd12640da5ad993b80d4a32b0055adb56411 -->
<g id="edge42" class="edge">
<title>_6a1d9937c527b268c070285fc3407ad96b2d20f53ce7fc4a27809bff44fd0bf2&#45;&gt;_8e090a4846743715bfc8c54f6e4ebd12640da5ad993b80d4a32b0055adb56411</title>
<path fill="none" stroke="black" d="M1911.05,-159.74C1919.96,-165.09 1929.54,-171.2 1938,-177.37 2027.88,-242.92 2123.94,-331.73 2174.02,-379.67"/>
<polygon fill="black" stroke="black" points="2171.52,-382.11 2181.15,-386.52 2176.37,-377.06 2171.52,-382.11"/>
<text text-anchor="middle" x="2168" y="-300.05" font-family="Times,serif" font-size="10.00">wasDerivedFrom</text>
</g>
<!-- _6a1d9937c527b268c070285fc3407ad96b2d20f53ce7fc4a27809bff44fd0bf2&#45;&gt;_9cfd5565cbbaf8bd9699f51cd8349fa74ad2aee4a992853a18ad8e8e17ab633c -->
<g id="edge43" class="edge">
<title>_6a1d9937c527b268c070285fc3407ad96b2d20f53ce7fc4a27809bff44fd0bf2&#45;&gt;_9cfd5565cbbaf8bd9699f51cd8349fa74ad2aee4a992853a18ad8e8e17ab633c</title>
<path fill="none" stroke="black" d="M1682.63,-158.6C1590.99,-174.29 1484.9,-204.88 1405,-264.37 1366.87,-292.75 1341.66,-342.51 1327.86,-376.74"/>
<polygon fill="black" stroke="black" points="1324.68,-375.26 1324.33,-385.85 1331.21,-377.79 1324.68,-375.26"/>
<text text-anchor="middle" x="1440" y="-300.05" font-family="Times,serif" font-size="10.00">wasDerivedFrom</text>
</g>
<!-- _d39fd74adc51b4a1f5dbc40716bcb6c4f44db1c4f75fe9dece0d18b9c6a9370b&#45;&gt;_0a56478b124850e46a803da26039a994826dbcfde99c095ebc9693539de82b15 -->
<g id="edge44" class="edge">
<title>_d39fd74adc51b4a1f5dbc40716bcb6c4f44db1c4f75fe9dece0d18b9c6a9370b&#45;&gt;_0a56478b124850e46a803da26039a994826dbcfde99c095ebc9693539de82b15</title>
<path fill="none" stroke="black" d="M417.72,-442.11C436.02,-447.4 454.68,-453.32 472,-459.74 482.63,-463.67 484.05,-467.83 495,-470.74 585.84,-494.84 819.77,-508.5 994.02,-515.61"/>
<polygon fill="black" stroke="black" points="993.77,-519.1 1003.9,-516.01 994.05,-512.11 993.77,-519.1"/>
<text text-anchor="middle" x="530" y="-462.74" font-family="Times,serif" font-size="10.00">wasDerivedFrom</text>
</g>
<!-- _0a56478b124850e46a803da26039a994826dbcfde99c095ebc9693539de82b15&#45;&gt;_2a4fbbcb7bd477dfe0f7d0497df08f1814dc4799866304fbb2c1d587e028daee -->
<g id="edge45" class="edge">
<title>_0a56478b124850e46a803da26039a994826dbcfde99c095ebc9693539de82b15&#45;&gt;_2a4fbbcb7bd477dfe0f7d0497df08f1814dc4799866304fbb2c1d587e028daee</title>
<path fill="none" stroke="black" d="M1400.98,-548.16C1572.18,-568.84 1818.04,-598.55 1986.89,-618.95"/>
<polygon fill="black" stroke="black" points="1986.3,-622.4 1996.65,-620.13 1987.14,-615.45 1986.3,-622.4"/>
<text text-anchor="middle" x="1744.5" y="-578.74" font-family="Times,serif" font-size="10.00">hadMember</text>
</g>
<!-- _0a56478b124850e46a803da26039a994826dbcfde99c095ebc9693539de82b15&#45;&gt;_457e8792d4af0b60ec728dc4a5ed79d03fe6e76d0730385fad463089f8a49c0e -->
<g id="edge46" class="edge">
<title>_0a56478b124850e46a803da26039a994826dbcfde99c095ebc9693539de82b15&#45;&gt;_457e8792d4af0b60ec728dc4a5ed79d03fe6e76d0730385fad463089f8a49c0e</title>
<path fill="none" stroke="black" d="M1226.38,-558.21C1248.55,-590.2 1282.99,-639.31 1314,-681.1 1349.72,-729.25 1391.97,-783.25 1421.44,-820.46"/>
<polygon fill="black" stroke="black" points="1418.37,-822.22 1427.32,-827.89 1423.85,-817.88 1418.37,-822.22"/>
<text text-anchor="middle" x="1359.5" y="-702.1" font-family="Times,serif" font-size="10.00">hadMember</text>
</g>
<!-- _0a56478b124850e46a803da26039a994826dbcfde99c095ebc9693539de82b15&#45;&gt;_457e8792d4af0b60ec728dc4a5ed79d03fe6e76d0730385fad463089f8a49c0e -->
<g id="edge47" class="edge">
<title>_0a56478b124850e46a803da26039a994826dbcfde99c095ebc9693539de82b15&#45;&gt;_457e8792d4af0b60ec728dc4a5ed79d03fe6e76d0730385fad463089f8a49c0e</title>
<path fill="none" stroke="black" d="M1206.11,-558.06C1211.09,-597.45 1223.72,-663.1 1255,-710.1 1286.72,-757.77 1337.88,-797 1380.91,-824.22"/>
<polygon fill="black" stroke="black" points="1378.9,-827.09 1389.24,-829.39 1382.59,-821.14 1378.9,-827.09"/>
<text text-anchor="middle" x="1290" y="-702.1" font-family="Times,serif" font-size="10.00">wasDerivedFrom</text>
</g>
<!-- _0a56478b124850e46a803da26039a994826dbcfde99c095ebc9693539de82b15&#45;&gt;_e264b7293df474c115e21778029b26cd0c594a392b8edd2ecdc026d38239a600 -->
<g id="edge48" class="edge">
<title>_0a56478b124850e46a803da26039a994826dbcfde99c095ebc9693539de82b15&#45;&gt;_e264b7293df474c115e21778029b26cd0c594a392b8edd2ecdc026d38239a600</title>
<path fill="none" stroke="black" d="M1280,-557.94C1287.65,-563.2 1294.85,-569.12 1301,-575.74 1335.8,-613.15 1307.29,-648.94 1347,-681.1 1371.45,-700.9 1430.88,-716.35 1494.32,-727.84"/>
<polygon fill="black" stroke="black" points="1493.42,-731.24 1503.88,-729.53 1494.64,-724.34 1493.42,-731.24"/>
<text text-anchor="middle" x="1382" y="-640.42" font-family="Times,serif" font-size="10.00">wasDerivedFrom</text>
</g>
<!-- _8e090a4846743715bfc8c54f6e4ebd12640da5ad993b80d4a32b0055adb56411&#45;&gt;_2a4fbbcb7bd477dfe0f7d0497df08f1814dc4799866304fbb2c1d587e028daee -->
<g id="edge49" class="edge">
<title>_8e090a4846743715bfc8c54f6e4ebd12640da5ad993b80d4a32b0055adb56411&#45;&gt;_2a4fbbcb7bd477dfe0f7d0497df08f1814dc4799866304fbb2c1d587e028daee</title>
<path fill="none" stroke="black" d="M2187.81,-442.11C2178.56,-455.29 2168.75,-471.98 2164,-488.74 2154.35,-522.78 2158.18,-562.64 2164.12,-593.16"/>
<polygon fill="black" stroke="black" points="2160.68,-593.83 2166.16,-602.89 2167.53,-592.39 2160.68,-593.83"/>
<text text-anchor="middle" x="2188.5" y="-520.74" font-family="Times,serif" font-size="10.00">hadMember</text>
</g>
<!-- _8e090a4846743715bfc8c54f6e4ebd12640da5ad993b80d4a32b0055adb56411&#45;&gt;_2a4fbbcb7bd477dfe0f7d0497df08f1814dc4799866304fbb2c1d587e028daee -->
<g id="edge50" class="edge">
<title>_8e090a4846743715bfc8c54f6e4ebd12640da5ad993b80d4a32b0055adb56411&#45;&gt;_2a4fbbcb7bd477dfe0f7d0497df08f1814dc4799866304fbb2c1d587e028daee</title>
<path fill="none" stroke="black" d="M2213.32,-442.22C2217.19,-470.98 2221.12,-518.11 2213,-557.74 2210.51,-569.9 2206.19,-582.47 2201.38,-594.08"/>
<polygon fill="black" stroke="black" points="2198.27,-592.47 2197.48,-603.03 2204.68,-595.27 2198.27,-592.47"/>
<text text-anchor="middle" x="2253" y="-520.74" font-family="Times,serif" font-size="10.00">wasDerivedFrom</text>
</g>
<!-- _8e090a4846743715bfc8c54f6e4ebd12640da5ad993b80d4a32b0055adb56411&#45;&gt;_0a56478b124850e46a803da26039a994826dbcfde99c095ebc9693539de82b15 -->
<g id="edge51" class="edge">
<title>_8e090a4846743715bfc8c54f6e4ebd12640da5ad993b80d4a32b0055adb56411&#45;&gt;_0a56478b124850e46a803da26039a994826dbcfde99c095ebc9693539de82b15</title>
<path fill="none" stroke="black" d="M2012.64,-436.52C1839.67,-454.83 1588.45,-481.43 1411.84,-500.13"/>
<polygon fill="black" stroke="black" points="1411.66,-496.63 1402.08,-501.16 1412.39,-503.59 1411.66,-496.63"/>
<text text-anchor="middle" x="1802" y="-462.74" font-family="Times,serif" font-size="10.00">wasDerivedFrom</text>
</g>
<!-- _9cfd5565cbbaf8bd9699f51cd8349fa74ad2aee4a992853a18ad8e8e17ab633c&#45;&gt;_0a56478b124850e46a803da26039a994826dbcfde99c095ebc9693539de82b15 -->
<g id="edge52" class="edge">
<title>_9cfd5565cbbaf8bd9699f51cd8349fa74ad2aee4a992853a18ad8e8e17ab633c&#45;&gt;_0a56478b124850e46a803da26039a994826dbcfde99c095ebc9693539de82b15</title>
<path fill="none" stroke="black" d="M1250.78,-441.99C1242.8,-447.07 1235.26,-452.96 1229,-459.74 1224.13,-465 1220.11,-471.31 1216.8,-477.86"/>
<polygon fill="black" stroke="black" points="1213.66,-476.31 1212.79,-486.87 1220.06,-479.15 1213.66,-476.31"/>
<text text-anchor="middle" x="1264" y="-462.74" font-family="Times,serif" font-size="10.00">wasDerivedFrom</text>
</g>
<!-- _357f00248bdc728725be43338ec69113a99cec9793681d0accd1f777e4dd5fbf -->
<g id="node16" class="node">
<title>_357f00248bdc728725be43338ec69113a99cec9793681d0accd1f777e4dd5fbf</title>
<polygon fill="#cdc673" stroke="#808080" points="1451,-56.18 1448,-60.18 1427,-60.18 1424,-56.18 1287,-56.18 1287,-20.18 1451,-20.18 1451,-56.18"/>
<text text-anchor="middle" x="1369" y="-34.48" font-family="Times,serif" font-size="14.00">ID &#45; prov:EmptyCollection</text>
</g>
</g>
</svg>
