<?xml version="1.0" encoding="UTF-8" standalone="no"?>
<!DOCTYPE svg PUBLIC "-//W3C//DTD SVG 1.1//EN"
 "http://www.w3.org/Graphics/SVG/1.1/DTD/svg11.dtd">
<!-- Generated by graphviz version 7.1.0 (20230121.1956)
 -->
<!-- Title: PROV&#45;O render Pages: 1 -->
<svg width="1150pt" height="919pt"
 viewBox="0.00 0.00 1150.00 919.10" xmlns="http://www.w3.org/2000/svg" xmlns:xlink="http://www.w3.org/1999/xlink">
<g id="graph0" class="graph" transform="scale(1 1) rotate(0) translate(4 915.1)">
<title>PROV&#45;O render</title>
<polygon fill="white" stroke="none" points="-4,4 -4,-915.1 1146,-915.1 1146,4 -4,4"/>
<!-- _1f04d829546c397900d5164d5f2d881a9d7141a66bfedb6c9fbc0aa88bbfc164 -->
<g id="node1" class="node">
<title>_1f04d829546c397900d5164d5f2d881a9d7141a66bfedb6c9fbc0aa88bbfc164</title>
<ellipse fill="#fff68f" stroke="#808080" cx="472" cy="-38.18" rx="219.41" ry="38.37"/>
<text text-anchor="middle" x="472" y="-49.98" font-family="Times,serif" font-size="14.00">ID &#45; kb:file&#45;2352f3d0&#45;d02f&#45;40ba&#45;85a4&#45;b00dd97050c8</text>
<text text-anchor="middle" x="472" y="-18.98" font-family="Times,serif" font-size="14.00">android_7.tar.gz</text>
</g>
<!-- _c1a739983405a7bfa4936ec3a1ea5fbf93592d8df15f9a6b45f2537d7c543d15 -->
<g id="node2" class="node">
<title>_c1a739983405a7bfa4936ec3a1ea5fbf93592d8df15f9a6b45f2537d7c543d15</title>
<ellipse fill="#fff68f" stroke="#808080" cx="244" cy="-345.55" rx="216.25" ry="38.37"/>
<text text-anchor="middle" x="244" y="-357.35" font-family="Times,serif" font-size="14.00">ID &#45; kb:file&#45;3af91026&#45;4c09&#45;4047&#45;a914&#45;15e75a711ff0</text>
<text text-anchor="middle" x="244" y="-326.35" font-family="Times,serif" font-size="14.00">Android7&#45;ImageCreationDocumentation.pdf</text>
</g>
<!-- _1f04d829546c397900d5164d5f2d881a9d7141a66bfedb6c9fbc0aa88bbfc164&#45;&gt;_c1a739983405a7bfa4936ec3a1ea5fbf93592d8df15f9a6b45f2537d7c543d15 -->
<g id="edge1" class="edge">
<title>_1f04d829546c397900d5164d5f2d881a9d7141a66bfedb6c9fbc0aa88bbfc164&#45;&gt;_c1a739983405a7bfa4936ec3a1ea5fbf93592d8df15f9a6b45f2537d7c543d15</title>
<path fill="none" stroke="black" d="M409.54,-75.43C359.63,-107.87 292.22,-160.16 256,-224.37 243.97,-245.69 240.42,-272.57 240.11,-295.5"/>
<polygon fill="black" stroke="black" points="236.61,-295.25 240.2,-305.22 243.61,-295.19 236.61,-295.25"/>
<text text-anchor="middle" x="309" y="-198.37" font-family="Times,serif" font-size="10.00">wasDerivedFrom</text>
</g>
<!-- _457e8792d4af0b60ec728dc4a5ed79d03fe6e76d0730385fad463089f8a49c0e -->
<g id="node3" class="node">
<title>_457e8792d4af0b60ec728dc4a5ed79d03fe6e76d0730385fad463089f8a49c0e</title>
<ellipse fill="#fff68f" stroke="#808080" cx="577" cy="-771.92" rx="226.05" ry="38.37"/>
<text text-anchor="middle" x="577" y="-783.72" font-family="Times,serif" font-size="14.00">ID &#45; kb:image&#45;9c77c0e9&#45;fd0b&#45;4912&#45;afcf&#45;0d1b1b86f4d6</text>
<text text-anchor="middle" x="577" y="-752.72" font-family="Times,serif" font-size="14.00">blk32_mmcblk0rpmb.bin</text>
</g>
<!-- _1f04d829546c397900d5164d5f2d881a9d7141a66bfedb6c9fbc0aa88bbfc164&#45;&gt;_457e8792d4af0b60ec728dc4a5ed79d03fe6e76d0730385fad463089f8a49c0e -->
<g id="edge2" class="edge">
<title>_1f04d829546c397900d5164d5f2d881a9d7141a66bfedb6c9fbc0aa88bbfc164&#45;&gt;_457e8792d4af0b60ec728dc4a5ed79d03fe6e76d0730385fad463089f8a49c0e</title>
<path fill="none" stroke="black" d="M630.97,-65C750.32,-84.63 903.5,-110.39 966,-123.37 1013.5,-133.23 1072,-100.86 1072,-149.37 1072,-149.37 1072,-149.37 1072,-660.74 1072,-707.01 992.53,-702.16 926,-715.74 874.02,-726.34 860.41,-725.52 808,-733.74 789.13,-736.69 769.39,-739.82 749.75,-742.95"/>
<polygon fill="black" stroke="black" points="749.34,-739.47 740.02,-744.51 750.45,-746.39 749.34,-739.47"/>
<text text-anchor="middle" x="1107" y="-404.74" font-family="Times,serif" font-size="10.00">wasDerivedFrom</text>
</g>
<!-- _a090ef842d68a040bb034c775f6a3fceaacfb2dc9c12cc5b055c7067bfa69f5a -->
<g id="node6" class="node">
<title>_a090ef842d68a040bb034c775f6a3fceaacfb2dc9c12cc5b055c7067bfa69f5a</title>
<polygon fill="#9fb1fc" stroke="#0000ff" points="957.5,-177.37 560.5,-177.37 560.5,-123.37 957.5,-123.37 957.5,-177.37"/>
<text text-anchor="middle" x="759" y="-162.17" font-family="Times,serif" font-size="14.00">ID &#45; kb:investigative&#45;action&#45;a12c4001&#45;82dc&#45;445d&#45;be3f&#45;ccce026d55d9</text>
<text text-anchor="middle" x="759" y="-131.17" font-family="Times,serif" font-size="14.00">Compile dataset tarball</text>
</g>
<!-- _1f04d829546c397900d5164d5f2d881a9d7141a66bfedb6c9fbc0aa88bbfc164&#45;&gt;_a090ef842d68a040bb034c775f6a3fceaacfb2dc9c12cc5b055c7067bfa69f5a -->
<g id="edge3" class="edge">
<title>_1f04d829546c397900d5164d5f2d881a9d7141a66bfedb6c9fbc0aa88bbfc164&#45;&gt;_a090ef842d68a040bb034c775f6a3fceaacfb2dc9c12cc5b055c7067bfa69f5a</title>
<path fill="none" stroke="darkgreen" d="M561.63,-73.59C599.35,-88.08 642.88,-104.79 679.45,-118.83"/>
<polygon fill="darkgreen" stroke="darkgreen" points="678.06,-122.04 688.65,-122.36 680.57,-115.51 678.06,-122.04"/>
<text text-anchor="middle" x="677" y="-97.37" font-family="Times,serif" font-size="10.00" fill="darkgreen">wasGeneratedBy</text>
</g>
<!-- _ebc267bba83123d50851bec30bc40b11891becea7dea22c9a75002f38bd181f3 -->
<g id="node8" class="node">
<title>_ebc267bba83123d50851bec30bc40b11891becea7dea22c9a75002f38bd181f3</title>
<polygon fill="#cdc673" stroke="#808080" points="516,-585.74 513,-589.74 492,-589.74 489,-585.74 126,-585.74 126,-531.74 516,-531.74 516,-585.74"/>
<text text-anchor="middle" x="321" y="-570.54" font-family="Times,serif" font-size="14.00">ID &#45; kb:provenance&#45;record&#45;1fd441e5&#45;e7c6&#45;4610&#45;aeaa&#45;3530aa37873c</text>
<text text-anchor="middle" x="321" y="-539.54" font-family="Times,serif" font-size="14.00">Record of blk32_mmcblk0rpmb.bin being hashed</text>
</g>
<!-- _1f04d829546c397900d5164d5f2d881a9d7141a66bfedb6c9fbc0aa88bbfc164&#45;&gt;_ebc267bba83123d50851bec30bc40b11891becea7dea22c9a75002f38bd181f3 -->
<g id="edge4" class="edge">
<title>_1f04d829546c397900d5164d5f2d881a9d7141a66bfedb6c9fbc0aa88bbfc164&#45;&gt;_ebc267bba83123d50851bec30bc40b11891becea7dea22c9a75002f38bd181f3</title>
<path fill="none" stroke="black" d="M264.29,-50.75C137.66,-63.72 0,-91.2 0,-149.37 0,-149.37 0,-149.37 0,-408.24 0,-471.87 52.48,-508.49 115,-529.53"/>
<polygon fill="black" stroke="black" points="113.91,-532.86 124.5,-532.57 116.05,-526.19 113.91,-532.86"/>
<text text-anchor="middle" x="35" y="-281.37" font-family="Times,serif" font-size="10.00">wasDerivedFrom</text>
</g>
<!-- _a02c2e16e16ca8e40604e0031a59adedf64d57096fdb251d9226c253b8a229a9 -->
<g id="node9" class="node">
<title>_a02c2e16e16ca8e40604e0031a59adedf64d57096fdb251d9226c253b8a229a9</title>
<polygon fill="#cdc673" stroke="#808080" points="707.5,-260.37 704.5,-264.37 683.5,-264.37 680.5,-260.37 312.5,-260.37 312.5,-224.37 707.5,-224.37 707.5,-260.37"/>
<text text-anchor="middle" x="510" y="-238.67" font-family="Times,serif" font-size="14.00">ID &#45; kb:provenance&#45;record&#45;2dbd4ba1&#45;76b1&#45;4041&#45;a460&#45;8a5922940f79</text>
</g>
<!-- _1f04d829546c397900d5164d5f2d881a9d7141a66bfedb6c9fbc0aa88bbfc164&#45;&gt;_a02c2e16e16ca8e40604e0031a59adedf64d57096fdb251d9226c253b8a229a9 -->
<g id="edge5" class="edge">
<title>_1f04d829546c397900d5164d5f2d881a9d7141a66bfedb6c9fbc0aa88bbfc164&#45;&gt;_a02c2e16e16ca8e40604e0031a59adedf64d57096fdb251d9226c253b8a229a9</title>
<path fill="none" stroke="black" d="M470.83,-76.99C470.84,-105.08 472.68,-144.13 481,-177.37 484.11,-189.79 489.55,-202.79 494.88,-213.8"/>
<polygon fill="black" stroke="black" points="491.75,-215.38 499.4,-222.71 497.99,-212.21 491.75,-215.38"/>
<text text-anchor="middle" x="516" y="-147.87" font-family="Times,serif" font-size="10.00">wasDerivedFrom</text>
</g>
<!-- _c1a739983405a7bfa4936ec3a1ea5fbf93592d8df15f9a6b45f2537d7c543d15&#45;&gt;_457e8792d4af0b60ec728dc4a5ed79d03fe6e76d0730385fad463089f8a49c0e -->
<g id="edge6" class="edge">
<title>_c1a739983405a7bfa4936ec3a1ea5fbf93592d8df15f9a6b45f2537d7c543d15&#45;&gt;_457e8792d4af0b60ec728dc4a5ed79d03fe6e76d0730385fad463089f8a49c0e</title>
<path fill="none" stroke="black" d="M105.17,-375.36C68.03,-391.66 38,-417.09 38,-456.74 38,-456.74 38,-456.74 38,-660.74 38,-727.18 197.19,-753.94 342.55,-764.54"/>
<polygon fill="black" stroke="black" points="342.15,-768.02 352.37,-765.23 342.64,-761.03 342.15,-768.02"/>
<text text-anchor="middle" x="73" y="-556.24" font-family="Times,serif" font-size="10.00">wasDerivedFrom</text>
</g>
<!-- _1b78d8b10f20bab9ac9decdab66ba558c139b30a952b49e41d8564fcefdf5825 -->
<g id="node5" class="node">
<title>_1b78d8b10f20bab9ac9decdab66ba558c139b30a952b49e41d8564fcefdf5825</title>
<polygon fill="#9fb1fc" stroke="#0000ff" points="793.5,-484.74 392.5,-484.74 392.5,-430.74 793.5,-430.74 793.5,-484.74"/>
<text text-anchor="middle" x="593" y="-469.54" font-family="Times,serif" font-size="14.00">ID &#45; kb:investigative&#45;action&#45;8ed7908a&#45;994f&#45;4c69&#45;86d4&#45;1b4b6762890d</text>
<text text-anchor="middle" x="593" y="-438.54" font-family="Times,serif" font-size="14.00">Document dataset creation and file hashes</text>
</g>
<!-- _c1a739983405a7bfa4936ec3a1ea5fbf93592d8df15f9a6b45f2537d7c543d15&#45;&gt;_1b78d8b10f20bab9ac9decdab66ba558c139b30a952b49e41d8564fcefdf5825 -->
<g id="edge7" class="edge">
<title>_c1a739983405a7bfa4936ec3a1ea5fbf93592d8df15f9a6b45f2537d7c543d15&#45;&gt;_1b78d8b10f20bab9ac9decdab66ba558c139b30a952b49e41d8564fcefdf5825</title>
<path fill="none" stroke="darkgreen" d="M298.37,-383.18C316.67,-394.1 337.62,-405.17 358,-412.74 372.94,-418.28 388.68,-423.15 404.65,-427.43"/>
<polygon fill="darkgreen" stroke="darkgreen" points="403.71,-430.8 414.27,-429.92 405.47,-424.03 403.71,-430.8"/>
<text text-anchor="middle" x="393" y="-404.74" font-family="Times,serif" font-size="10.00" fill="darkgreen">wasGeneratedBy</text>
</g>
<!-- _c1a739983405a7bfa4936ec3a1ea5fbf93592d8df15f9a6b45f2537d7c543d15&#45;&gt;_ebc267bba83123d50851bec30bc40b11891becea7dea22c9a75002f38bd181f3 -->
<g id="edge8" class="edge">
<title>_c1a739983405a7bfa4936ec3a1ea5fbf93592d8df15f9a6b45f2537d7c543d15&#45;&gt;_ebc267bba83123d50851bec30bc40b11891becea7dea22c9a75002f38bd181f3</title>
<path fill="none" stroke="black" d="M235.28,-384.28C230.53,-413.04 228.1,-452.97 242,-484.74 248.57,-499.75 259.92,-513.05 271.99,-524.04"/>
<polygon fill="black" stroke="black" points="269.41,-526.43 279.27,-530.29 273.97,-521.12 269.41,-526.43"/>
<text text-anchor="middle" x="277" y="-455.24" font-family="Times,serif" font-size="10.00">wasDerivedFrom</text>
</g>
<!-- _714995513e5350ac5b9c0da4e3b220fc0ed9ced5f72ebf41dc3e1565441b169f -->
<g id="node4" class="node">
<title>_714995513e5350ac5b9c0da4e3b220fc0ed9ced5f72ebf41dc3e1565441b169f</title>
<polygon fill="#9fb1fc" stroke="#0000ff" points="1036.5,-911.1 641.5,-911.1 641.5,-857.1 1036.5,-857.1 1036.5,-911.1"/>
<text text-anchor="middle" x="839" y="-895.9" font-family="Times,serif" font-size="14.00">ID &#45; kb:investigative&#45;action&#45;6ea701f0&#45;411a&#45;4e9c&#45;aaa7&#45;801f40416214</text>
<text text-anchor="middle" x="839" y="-864.9" font-family="Times,serif" font-size="14.00">Phone imaged</text>
</g>
<!-- _457e8792d4af0b60ec728dc4a5ed79d03fe6e76d0730385fad463089f8a49c0e&#45;&gt;_714995513e5350ac5b9c0da4e3b220fc0ed9ced5f72ebf41dc3e1565441b169f -->
<g id="edge9" class="edge">
<title>_457e8792d4af0b60ec728dc4a5ed79d03fe6e76d0730385fad463089f8a49c0e&#45;&gt;_714995513e5350ac5b9c0da4e3b220fc0ed9ced5f72ebf41dc3e1565441b169f</title>
<path fill="none" stroke="darkgreen" d="M660.26,-807.93C694.2,-822.21 733.08,-838.56 765.9,-852.36"/>
<polygon fill="darkgreen" stroke="darkgreen" points="764.36,-855.51 774.94,-856.16 767.07,-849.06 764.36,-855.51"/>
<text text-anchor="middle" x="767" y="-831.1" font-family="Times,serif" font-size="10.00" fill="darkgreen">wasGeneratedBy</text>
</g>
<!-- _1b78d8b10f20bab9ac9decdab66ba558c139b30a952b49e41d8564fcefdf5825&#45;&gt;_457e8792d4af0b60ec728dc4a5ed79d03fe6e76d0730385fad463089f8a49c0e -->
<g id="edge10" class="edge">
<title>_1b78d8b10f20bab9ac9decdab66ba558c139b30a952b49e41d8564fcefdf5825&#45;&gt;_457e8792d4af0b60ec728dc4a5ed79d03fe6e76d0730385fad463089f8a49c0e</title>
<path fill="none" stroke="#8b0000" d="M580.86,-485.2C565.93,-516.89 539.1,-571.14 511,-614.74 505.51,-623.25 500.29,-623.15 497,-632.74 489.21,-655.44 488.1,-664.45 497,-686.74 502.72,-701.05 512.15,-714.32 522.58,-725.9"/>
<polygon fill="#8b0000" stroke="#8b0000" points="519.83,-728.09 529.26,-732.92 524.9,-723.26 519.83,-728.09"/>
<text text-anchor="middle" x="527.5" y="-606.74" font-family="Times,serif" font-size="10.00" fill="red">used</text>
</g>
<!-- _1b78d8b10f20bab9ac9decdab66ba558c139b30a952b49e41d8564fcefdf5825&#45;&gt;_714995513e5350ac5b9c0da4e3b220fc0ed9ced5f72ebf41dc3e1565441b169f -->
<g id="edge11" class="edge">
<title>_1b78d8b10f20bab9ac9decdab66ba558c139b30a952b49e41d8564fcefdf5825&#45;&gt;_714995513e5350ac5b9c0da4e3b220fc0ed9ced5f72ebf41dc3e1565441b169f</title>
<path fill="none" stroke="#0000cd" d="M793.66,-475.32C837.85,-481.81 877.12,-490.69 896,-502.74 920.63,-518.44 932,-528.52 932,-557.74 932,-557.74 932,-557.74 932,-772.92 932,-803.53 910.79,-830.03 888.62,-849.37"/>
<polygon fill="#0000cd" stroke="#0000cd" points="886.42,-846.64 880.96,-855.72 890.89,-852.03 886.42,-846.64"/>
<text text-anchor="middle" x="964.5" y="-657.24" font-family="Times,serif" font-size="10.00">wasInformedBy</text>
</g>
<!-- _4a81c03d6d0ea608ef88b04a5f4c68d71cdcf57f56537e01d481edddc389b245 -->
<g id="node7" class="node">
<title>_4a81c03d6d0ea608ef88b04a5f4c68d71cdcf57f56537e01d481edddc389b245</title>
<polygon fill="#9fb1fc" stroke="#0000ff" points="858,-686.74 506,-686.74 506,-632.74 858,-632.74 858,-686.74"/>
<text text-anchor="middle" x="682" y="-671.54" font-family="Times,serif" font-size="14.00">ID &#45; kb:observation&#45;e5c108e4&#45;c0a5&#45;4658&#45;95ed&#45;99171828fcf1</text>
<text text-anchor="middle" x="682" y="-640.54" font-family="Times,serif" font-size="14.00">Hash blk32_mmcblk0rpmb.bin</text>
</g>
<!-- _1b78d8b10f20bab9ac9decdab66ba558c139b30a952b49e41d8564fcefdf5825&#45;&gt;_4a81c03d6d0ea608ef88b04a5f4c68d71cdcf57f56537e01d481edddc389b245 -->
<g id="edge12" class="edge">
<title>_1b78d8b10f20bab9ac9decdab66ba558c139b30a952b49e41d8564fcefdf5825&#45;&gt;_4a81c03d6d0ea608ef88b04a5f4c68d71cdcf57f56537e01d481edddc389b245</title>
<path fill="none" stroke="#0000cd" d="M604.64,-484.88C620.22,-519.9 647.94,-582.2 665.63,-621.94"/>
<polygon fill="#0000cd" stroke="#0000cd" points="662.34,-623.17 669.6,-630.88 668.74,-620.32 662.34,-623.17"/>
<text text-anchor="middle" x="682.5" y="-556.24" font-family="Times,serif" font-size="10.00">wasInformedBy</text>
</g>
<!-- _1b78d8b10f20bab9ac9decdab66ba558c139b30a952b49e41d8564fcefdf5825&#45;&gt;_ebc267bba83123d50851bec30bc40b11891becea7dea22c9a75002f38bd181f3 -->
<g id="edge13" class="edge">
<title>_1b78d8b10f20bab9ac9decdab66ba558c139b30a952b49e41d8564fcefdf5825&#45;&gt;_ebc267bba83123d50851bec30bc40b11891becea7dea22c9a75002f38bd181f3</title>
<path fill="none" stroke="#8b0000" d="M520.47,-485.14C484.8,-498.12 441.63,-513.83 404.58,-527.31"/>
<polygon fill="#8b0000" stroke="#8b0000" points="403.43,-524.01 395.23,-530.72 405.82,-530.59 403.43,-524.01"/>
<text text-anchor="middle" x="475.5" y="-505.74" font-family="Times,serif" font-size="10.00" fill="red">used</text>
</g>
<!-- _a090ef842d68a040bb034c775f6a3fceaacfb2dc9c12cc5b055c7067bfa69f5a&#45;&gt;_c1a739983405a7bfa4936ec3a1ea5fbf93592d8df15f9a6b45f2537d7c543d15 -->
<g id="edge14" class="edge">
<title>_a090ef842d68a040bb034c775f6a3fceaacfb2dc9c12cc5b055c7067bfa69f5a&#45;&gt;_c1a739983405a7bfa4936ec3a1ea5fbf93592d8df15f9a6b45f2537d7c543d15</title>
<path fill="none" stroke="#8b0000" d="M560.33,-177.13C435.17,-194.15 295.12,-214.98 284,-224.37 263.16,-241.96 253.12,-270.71 248.32,-295.68"/>
<polygon fill="#8b0000" stroke="#8b0000" points="244.9,-294.9 246.7,-305.34 251.8,-296.05 244.9,-294.9"/>
<text text-anchor="middle" x="293.5" y="-239.87" font-family="Times,serif" font-size="10.00" fill="red">used</text>
</g>
<!-- _a090ef842d68a040bb034c775f6a3fceaacfb2dc9c12cc5b055c7067bfa69f5a&#45;&gt;_457e8792d4af0b60ec728dc4a5ed79d03fe6e76d0730385fad463089f8a49c0e -->
<g id="edge15" class="edge">
<title>_a090ef842d68a040bb034c775f6a3fceaacfb2dc9c12cc5b055c7067bfa69f5a&#45;&gt;_457e8792d4af0b60ec728dc4a5ed79d03fe6e76d0730385fad463089f8a49c0e</title>
<path fill="none" stroke="#8b0000" d="M912.58,-177.78C971.55,-192.42 1025,-213.4 1025,-241.37 1025,-241.37 1025,-241.37 1025,-660.74 1025,-676.46 1014.72,-679.05 1001,-686.74 978.21,-699.5 854.81,-723.28 746.97,-742.32"/>
<polygon fill="#8b0000" stroke="#8b0000" points="746.66,-738.82 737.41,-744 747.87,-745.71 746.66,-738.82"/>
<text text-anchor="middle" x="1034.5" y="-455.24" font-family="Times,serif" font-size="10.00" fill="red">used</text>
</g>
<!-- _a090ef842d68a040bb034c775f6a3fceaacfb2dc9c12cc5b055c7067bfa69f5a&#45;&gt;_1b78d8b10f20bab9ac9decdab66ba558c139b30a952b49e41d8564fcefdf5825 -->
<g id="edge16" class="edge">
<title>_a090ef842d68a040bb034c775f6a3fceaacfb2dc9c12cc5b055c7067bfa69f5a&#45;&gt;_1b78d8b10f20bab9ac9decdab66ba558c139b30a952b49e41d8564fcefdf5825</title>
<path fill="none" stroke="#0000cd" d="M767.56,-177.67C780.81,-223.66 800.67,-319.89 759,-383.74 747.4,-401.5 730.41,-414.97 711.66,-425.18"/>
<polygon fill="#0000cd" stroke="#0000cd" points="710.1,-422.05 702.76,-429.69 713.26,-428.29 710.1,-422.05"/>
<text text-anchor="middle" x="817.5" y="-281.37" font-family="Times,serif" font-size="10.00">wasInformedBy</text>
</g>
<!-- _a090ef842d68a040bb034c775f6a3fceaacfb2dc9c12cc5b055c7067bfa69f5a&#45;&gt;_4a81c03d6d0ea608ef88b04a5f4c68d71cdcf57f56537e01d481edddc389b245 -->
<g id="edge17" class="edge">
<title>_a090ef842d68a040bb034c775f6a3fceaacfb2dc9c12cc5b055c7067bfa69f5a&#45;&gt;_4a81c03d6d0ea608ef88b04a5f4c68d71cdcf57f56537e01d481edddc389b245</title>
<path fill="none" stroke="#0000cd" d="M857.72,-177.81C884.87,-191.39 907,-211.6 907,-241.37 907,-241.37 907,-241.37 907,-458.74 907,-539.48 825.06,-595.6 760.08,-627.42"/>
<polygon fill="#0000cd" stroke="#0000cd" points="758.7,-624.2 751.18,-631.66 761.71,-630.52 758.7,-624.2"/>
<text text-anchor="middle" x="939.5" y="-404.74" font-family="Times,serif" font-size="10.00">wasInformedBy</text>
</g>
<!-- _a090ef842d68a040bb034c775f6a3fceaacfb2dc9c12cc5b055c7067bfa69f5a&#45;&gt;_ebc267bba83123d50851bec30bc40b11891becea7dea22c9a75002f38bd181f3 -->
<g id="edge18" class="edge">
<title>_a090ef842d68a040bb034c775f6a3fceaacfb2dc9c12cc5b055c7067bfa69f5a&#45;&gt;_ebc267bba83123d50851bec30bc40b11891becea7dea22c9a75002f38bd181f3</title>
<path fill="none" stroke="#8b0000" d="M753.43,-177.66C741.54,-226.79 708.79,-332.22 638,-383.74 596.08,-414.24 575.93,-403.01 525,-412.74 493.76,-418.7 408.86,-412.22 383,-430.74 374.95,-436.5 352.43,-485.42 336.87,-520.83"/>
<polygon fill="#8b0000" stroke="#8b0000" points="333.69,-519.37 332.89,-529.93 340.1,-522.17 333.69,-519.37"/>
<text text-anchor="middle" x="712.5" y="-343.05" font-family="Times,serif" font-size="10.00" fill="red">used</text>
</g>
<!-- _a090ef842d68a040bb034c775f6a3fceaacfb2dc9c12cc5b055c7067bfa69f5a&#45;&gt;_a02c2e16e16ca8e40604e0031a59adedf64d57096fdb251d9226c253b8a229a9 -->
<g id="edge19" class="edge">
<title>_a090ef842d68a040bb034c775f6a3fceaacfb2dc9c12cc5b055c7067bfa69f5a&#45;&gt;_a02c2e16e16ca8e40604e0031a59adedf64d57096fdb251d9226c253b8a229a9</title>
<path fill="none" stroke="#8b0000" d="M685.97,-177.76C648.65,-191.25 603.84,-207.45 568.77,-220.12"/>
<polygon fill="#8b0000" stroke="#8b0000" points="567.86,-216.73 559.65,-223.42 570.24,-223.32 567.86,-216.73"/>
<text text-anchor="middle" x="644.5" y="-198.37" font-family="Times,serif" font-size="10.00" fill="red">used</text>
</g>
<!-- _4a81c03d6d0ea608ef88b04a5f4c68d71cdcf57f56537e01d481edddc389b245&#45;&gt;_457e8792d4af0b60ec728dc4a5ed79d03fe6e76d0730385fad463089f8a49c0e -->
<g id="edge20" class="edge">
<title>_4a81c03d6d0ea608ef88b04a5f4c68d71cdcf57f56537e01d481edddc389b245&#45;&gt;_457e8792d4af0b60ec728dc4a5ed79d03fe6e76d0730385fad463089f8a49c0e</title>
<path fill="none" stroke="#8b0000" d="M656.85,-687.13C645.8,-698.73 632.5,-712.68 619.95,-725.84"/>
<polygon fill="#8b0000" stroke="#8b0000" points="617.68,-723.16 613.31,-732.82 622.74,-727.99 617.68,-723.16"/>
<text text-anchor="middle" x="648.5" y="-707.74" font-family="Times,serif" font-size="10.00" fill="red">used</text>
</g>
<!-- _4a81c03d6d0ea608ef88b04a5f4c68d71cdcf57f56537e01d481edddc389b245&#45;&gt;_714995513e5350ac5b9c0da4e3b220fc0ed9ced5f72ebf41dc3e1565441b169f -->
<g id="edge21" class="edge">
<title>_4a81c03d6d0ea608ef88b04a5f4c68d71cdcf57f56537e01d481edddc389b245&#45;&gt;_714995513e5350ac5b9c0da4e3b220fc0ed9ced5f72ebf41dc3e1565441b169f</title>
<path fill="none" stroke="#0000cd" d="M754.31,-687.1C775.92,-698.33 797.66,-713.6 812,-733.74 835.29,-766.42 840.42,-813.08 840.76,-845.52"/>
<polygon fill="#0000cd" stroke="#0000cd" points="837.26,-845.24 840.7,-855.26 844.26,-845.28 837.26,-845.24"/>
<text text-anchor="middle" x="871.5" y="-769.42" font-family="Times,serif" font-size="10.00">wasInformedBy</text>
</g>
<!-- _ebc267bba83123d50851bec30bc40b11891becea7dea22c9a75002f38bd181f3&#45;&gt;_457e8792d4af0b60ec728dc4a5ed79d03fe6e76d0730385fad463089f8a49c0e -->
<g id="edge22" class="edge">
<title>_ebc267bba83123d50851bec30bc40b11891becea7dea22c9a75002f38bd181f3&#45;&gt;_457e8792d4af0b60ec728dc4a5ed79d03fe6e76d0730385fad463089f8a49c0e</title>
<path fill="none" stroke="black" d="M309.75,-586.16C300.03,-613.42 290.24,-656.15 309,-686.74 322.12,-708.14 368.03,-725.94 418.23,-739.57"/>
<polygon fill="black" stroke="black" points="417.32,-742.95 427.88,-742.12 419.1,-736.18 417.32,-742.95"/>
<text text-anchor="middle" x="333.5" y="-657.24" font-family="Times,serif" font-size="10.00">hadMember</text>
</g>
<!-- _ebc267bba83123d50851bec30bc40b11891becea7dea22c9a75002f38bd181f3&#45;&gt;_457e8792d4af0b60ec728dc4a5ed79d03fe6e76d0730385fad463089f8a49c0e -->
<g id="edge23" class="edge">
<title>_ebc267bba83123d50851bec30bc40b11891becea7dea22c9a75002f38bd181f3&#45;&gt;_457e8792d4af0b60ec728dc4a5ed79d03fe6e76d0730385fad463089f8a49c0e</title>
<path fill="none" stroke="black" d="M333.78,-586.17C349.97,-618.81 377.71,-671.86 394,-686.74 414.43,-705.39 439.7,-720.55 464.88,-732.6"/>
<polygon fill="black" stroke="black" points="463.35,-735.75 473.89,-736.77 466.28,-729.4 463.35,-735.75"/>
<text text-anchor="middle" x="429" y="-657.24" font-family="Times,serif" font-size="10.00">wasDerivedFrom</text>
</g>
<!-- _ebc267bba83123d50851bec30bc40b11891becea7dea22c9a75002f38bd181f3&#45;&gt;_4a81c03d6d0ea608ef88b04a5f4c68d71cdcf57f56537e01d481edddc389b245 -->
<g id="edge24" class="edge">
<title>_ebc267bba83123d50851bec30bc40b11891becea7dea22c9a75002f38bd181f3&#45;&gt;_4a81c03d6d0ea608ef88b04a5f4c68d71cdcf57f56537e01d481edddc389b245</title>
<path fill="none" stroke="darkgreen" d="M371.28,-586.17C392.35,-596.35 417.39,-607.3 441,-614.74 458.8,-620.34 477.59,-625.32 496.49,-629.72"/>
<polygon fill="darkgreen" stroke="darkgreen" points="495.62,-633.11 506.15,-631.91 497.17,-626.29 495.62,-633.11"/>
<text text-anchor="middle" x="476" y="-606.74" font-family="Times,serif" font-size="10.00" fill="darkgreen">wasGeneratedBy</text>
</g>
<!-- _a02c2e16e16ca8e40604e0031a59adedf64d57096fdb251d9226c253b8a229a9&#45;&gt;_c1a739983405a7bfa4936ec3a1ea5fbf93592d8df15f9a6b45f2537d7c543d15 -->
<g id="edge25" class="edge">
<title>_a02c2e16e16ca8e40604e0031a59adedf64d57096fdb251d9226c253b8a229a9&#45;&gt;_c1a739983405a7bfa4936ec3a1ea5fbf93592d8df15f9a6b45f2537d7c543d15</title>
<path fill="none" stroke="black" d="M464.27,-260.76C431.48,-273.24 386.01,-290.53 344.89,-306.17"/>
<polygon fill="black" stroke="black" points="343.78,-302.85 335.68,-309.68 346.27,-309.39 343.78,-302.85"/>
<text text-anchor="middle" x="441.5" y="-281.37" font-family="Times,serif" font-size="10.00">hadMember</text>
</g>
<!-- _a02c2e16e16ca8e40604e0031a59adedf64d57096fdb251d9226c253b8a229a9&#45;&gt;_457e8792d4af0b60ec728dc4a5ed79d03fe6e76d0730385fad463089f8a49c0e -->
<g id="edge26" class="edge">
<title>_a02c2e16e16ca8e40604e0031a59adedf64d57096fdb251d9226c253b8a229a9&#45;&gt;_457e8792d4af0b60ec728dc4a5ed79d03fe6e76d0730385fad463089f8a49c0e</title>
<path fill="none" stroke="black" d="M555.47,-260.86C581.14,-271.97 612.99,-287.92 638,-307.37 673.42,-334.9 668.36,-356.49 704,-383.74 742.38,-413.07 770.24,-394.34 802,-430.74 864.01,-501.8 852.38,-539.56 867,-632.74 870.72,-656.44 881.41,-667.54 867,-686.74 850.36,-708.89 798.02,-727.1 742.3,-740.85"/>
<polygon fill="black" stroke="black" points="741.49,-737.44 732.59,-743.19 743.13,-744.25 741.49,-737.44"/>
<text text-anchor="middle" x="885" y="-505.74" font-family="Times,serif" font-size="10.00">wasDerivedFrom</text>
</g>
<!-- _a02c2e16e16ca8e40604e0031a59adedf64d57096fdb251d9226c253b8a229a9&#45;&gt;_1b78d8b10f20bab9ac9decdab66ba558c139b30a952b49e41d8564fcefdf5825 -->
<g id="edge27" class="edge">
<title>_a02c2e16e16ca8e40604e0031a59adedf64d57096fdb251d9226c253b8a229a9&#45;&gt;_1b78d8b10f20bab9ac9decdab66ba558c139b30a952b49e41d8564fcefdf5825</title>
<path fill="none" stroke="darkgreen" d="M516.79,-260.83C530.27,-295.47 560.65,-373.56 578.71,-420.01"/>
<polygon fill="darkgreen" stroke="darkgreen" points="575.37,-421.07 582.26,-429.12 581.89,-418.53 575.37,-421.07"/>
<text text-anchor="middle" x="599" y="-343.05" font-family="Times,serif" font-size="10.00" fill="darkgreen">wasGeneratedBy</text>
</g>
<!-- _a02c2e16e16ca8e40604e0031a59adedf64d57096fdb251d9226c253b8a229a9&#45;&gt;_ebc267bba83123d50851bec30bc40b11891becea7dea22c9a75002f38bd181f3 -->
<g id="edge28" class="edge">
<title>_a02c2e16e16ca8e40604e0031a59adedf64d57096fdb251d9226c253b8a229a9&#45;&gt;_ebc267bba83123d50851bec30bc40b11891becea7dea22c9a75002f38bd181f3</title>
<path fill="none" stroke="black" d="M508.63,-260.49C505.64,-288.61 496.42,-345.29 469,-383.74 456.04,-401.9 448.37,-403.61 428,-412.74 395.53,-427.28 375.13,-405.55 350,-430.74 326.87,-453.92 320.63,-491.51 319.57,-519.79"/>
<polygon fill="black" stroke="black" points="316.07,-519.71 319.42,-529.76 323.07,-519.82 316.07,-519.71"/>
<text text-anchor="middle" x="486" y="-404.74" font-family="Times,serif" font-size="10.00">wasDerivedFrom</text>
</g>
<!-- _357f00248bdc728725be43338ec69113a99cec9793681d0accd1f777e4dd5fbf -->
<g id="node10" class="node">
<title>_357f00248bdc728725be43338ec69113a99cec9793681d0accd1f777e4dd5fbf</title>
<polygon fill="#cdc673" stroke="#808080" points="873,-56.18 870,-60.18 849,-60.18 846,-56.18 709,-56.18 709,-20.18 873,-20.18 873,-56.18"/>
<text text-anchor="middle" x="791" y="-34.48" font-family="Times,serif" font-size="14.00">ID &#45; prov:EmptyCollection</text>
</g>
</g>
</svg>
