<?xml version="1.0" encoding="UTF-8" standalone="no"?>
<!DOCTYPE svg PUBLIC "-//W3C//DTD SVG 1.1//EN"
 "http://www.w3.org/Graphics/SVG/1.1/DTD/svg11.dtd">
<!-- Generated by graphviz version 7.1.0 (20230121.1956)
 -->
<!-- Title: PROV&#45;O render Pages: 1 -->
<svg width="1909pt" height="754pt"
 viewBox="0.00 0.00 1908.50 754.47" xmlns="http://www.w3.org/2000/svg" xmlns:xlink="http://www.w3.org/1999/xlink">
<g id="graph0" class="graph" transform="scale(1 1) rotate(0) translate(4 750.47)">
<title>PROV&#45;O render</title>
<polygon fill="white" stroke="none" points="-4,4 -4,-750.47 1904.5,-750.47 1904.5,4 -4,4"/>
<!-- _1f04d829546c397900d5164d5f2d881a9d7141a66bfedb6c9fbc0aa88bbfc164 -->
<g id="node1" class="node">
<title>_1f04d829546c397900d5164d5f2d881a9d7141a66bfedb6c9fbc0aa88bbfc164</title>
<ellipse fill="#fff68f" stroke="#808080" cx="284" cy="-38.18" rx="219.41" ry="38.37"/>
<text text-anchor="middle" x="284" y="-49.98" font-family="Times,serif" font-size="14.00">ID &#45; kb:file&#45;2352f3d0&#45;d02f&#45;40ba&#45;85a4&#45;b00dd97050c8</text>
<text text-anchor="middle" x="284" y="-18.98" font-family="Times,serif" font-size="14.00">android_7.tar.gz</text>
</g>
<!-- _c1a739983405a7bfa4936ec3a1ea5fbf93592d8df15f9a6b45f2537d7c543d15 -->
<g id="node2" class="node">
<title>_c1a739983405a7bfa4936ec3a1ea5fbf93592d8df15f9a6b45f2537d7c543d15</title>
<ellipse fill="#fff68f" stroke="#808080" cx="486" cy="-244.55" rx="216.25" ry="38.37"/>
<text text-anchor="middle" x="486" y="-256.35" font-family="Times,serif" font-size="14.00">ID &#45; kb:file&#45;3af91026&#45;4c09&#45;4047&#45;a914&#45;15e75a711ff0</text>
<text text-anchor="middle" x="486" y="-225.35" font-family="Times,serif" font-size="14.00">Android7&#45;ImageCreationDocumentation.pdf</text>
</g>
<!-- _1f04d829546c397900d5164d5f2d881a9d7141a66bfedb6c9fbc0aa88bbfc164&#45;&gt;_c1a739983405a7bfa4936ec3a1ea5fbf93592d8df15f9a6b45f2537d7c543d15 -->
<g id="edge1" class="edge">
<title>_1f04d829546c397900d5164d5f2d881a9d7141a66bfedb6c9fbc0aa88bbfc164&#45;&gt;_c1a739983405a7bfa4936ec3a1ea5fbf93592d8df15f9a6b45f2537d7c543d15</title>
<path fill="none" stroke="black" d="M320.58,-76.19C354.51,-110.52 405.09,-161.69 441.38,-198.4"/>
<polygon fill="black" stroke="black" points="438.77,-200.74 448.29,-205.4 443.75,-195.82 438.77,-200.74"/>
<text text-anchor="middle" x="437" y="-138.87" font-family="Times,serif" font-size="10.00">wasDerivedFrom</text>
</g>
<!-- _2a4fbbcb7bd477dfe0f7d0497df08f1814dc4799866304fbb2c1d587e028daee -->
<g id="node3" class="node">
<title>_2a4fbbcb7bd477dfe0f7d0497df08f1814dc4799866304fbb2c1d587e028daee</title>
<ellipse fill="#fff68f" stroke="#808080" cx="996" cy="-584.92" rx="219.82" ry="38.37"/>
<text text-anchor="middle" x="996" y="-596.72" font-family="Times,serif" font-size="14.00">ID &#45; kb:file&#45;736c63b5&#45;5e15&#45;4a48&#45;b948&#45;13757bae0aae</text>
<text text-anchor="middle" x="996" y="-565.72" font-family="Times,serif" font-size="14.00">LG GSM_H790 Nexus 5X.ufd</text>
</g>
<!-- _1f04d829546c397900d5164d5f2d881a9d7141a66bfedb6c9fbc0aa88bbfc164&#45;&gt;_2a4fbbcb7bd477dfe0f7d0497df08f1814dc4799866304fbb2c1d587e028daee -->
<g id="edge2" class="edge">
<title>_1f04d829546c397900d5164d5f2d881a9d7141a66bfedb6c9fbc0aa88bbfc164&#45;&gt;_2a4fbbcb7bd477dfe0f7d0497df08f1814dc4799866304fbb2c1d587e028daee</title>
<path fill="none" stroke="black" d="M152.3,-69.16C121.76,-84.21 98,-106.73 98,-140.37 98,-140.37 98,-140.37 98,-466.24 98,-518.62 159.52,-490.05 211,-499.74 456.46,-545.92 523.15,-515.9 771,-546.74 790.72,-549.19 811.37,-552.11 831.81,-555.22"/>
<polygon fill="black" stroke="black" points="831.22,-558.67 841.64,-556.74 832.29,-551.75 831.22,-558.67"/>
<text text-anchor="middle" x="133" y="-303.74" font-family="Times,serif" font-size="10.00">wasDerivedFrom</text>
</g>
<!-- _5090b4bd42dac0fe6075f8ff9b6b3a5930561b67224e38a36ae608fd7cdd8b9e -->
<g id="node4" class="node">
<title>_5090b4bd42dac0fe6075f8ff9b6b3a5930561b67224e38a36ae608fd7cdd8b9e</title>
<ellipse fill="#fff68f" stroke="#808080" cx="1290" cy="-708.29" rx="230.53" ry="38.37"/>
<text text-anchor="middle" x="1290" y="-720.09" font-family="Times,serif" font-size="14.00">ID &#45; kb:image&#45;a3c3e13d&#45;98ef&#45;4901&#45;b984&#45;81c10142d90e</text>
<text text-anchor="middle" x="1290" y="-689.09" font-family="Times,serif" font-size="14.00">blk0_mmcblk0.bin, as generated by imaging process</text>
</g>
<!-- _1f04d829546c397900d5164d5f2d881a9d7141a66bfedb6c9fbc0aa88bbfc164&#45;&gt;_5090b4bd42dac0fe6075f8ff9b6b3a5930561b67224e38a36ae608fd7cdd8b9e -->
<g id="edge3" class="edge">
<title>_1f04d829546c397900d5164d5f2d881a9d7141a66bfedb6c9fbc0aa88bbfc164&#45;&gt;_5090b4bd42dac0fe6075f8ff9b6b3a5930561b67224e38a36ae608fd7cdd8b9e</title>
<path fill="none" stroke="black" d="M134.1,-66.57C65.83,-83.46 0,-108.11 0,-140.37 0,-140.37 0,-140.37 0,-585.92 0,-739.43 186.69,-632.91 339,-652.1 579.92,-682.47 857.31,-696.16 1050.09,-702.31"/>
<polygon fill="black" stroke="black" points="1049.89,-705.8 1060,-702.62 1050.11,-698.8 1049.89,-705.8"/>
<text text-anchor="middle" x="35" y="-354.24" font-family="Times,serif" font-size="10.00">wasDerivedFrom</text>
</g>
<!-- _ebc267bba83123d50851bec30bc40b11891becea7dea22c9a75002f38bd181f3 -->
<g id="node5" class="node">
<title>_ebc267bba83123d50851bec30bc40b11891becea7dea22c9a75002f38bd181f3</title>
<polygon fill="#cdc673" stroke="#808080" points="757,-383.74 754,-387.74 733,-387.74 730,-383.74 367,-383.74 367,-329.74 757,-329.74 757,-383.74"/>
<text text-anchor="middle" x="562" y="-368.54" font-family="Times,serif" font-size="14.00">ID &#45; kb:provenance&#45;record&#45;1fd441e5&#45;e7c6&#45;4610&#45;aeaa&#45;3530aa37873c</text>
<text text-anchor="middle" x="562" y="-337.54" font-family="Times,serif" font-size="14.00">Record of blk32_mmcblk0rpmb.bin being hashed</text>
</g>
<!-- _1f04d829546c397900d5164d5f2d881a9d7141a66bfedb6c9fbc0aa88bbfc164&#45;&gt;_ebc267bba83123d50851bec30bc40b11891becea7dea22c9a75002f38bd181f3 -->
<g id="edge4" class="edge">
<title>_1f04d829546c397900d5164d5f2d881a9d7141a66bfedb6c9fbc0aa88bbfc164&#45;&gt;_ebc267bba83123d50851bec30bc40b11891becea7dea22c9a75002f38bd181f3</title>
<path fill="none" stroke="black" d="M265.88,-76.69C243.64,-128.78 214.27,-223.31 261,-282.74 275.65,-301.36 315.89,-315.81 362.36,-326.76"/>
<polygon fill="black" stroke="black" points="361.32,-330.11 371.85,-328.92 362.87,-323.29 361.32,-330.11"/>
<text text-anchor="middle" x="273" y="-180.37" font-family="Times,serif" font-size="10.00">wasDerivedFrom</text>
</g>
<!-- _1aa3504fd0f5004a0b62e45f40456297227f4299319f47b6ae52f20305601d7f -->
<g id="node6" class="node">
<title>_1aa3504fd0f5004a0b62e45f40456297227f4299319f47b6ae52f20305601d7f</title>
<polygon fill="#cdc673" stroke="#808080" points="1208.5,-383.74 1205.5,-387.74 1184.5,-387.74 1181.5,-383.74 813.5,-383.74 813.5,-329.74 1208.5,-329.74 1208.5,-383.74"/>
<text text-anchor="middle" x="1011" y="-368.54" font-family="Times,serif" font-size="14.00">ID &#45; kb:provenance&#45;record&#45;27610dc7&#45;3dc7&#45;4d57&#45;8143&#45;629c72fb6be7</text>
<text text-anchor="middle" x="1011" y="-337.54" font-family="Times,serif" font-size="14.00">Record of procdata.zip being hashed</text>
</g>
<!-- _1f04d829546c397900d5164d5f2d881a9d7141a66bfedb6c9fbc0aa88bbfc164&#45;&gt;_1aa3504fd0f5004a0b62e45f40456297227f4299319f47b6ae52f20305601d7f -->
<g id="edge5" class="edge">
<title>_1f04d829546c397900d5164d5f2d881a9d7141a66bfedb6c9fbc0aa88bbfc164&#45;&gt;_1aa3504fd0f5004a0b62e45f40456297227f4299319f47b6ae52f20305601d7f</title>
<path fill="none" stroke="black" d="M438,-65.88C462.7,-69.71 488.02,-73.36 512,-76.37 722.43,-102.77 1320.97,-18.09 1461,-177.37 1507.99,-230.82 1295.79,-291.63 1146.82,-326.65"/>
<polygon fill="black" stroke="black" points="1146.17,-323.21 1137.23,-328.89 1147.76,-330.03 1146.17,-323.21"/>
<text text-anchor="middle" x="1501" y="-180.37" font-family="Times,serif" font-size="10.00">wasDerivedFrom</text>
</g>
<!-- _a02c2e16e16ca8e40604e0031a59adedf64d57096fdb251d9226c253b8a229a9 -->
<g id="node7" class="node">
<title>_a02c2e16e16ca8e40604e0031a59adedf64d57096fdb251d9226c253b8a229a9</title>
<polygon fill="#cdc673" stroke="#808080" points="1033.5,-159.37 1030.5,-163.37 1009.5,-163.37 1006.5,-159.37 638.5,-159.37 638.5,-123.37 1033.5,-123.37 1033.5,-159.37"/>
<text text-anchor="middle" x="836" y="-137.67" font-family="Times,serif" font-size="14.00">ID &#45; kb:provenance&#45;record&#45;2dbd4ba1&#45;76b1&#45;4041&#45;a460&#45;8a5922940f79</text>
</g>
<!-- _1f04d829546c397900d5164d5f2d881a9d7141a66bfedb6c9fbc0aa88bbfc164&#45;&gt;_a02c2e16e16ca8e40604e0031a59adedf64d57096fdb251d9226c253b8a229a9 -->
<g id="edge6" class="edge">
<title>_1f04d829546c397900d5164d5f2d881a9d7141a66bfedb6c9fbc0aa88bbfc164&#45;&gt;_a02c2e16e16ca8e40604e0031a59adedf64d57096fdb251d9226c253b8a229a9</title>
<path fill="none" stroke="black" d="M433.74,-66.63C527.4,-83.8 645.77,-105.5 729.8,-120.9"/>
<polygon fill="black" stroke="black" points="728.95,-124.3 739.42,-122.66 730.21,-117.42 728.95,-124.3"/>
<text text-anchor="middle" x="677" y="-97.37" font-family="Times,serif" font-size="10.00">wasDerivedFrom</text>
</g>
<!-- _b5ab4f9e376265609eda39155c81c1c21d11e2e36515c2a87670364c122d98c3 -->
<g id="node8" class="node">
<title>_b5ab4f9e376265609eda39155c81c1c21d11e2e36515c2a87670364c122d98c3</title>
<polygon fill="#cdc673" stroke="#808080" points="1900.5,-279.05 1897.5,-283.05 1876.5,-283.05 1873.5,-279.05 1513.5,-279.05 1513.5,-210.05 1900.5,-210.05 1900.5,-279.05"/>
<text text-anchor="middle" x="1707" y="-263.85" font-family="Times,serif" font-size="14.00">ID &#45; kb:provenance&#45;record&#45;529f9bf1&#45;c9ca&#45;450c&#45;8311&#45;98c8a800fac5</text>
<text text-anchor="middle" x="1707" y="-232.85" font-family="Times,serif" font-size="14.00">Record of blk0_mmcblk0.bin being hashed before entry into </text>
<text text-anchor="middle" x="1707" y="-217.85" font-family="Times,serif" font-size="14.00">tarball</text>
</g>
<!-- _1f04d829546c397900d5164d5f2d881a9d7141a66bfedb6c9fbc0aa88bbfc164&#45;&gt;_b5ab4f9e376265609eda39155c81c1c21d11e2e36515c2a87670364c122d98c3 -->
<g id="edge7" class="edge">
<title>_1f04d829546c397900d5164d5f2d881a9d7141a66bfedb6c9fbc0aa88bbfc164&#45;&gt;_b5ab4f9e376265609eda39155c81c1c21d11e2e36515c2a87670364c122d98c3</title>
<path fill="none" stroke="black" d="M433.24,-66.67C459.4,-70.58 486.44,-74.06 512,-76.37 566.62,-81.29 1446.95,-77.1 1499,-94.37 1564.37,-116.05 1626.82,-166.15 1665.93,-202.32"/>
<polygon fill="black" stroke="black" points="1663.12,-204.48 1672.81,-208.77 1667.91,-199.38 1663.12,-204.48"/>
<text text-anchor="middle" x="1648" y="-138.87" font-family="Times,serif" font-size="10.00">wasDerivedFrom</text>
</g>
<!-- _0a56478b124850e46a803da26039a994826dbcfde99c095ebc9693539de82b15 -->
<g id="node10" class="node">
<title>_0a56478b124850e46a803da26039a994826dbcfde99c095ebc9693539de82b15</title>
<polygon fill="#cdc673" stroke="#808080" points="982.5,-499.74 979.5,-503.74 958.5,-503.74 955.5,-499.74 587.5,-499.74 587.5,-430.74 982.5,-430.74 982.5,-499.74"/>
<text text-anchor="middle" x="785" y="-484.54" font-family="Times,serif" font-size="14.00">ID &#45; kb:provenance&#45;record&#45;8c357d9b&#45;13a4&#45;4333&#45;9e11&#45;2194bfdd534b</text>
<text text-anchor="middle" x="785" y="-453.54" font-family="Times,serif" font-size="14.00">Record of phone imaging process being completed, including </text>
<text text-anchor="middle" x="785" y="-438.54" font-family="Times,serif" font-size="14.00">log</text>
</g>
<!-- _1f04d829546c397900d5164d5f2d881a9d7141a66bfedb6c9fbc0aa88bbfc164&#45;&gt;_0a56478b124850e46a803da26039a994826dbcfde99c095ebc9693539de82b15 -->
<g id="edge8" class="edge">
<title>_1f04d829546c397900d5164d5f2d881a9d7141a66bfedb6c9fbc0aa88bbfc164&#45;&gt;_0a56478b124850e46a803da26039a994826dbcfde99c095ebc9693539de82b15</title>
<path fill="none" stroke="black" d="M246.29,-76.41C217.23,-107.93 179.34,-155.92 163,-206.37 152.54,-238.66 149.35,-251.66 163,-282.74 197.69,-361.67 227.81,-378.62 307,-412.74 354.98,-433.41 470.34,-446.17 575.71,-453.83"/>
<polygon fill="black" stroke="black" points="575.45,-457.32 585.68,-454.54 575.95,-450.34 575.45,-457.32"/>
<text text-anchor="middle" x="198" y="-242.05" font-family="Times,serif" font-size="10.00">wasDerivedFrom</text>
</g>
<!-- _c1a739983405a7bfa4936ec3a1ea5fbf93592d8df15f9a6b45f2537d7c543d15&#45;&gt;_5090b4bd42dac0fe6075f8ff9b6b3a5930561b67224e38a36ae608fd7cdd8b9e -->
<g id="edge9" class="edge">
<title>_c1a739983405a7bfa4936ec3a1ea5fbf93592d8df15f9a6b45f2537d7c543d15&#45;&gt;_5090b4bd42dac0fe6075f8ff9b6b3a5930561b67224e38a36ae608fd7cdd8b9e</title>
<path fill="none" stroke="black" d="M359.84,-276.13C340.88,-282.95 322,-291.09 305,-300.74 255.63,-328.75 233,-349.47 233,-406.24 233,-406.24 233,-406.24 233,-585.92 233,-667.6 737.59,-694.35 1049.5,-703.08"/>
<polygon fill="black" stroke="black" points="1049.37,-706.58 1059.46,-703.35 1049.56,-699.58 1049.37,-706.58"/>
<text text-anchor="middle" x="268" y="-462.74" font-family="Times,serif" font-size="10.00">wasDerivedFrom</text>
</g>
<!-- _c1a739983405a7bfa4936ec3a1ea5fbf93592d8df15f9a6b45f2537d7c543d15&#45;&gt;_ebc267bba83123d50851bec30bc40b11891becea7dea22c9a75002f38bd181f3 -->
<g id="edge10" class="edge">
<title>_c1a739983405a7bfa4936ec3a1ea5fbf93592d8df15f9a6b45f2537d7c543d15&#45;&gt;_ebc267bba83123d50851bec30bc40b11891becea7dea22c9a75002f38bd181f3</title>
<path fill="none" stroke="black" d="M465.46,-282.91C462.73,-292.79 462.5,-303.09 468,-311.74 470.31,-315.37 473.01,-318.71 476.01,-321.78"/>
<polygon fill="black" stroke="black" points="473.6,-324.32 483.42,-328.28 478.21,-319.06 473.6,-324.32"/>
<text text-anchor="middle" x="503" y="-303.74" font-family="Times,serif" font-size="10.00">wasDerivedFrom</text>
</g>
<!-- _c1a739983405a7bfa4936ec3a1ea5fbf93592d8df15f9a6b45f2537d7c543d15&#45;&gt;_1aa3504fd0f5004a0b62e45f40456297227f4299319f47b6ae52f20305601d7f -->
<g id="edge11" class="edge">
<title>_c1a739983405a7bfa4936ec3a1ea5fbf93592d8df15f9a6b45f2537d7c543d15&#45;&gt;_1aa3504fd0f5004a0b62e45f40456297227f4299319f47b6ae52f20305601d7f</title>
<path fill="none" stroke="black" d="M518.94,-282.74C531,-293.98 545.52,-305.09 561,-311.74 603.03,-329.77 720.48,-325.32 766,-329.74 777.73,-330.87 789.78,-332.07 801.94,-333.29"/>
<polygon fill="black" stroke="black" points="801.32,-336.75 811.62,-334.27 802.03,-329.78 801.32,-336.75"/>
<text text-anchor="middle" x="596" y="-303.74" font-family="Times,serif" font-size="10.00">wasDerivedFrom</text>
</g>
<!-- _d39fd74adc51b4a1f5dbc40716bcb6c4f44db1c4f75fe9dece0d18b9c6a9370b -->
<g id="node9" class="node">
<title>_d39fd74adc51b4a1f5dbc40716bcb6c4f44db1c4f75fe9dece0d18b9c6a9370b</title>
<polygon fill="#cdc673" stroke="#808080" points="1617.5,-383.74 1614.5,-387.74 1593.5,-387.74 1590.5,-383.74 1226.5,-383.74 1226.5,-329.74 1617.5,-329.74 1617.5,-383.74"/>
<text text-anchor="middle" x="1422" y="-368.54" font-family="Times,serif" font-size="14.00">ID &#45; kb:provenance&#45;record&#45;75fb2a26&#45;0b7e&#45;428b&#45;acba&#45;17d114caca39</text>
<text text-anchor="middle" x="1422" y="-337.54" font-family="Times,serif" font-size="14.00">Record of blk0_mmcblk0.bin being hashed</text>
</g>
<!-- _c1a739983405a7bfa4936ec3a1ea5fbf93592d8df15f9a6b45f2537d7c543d15&#45;&gt;_d39fd74adc51b4a1f5dbc40716bcb6c4f44db1c4f75fe9dece0d18b9c6a9370b -->
<g id="edge12" class="edge">
<title>_c1a739983405a7bfa4936ec3a1ea5fbf93592d8df15f9a6b45f2537d7c543d15&#45;&gt;_d39fd74adc51b4a1f5dbc40716bcb6c4f44db1c4f75fe9dece0d18b9c6a9370b</title>
<path fill="none" stroke="black" d="M583.88,-279.16C624.82,-291.72 673.22,-304.65 718,-311.74 933.99,-345.91 994.38,-312.8 1214.76,-329.53"/>
<polygon fill="black" stroke="black" points="1214.31,-333 1224.55,-330.3 1214.86,-326.02 1214.31,-333"/>
<text text-anchor="middle" x="753" y="-303.74" font-family="Times,serif" font-size="10.00">wasDerivedFrom</text>
</g>
<!-- _c1a739983405a7bfa4936ec3a1ea5fbf93592d8df15f9a6b45f2537d7c543d15&#45;&gt;_0a56478b124850e46a803da26039a994826dbcfde99c095ebc9693539de82b15 -->
<g id="edge13" class="edge">
<title>_c1a739983405a7bfa4936ec3a1ea5fbf93592d8df15f9a6b45f2537d7c543d15&#45;&gt;_0a56478b124850e46a803da26039a994826dbcfde99c095ebc9693539de82b15</title>
<path fill="none" stroke="black" d="M376.07,-277.95C311.85,-302.44 250.24,-339.36 288,-383.74 325.52,-427.83 457.31,-447.84 575.74,-456.89"/>
<polygon fill="black" stroke="black" points="575.42,-460.38 585.65,-457.62 575.93,-453.4 575.42,-460.38"/>
<text text-anchor="middle" x="323" y="-354.24" font-family="Times,serif" font-size="10.00">wasDerivedFrom</text>
</g>
<!-- _2a4fbbcb7bd477dfe0f7d0497df08f1814dc4799866304fbb2c1d587e028daee&#45;&gt;_5090b4bd42dac0fe6075f8ff9b6b3a5930561b67224e38a36ae608fd7cdd8b9e -->
<g id="edge14" class="edge">
<title>_2a4fbbcb7bd477dfe0f7d0497df08f1814dc4799866304fbb2c1d587e028daee&#45;&gt;_5090b4bd42dac0fe6075f8ff9b6b3a5930561b67224e38a36ae608fd7cdd8b9e</title>
<path fill="none" stroke="black" d="M1080.25,-620.7C1116,-635.46 1157.84,-652.73 1194.72,-667.95"/>
<polygon fill="black" stroke="black" points="1193,-671.03 1203.58,-671.61 1195.67,-664.56 1193,-671.03"/>
<text text-anchor="middle" x="1186" y="-644.1" font-family="Times,serif" font-size="10.00">wasDerivedFrom</text>
</g>
<!-- _ebc267bba83123d50851bec30bc40b11891becea7dea22c9a75002f38bd181f3&#45;&gt;_0a56478b124850e46a803da26039a994826dbcfde99c095ebc9693539de82b15 -->
<g id="edge15" class="edge">
<title>_ebc267bba83123d50851bec30bc40b11891becea7dea22c9a75002f38bd181f3&#45;&gt;_0a56478b124850e46a803da26039a994826dbcfde99c095ebc9693539de82b15</title>
<path fill="none" stroke="black" d="M617.41,-384.2C643.49,-396.65 675.1,-411.75 703.81,-425.46"/>
<polygon fill="black" stroke="black" points="701.93,-428.44 712.47,-429.59 704.95,-422.13 701.93,-428.44"/>
<text text-anchor="middle" x="709" y="-404.74" font-family="Times,serif" font-size="10.00">wasDerivedFrom</text>
</g>
<!-- _1aa3504fd0f5004a0b62e45f40456297227f4299319f47b6ae52f20305601d7f&#45;&gt;_0a56478b124850e46a803da26039a994826dbcfde99c095ebc9693539de82b15 -->
<g id="edge16" class="edge">
<title>_1aa3504fd0f5004a0b62e45f40456297227f4299319f47b6ae52f20305601d7f&#45;&gt;_0a56478b124850e46a803da26039a994826dbcfde99c095ebc9693539de82b15</title>
<path fill="none" stroke="black" d="M954.84,-384.2C928.42,-396.65 896.38,-411.75 867.28,-425.46"/>
<polygon fill="black" stroke="black" points="866.05,-422.17 858.49,-429.6 869.03,-428.5 866.05,-422.17"/>
<text text-anchor="middle" x="946" y="-404.74" font-family="Times,serif" font-size="10.00">wasDerivedFrom</text>
</g>
<!-- _a02c2e16e16ca8e40604e0031a59adedf64d57096fdb251d9226c253b8a229a9&#45;&gt;_c1a739983405a7bfa4936ec3a1ea5fbf93592d8df15f9a6b45f2537d7c543d15 -->
<g id="edge17" class="edge">
<title>_a02c2e16e16ca8e40604e0031a59adedf64d57096fdb251d9226c253b8a229a9&#45;&gt;_c1a739983405a7bfa4936ec3a1ea5fbf93592d8df15f9a6b45f2537d7c543d15</title>
<path fill="none" stroke="black" d="M746.52,-159.78C723.1,-164.89 697.98,-170.87 675,-177.37 646.22,-185.5 615.45,-195.64 587.27,-205.52"/>
<polygon fill="black" stroke="black" points="586.29,-202.15 578.03,-208.78 588.62,-208.75 586.29,-202.15"/>
<text text-anchor="middle" x="699.5" y="-180.37" font-family="Times,serif" font-size="10.00">hadMember</text>
</g>
<!-- _a02c2e16e16ca8e40604e0031a59adedf64d57096fdb251d9226c253b8a229a9&#45;&gt;_5090b4bd42dac0fe6075f8ff9b6b3a5930561b67224e38a36ae608fd7cdd8b9e -->
<g id="edge18" class="edge">
<title>_a02c2e16e16ca8e40604e0031a59adedf64d57096fdb251d9226c253b8a229a9&#45;&gt;_5090b4bd42dac0fe6075f8ff9b6b3a5930561b67224e38a36ae608fd7cdd8b9e</title>
<path fill="none" stroke="black" d="M1033.78,-156.59C1117.93,-165.94 1216.44,-181.28 1303,-206.37 1411.38,-237.78 1426.52,-277.36 1534,-311.74 1574.1,-324.56 1600.21,-297.26 1627,-329.74 1681.32,-395.57 1459.08,-578.94 1348.78,-663.52"/>
<polygon fill="black" stroke="black" points="1346.78,-660.65 1340.95,-669.5 1351.02,-666.21 1346.78,-660.65"/>
<text text-anchor="middle" x="1654" y="-404.74" font-family="Times,serif" font-size="10.00">wasDerivedFrom</text>
</g>
<!-- _a02c2e16e16ca8e40604e0031a59adedf64d57096fdb251d9226c253b8a229a9&#45;&gt;_ebc267bba83123d50851bec30bc40b11891becea7dea22c9a75002f38bd181f3 -->
<g id="edge19" class="edge">
<title>_a02c2e16e16ca8e40604e0031a59adedf64d57096fdb251d9226c253b8a229a9&#45;&gt;_ebc267bba83123d50851bec30bc40b11891becea7dea22c9a75002f38bd181f3</title>
<path fill="none" stroke="black" d="M803.79,-159.74C786.05,-170.86 765.05,-186.86 752,-206.37 725.05,-246.64 758.17,-277.38 724,-311.74 719.87,-315.89 715.38,-319.66 710.63,-323.09"/>
<polygon fill="black" stroke="black" points="708.91,-320.04 702.45,-328.44 712.73,-325.9 708.91,-320.04"/>
<text text-anchor="middle" x="787" y="-242.05" font-family="Times,serif" font-size="10.00">wasDerivedFrom</text>
</g>
<!-- _a02c2e16e16ca8e40604e0031a59adedf64d57096fdb251d9226c253b8a229a9&#45;&gt;_1aa3504fd0f5004a0b62e45f40456297227f4299319f47b6ae52f20305601d7f -->
<g id="edge20" class="edge">
<title>_a02c2e16e16ca8e40604e0031a59adedf64d57096fdb251d9226c253b8a229a9&#45;&gt;_1aa3504fd0f5004a0b62e45f40456297227f4299319f47b6ae52f20305601d7f</title>
<path fill="none" stroke="black" d="M850.32,-159.83C879.1,-194.91 944.41,-274.55 982.31,-320.76"/>
<polygon fill="black" stroke="black" points="979.5,-322.85 988.55,-328.36 984.91,-318.41 979.5,-322.85"/>
<text text-anchor="middle" x="984" y="-242.05" font-family="Times,serif" font-size="10.00">wasDerivedFrom</text>
</g>
<!-- _a02c2e16e16ca8e40604e0031a59adedf64d57096fdb251d9226c253b8a229a9&#45;&gt;_d39fd74adc51b4a1f5dbc40716bcb6c4f44db1c4f75fe9dece0d18b9c6a9370b -->
<g id="edge21" class="edge">
<title>_a02c2e16e16ca8e40604e0031a59adedf64d57096fdb251d9226c253b8a229a9&#45;&gt;_d39fd74adc51b4a1f5dbc40716bcb6c4f44db1c4f75fe9dece0d18b9c6a9370b</title>
<path fill="none" stroke="black" d="M888.13,-159.77C925.72,-172.42 977.61,-190.11 1023,-206.37 1134.46,-246.29 1262.52,-294.69 1342.85,-325.35"/>
<polygon fill="black" stroke="black" points="1341.37,-328.53 1351.96,-328.83 1343.87,-321.99 1341.37,-328.53"/>
<text text-anchor="middle" x="1264" y="-242.05" font-family="Times,serif" font-size="10.00">wasDerivedFrom</text>
</g>
<!-- _a02c2e16e16ca8e40604e0031a59adedf64d57096fdb251d9226c253b8a229a9&#45;&gt;_0a56478b124850e46a803da26039a994826dbcfde99c095ebc9693539de82b15 -->
<g id="edge22" class="edge">
<title>_a02c2e16e16ca8e40604e0031a59adedf64d57096fdb251d9226c253b8a229a9&#45;&gt;_0a56478b124850e46a803da26039a994826dbcfde99c095ebc9693539de82b15</title>
<path fill="none" stroke="black" d="M835.65,-159.44C834.81,-186.08 831.92,-239.03 822,-282.74 817.08,-304.4 810.44,-308.2 805,-329.74 797.57,-359.14 792.56,-392.91 789.42,-419.26"/>
<polygon fill="black" stroke="black" points="785.97,-418.59 788.31,-428.92 792.92,-419.39 785.97,-418.59"/>
<text text-anchor="middle" x="851" y="-303.74" font-family="Times,serif" font-size="10.00">wasDerivedFrom</text>
</g>
<!-- _b5ab4f9e376265609eda39155c81c1c21d11e2e36515c2a87670364c122d98c3&#45;&gt;_5090b4bd42dac0fe6075f8ff9b6b3a5930561b67224e38a36ae608fd7cdd8b9e -->
<g id="edge23" class="edge">
<title>_b5ab4f9e376265609eda39155c81c1c21d11e2e36515c2a87670364c122d98c3&#45;&gt;_5090b4bd42dac0fe6075f8ff9b6b3a5930561b67224e38a36ae608fd7cdd8b9e</title>
<path fill="none" stroke="black" d="M1707,-279.31C1707,-301.11 1707,-330.1 1707,-355.74 1707,-355.74 1707,-355.74 1707,-585.92 1707,-629.06 1674.76,-633.17 1636,-652.1 1609.31,-665.14 1552.62,-676.26 1492.71,-685.03"/>
<polygon fill="black" stroke="black" points="1492.39,-681.54 1482.99,-686.42 1493.38,-688.47 1492.39,-681.54"/>
<text text-anchor="middle" x="1731.5" y="-462.74" font-family="Times,serif" font-size="10.00">hadMember</text>
</g>
<!-- _b5ab4f9e376265609eda39155c81c1c21d11e2e36515c2a87670364c122d98c3&#45;&gt;_5090b4bd42dac0fe6075f8ff9b6b3a5930561b67224e38a36ae608fd7cdd8b9e -->
<g id="edge24" class="edge">
<title>_b5ab4f9e376265609eda39155c81c1c21d11e2e36515c2a87670364c122d98c3&#45;&gt;_5090b4bd42dac0fe6075f8ff9b6b3a5930561b67224e38a36ae608fd7cdd8b9e</title>
<path fill="none" stroke="black" d="M1751.49,-279.33C1772.06,-298.99 1792,-325.78 1792,-355.74 1792,-355.74 1792,-355.74 1792,-585.92 1792,-647.19 1648.95,-677.63 1515.57,-692.69"/>
<polygon fill="black" stroke="black" points="1515.41,-689.19 1505.85,-693.76 1516.18,-696.15 1515.41,-689.19"/>
<text text-anchor="middle" x="1827" y="-462.74" font-family="Times,serif" font-size="10.00">wasDerivedFrom</text>
</g>
<!-- _b5ab4f9e376265609eda39155c81c1c21d11e2e36515c2a87670364c122d98c3&#45;&gt;_d39fd74adc51b4a1f5dbc40716bcb6c4f44db1c4f75fe9dece0d18b9c6a9370b -->
<g id="edge25" class="edge">
<title>_b5ab4f9e376265609eda39155c81c1c21d11e2e36515c2a87670364c122d98c3&#45;&gt;_d39fd74adc51b4a1f5dbc40716bcb6c4f44db1c4f75fe9dece0d18b9c6a9370b</title>
<path fill="none" stroke="black" d="M1619.17,-279.51C1581.35,-294.13 1537.49,-311.08 1500.75,-325.29"/>
<polygon fill="black" stroke="black" points="1499.57,-321.99 1491.5,-328.86 1502.09,-328.52 1499.57,-321.99"/>
<text text-anchor="middle" x="1590" y="-303.74" font-family="Times,serif" font-size="10.00">wasDerivedFrom</text>
</g>
<!-- _d39fd74adc51b4a1f5dbc40716bcb6c4f44db1c4f75fe9dece0d18b9c6a9370b&#45;&gt;_5090b4bd42dac0fe6075f8ff9b6b3a5930561b67224e38a36ae608fd7cdd8b9e -->
<g id="edge26" class="edge">
<title>_d39fd74adc51b4a1f5dbc40716bcb6c4f44db1c4f75fe9dece0d18b9c6a9370b&#45;&gt;_5090b4bd42dac0fe6075f8ff9b6b3a5930561b67224e38a36ae608fd7cdd8b9e</title>
<path fill="none" stroke="black" d="M1421.1,-384.02C1419.37,-418.03 1414.37,-478.83 1400,-528.74 1383.29,-586.78 1377.06,-602.22 1343,-652.1 1340.84,-655.27 1338.49,-658.43 1336.02,-661.53"/>
<polygon fill="black" stroke="black" points="1333.54,-659.05 1329.79,-668.96 1338.9,-663.55 1333.54,-659.05"/>
<text text-anchor="middle" x="1426.5" y="-520.74" font-family="Times,serif" font-size="10.00">hadMember</text>
</g>
<!-- _d39fd74adc51b4a1f5dbc40716bcb6c4f44db1c4f75fe9dece0d18b9c6a9370b&#45;&gt;_5090b4bd42dac0fe6075f8ff9b6b3a5930561b67224e38a36ae608fd7cdd8b9e -->
<g id="edge27" class="edge">
<title>_d39fd74adc51b4a1f5dbc40716bcb6c4f44db1c4f75fe9dece0d18b9c6a9370b&#45;&gt;_5090b4bd42dac0fe6075f8ff9b6b3a5930561b67224e38a36ae608fd7cdd8b9e</title>
<path fill="none" stroke="black" d="M1401.27,-383.97C1378.55,-414.28 1343.08,-466.57 1326,-517.74 1311.09,-562.4 1324.19,-576.92 1315,-623.1 1312.68,-634.77 1309.45,-647.15 1306.08,-658.73"/>
<polygon fill="black" stroke="black" points="1302.8,-657.49 1303.27,-668.07 1309.5,-659.51 1302.8,-657.49"/>
<text text-anchor="middle" x="1361" y="-520.74" font-family="Times,serif" font-size="10.00">wasDerivedFrom</text>
</g>
<!-- _d39fd74adc51b4a1f5dbc40716bcb6c4f44db1c4f75fe9dece0d18b9c6a9370b&#45;&gt;_0a56478b124850e46a803da26039a994826dbcfde99c095ebc9693539de82b15 -->
<g id="edge28" class="edge">
<title>_d39fd74adc51b4a1f5dbc40716bcb6c4f44db1c4f75fe9dece0d18b9c6a9370b&#45;&gt;_0a56478b124850e46a803da26039a994826dbcfde99c095ebc9693539de82b15</title>
<path fill="none" stroke="black" d="M1263.72,-384.2C1182.27,-397.82 1081.92,-414.59 994.17,-429.26"/>
<polygon fill="black" stroke="black" points="993.76,-425.78 984.48,-430.88 994.92,-432.69 993.76,-425.78"/>
<text text-anchor="middle" x="1176" y="-404.74" font-family="Times,serif" font-size="10.00">wasDerivedFrom</text>
</g>
<!-- _0a56478b124850e46a803da26039a994826dbcfde99c095ebc9693539de82b15&#45;&gt;_2a4fbbcb7bd477dfe0f7d0497df08f1814dc4799866304fbb2c1d587e028daee -->
<g id="edge29" class="edge">
<title>_0a56478b124850e46a803da26039a994826dbcfde99c095ebc9693539de82b15&#45;&gt;_2a4fbbcb7bd477dfe0f7d0497df08f1814dc4799866304fbb2c1d587e028daee</title>
<path fill="none" stroke="black" d="M845.75,-500.12C869.39,-513.3 896.72,-528.55 921.53,-542.38"/>
<polygon fill="black" stroke="black" points="919.51,-545.26 929.94,-547.08 922.92,-539.15 919.51,-545.26"/>
<text text-anchor="middle" x="920.5" y="-520.74" font-family="Times,serif" font-size="10.00">hadMember</text>
</g>
<!-- _0a56478b124850e46a803da26039a994826dbcfde99c095ebc9693539de82b15&#45;&gt;_5090b4bd42dac0fe6075f8ff9b6b3a5930561b67224e38a36ae608fd7cdd8b9e -->
<g id="edge30" class="edge">
<title>_0a56478b124850e46a803da26039a994826dbcfde99c095ebc9693539de82b15&#45;&gt;_5090b4bd42dac0fe6075f8ff9b6b3a5930561b67224e38a36ae608fd7cdd8b9e</title>
<path fill="none" stroke="black" d="M982.88,-483.78C1081.37,-496.13 1187.33,-516.05 1225,-546.74 1243.09,-561.47 1263.12,-617.3 1276.1,-659.02"/>
<polygon fill="black" stroke="black" points="1272.69,-659.84 1278.96,-668.37 1279.39,-657.79 1272.69,-659.84"/>
<text text-anchor="middle" x="1287.5" y="-582.42" font-family="Times,serif" font-size="10.00">hadMember</text>
</g>
<!-- _0a56478b124850e46a803da26039a994826dbcfde99c095ebc9693539de82b15&#45;&gt;_5090b4bd42dac0fe6075f8ff9b6b3a5930561b67224e38a36ae608fd7cdd8b9e -->
<g id="edge31" class="edge">
<title>_0a56478b124850e46a803da26039a994826dbcfde99c095ebc9693539de82b15&#45;&gt;_5090b4bd42dac0fe6075f8ff9b6b3a5930561b67224e38a36ae608fd7cdd8b9e</title>
<path fill="none" stroke="black" d="M734.23,-499.95C719.39,-512.68 705.01,-528.54 697,-546.74 683.32,-577.8 674.75,-597.47 697,-623.1 743.05,-676.15 905.66,-696.65 1048.97,-704.19"/>
<polygon fill="black" stroke="black" points="1048.45,-707.66 1058.62,-704.67 1048.81,-700.67 1048.45,-707.66"/>
<text text-anchor="middle" x="732" y="-582.42" font-family="Times,serif" font-size="10.00">wasDerivedFrom</text>
</g>
<!-- _357f00248bdc728725be43338ec69113a99cec9793681d0accd1f777e4dd5fbf -->
<g id="node11" class="node">
<title>_357f00248bdc728725be43338ec69113a99cec9793681d0accd1f777e4dd5fbf</title>
<polygon fill="#cdc673" stroke="#808080" points="685,-56.18 682,-60.18 661,-60.18 658,-56.18 521,-56.18 521,-20.18 685,-20.18 685,-56.18"/>
<text text-anchor="middle" x="603" y="-34.48" font-family="Times,serif" font-size="14.00">ID &#45; prov:EmptyCollection</text>
</g>
</g>
</svg>
