<?xml version="1.0" encoding="UTF-8" standalone="no"?>
<!DOCTYPE svg PUBLIC "-//W3C//DTD SVG 1.1//EN"
 "http://www.w3.org/Graphics/SVG/1.1/DTD/svg11.dtd">
<!-- Generated by graphviz version 7.1.0 (20230121.1956)
 -->
<!-- Title: PROV&#45;O render Pages: 1 -->
<svg width="1705pt" height="812pt"
 viewBox="0.00 0.00 1705.00 812.47" xmlns="http://www.w3.org/2000/svg" xmlns:xlink="http://www.w3.org/1999/xlink">
<g id="graph0" class="graph" transform="scale(1 1) rotate(0) translate(4 808.47)">
<title>PROV&#45;O render</title>
<polygon fill="white" stroke="none" points="-4,4 -4,-808.47 1701,-808.47 1701,4 -4,4"/>
<!-- _1f04d829546c397900d5164d5f2d881a9d7141a66bfedb6c9fbc0aa88bbfc164 -->
<g id="node1" class="node">
<title>_1f04d829546c397900d5164d5f2d881a9d7141a66bfedb6c9fbc0aa88bbfc164</title>
<ellipse fill="#fff68f" stroke="#808080" cx="712" cy="-38.18" rx="219.41" ry="38.37"/>
<text text-anchor="middle" x="712" y="-49.98" font-family="Times,serif" font-size="14.00">ID &#45; kb:file&#45;2352f3d0&#45;d02f&#45;40ba&#45;85a4&#45;b00dd97050c8</text>
<text text-anchor="middle" x="712" y="-18.98" font-family="Times,serif" font-size="14.00">android_7.tar.gz</text>
</g>
<!-- _c1a739983405a7bfa4936ec3a1ea5fbf93592d8df15f9a6b45f2537d7c543d15 -->
<g id="node2" class="node">
<title>_c1a739983405a7bfa4936ec3a1ea5fbf93592d8df15f9a6b45f2537d7c543d15</title>
<ellipse fill="#fff68f" stroke="#808080" cx="1059" cy="-302.55" rx="216.25" ry="38.37"/>
<text text-anchor="middle" x="1059" y="-314.35" font-family="Times,serif" font-size="14.00">ID &#45; kb:file&#45;3af91026&#45;4c09&#45;4047&#45;a914&#45;15e75a711ff0</text>
<text text-anchor="middle" x="1059" y="-283.35" font-family="Times,serif" font-size="14.00">Android7&#45;ImageCreationDocumentation.pdf</text>
</g>
<!-- _1f04d829546c397900d5164d5f2d881a9d7141a66bfedb6c9fbc0aa88bbfc164&#45;&gt;_c1a739983405a7bfa4936ec3a1ea5fbf93592d8df15f9a6b45f2537d7c543d15 -->
<g id="edge1" class="edge">
<title>_1f04d829546c397900d5164d5f2d881a9d7141a66bfedb6c9fbc0aa88bbfc164&#45;&gt;_c1a739983405a7bfa4936ec3a1ea5fbf93592d8df15f9a6b45f2537d7c543d15</title>
<path fill="none" stroke="black" d="M872.71,-64.58C940.77,-78.64 1009.54,-98.37 1032,-123.37 1063.21,-158.11 1067.21,-212.91 1065.11,-252.57"/>
<polygon fill="black" stroke="black" points="1061.63,-252.12 1064.44,-262.33 1068.62,-252.6 1061.63,-252.12"/>
<text text-anchor="middle" x="1087" y="-138.87" font-family="Times,serif" font-size="10.00">wasDerivedFrom</text>
</g>
<!-- _2a4fbbcb7bd477dfe0f7d0497df08f1814dc4799866304fbb2c1d587e028daee -->
<g id="node3" class="node">
<title>_2a4fbbcb7bd477dfe0f7d0497df08f1814dc4799866304fbb2c1d587e028daee</title>
<ellipse fill="#fff68f" stroke="#808080" cx="1200" cy="-642.92" rx="219.82" ry="38.37"/>
<text text-anchor="middle" x="1200" y="-654.72" font-family="Times,serif" font-size="14.00">ID &#45; kb:file&#45;736c63b5&#45;5e15&#45;4a48&#45;b948&#45;13757bae0aae</text>
<text text-anchor="middle" x="1200" y="-623.72" font-family="Times,serif" font-size="14.00">LG GSM_H790 Nexus 5X.ufd</text>
</g>
<!-- _1f04d829546c397900d5164d5f2d881a9d7141a66bfedb6c9fbc0aa88bbfc164&#45;&gt;_2a4fbbcb7bd477dfe0f7d0497df08f1814dc4799866304fbb2c1d587e028daee -->
<g id="edge2" class="edge">
<title>_1f04d829546c397900d5164d5f2d881a9d7141a66bfedb6c9fbc0aa88bbfc164&#45;&gt;_2a4fbbcb7bd477dfe0f7d0497df08f1814dc4799866304fbb2c1d587e028daee</title>
<path fill="none" stroke="black" d="M865.2,-66.04C911.22,-74.56 961.76,-84.38 1008,-94.37 1060.79,-105.77 1075.52,-104.17 1126,-123.37 1251.43,-171.07 1283.98,-186.11 1393,-264.37 1448.26,-304.03 1450.84,-327.3 1504,-369.74 1515.27,-378.73 1524.03,-375.11 1531,-387.74 1552.39,-426.46 1564.63,-553.02 1536,-586.74 1518.68,-607.13 1471.61,-620 1417.98,-628.12"/>
<polygon fill="black" stroke="black" points="1417.71,-624.62 1408.31,-629.51 1418.71,-631.55 1417.71,-624.62"/>
<text text-anchor="middle" x="1539" y="-361.74" font-family="Times,serif" font-size="10.00">wasDerivedFrom</text>
</g>
<!-- _457e8792d4af0b60ec728dc4a5ed79d03fe6e76d0730385fad463089f8a49c0e -->
<g id="node4" class="node">
<title>_457e8792d4af0b60ec728dc4a5ed79d03fe6e76d0730385fad463089f8a49c0e</title>
<ellipse fill="#fff68f" stroke="#808080" cx="1076" cy="-766.29" rx="226.05" ry="38.37"/>
<text text-anchor="middle" x="1076" y="-778.09" font-family="Times,serif" font-size="14.00">ID &#45; kb:image&#45;9c77c0e9&#45;fd0b&#45;4912&#45;afcf&#45;0d1b1b86f4d6</text>
<text text-anchor="middle" x="1076" y="-747.09" font-family="Times,serif" font-size="14.00">blk32_mmcblk0rpmb.bin</text>
</g>
<!-- _1f04d829546c397900d5164d5f2d881a9d7141a66bfedb6c9fbc0aa88bbfc164&#45;&gt;_457e8792d4af0b60ec728dc4a5ed79d03fe6e76d0730385fad463089f8a49c0e -->
<g id="edge3" class="edge">
<title>_1f04d829546c397900d5164d5f2d881a9d7141a66bfedb6c9fbc0aa88bbfc164&#45;&gt;_457e8792d4af0b60ec728dc4a5ed79d03fe6e76d0730385fad463089f8a49c0e</title>
<path fill="none" stroke="black" d="M501.27,-49.22C291.31,-62.13 0,-89.26 0,-140.37 0,-140.37 0,-140.37 0,-643.92 0,-727.81 523.18,-753.72 839.91,-761.72"/>
<polygon fill="black" stroke="black" points="839.49,-765.21 849.58,-761.96 839.67,-758.21 839.49,-765.21"/>
<text text-anchor="middle" x="35" y="-412.24" font-family="Times,serif" font-size="10.00">wasDerivedFrom</text>
</g>
<!-- _ebc267bba83123d50851bec30bc40b11891becea7dea22c9a75002f38bd181f3 -->
<g id="node5" class="node">
<title>_ebc267bba83123d50851bec30bc40b11891becea7dea22c9a75002f38bd181f3</title>
<polygon fill="#cdc673" stroke="#808080" points="1522,-441.74 1519,-445.74 1498,-445.74 1495,-441.74 1132,-441.74 1132,-387.74 1522,-387.74 1522,-441.74"/>
<text text-anchor="middle" x="1327" y="-426.54" font-family="Times,serif" font-size="14.00">ID &#45; kb:provenance&#45;record&#45;1fd441e5&#45;e7c6&#45;4610&#45;aeaa&#45;3530aa37873c</text>
<text text-anchor="middle" x="1327" y="-395.54" font-family="Times,serif" font-size="14.00">Record of blk32_mmcblk0rpmb.bin being hashed</text>
</g>
<!-- _1f04d829546c397900d5164d5f2d881a9d7141a66bfedb6c9fbc0aa88bbfc164&#45;&gt;_ebc267bba83123d50851bec30bc40b11891becea7dea22c9a75002f38bd181f3 -->
<g id="edge4" class="edge">
<title>_1f04d829546c397900d5164d5f2d881a9d7141a66bfedb6c9fbc0aa88bbfc164&#45;&gt;_ebc267bba83123d50851bec30bc40b11891becea7dea22c9a75002f38bd181f3</title>
<path fill="none" stroke="black" d="M862.18,-66.53C888.06,-70.42 914.75,-73.93 940,-76.37 1003.84,-82.54 1457.98,-69.25 1517,-94.37 1632.25,-143.41 1666.7,-282.31 1577,-369.74 1568.61,-377.92 1552.91,-384.6 1533.3,-390.05"/>
<polygon fill="black" stroke="black" points="1532.65,-386.6 1523.84,-392.49 1534.4,-393.38 1532.65,-386.6"/>
<text text-anchor="middle" x="1662" y="-209.37" font-family="Times,serif" font-size="10.00">wasDerivedFrom</text>
</g>
<!-- _1aa3504fd0f5004a0b62e45f40456297227f4299319f47b6ae52f20305601d7f -->
<g id="node6" class="node">
<title>_1aa3504fd0f5004a0b62e45f40456297227f4299319f47b6ae52f20305601d7f</title>
<polygon fill="#cdc673" stroke="#808080" points="969.5,-441.74 966.5,-445.74 945.5,-445.74 942.5,-441.74 574.5,-441.74 574.5,-387.74 969.5,-387.74 969.5,-441.74"/>
<text text-anchor="middle" x="772" y="-426.54" font-family="Times,serif" font-size="14.00">ID &#45; kb:provenance&#45;record&#45;27610dc7&#45;3dc7&#45;4d57&#45;8143&#45;629c72fb6be7</text>
<text text-anchor="middle" x="772" y="-395.54" font-family="Times,serif" font-size="14.00">Record of procdata.zip being hashed</text>
</g>
<!-- _1f04d829546c397900d5164d5f2d881a9d7141a66bfedb6c9fbc0aa88bbfc164&#45;&gt;_1aa3504fd0f5004a0b62e45f40456297227f4299319f47b6ae52f20305601d7f -->
<g id="edge5" class="edge">
<title>_1f04d829546c397900d5164d5f2d881a9d7141a66bfedb6c9fbc0aa88bbfc164&#45;&gt;_1aa3504fd0f5004a0b62e45f40456297227f4299319f47b6ae52f20305601d7f</title>
<path fill="none" stroke="black" d="M656.31,-75.49C640.99,-88.57 626.31,-104.77 618,-123.37 611.47,-137.98 613.7,-143.96 618,-159.37 642.14,-245.84 704.55,-332.21 742.09,-378.71"/>
<polygon fill="black" stroke="black" points="739.26,-380.77 748.29,-386.3 744.68,-376.34 739.26,-380.77"/>
<text text-anchor="middle" x="689" y="-209.37" font-family="Times,serif" font-size="10.00">wasDerivedFrom</text>
</g>
<!-- _a02c2e16e16ca8e40604e0031a59adedf64d57096fdb251d9226c253b8a229a9 -->
<g id="node7" class="node">
<title>_a02c2e16e16ca8e40604e0031a59adedf64d57096fdb251d9226c253b8a229a9</title>
<polygon fill="#cdc673" stroke="#808080" points="1022.5,-159.37 1019.5,-163.37 998.5,-163.37 995.5,-159.37 627.5,-159.37 627.5,-123.37 1022.5,-123.37 1022.5,-159.37"/>
<text text-anchor="middle" x="825" y="-137.67" font-family="Times,serif" font-size="14.00">ID &#45; kb:provenance&#45;record&#45;2dbd4ba1&#45;76b1&#45;4041&#45;a460&#45;8a5922940f79</text>
</g>
<!-- _1f04d829546c397900d5164d5f2d881a9d7141a66bfedb6c9fbc0aa88bbfc164&#45;&gt;_a02c2e16e16ca8e40604e0031a59adedf64d57096fdb251d9226c253b8a229a9 -->
<g id="edge6" class="edge">
<title>_1f04d829546c397900d5164d5f2d881a9d7141a66bfedb6c9fbc0aa88bbfc164&#45;&gt;_a02c2e16e16ca8e40604e0031a59adedf64d57096fdb251d9226c253b8a229a9</title>
<path fill="none" stroke="black" d="M753.44,-76.29C768.11,-89.43 784.25,-103.88 797.48,-115.72"/>
<polygon fill="black" stroke="black" points="794.79,-118.02 804.58,-122.08 799.46,-112.8 794.79,-118.02"/>
<text text-anchor="middle" x="820" y="-97.37" font-family="Times,serif" font-size="10.00">wasDerivedFrom</text>
</g>
<!-- _b5ab4f9e376265609eda39155c81c1c21d11e2e36515c2a87670364c122d98c3 -->
<g id="node8" class="node">
<title>_b5ab4f9e376265609eda39155c81c1c21d11e2e36515c2a87670364c122d98c3</title>
<polygon fill="#cdc673" stroke="#808080" points="500.5,-246.37 497.5,-250.37 476.5,-250.37 473.5,-246.37 113.5,-246.37 113.5,-177.37 500.5,-177.37 500.5,-246.37"/>
<text text-anchor="middle" x="307" y="-231.17" font-family="Times,serif" font-size="14.00">ID &#45; kb:provenance&#45;record&#45;529f9bf1&#45;c9ca&#45;450c&#45;8311&#45;98c8a800fac5</text>
<text text-anchor="middle" x="307" y="-200.17" font-family="Times,serif" font-size="14.00">Record of blk0_mmcblk0.bin being hashed before entry into </text>
<text text-anchor="middle" x="307" y="-185.17" font-family="Times,serif" font-size="14.00">tarball</text>
</g>
<!-- _1f04d829546c397900d5164d5f2d881a9d7141a66bfedb6c9fbc0aa88bbfc164&#45;&gt;_b5ab4f9e376265609eda39155c81c1c21d11e2e36515c2a87670364c122d98c3 -->
<g id="edge7" class="edge">
<title>_1f04d829546c397900d5164d5f2d881a9d7141a66bfedb6c9fbc0aa88bbfc164&#45;&gt;_b5ab4f9e376265609eda39155c81c1c21d11e2e36515c2a87670364c122d98c3</title>
<path fill="none" stroke="black" d="M585.17,-69.91C561.51,-76.99 537.24,-85.18 515,-94.37 463.76,-115.54 409.19,-146.45 368.81,-171.12"/>
<polygon fill="black" stroke="black" points="367.09,-168.06 360.41,-176.29 370.76,-174.03 367.09,-168.06"/>
<text text-anchor="middle" x="550" y="-97.37" font-family="Times,serif" font-size="10.00">wasDerivedFrom</text>
</g>
<!-- _0a56478b124850e46a803da26039a994826dbcfde99c095ebc9693539de82b15 -->
<g id="node10" class="node">
<title>_0a56478b124850e46a803da26039a994826dbcfde99c095ebc9693539de82b15</title>
<polygon fill="#cdc673" stroke="#808080" points="969.5,-557.74 966.5,-561.74 945.5,-561.74 942.5,-557.74 574.5,-557.74 574.5,-488.74 969.5,-488.74 969.5,-557.74"/>
<text text-anchor="middle" x="772" y="-542.54" font-family="Times,serif" font-size="14.00">ID &#45; kb:provenance&#45;record&#45;8c357d9b&#45;13a4&#45;4333&#45;9e11&#45;2194bfdd534b</text>
<text text-anchor="middle" x="772" y="-511.54" font-family="Times,serif" font-size="14.00">Record of phone imaging process being completed, including </text>
<text text-anchor="middle" x="772" y="-496.54" font-family="Times,serif" font-size="14.00">log</text>
</g>
<!-- _1f04d829546c397900d5164d5f2d881a9d7141a66bfedb6c9fbc0aa88bbfc164&#45;&gt;_0a56478b124850e46a803da26039a994826dbcfde99c095ebc9693539de82b15 -->
<g id="edge8" class="edge">
<title>_1f04d829546c397900d5164d5f2d881a9d7141a66bfedb6c9fbc0aa88bbfc164&#45;&gt;_0a56478b124850e46a803da26039a994826dbcfde99c095ebc9693539de82b15</title>
<path fill="none" stroke="black" d="M510.53,-53.59C331.52,-69.2 98,-97.73 98,-140.37 98,-140.37 98,-140.37 98,-415.74 98,-430.05 104.66,-434.49 117,-441.74 190.64,-484.98 400.63,-505.16 563.19,-514.47"/>
<polygon fill="black" stroke="black" points="562.63,-517.94 572.81,-515.01 563.02,-510.95 562.63,-517.94"/>
<text text-anchor="middle" x="133" y="-300.05" font-family="Times,serif" font-size="10.00">wasDerivedFrom</text>
</g>
<!-- _c1a739983405a7bfa4936ec3a1ea5fbf93592d8df15f9a6b45f2537d7c543d15&#45;&gt;_457e8792d4af0b60ec728dc4a5ed79d03fe6e76d0730385fad463089f8a49c0e -->
<g id="edge9" class="edge">
<title>_c1a739983405a7bfa4936ec3a1ea5fbf93592d8df15f9a6b45f2537d7c543d15&#45;&gt;_457e8792d4af0b60ec728dc4a5ed79d03fe6e76d0730385fad463089f8a49c0e</title>
<path fill="none" stroke="black" d="M1075.42,-340.94C1080.89,-355.28 1086.28,-371.99 1089,-387.74 1093.09,-411.38 1093.98,-418.26 1089,-441.74 1087.18,-450.3 1084.44,-451.68 1081,-459.74 1057.06,-515.83 1073.98,-545.54 1029,-586.74 1009.1,-604.97 987.01,-583 971,-604.74 950.87,-632.06 956.31,-650.5 971,-681.1 978.51,-696.74 990.49,-710.39 1003.72,-721.88"/>
<polygon fill="black" stroke="black" points="1001.44,-724.54 1011.39,-728.17 1005.87,-719.12 1001.44,-724.54"/>
<text text-anchor="middle" x="1106" y="-520.74" font-family="Times,serif" font-size="10.00">wasDerivedFrom</text>
</g>
<!-- _c1a739983405a7bfa4936ec3a1ea5fbf93592d8df15f9a6b45f2537d7c543d15&#45;&gt;_ebc267bba83123d50851bec30bc40b11891becea7dea22c9a75002f38bd181f3 -->
<g id="edge10" class="edge">
<title>_c1a739983405a7bfa4936ec3a1ea5fbf93592d8df15f9a6b45f2537d7c543d15&#45;&gt;_ebc267bba83123d50851bec30bc40b11891becea7dea22c9a75002f38bd181f3</title>
<path fill="none" stroke="black" d="M1143.43,-338.26C1178.33,-352.61 1218.45,-369.11 1252.27,-383.01"/>
<polygon fill="black" stroke="black" points="1250.57,-386.1 1261.15,-386.66 1253.23,-379.62 1250.57,-386.1"/>
<text text-anchor="middle" x="1252" y="-361.74" font-family="Times,serif" font-size="10.00">wasDerivedFrom</text>
</g>
<!-- _c1a739983405a7bfa4936ec3a1ea5fbf93592d8df15f9a6b45f2537d7c543d15&#45;&gt;_1aa3504fd0f5004a0b62e45f40456297227f4299319f47b6ae52f20305601d7f -->
<g id="edge11" class="edge">
<title>_c1a739983405a7bfa4936ec3a1ea5fbf93592d8df15f9a6b45f2537d7c543d15&#45;&gt;_1aa3504fd0f5004a0b62e45f40456297227f4299319f47b6ae52f20305601d7f</title>
<path fill="none" stroke="black" d="M971.78,-337.97C955.19,-344.72 938.02,-351.84 922,-358.74 911.22,-363.37 908.88,-365.35 898,-369.74 886.45,-374.39 874.19,-379.03 862.03,-383.45"/>
<polygon fill="black" stroke="black" points="861.05,-380.09 852.82,-386.77 863.42,-386.67 861.05,-380.09"/>
<text text-anchor="middle" x="957" y="-361.74" font-family="Times,serif" font-size="10.00">wasDerivedFrom</text>
</g>
<!-- _d39fd74adc51b4a1f5dbc40716bcb6c4f44db1c4f75fe9dece0d18b9c6a9370b -->
<g id="node9" class="node">
<title>_d39fd74adc51b4a1f5dbc40716bcb6c4f44db1c4f75fe9dece0d18b9c6a9370b</title>
<polygon fill="#cdc673" stroke="#808080" points="517.5,-441.74 514.5,-445.74 493.5,-445.74 490.5,-441.74 126.5,-441.74 126.5,-387.74 517.5,-387.74 517.5,-441.74"/>
<text text-anchor="middle" x="322" y="-426.54" font-family="Times,serif" font-size="14.00">ID &#45; kb:provenance&#45;record&#45;75fb2a26&#45;0b7e&#45;428b&#45;acba&#45;17d114caca39</text>
<text text-anchor="middle" x="322" y="-395.54" font-family="Times,serif" font-size="14.00">Record of blk0_mmcblk0.bin being hashed</text>
</g>
<!-- _c1a739983405a7bfa4936ec3a1ea5fbf93592d8df15f9a6b45f2537d7c543d15&#45;&gt;_d39fd74adc51b4a1f5dbc40716bcb6c4f44db1c4f75fe9dece0d18b9c6a9370b -->
<g id="edge12" class="edge">
<title>_c1a739983405a7bfa4936ec3a1ea5fbf93592d8df15f9a6b45f2537d7c543d15&#45;&gt;_d39fd74adc51b4a1f5dbc40716bcb6c4f44db1c4f75fe9dece0d18b9c6a9370b</title>
<path fill="none" stroke="black" d="M901.93,-329.32C877.52,-333.21 852.59,-337.13 829,-340.74 728.16,-356.15 615.89,-372.4 522.68,-385.65"/>
<polygon fill="black" stroke="black" points="522.32,-382.17 512.91,-387.04 523.31,-389.1 522.32,-382.17"/>
<text text-anchor="middle" x="739" y="-361.74" font-family="Times,serif" font-size="10.00">wasDerivedFrom</text>
</g>
<!-- _c1a739983405a7bfa4936ec3a1ea5fbf93592d8df15f9a6b45f2537d7c543d15&#45;&gt;_0a56478b124850e46a803da26039a994826dbcfde99c095ebc9693539de82b15 -->
<g id="edge13" class="edge">
<title>_c1a739983405a7bfa4936ec3a1ea5fbf93592d8df15f9a6b45f2537d7c543d15&#45;&gt;_0a56478b124850e46a803da26039a994826dbcfde99c095ebc9693539de82b15</title>
<path fill="none" stroke="black" d="M1040.79,-341.19C1022.88,-376.94 995.84,-427.31 979,-441.74 958.73,-459.1 934.29,-472.96 909.42,-483.94"/>
<polygon fill="black" stroke="black" points="908.35,-480.59 900.52,-487.72 911.09,-487.03 908.35,-480.59"/>
<text text-anchor="middle" x="1050" y="-412.24" font-family="Times,serif" font-size="10.00">wasDerivedFrom</text>
</g>
<!-- _2a4fbbcb7bd477dfe0f7d0497df08f1814dc4799866304fbb2c1d587e028daee&#45;&gt;_457e8792d4af0b60ec728dc4a5ed79d03fe6e76d0730385fad463089f8a49c0e -->
<g id="edge14" class="edge">
<title>_2a4fbbcb7bd477dfe0f7d0497df08f1814dc4799866304fbb2c1d587e028daee&#45;&gt;_457e8792d4af0b60ec728dc4a5ed79d03fe6e76d0730385fad463089f8a49c0e</title>
<path fill="none" stroke="black" d="M1162.12,-680.99C1149.5,-693.35 1135.3,-707.25 1122.12,-720.14"/>
<polygon fill="black" stroke="black" points="1119.85,-717.47 1115.15,-726.96 1124.75,-722.47 1119.85,-717.47"/>
<text text-anchor="middle" x="1176" y="-702.1" font-family="Times,serif" font-size="10.00">wasDerivedFrom</text>
</g>
<!-- _ebc267bba83123d50851bec30bc40b11891becea7dea22c9a75002f38bd181f3&#45;&gt;_457e8792d4af0b60ec728dc4a5ed79d03fe6e76d0730385fad463089f8a49c0e -->
<g id="edge15" class="edge">
<title>_ebc267bba83123d50851bec30bc40b11891becea7dea22c9a75002f38bd181f3&#45;&gt;_457e8792d4af0b60ec728dc4a5ed79d03fe6e76d0730385fad463089f8a49c0e</title>
<path fill="none" stroke="black" d="M1385.15,-442.05C1393.07,-447.19 1400.65,-453.09 1407,-459.74 1485.68,-542.13 1537.34,-624.64 1462,-710.1 1439.82,-735.26 1377,-749.21 1308.31,-756.86"/>
<polygon fill="black" stroke="black" points="1308.32,-753.34 1298.75,-757.87 1309.06,-760.3 1308.32,-753.34"/>
<text text-anchor="middle" x="1516.5" y="-578.74" font-family="Times,serif" font-size="10.00">hadMember</text>
</g>
<!-- _ebc267bba83123d50851bec30bc40b11891becea7dea22c9a75002f38bd181f3&#45;&gt;_457e8792d4af0b60ec728dc4a5ed79d03fe6e76d0730385fad463089f8a49c0e -->
<g id="edge16" class="edge">
<title>_ebc267bba83123d50851bec30bc40b11891becea7dea22c9a75002f38bd181f3&#45;&gt;_457e8792d4af0b60ec728dc4a5ed79d03fe6e76d0730385fad463089f8a49c0e</title>
<path fill="none" stroke="black" d="M1338.68,-442.06C1354.32,-476.37 1383.74,-537.77 1415,-586.74 1420.45,-595.28 1425.71,-595.15 1429,-604.74 1440.02,-636.84 1450.03,-654.46 1429,-681.1 1407.46,-708.38 1338.92,-727.78 1267.88,-741.03"/>
<polygon fill="black" stroke="black" points="1267.63,-737.52 1258.42,-742.75 1268.88,-744.41 1267.63,-737.52"/>
<text text-anchor="middle" x="1450" y="-578.74" font-family="Times,serif" font-size="10.00">wasDerivedFrom</text>
</g>
<!-- _ebc267bba83123d50851bec30bc40b11891becea7dea22c9a75002f38bd181f3&#45;&gt;_0a56478b124850e46a803da26039a994826dbcfde99c095ebc9693539de82b15 -->
<g id="edge17" class="edge">
<title>_ebc267bba83123d50851bec30bc40b11891becea7dea22c9a75002f38bd181f3&#45;&gt;_0a56478b124850e46a803da26039a994826dbcfde99c095ebc9693539de82b15</title>
<path fill="none" stroke="black" d="M1189.1,-442.2C1119.94,-455.47 1035.15,-471.74 960.12,-486.14"/>
<polygon fill="black" stroke="black" points="959.77,-482.64 950.61,-487.96 961.09,-489.51 959.77,-482.64"/>
<text text-anchor="middle" x="1117" y="-462.74" font-family="Times,serif" font-size="10.00">wasDerivedFrom</text>
</g>
<!-- _1aa3504fd0f5004a0b62e45f40456297227f4299319f47b6ae52f20305601d7f&#45;&gt;_0a56478b124850e46a803da26039a994826dbcfde99c095ebc9693539de82b15 -->
<g id="edge18" class="edge">
<title>_1aa3504fd0f5004a0b62e45f40456297227f4299319f47b6ae52f20305601d7f&#45;&gt;_0a56478b124850e46a803da26039a994826dbcfde99c095ebc9693539de82b15</title>
<path fill="none" stroke="black" d="M772,-442.06C772,-452.7 772,-465.29 772,-477.3"/>
<polygon fill="black" stroke="black" points="768.5,-477.05 772,-487.05 775.5,-477.05 768.5,-477.05"/>
<text text-anchor="middle" x="807" y="-462.74" font-family="Times,serif" font-size="10.00">wasDerivedFrom</text>
</g>
<!-- _a02c2e16e16ca8e40604e0031a59adedf64d57096fdb251d9226c253b8a229a9&#45;&gt;_c1a739983405a7bfa4936ec3a1ea5fbf93592d8df15f9a6b45f2537d7c543d15 -->
<g id="edge19" class="edge">
<title>_a02c2e16e16ca8e40604e0031a59adedf64d57096fdb251d9226c253b8a229a9&#45;&gt;_c1a739983405a7bfa4936ec3a1ea5fbf93592d8df15f9a6b45f2537d7c543d15</title>
<path fill="none" stroke="black" d="M850.49,-159.71C885.13,-183.28 948.25,-226.21 995.99,-258.69"/>
<polygon fill="black" stroke="black" points="993.84,-261.46 1004.07,-264.19 997.77,-255.67 993.84,-261.46"/>
<text text-anchor="middle" x="1000.5" y="-209.37" font-family="Times,serif" font-size="10.00">hadMember</text>
</g>
<!-- _a02c2e16e16ca8e40604e0031a59adedf64d57096fdb251d9226c253b8a229a9&#45;&gt;_457e8792d4af0b60ec728dc4a5ed79d03fe6e76d0730385fad463089f8a49c0e -->
<g id="edge20" class="edge">
<title>_a02c2e16e16ca8e40604e0031a59adedf64d57096fdb251d9226c253b8a229a9&#45;&gt;_457e8792d4af0b60ec728dc4a5ed79d03fe6e76d0730385fad463089f8a49c0e</title>
<path fill="none" stroke="black" d="M1022.6,-159.82C1080.17,-165.57 1135.07,-171.89 1163,-177.37 1356.11,-215.25 1588,-104.76 1588,-301.55 1588,-301.55 1588,-301.55 1588,-643.92 1588,-707.24 1437.88,-737.57 1300.21,-752.07"/>
<polygon fill="black" stroke="black" points="1300.15,-748.56 1290.56,-753.06 1300.87,-755.52 1300.15,-748.56"/>
<text text-anchor="middle" x="1623" y="-462.74" font-family="Times,serif" font-size="10.00">wasDerivedFrom</text>
</g>
<!-- _a02c2e16e16ca8e40604e0031a59adedf64d57096fdb251d9226c253b8a229a9&#45;&gt;_ebc267bba83123d50851bec30bc40b11891becea7dea22c9a75002f38bd181f3 -->
<g id="edge21" class="edge">
<title>_a02c2e16e16ca8e40604e0031a59adedf64d57096fdb251d9226c253b8a229a9&#45;&gt;_ebc267bba83123d50851bec30bc40b11891becea7dea22c9a75002f38bd181f3</title>
<path fill="none" stroke="black" d="M945.19,-159.85C1065.04,-179.72 1237.75,-215.82 1284,-264.37 1312.8,-294.6 1322.5,-342.87 1325.66,-376.31"/>
<polygon fill="black" stroke="black" points="1322.14,-376.26 1326.41,-385.96 1329.12,-375.72 1322.14,-376.26"/>
<text text-anchor="middle" x="1354" y="-300.05" font-family="Times,serif" font-size="10.00">wasDerivedFrom</text>
</g>
<!-- _a02c2e16e16ca8e40604e0031a59adedf64d57096fdb251d9226c253b8a229a9&#45;&gt;_1aa3504fd0f5004a0b62e45f40456297227f4299319f47b6ae52f20305601d7f -->
<g id="edge22" class="edge">
<title>_a02c2e16e16ca8e40604e0031a59adedf64d57096fdb251d9226c253b8a229a9&#45;&gt;_1aa3504fd0f5004a0b62e45f40456297227f4299319f47b6ae52f20305601d7f</title>
<path fill="none" stroke="black" d="M813.15,-159.56C798.25,-182.32 773.47,-224.27 764,-264.37 755.16,-301.79 759.23,-345.9 764.22,-376.44"/>
<polygon fill="black" stroke="black" points="760.72,-376.7 765.9,-385.94 767.61,-375.49 760.72,-376.7"/>
<text text-anchor="middle" x="799" y="-300.05" font-family="Times,serif" font-size="10.00">wasDerivedFrom</text>
</g>
<!-- _a02c2e16e16ca8e40604e0031a59adedf64d57096fdb251d9226c253b8a229a9&#45;&gt;_d39fd74adc51b4a1f5dbc40716bcb6c4f44db1c4f75fe9dece0d18b9c6a9370b -->
<g id="edge23" class="edge">
<title>_a02c2e16e16ca8e40604e0031a59adedf64d57096fdb251d9226c253b8a229a9&#45;&gt;_d39fd74adc51b4a1f5dbc40716bcb6c4f44db1c4f75fe9dece0d18b9c6a9370b</title>
<path fill="none" stroke="black" d="M648.91,-159.86C618.2,-164.66 591.48,-170.48 577,-177.37 575.34,-178.16 428.15,-314.99 358.18,-380.07"/>
<polygon fill="black" stroke="black" points="356.09,-377.24 351.15,-386.61 360.86,-382.36 356.09,-377.24"/>
<text text-anchor="middle" x="518" y="-300.05" font-family="Times,serif" font-size="10.00">wasDerivedFrom</text>
</g>
<!-- _a02c2e16e16ca8e40604e0031a59adedf64d57096fdb251d9226c253b8a229a9&#45;&gt;_0a56478b124850e46a803da26039a994826dbcfde99c095ebc9693539de82b15 -->
<g id="edge24" class="edge">
<title>_a02c2e16e16ca8e40604e0031a59adedf64d57096fdb251d9226c253b8a229a9&#45;&gt;_0a56478b124850e46a803da26039a994826dbcfde99c095ebc9693539de82b15</title>
<path fill="none" stroke="black" d="M793.13,-159.69C734,-193.95 609.32,-276.78 565,-387.74 556.1,-410.02 551.45,-421.93 565,-441.74 576.62,-458.72 592.39,-472.12 610.07,-482.7"/>
<polygon fill="black" stroke="black" points="608.32,-485.73 618.76,-487.55 611.74,-479.61 608.32,-485.73"/>
<text text-anchor="middle" x="613" y="-361.74" font-family="Times,serif" font-size="10.00">wasDerivedFrom</text>
</g>
<!-- _b5ab4f9e376265609eda39155c81c1c21d11e2e36515c2a87670364c122d98c3&#45;&gt;_d39fd74adc51b4a1f5dbc40716bcb6c4f44db1c4f75fe9dece0d18b9c6a9370b -->
<g id="edge25" class="edge">
<title>_b5ab4f9e376265609eda39155c81c1c21d11e2e36515c2a87670364c122d98c3&#45;&gt;_d39fd74adc51b4a1f5dbc40716bcb6c4f44db1c4f75fe9dece0d18b9c6a9370b</title>
<path fill="none" stroke="black" d="M309.51,-246.49C312.18,-282.26 316.4,-338.74 319.18,-376.01"/>
<polygon fill="black" stroke="black" points="315.68,-376.16 319.92,-385.88 322.67,-375.64 315.68,-376.16"/>
<text text-anchor="middle" x="352" y="-300.05" font-family="Times,serif" font-size="10.00">wasDerivedFrom</text>
</g>
<!-- _d39fd74adc51b4a1f5dbc40716bcb6c4f44db1c4f75fe9dece0d18b9c6a9370b&#45;&gt;_0a56478b124850e46a803da26039a994826dbcfde99c095ebc9693539de82b15 -->
<g id="edge26" class="edge">
<title>_d39fd74adc51b4a1f5dbc40716bcb6c4f44db1c4f75fe9dece0d18b9c6a9370b&#45;&gt;_0a56478b124850e46a803da26039a994826dbcfde99c095ebc9693539de82b15</title>
<path fill="none" stroke="black" d="M381.01,-442.1C405.65,-452.26 434.81,-463.23 462,-470.74 494.39,-479.68 529.13,-487.3 563.22,-493.72"/>
<polygon fill="black" stroke="black" points="562.31,-497.11 572.78,-495.49 563.58,-490.23 562.31,-497.11"/>
<text text-anchor="middle" x="497" y="-462.74" font-family="Times,serif" font-size="10.00">wasDerivedFrom</text>
</g>
<!-- _0a56478b124850e46a803da26039a994826dbcfde99c095ebc9693539de82b15&#45;&gt;_2a4fbbcb7bd477dfe0f7d0497df08f1814dc4799866304fbb2c1d587e028daee -->
<g id="edge27" class="edge">
<title>_0a56478b124850e46a803da26039a994826dbcfde99c095ebc9693539de82b15&#45;&gt;_2a4fbbcb7bd477dfe0f7d0497df08f1814dc4799866304fbb2c1d587e028daee</title>
<path fill="none" stroke="black" d="M895.51,-558.2C951.06,-573.47 1016.6,-591.49 1072.61,-606.89"/>
<polygon fill="black" stroke="black" points="1071.64,-610.26 1082.21,-609.53 1073.5,-603.51 1071.64,-610.26"/>
<text text-anchor="middle" x="1022.5" y="-578.74" font-family="Times,serif" font-size="10.00">hadMember</text>
</g>
<!-- _0a56478b124850e46a803da26039a994826dbcfde99c095ebc9693539de82b15&#45;&gt;_457e8792d4af0b60ec728dc4a5ed79d03fe6e76d0730385fad463089f8a49c0e -->
<g id="edge28" class="edge">
<title>_0a56478b124850e46a803da26039a994826dbcfde99c095ebc9693539de82b15&#45;&gt;_457e8792d4af0b60ec728dc4a5ed79d03fe6e76d0730385fad463089f8a49c0e</title>
<path fill="none" stroke="black" d="M804.18,-557.96C816.88,-571.95 831.21,-588.65 843,-604.74 866.42,-636.69 860.87,-653.19 889,-681.1 908.32,-700.28 932.79,-715.51 957.6,-727.44"/>
<polygon fill="black" stroke="black" points="955.94,-730.53 966.49,-731.55 958.88,-724.18 955.94,-730.53"/>
<text text-anchor="middle" x="913.5" y="-640.42" font-family="Times,serif" font-size="10.00">hadMember</text>
</g>
<!-- _0a56478b124850e46a803da26039a994826dbcfde99c095ebc9693539de82b15&#45;&gt;_457e8792d4af0b60ec728dc4a5ed79d03fe6e76d0730385fad463089f8a49c0e -->
<g id="edge29" class="edge">
<title>_0a56478b124850e46a803da26039a994826dbcfde99c095ebc9693539de82b15&#45;&gt;_457e8792d4af0b60ec728dc4a5ed79d03fe6e76d0730385fad463089f8a49c0e</title>
<path fill="none" stroke="black" d="M760.26,-557.96C750.55,-592.52 742.24,-646.02 769,-681.1 786.87,-704.53 843.1,-723.04 902.64,-736.67"/>
<polygon fill="black" stroke="black" points="901.79,-740.07 912.31,-738.83 903.31,-733.24 901.79,-740.07"/>
<text text-anchor="middle" x="804" y="-640.42" font-family="Times,serif" font-size="10.00">wasDerivedFrom</text>
</g>
<!-- _357f00248bdc728725be43338ec69113a99cec9793681d0accd1f777e4dd5fbf -->
<g id="node11" class="node">
<title>_357f00248bdc728725be43338ec69113a99cec9793681d0accd1f777e4dd5fbf</title>
<polygon fill="#cdc673" stroke="#808080" points="1113,-56.18 1110,-60.18 1089,-60.18 1086,-56.18 949,-56.18 949,-20.18 1113,-20.18 1113,-56.18"/>
<text text-anchor="middle" x="1031" y="-34.48" font-family="Times,serif" font-size="14.00">ID &#45; prov:EmptyCollection</text>
</g>
</g>
</svg>
