<?xml version="1.0" encoding="UTF-8" standalone="no"?>
<!DOCTYPE svg PUBLIC "-//W3C//DTD SVG 1.1//EN"
 "http://www.w3.org/Graphics/SVG/1.1/DTD/svg11.dtd">
<!-- Generated by graphviz version 7.1.0 (20230121.1956)
 -->
<!-- Title: PROV&#45;O render Pages: 1 -->
<svg width="1871pt" height="855pt"
 viewBox="0.00 0.00 1870.50 855.47" xmlns="http://www.w3.org/2000/svg" xmlns:xlink="http://www.w3.org/1999/xlink">
<g id="graph0" class="graph" transform="scale(1 1) rotate(0) translate(4 851.47)">
<title>PROV&#45;O render</title>
<polygon fill="white" stroke="none" points="-4,4 -4,-851.47 1866.5,-851.47 1866.5,4 -4,4"/>
<!-- _1f04d829546c397900d5164d5f2d881a9d7141a66bfedb6c9fbc0aa88bbfc164 -->
<g id="node1" class="node">
<title>_1f04d829546c397900d5164d5f2d881a9d7141a66bfedb6c9fbc0aa88bbfc164</title>
<ellipse fill="#fff68f" stroke="#808080" cx="418" cy="-38.18" rx="219.41" ry="38.37"/>
<text text-anchor="middle" x="418" y="-49.98" font-family="Times,serif" font-size="14.00">ID &#45; kb:file&#45;2352f3d0&#45;d02f&#45;40ba&#45;85a4&#45;b00dd97050c8</text>
<text text-anchor="middle" x="418" y="-18.98" font-family="Times,serif" font-size="14.00">android_7.tar.gz</text>
</g>
<!-- _c1a739983405a7bfa4936ec3a1ea5fbf93592d8df15f9a6b45f2537d7c543d15 -->
<g id="node2" class="node">
<title>_c1a739983405a7bfa4936ec3a1ea5fbf93592d8df15f9a6b45f2537d7c543d15</title>
<ellipse fill="#fff68f" stroke="#808080" cx="1096" cy="-244.55" rx="216.25" ry="38.37"/>
<text text-anchor="middle" x="1096" y="-256.35" font-family="Times,serif" font-size="14.00">ID &#45; kb:file&#45;3af91026&#45;4c09&#45;4047&#45;a914&#45;15e75a711ff0</text>
<text text-anchor="middle" x="1096" y="-225.35" font-family="Times,serif" font-size="14.00">Android7&#45;ImageCreationDocumentation.pdf</text>
</g>
<!-- _1f04d829546c397900d5164d5f2d881a9d7141a66bfedb6c9fbc0aa88bbfc164&#45;&gt;_c1a739983405a7bfa4936ec3a1ea5fbf93592d8df15f9a6b45f2537d7c543d15 -->
<g id="edge1" class="edge">
<title>_1f04d829546c397900d5164d5f2d881a9d7141a66bfedb6c9fbc0aa88bbfc164&#45;&gt;_c1a739983405a7bfa4936ec3a1ea5fbf93592d8df15f9a6b45f2537d7c543d15</title>
<path fill="none" stroke="black" d="M574.9,-65.39C598.7,-69.19 622.99,-72.96 646,-76.37 802.57,-99.55 861.03,-45.82 999,-123.37 1029.05,-140.26 1053.39,-170.5 1070.16,-196.42"/>
<polygon fill="black" stroke="black" points="1067.15,-198.2 1075.42,-204.82 1073.08,-194.49 1067.15,-198.2"/>
<text text-anchor="middle" x="1076" y="-138.87" font-family="Times,serif" font-size="10.00">wasDerivedFrom</text>
</g>
<!-- _2a4fbbcb7bd477dfe0f7d0497df08f1814dc4799866304fbb2c1d587e028daee -->
<g id="node3" class="node">
<title>_2a4fbbcb7bd477dfe0f7d0497df08f1814dc4799866304fbb2c1d587e028daee</title>
<ellipse fill="#fff68f" stroke="#808080" cx="535" cy="-584.92" rx="219.82" ry="38.37"/>
<text text-anchor="middle" x="535" y="-596.72" font-family="Times,serif" font-size="14.00">ID &#45; kb:file&#45;736c63b5&#45;5e15&#45;4a48&#45;b948&#45;13757bae0aae</text>
<text text-anchor="middle" x="535" y="-565.72" font-family="Times,serif" font-size="14.00">LG GSM_H790 Nexus 5X.ufd</text>
</g>
<!-- _1f04d829546c397900d5164d5f2d881a9d7141a66bfedb6c9fbc0aa88bbfc164&#45;&gt;_2a4fbbcb7bd477dfe0f7d0497df08f1814dc4799866304fbb2c1d587e028daee -->
<g id="edge2" class="edge">
<title>_1f04d829546c397900d5164d5f2d881a9d7141a66bfedb6c9fbc0aa88bbfc164&#45;&gt;_2a4fbbcb7bd477dfe0f7d0497df08f1814dc4799866304fbb2c1d587e028daee</title>
<path fill="none" stroke="black" d="M244.67,-62.08C163.76,-77.79 85,-102.75 85,-140.37 85,-140.37 85,-140.37 85,-466.24 85,-520.46 208.83,-550.18 326.58,-566.18"/>
<polygon fill="black" stroke="black" points="326.08,-569.64 336.45,-567.49 327,-562.7 326.08,-569.64"/>
<text text-anchor="middle" x="120" y="-303.74" font-family="Times,serif" font-size="10.00">wasDerivedFrom</text>
</g>
<!-- _5090b4bd42dac0fe6075f8ff9b6b3a5930561b67224e38a36ae608fd7cdd8b9e -->
<g id="node4" class="node">
<title>_5090b4bd42dac0fe6075f8ff9b6b3a5930561b67224e38a36ae608fd7cdd8b9e</title>
<ellipse fill="#fff68f" stroke="#808080" cx="1107" cy="-809.29" rx="230.53" ry="38.37"/>
<text text-anchor="middle" x="1107" y="-821.09" font-family="Times,serif" font-size="14.00">ID &#45; kb:image&#45;a3c3e13d&#45;98ef&#45;4901&#45;b984&#45;81c10142d90e</text>
<text text-anchor="middle" x="1107" y="-790.09" font-family="Times,serif" font-size="14.00">blk0_mmcblk0.bin, as generated by imaging process</text>
</g>
<!-- _1f04d829546c397900d5164d5f2d881a9d7141a66bfedb6c9fbc0aa88bbfc164&#45;&gt;_5090b4bd42dac0fe6075f8ff9b6b3a5930561b67224e38a36ae608fd7cdd8b9e -->
<g id="edge3" class="edge">
<title>_1f04d829546c397900d5164d5f2d881a9d7141a66bfedb6c9fbc0aa88bbfc164&#45;&gt;_5090b4bd42dac0fe6075f8ff9b6b3a5930561b67224e38a36ae608fd7cdd8b9e</title>
<path fill="none" stroke="black" d="M215.12,-53.17C108.62,-66.31 0,-91.65 0,-140.37 0,-140.37 0,-140.37 0,-698.1 0,-784.35 539,-803.88 864.79,-807.81"/>
<polygon fill="black" stroke="black" points="864.73,-811.31 874.77,-807.93 864.81,-804.31 864.73,-811.31"/>
<text text-anchor="middle" x="35" y="-404.74" font-family="Times,serif" font-size="10.00">wasDerivedFrom</text>
</g>
<!-- _ebc267bba83123d50851bec30bc40b11891becea7dea22c9a75002f38bd181f3 -->
<g id="node5" class="node">
<title>_ebc267bba83123d50851bec30bc40b11891becea7dea22c9a75002f38bd181f3</title>
<polygon fill="#cdc673" stroke="#808080" points="602,-383.74 599,-387.74 578,-387.74 575,-383.74 212,-383.74 212,-329.74 602,-329.74 602,-383.74"/>
<text text-anchor="middle" x="407" y="-368.54" font-family="Times,serif" font-size="14.00">ID &#45; kb:provenance&#45;record&#45;1fd441e5&#45;e7c6&#45;4610&#45;aeaa&#45;3530aa37873c</text>
<text text-anchor="middle" x="407" y="-337.54" font-family="Times,serif" font-size="14.00">Record of blk32_mmcblk0rpmb.bin being hashed</text>
</g>
<!-- _1f04d829546c397900d5164d5f2d881a9d7141a66bfedb6c9fbc0aa88bbfc164&#45;&gt;_ebc267bba83123d50851bec30bc40b11891becea7dea22c9a75002f38bd181f3 -->
<g id="edge4" class="edge">
<title>_1f04d829546c397900d5164d5f2d881a9d7141a66bfedb6c9fbc0aa88bbfc164&#45;&gt;_ebc267bba83123d50851bec30bc40b11891becea7dea22c9a75002f38bd181f3</title>
<path fill="none" stroke="black" d="M359.34,-75.55C326.07,-99.82 287.49,-135.01 269,-177.37 260.51,-196.81 212.51,-215.65 293,-311.74 296.35,-315.73 300.1,-319.37 304.16,-322.67"/>
<polygon fill="black" stroke="black" points="302.08,-325.49 312.24,-328.51 306.18,-319.81 302.08,-325.49"/>
<text text-anchor="middle" x="304" y="-180.37" font-family="Times,serif" font-size="10.00">wasDerivedFrom</text>
</g>
<!-- _1aa3504fd0f5004a0b62e45f40456297227f4299319f47b6ae52f20305601d7f -->
<g id="node6" class="node">
<title>_1aa3504fd0f5004a0b62e45f40456297227f4299319f47b6ae52f20305601d7f</title>
<polygon fill="#cdc673" stroke="#808080" points="1015.5,-383.74 1012.5,-387.74 991.5,-387.74 988.5,-383.74 620.5,-383.74 620.5,-329.74 1015.5,-329.74 1015.5,-383.74"/>
<text text-anchor="middle" x="818" y="-368.54" font-family="Times,serif" font-size="14.00">ID &#45; kb:provenance&#45;record&#45;27610dc7&#45;3dc7&#45;4d57&#45;8143&#45;629c72fb6be7</text>
<text text-anchor="middle" x="818" y="-337.54" font-family="Times,serif" font-size="14.00">Record of procdata.zip being hashed</text>
</g>
<!-- _1f04d829546c397900d5164d5f2d881a9d7141a66bfedb6c9fbc0aa88bbfc164&#45;&gt;_1aa3504fd0f5004a0b62e45f40456297227f4299319f47b6ae52f20305601d7f -->
<g id="edge5" class="edge">
<title>_1f04d829546c397900d5164d5f2d881a9d7141a66bfedb6c9fbc0aa88bbfc164&#45;&gt;_1aa3504fd0f5004a0b62e45f40456297227f4299319f47b6ae52f20305601d7f</title>
<path fill="none" stroke="black" d="M426.06,-76.66C439.63,-130.49 472.24,-229.12 538,-282.74 560.7,-301.24 587.58,-315.11 615.57,-325.48"/>
<polygon fill="black" stroke="black" points="614.32,-328.75 624.91,-328.79 616.65,-322.15 614.32,-328.75"/>
<text text-anchor="middle" x="500" y="-180.37" font-family="Times,serif" font-size="10.00">wasDerivedFrom</text>
</g>
<!-- _a02c2e16e16ca8e40604e0031a59adedf64d57096fdb251d9226c253b8a229a9 -->
<g id="node7" class="node">
<title>_a02c2e16e16ca8e40604e0031a59adedf64d57096fdb251d9226c253b8a229a9</title>
<polygon fill="#cdc673" stroke="#808080" points="989.5,-159.37 986.5,-163.37 965.5,-163.37 962.5,-159.37 594.5,-159.37 594.5,-123.37 989.5,-123.37 989.5,-159.37"/>
<text text-anchor="middle" x="792" y="-137.67" font-family="Times,serif" font-size="14.00">ID &#45; kb:provenance&#45;record&#45;2dbd4ba1&#45;76b1&#45;4041&#45;a460&#45;8a5922940f79</text>
</g>
<!-- _1f04d829546c397900d5164d5f2d881a9d7141a66bfedb6c9fbc0aa88bbfc164&#45;&gt;_a02c2e16e16ca8e40604e0031a59adedf64d57096fdb251d9226c253b8a229a9 -->
<g id="edge6" class="edge">
<title>_1f04d829546c397900d5164d5f2d881a9d7141a66bfedb6c9fbc0aa88bbfc164&#45;&gt;_a02c2e16e16ca8e40604e0031a59adedf64d57096fdb251d9226c253b8a229a9</title>
<path fill="none" stroke="black" d="M535.57,-70.99C594.75,-87 664.75,-105.94 716.65,-119.98"/>
<polygon fill="black" stroke="black" points="715.41,-123.27 725.98,-122.51 717.24,-116.52 715.41,-123.27"/>
<text text-anchor="middle" x="695" y="-97.37" font-family="Times,serif" font-size="10.00">wasDerivedFrom</text>
</g>
<!-- _b5ab4f9e376265609eda39155c81c1c21d11e2e36515c2a87670364c122d98c3 -->
<g id="node8" class="node">
<title>_b5ab4f9e376265609eda39155c81c1c21d11e2e36515c2a87670364c122d98c3</title>
<polygon fill="#cdc673" stroke="#808080" points="1862.5,-279.05 1859.5,-283.05 1838.5,-283.05 1835.5,-279.05 1475.5,-279.05 1475.5,-210.05 1862.5,-210.05 1862.5,-279.05"/>
<text text-anchor="middle" x="1669" y="-263.85" font-family="Times,serif" font-size="14.00">ID &#45; kb:provenance&#45;record&#45;529f9bf1&#45;c9ca&#45;450c&#45;8311&#45;98c8a800fac5</text>
<text text-anchor="middle" x="1669" y="-232.85" font-family="Times,serif" font-size="14.00">Record of blk0_mmcblk0.bin being hashed before entry into </text>
<text text-anchor="middle" x="1669" y="-217.85" font-family="Times,serif" font-size="14.00">tarball</text>
</g>
<!-- _1f04d829546c397900d5164d5f2d881a9d7141a66bfedb6c9fbc0aa88bbfc164&#45;&gt;_b5ab4f9e376265609eda39155c81c1c21d11e2e36515c2a87670364c122d98c3 -->
<g id="edge7" class="edge">
<title>_1f04d829546c397900d5164d5f2d881a9d7141a66bfedb6c9fbc0aa88bbfc164&#45;&gt;_b5ab4f9e376265609eda39155c81c1c21d11e2e36515c2a87670364c122d98c3</title>
<path fill="none" stroke="black" d="M570.08,-66.25C595.38,-70.1 621.38,-73.66 646,-76.37 785.39,-91.67 821.81,-77.36 961,-94.37 1160.9,-118.8 1388.1,-171.14 1530.01,-206.85"/>
<polygon fill="black" stroke="black" points="1528.9,-210.18 1539.46,-209.24 1530.62,-203.39 1528.9,-210.18"/>
<text text-anchor="middle" x="1362" y="-138.87" font-family="Times,serif" font-size="10.00">wasDerivedFrom</text>
</g>
<!-- _0a56478b124850e46a803da26039a994826dbcfde99c095ebc9693539de82b15 -->
<g id="node10" class="node">
<title>_0a56478b124850e46a803da26039a994826dbcfde99c095ebc9693539de82b15</title>
<polygon fill="#cdc673" stroke="#808080" points="1006.5,-499.74 1003.5,-503.74 982.5,-503.74 979.5,-499.74 611.5,-499.74 611.5,-430.74 1006.5,-430.74 1006.5,-499.74"/>
<text text-anchor="middle" x="809" y="-484.54" font-family="Times,serif" font-size="14.00">ID &#45; kb:provenance&#45;record&#45;8c357d9b&#45;13a4&#45;4333&#45;9e11&#45;2194bfdd534b</text>
<text text-anchor="middle" x="809" y="-453.54" font-family="Times,serif" font-size="14.00">Record of phone imaging process being completed, including </text>
<text text-anchor="middle" x="809" y="-438.54" font-family="Times,serif" font-size="14.00">log</text>
</g>
<!-- _1f04d829546c397900d5164d5f2d881a9d7141a66bfedb6c9fbc0aa88bbfc164&#45;&gt;_0a56478b124850e46a803da26039a994826dbcfde99c095ebc9693539de82b15 -->
<g id="edge8" class="edge">
<title>_1f04d829546c397900d5164d5f2d881a9d7141a66bfedb6c9fbc0aa88bbfc164&#45;&gt;_0a56478b124850e46a803da26039a994826dbcfde99c095ebc9693539de82b15</title>
<path fill="none" stroke="black" d="M326.38,-73.36C269.95,-99.98 202.87,-143.17 173,-206.37 156.1,-242.13 165.51,-351.19 188,-383.74 203.05,-405.5 214.72,-404.93 240,-412.74 305.45,-432.94 465.9,-446.34 599.79,-454.39"/>
<polygon fill="black" stroke="black" points="599.32,-457.87 609.51,-454.96 599.73,-450.88 599.32,-457.87"/>
<text text-anchor="middle" x="208" y="-242.05" font-family="Times,serif" font-size="10.00">wasDerivedFrom</text>
</g>
<!-- _c1a739983405a7bfa4936ec3a1ea5fbf93592d8df15f9a6b45f2537d7c543d15&#45;&gt;_5090b4bd42dac0fe6075f8ff9b6b3a5930561b67224e38a36ae608fd7cdd8b9e -->
<g id="edge9" class="edge">
<title>_c1a739983405a7bfa4936ec3a1ea5fbf93592d8df15f9a6b45f2537d7c543d15&#45;&gt;_5090b4bd42dac0fe6075f8ff9b6b3a5930561b67224e38a36ae608fd7cdd8b9e</title>
<path fill="none" stroke="black" d="M1124.58,-282.65C1137.53,-303.07 1150,-329.53 1150,-355.74 1150,-355.74 1150,-355.74 1150,-698.1 1150,-719.4 1142.94,-741.53 1134.54,-760.32"/>
<polygon fill="black" stroke="black" points="1131.4,-758.77 1130.28,-769.3 1137.73,-761.77 1131.4,-758.77"/>
<text text-anchor="middle" x="1185" y="-520.74" font-family="Times,serif" font-size="10.00">wasDerivedFrom</text>
</g>
<!-- _c1a739983405a7bfa4936ec3a1ea5fbf93592d8df15f9a6b45f2537d7c543d15&#45;&gt;_ebc267bba83123d50851bec30bc40b11891becea7dea22c9a75002f38bd181f3 -->
<g id="edge10" class="edge">
<title>_c1a739983405a7bfa4936ec3a1ea5fbf93592d8df15f9a6b45f2537d7c543d15&#45;&gt;_ebc267bba83123d50851bec30bc40b11891becea7dea22c9a75002f38bd181f3</title>
<path fill="none" stroke="black" d="M938.26,-271.11C914.06,-275.01 889.36,-278.99 866,-282.74 773.45,-297.58 670.39,-313.98 585.41,-327.47"/>
<polygon fill="black" stroke="black" points="584.9,-324.01 575.57,-329.03 585.99,-330.92 584.9,-324.01"/>
<text text-anchor="middle" x="787" y="-303.74" font-family="Times,serif" font-size="10.00">wasDerivedFrom</text>
</g>
<!-- _c1a739983405a7bfa4936ec3a1ea5fbf93592d8df15f9a6b45f2537d7c543d15&#45;&gt;_1aa3504fd0f5004a0b62e45f40456297227f4299319f47b6ae52f20305601d7f -->
<g id="edge11" class="edge">
<title>_c1a739983405a7bfa4936ec3a1ea5fbf93592d8df15f9a6b45f2537d7c543d15&#45;&gt;_1aa3504fd0f5004a0b62e45f40456297227f4299319f47b6ae52f20305601d7f</title>
<path fill="none" stroke="black" d="M1010.43,-280.07C984.9,-290.31 956.83,-301.52 931,-311.74 919.91,-316.12 908.19,-320.72 896.67,-325.22"/>
<polygon fill="black" stroke="black" points="895.62,-321.87 887.57,-328.77 898.16,-328.4 895.62,-321.87"/>
<text text-anchor="middle" x="993" y="-303.74" font-family="Times,serif" font-size="10.00">wasDerivedFrom</text>
</g>
<!-- _d39fd74adc51b4a1f5dbc40716bcb6c4f44db1c4f75fe9dece0d18b9c6a9370b -->
<g id="node9" class="node">
<title>_d39fd74adc51b4a1f5dbc40716bcb6c4f44db1c4f75fe9dece0d18b9c6a9370b</title>
<polygon fill="#cdc673" stroke="#808080" points="1569.5,-383.74 1566.5,-387.74 1545.5,-387.74 1542.5,-383.74 1178.5,-383.74 1178.5,-329.74 1569.5,-329.74 1569.5,-383.74"/>
<text text-anchor="middle" x="1374" y="-368.54" font-family="Times,serif" font-size="14.00">ID &#45; kb:provenance&#45;record&#45;75fb2a26&#45;0b7e&#45;428b&#45;acba&#45;17d114caca39</text>
<text text-anchor="middle" x="1374" y="-337.54" font-family="Times,serif" font-size="14.00">Record of blk0_mmcblk0.bin being hashed</text>
</g>
<!-- _c1a739983405a7bfa4936ec3a1ea5fbf93592d8df15f9a6b45f2537d7c543d15&#45;&gt;_d39fd74adc51b4a1f5dbc40716bcb6c4f44db1c4f75fe9dece0d18b9c6a9370b -->
<g id="edge12" class="edge">
<title>_c1a739983405a7bfa4936ec3a1ea5fbf93592d8df15f9a6b45f2537d7c543d15&#45;&gt;_d39fd74adc51b4a1f5dbc40716bcb6c4f44db1c4f75fe9dece0d18b9c6a9370b</title>
<path fill="none" stroke="black" d="M1183.2,-280.11C1219.72,-294.59 1261.81,-311.27 1297.15,-325.28"/>
<polygon fill="black" stroke="black" points="1295.41,-328.35 1306,-328.78 1297.99,-321.85 1295.41,-328.35"/>
<text text-anchor="middle" x="1294" y="-303.74" font-family="Times,serif" font-size="10.00">wasDerivedFrom</text>
</g>
<!-- _c1a739983405a7bfa4936ec3a1ea5fbf93592d8df15f9a6b45f2537d7c543d15&#45;&gt;_0a56478b124850e46a803da26039a994826dbcfde99c095ebc9693539de82b15 -->
<g id="edge13" class="edge">
<title>_c1a739983405a7bfa4936ec3a1ea5fbf93592d8df15f9a6b45f2537d7c543d15&#45;&gt;_0a56478b124850e46a803da26039a994826dbcfde99c095ebc9693539de82b15</title>
<path fill="none" stroke="black" d="M1085.12,-283.18C1074.42,-314.04 1055.24,-356.86 1025,-383.74 1005.37,-401.18 981.61,-414.97 957.12,-425.83"/>
<polygon fill="black" stroke="black" points="955.82,-422.58 947.99,-429.72 958.56,-429.03 955.82,-422.58"/>
<text text-anchor="middle" x="1099" y="-354.24" font-family="Times,serif" font-size="10.00">wasDerivedFrom</text>
</g>
<!-- _2a4fbbcb7bd477dfe0f7d0497df08f1814dc4799866304fbb2c1d587e028daee&#45;&gt;_5090b4bd42dac0fe6075f8ff9b6b3a5930561b67224e38a36ae608fd7cdd8b9e -->
<g id="edge14" class="edge">
<title>_2a4fbbcb7bd477dfe0f7d0497df08f1814dc4799866304fbb2c1d587e028daee&#45;&gt;_5090b4bd42dac0fe6075f8ff9b6b3a5930561b67224e38a36ae608fd7cdd8b9e</title>
<path fill="none" stroke="black" d="M521.32,-623.67C512.84,-654.39 507.53,-696.96 531,-724.1 575,-775 729.04,-795.73 866.75,-803.9"/>
<polygon fill="black" stroke="black" points="866.21,-807.37 876.39,-804.45 866.61,-800.38 866.21,-807.37"/>
<text text-anchor="middle" x="566" y="-694.6" font-family="Times,serif" font-size="10.00">wasDerivedFrom</text>
</g>
<!-- _4c741108b3f521dccb22f7026e6562f6cdfda123c512239a7b0581f423b5cf78 -->
<g id="node11" class="node">
<title>_4c741108b3f521dccb22f7026e6562f6cdfda123c512239a7b0581f423b5cf78</title>
<polygon fill="#cdc673" stroke="#808080" points="998.5,-724.1 995.5,-728.1 974.5,-728.1 971.5,-724.1 609.5,-724.1 609.5,-670.1 998.5,-670.1 998.5,-724.1"/>
<text text-anchor="middle" x="804" y="-708.9" font-family="Times,serif" font-size="14.00">ID &#45; kb:provenance&#45;record&#45;9dbe529e&#45;7c04&#45;47e8&#45;ace3&#45;4f3fbbda80e9</text>
<text text-anchor="middle" x="804" y="-677.9" font-family="Times,serif" font-size="14.00">Record of blk0_mmcblk0.bin being hashed</text>
</g>
<!-- _2a4fbbcb7bd477dfe0f7d0497df08f1814dc4799866304fbb2c1d587e028daee&#45;&gt;_4c741108b3f521dccb22f7026e6562f6cdfda123c512239a7b0581f423b5cf78 -->
<g id="edge15" class="edge">
<title>_2a4fbbcb7bd477dfe0f7d0497df08f1814dc4799866304fbb2c1d587e028daee&#45;&gt;_4c741108b3f521dccb22f7026e6562f6cdfda123c512239a7b0581f423b5cf78</title>
<path fill="none" stroke="black" d="M619.74,-620.63C654.77,-634.98 695.05,-651.48 728.99,-665.38"/>
<polygon fill="black" stroke="black" points="727.33,-668.48 737.91,-669.03 729.98,-662 727.33,-668.48"/>
<text text-anchor="middle" x="728" y="-644.1" font-family="Times,serif" font-size="10.00">wasDerivedFrom</text>
</g>
<!-- _ebc267bba83123d50851bec30bc40b11891becea7dea22c9a75002f38bd181f3&#45;&gt;_0a56478b124850e46a803da26039a994826dbcfde99c095ebc9693539de82b15 -->
<g id="edge16" class="edge">
<title>_ebc267bba83123d50851bec30bc40b11891becea7dea22c9a75002f38bd181f3&#45;&gt;_0a56478b124850e46a803da26039a994826dbcfde99c095ebc9693539de82b15</title>
<path fill="none" stroke="black" d="M506.89,-384.2C556.05,-397.22 616.13,-413.14 669.73,-427.34"/>
<polygon fill="black" stroke="black" points="668.68,-430.68 679.24,-429.86 670.47,-423.91 668.68,-430.68"/>
<text text-anchor="middle" x="643" y="-404.74" font-family="Times,serif" font-size="10.00">wasDerivedFrom</text>
</g>
<!-- _1aa3504fd0f5004a0b62e45f40456297227f4299319f47b6ae52f20305601d7f&#45;&gt;_0a56478b124850e46a803da26039a994826dbcfde99c095ebc9693539de82b15 -->
<g id="edge17" class="edge">
<title>_1aa3504fd0f5004a0b62e45f40456297227f4299319f47b6ae52f20305601d7f&#45;&gt;_0a56478b124850e46a803da26039a994826dbcfde99c095ebc9693539de82b15</title>
<path fill="none" stroke="black" d="M815.78,-384.06C814.88,-394.7 813.81,-407.29 812.8,-419.3"/>
<polygon fill="black" stroke="black" points="809.33,-418.79 811.97,-429.05 816.3,-419.38 809.33,-418.79"/>
<text text-anchor="middle" x="849" y="-404.74" font-family="Times,serif" font-size="10.00">wasDerivedFrom</text>
</g>
<!-- _a02c2e16e16ca8e40604e0031a59adedf64d57096fdb251d9226c253b8a229a9&#45;&gt;_c1a739983405a7bfa4936ec3a1ea5fbf93592d8df15f9a6b45f2537d7c543d15 -->
<g id="edge18" class="edge">
<title>_a02c2e16e16ca8e40604e0031a59adedf64d57096fdb251d9226c253b8a229a9&#45;&gt;_c1a739983405a7bfa4936ec3a1ea5fbf93592d8df15f9a6b45f2537d7c543d15</title>
<path fill="none" stroke="black" d="M844.26,-159.76C882.85,-172.61 936.79,-190.56 984.85,-206.56"/>
<polygon fill="black" stroke="black" points="983.61,-209.83 994.21,-209.67 985.82,-203.19 983.61,-209.83"/>
<text text-anchor="middle" x="949.5" y="-180.37" font-family="Times,serif" font-size="10.00">hadMember</text>
</g>
<!-- _a02c2e16e16ca8e40604e0031a59adedf64d57096fdb251d9226c253b8a229a9&#45;&gt;_5090b4bd42dac0fe6075f8ff9b6b3a5930561b67224e38a36ae608fd7cdd8b9e -->
<g id="edge19" class="edge">
<title>_a02c2e16e16ca8e40604e0031a59adedf64d57096fdb251d9226c253b8a229a9&#45;&gt;_5090b4bd42dac0fe6075f8ff9b6b3a5930561b67224e38a36ae608fd7cdd8b9e</title>
<path fill="none" stroke="black" d="M989.95,-159C991.64,-159.12 993.32,-159.25 995,-159.37 1091.75,-166.44 1351.92,-147.46 1429,-206.37 1472.17,-239.36 1444.41,-283.77 1491,-311.74 1525.23,-332.28 1553.76,-298.81 1579,-329.74 1594.18,-348.33 1579.69,-359.75 1579,-383.74 1577.22,-445.37 1571,-460.58 1571,-522.24 1571,-522.24 1571,-522.24 1571,-698.1 1571,-751.99 1451.02,-779.57 1333.09,-793.65"/>
<polygon fill="black" stroke="black" points="1332.72,-790.17 1323.19,-794.8 1333.52,-797.13 1332.72,-790.17"/>
<text text-anchor="middle" x="1611" y="-462.74" font-family="Times,serif" font-size="10.00">wasDerivedFrom</text>
</g>
<!-- _a02c2e16e16ca8e40604e0031a59adedf64d57096fdb251d9226c253b8a229a9&#45;&gt;_ebc267bba83123d50851bec30bc40b11891becea7dea22c9a75002f38bd181f3 -->
<g id="edge20" class="edge">
<title>_a02c2e16e16ca8e40604e0031a59adedf64d57096fdb251d9226c253b8a229a9&#45;&gt;_ebc267bba83123d50851bec30bc40b11891becea7dea22c9a75002f38bd181f3</title>
<path fill="none" stroke="black" d="M760.49,-159.83C695.76,-195.7 546.96,-278.17 464.55,-323.84"/>
<polygon fill="black" stroke="black" points="462.97,-320.71 455.92,-328.62 466.37,-326.84 462.97,-320.71"/>
<text text-anchor="middle" x="709" y="-242.05" font-family="Times,serif" font-size="10.00">wasDerivedFrom</text>
</g>
<!-- _a02c2e16e16ca8e40604e0031a59adedf64d57096fdb251d9226c253b8a229a9&#45;&gt;_1aa3504fd0f5004a0b62e45f40456297227f4299319f47b6ae52f20305601d7f -->
<g id="edge21" class="edge">
<title>_a02c2e16e16ca8e40604e0031a59adedf64d57096fdb251d9226c253b8a229a9&#45;&gt;_1aa3504fd0f5004a0b62e45f40456297227f4299319f47b6ae52f20305601d7f</title>
<path fill="none" stroke="black" d="M791.89,-159.42C792.02,-190.22 793.85,-257.01 806,-311.74 806.48,-313.88 806.99,-316.08 807.53,-318.29"/>
<polygon fill="black" stroke="black" points="804.1,-319.03 809.98,-327.85 810.89,-317.29 804.1,-319.03"/>
<text text-anchor="middle" x="835" y="-242.05" font-family="Times,serif" font-size="10.00">wasDerivedFrom</text>
</g>
<!-- _a02c2e16e16ca8e40604e0031a59adedf64d57096fdb251d9226c253b8a229a9&#45;&gt;_d39fd74adc51b4a1f5dbc40716bcb6c4f44db1c4f75fe9dece0d18b9c6a9370b -->
<g id="edge22" class="edge">
<title>_a02c2e16e16ca8e40604e0031a59adedf64d57096fdb251d9226c253b8a229a9&#45;&gt;_d39fd74adc51b4a1f5dbc40716bcb6c4f44db1c4f75fe9dece0d18b9c6a9370b</title>
<path fill="none" stroke="black" d="M989.66,-145.01C1118.07,-150.66 1270.63,-166.04 1321,-206.37 1338.79,-220.61 1355.75,-278.96 1365.5,-318.37"/>
<polygon fill="black" stroke="black" points="1362.07,-319.06 1367.82,-327.96 1368.87,-317.42 1362.07,-319.06"/>
<text text-anchor="middle" x="1390" y="-242.05" font-family="Times,serif" font-size="10.00">wasDerivedFrom</text>
</g>
<!-- _a02c2e16e16ca8e40604e0031a59adedf64d57096fdb251d9226c253b8a229a9&#45;&gt;_0a56478b124850e46a803da26039a994826dbcfde99c095ebc9693539de82b15 -->
<g id="edge23" class="edge">
<title>_a02c2e16e16ca8e40604e0031a59adedf64d57096fdb251d9226c253b8a229a9&#45;&gt;_0a56478b124850e46a803da26039a994826dbcfde99c095ebc9693539de82b15</title>
<path fill="none" stroke="black" d="M594.13,-150.79C552.14,-156.17 508.56,-164.52 469,-177.37 404.21,-198.41 237.16,-270.8 203,-329.74 190.96,-350.5 187.19,-365.68 203,-383.74 229.38,-413.85 435.24,-436.44 599.81,-449.9"/>
<polygon fill="black" stroke="black" points="599.33,-453.37 609.58,-450.69 599.89,-446.4 599.33,-453.37"/>
<text text-anchor="middle" x="262" y="-303.74" font-family="Times,serif" font-size="10.00">wasDerivedFrom</text>
</g>
<!-- _b5ab4f9e376265609eda39155c81c1c21d11e2e36515c2a87670364c122d98c3&#45;&gt;_5090b4bd42dac0fe6075f8ff9b6b3a5930561b67224e38a36ae608fd7cdd8b9e -->
<g id="edge24" class="edge">
<title>_b5ab4f9e376265609eda39155c81c1c21d11e2e36515c2a87670364c122d98c3&#45;&gt;_5090b4bd42dac0fe6075f8ff9b6b3a5930561b67224e38a36ae608fd7cdd8b9e</title>
<path fill="none" stroke="black" d="M1669,-279.31C1669,-301.11 1669,-330.1 1669,-355.74 1669,-355.74 1669,-355.74 1669,-698.1 1669,-767.88 1500.05,-794.27 1347.42,-803.86"/>
<polygon fill="black" stroke="black" points="1347.27,-800.37 1337.5,-804.46 1347.7,-807.35 1347.27,-800.37"/>
<text text-anchor="middle" x="1693.5" y="-520.74" font-family="Times,serif" font-size="10.00">hadMember</text>
</g>
<!-- _b5ab4f9e376265609eda39155c81c1c21d11e2e36515c2a87670364c122d98c3&#45;&gt;_5090b4bd42dac0fe6075f8ff9b6b3a5930561b67224e38a36ae608fd7cdd8b9e -->
<g id="edge25" class="edge">
<title>_b5ab4f9e376265609eda39155c81c1c21d11e2e36515c2a87670364c122d98c3&#45;&gt;_5090b4bd42dac0fe6075f8ff9b6b3a5930561b67224e38a36ae608fd7cdd8b9e</title>
<path fill="none" stroke="black" d="M1705.42,-279.18C1723.28,-299.37 1741,-326.71 1741,-355.74 1741,-355.74 1741,-355.74 1741,-698.1 1741,-746.12 1693.62,-738.09 1648,-753.1 1590.6,-771.99 1455.35,-785.78 1334.44,-794.86"/>
<polygon fill="black" stroke="black" points="1334.39,-791.35 1324.67,-795.58 1334.9,-798.33 1334.39,-791.35"/>
<text text-anchor="middle" x="1776" y="-520.74" font-family="Times,serif" font-size="10.00">wasDerivedFrom</text>
</g>
<!-- _b5ab4f9e376265609eda39155c81c1c21d11e2e36515c2a87670364c122d98c3&#45;&gt;_d39fd74adc51b4a1f5dbc40716bcb6c4f44db1c4f75fe9dece0d18b9c6a9370b -->
<g id="edge26" class="edge">
<title>_b5ab4f9e376265609eda39155c81c1c21d11e2e36515c2a87670364c122d98c3&#45;&gt;_d39fd74adc51b4a1f5dbc40716bcb6c4f44db1c4f75fe9dece0d18b9c6a9370b</title>
<path fill="none" stroke="black" d="M1578.08,-279.51C1538.78,-294.19 1493.15,-311.23 1455.03,-325.47"/>
<polygon fill="black" stroke="black" points="1454.04,-322.1 1445.9,-328.88 1456.49,-328.66 1454.04,-322.1"/>
<text text-anchor="middle" x="1547" y="-303.74" font-family="Times,serif" font-size="10.00">wasDerivedFrom</text>
</g>
<!-- _d39fd74adc51b4a1f5dbc40716bcb6c4f44db1c4f75fe9dece0d18b9c6a9370b&#45;&gt;_5090b4bd42dac0fe6075f8ff9b6b3a5930561b67224e38a36ae608fd7cdd8b9e -->
<g id="edge27" class="edge">
<title>_d39fd74adc51b4a1f5dbc40716bcb6c4f44db1c4f75fe9dece0d18b9c6a9370b&#45;&gt;_5090b4bd42dac0fe6075f8ff9b6b3a5930561b67224e38a36ae608fd7cdd8b9e</title>
<path fill="none" stroke="black" d="M1328.73,-384.09C1303.05,-402.76 1276,-430.44 1276,-464.24 1276,-464.24 1276,-464.24 1276,-698.1 1276,-729.9 1254.74,-753.01 1227.3,-769.58"/>
<polygon fill="black" stroke="black" points="1225.68,-766.48 1218.69,-774.43 1229.12,-772.58 1225.68,-766.48"/>
<text text-anchor="middle" x="1300.5" y="-582.42" font-family="Times,serif" font-size="10.00">hadMember</text>
</g>
<!-- _d39fd74adc51b4a1f5dbc40716bcb6c4f44db1c4f75fe9dece0d18b9c6a9370b&#45;&gt;_5090b4bd42dac0fe6075f8ff9b6b3a5930561b67224e38a36ae608fd7cdd8b9e -->
<g id="edge28" class="edge">
<title>_d39fd74adc51b4a1f5dbc40716bcb6c4f44db1c4f75fe9dece0d18b9c6a9370b&#45;&gt;_5090b4bd42dac0fe6075f8ff9b6b3a5930561b67224e38a36ae608fd7cdd8b9e</title>
<path fill="none" stroke="black" d="M1370.16,-383.93C1367.34,-405.45 1364,-436.75 1364,-464.24 1364,-464.24 1364,-464.24 1364,-698.1 1364,-738.99 1336.18,-764.9 1298.85,-781.26"/>
<polygon fill="black" stroke="black" points="1297.97,-777.84 1290.03,-784.85 1300.61,-784.32 1297.97,-777.84"/>
<text text-anchor="middle" x="1399" y="-582.42" font-family="Times,serif" font-size="10.00">wasDerivedFrom</text>
</g>
<!-- _d39fd74adc51b4a1f5dbc40716bcb6c4f44db1c4f75fe9dece0d18b9c6a9370b&#45;&gt;_0a56478b124850e46a803da26039a994826dbcfde99c095ebc9693539de82b15 -->
<g id="edge29" class="edge">
<title>_d39fd74adc51b4a1f5dbc40716bcb6c4f44db1c4f75fe9dece0d18b9c6a9370b&#45;&gt;_0a56478b124850e46a803da26039a994826dbcfde99c095ebc9693539de82b15</title>
<path fill="none" stroke="black" d="M1233.61,-384.2C1163.21,-397.47 1076.89,-413.74 1000.51,-428.14"/>
<polygon fill="black" stroke="black" points="999.98,-424.67 990.8,-429.97 1001.28,-431.55 999.98,-424.67"/>
<text text-anchor="middle" x="1160" y="-404.74" font-family="Times,serif" font-size="10.00">wasDerivedFrom</text>
</g>
<!-- _0a56478b124850e46a803da26039a994826dbcfde99c095ebc9693539de82b15&#45;&gt;_2a4fbbcb7bd477dfe0f7d0497df08f1814dc4799866304fbb2c1d587e028daee -->
<g id="edge30" class="edge">
<title>_0a56478b124850e46a803da26039a994826dbcfde99c095ebc9693539de82b15&#45;&gt;_2a4fbbcb7bd477dfe0f7d0497df08f1814dc4799866304fbb2c1d587e028daee</title>
<path fill="none" stroke="black" d="M730.12,-500.12C697.88,-513.96 660.37,-530.07 626.91,-544.44"/>
<polygon fill="black" stroke="black" points="625.86,-541.09 618.05,-548.25 628.62,-547.52 625.86,-541.09"/>
<text text-anchor="middle" x="712.5" y="-520.74" font-family="Times,serif" font-size="10.00">hadMember</text>
</g>
<!-- _0a56478b124850e46a803da26039a994826dbcfde99c095ebc9693539de82b15&#45;&gt;_5090b4bd42dac0fe6075f8ff9b6b3a5930561b67224e38a36ae608fd7cdd8b9e -->
<g id="edge31" class="edge">
<title>_0a56478b124850e46a803da26039a994826dbcfde99c095ebc9693539de82b15&#45;&gt;_5090b4bd42dac0fe6075f8ff9b6b3a5930561b67224e38a36ae608fd7cdd8b9e</title>
<path fill="none" stroke="black" d="M844.31,-499.93C894.14,-547.89 981.93,-634.02 1008,-670.1 1032.33,-703.78 1026.34,-719.66 1051,-753.1 1053.41,-756.37 1056.02,-759.62 1058.74,-762.82"/>
<polygon fill="black" stroke="black" points="1055.89,-764.89 1065.16,-770.01 1061.11,-760.22 1055.89,-764.89"/>
<text text-anchor="middle" x="1017.5" y="-644.1" font-family="Times,serif" font-size="10.00">hadMember</text>
</g>
<!-- _0a56478b124850e46a803da26039a994826dbcfde99c095ebc9693539de82b15&#45;&gt;_5090b4bd42dac0fe6075f8ff9b6b3a5930561b67224e38a36ae608fd7cdd8b9e -->
<g id="edge32" class="edge">
<title>_0a56478b124850e46a803da26039a994826dbcfde99c095ebc9693539de82b15&#45;&gt;_5090b4bd42dac0fe6075f8ff9b6b3a5930561b67224e38a36ae608fd7cdd8b9e</title>
<path fill="none" stroke="black" d="M876.77,-500.19C929.8,-530.2 1001.31,-578.84 1043,-641.1 1067.42,-677.57 1084.37,-724.68 1094.67,-759.59"/>
<polygon fill="black" stroke="black" points="1091.24,-760.36 1097.36,-769.01 1097.98,-758.44 1091.24,-760.36"/>
<text text-anchor="middle" x="1084" y="-644.1" font-family="Times,serif" font-size="10.00">wasDerivedFrom</text>
</g>
<!-- _0a56478b124850e46a803da26039a994826dbcfde99c095ebc9693539de82b15&#45;&gt;_4c741108b3f521dccb22f7026e6562f6cdfda123c512239a7b0581f423b5cf78 -->
<g id="edge33" class="edge">
<title>_0a56478b124850e46a803da26039a994826dbcfde99c095ebc9693539de82b15&#45;&gt;_4c741108b3f521dccb22f7026e6562f6cdfda123c512239a7b0581f423b5cf78</title>
<path fill="none" stroke="black" d="M808.26,-500.15C807.34,-542.48 805.77,-614.63 804.82,-658.58"/>
<polygon fill="black" stroke="black" points="801.32,-658.32 804.6,-668.4 808.32,-658.47 801.32,-658.32"/>
<text text-anchor="middle" x="842" y="-582.42" font-family="Times,serif" font-size="10.00">wasDerivedFrom</text>
</g>
<!-- _4c741108b3f521dccb22f7026e6562f6cdfda123c512239a7b0581f423b5cf78&#45;&gt;_5090b4bd42dac0fe6075f8ff9b6b3a5930561b67224e38a36ae608fd7cdd8b9e -->
<g id="edge34" class="edge">
<title>_4c741108b3f521dccb22f7026e6562f6cdfda123c512239a7b0581f423b5cf78&#45;&gt;_5090b4bd42dac0fe6075f8ff9b6b3a5930561b67224e38a36ae608fd7cdd8b9e</title>
<path fill="none" stroke="black" d="M814.68,-724.47C820.18,-734.88 827.88,-746.03 838,-753.1 853.65,-764.04 885.84,-773.53 922.69,-781.41"/>
<polygon fill="black" stroke="black" points="921.74,-784.79 932.24,-783.39 923.16,-777.94 921.74,-784.79"/>
<text text-anchor="middle" x="862.5" y="-745.1" font-family="Times,serif" font-size="10.00">hadMember</text>
</g>
<!-- _4c741108b3f521dccb22f7026e6562f6cdfda123c512239a7b0581f423b5cf78&#45;&gt;_5090b4bd42dac0fe6075f8ff9b6b3a5930561b67224e38a36ae608fd7cdd8b9e -->
<g id="edge35" class="edge">
<title>_4c741108b3f521dccb22f7026e6562f6cdfda123c512239a7b0581f423b5cf78&#45;&gt;_5090b4bd42dac0fe6075f8ff9b6b3a5930561b67224e38a36ae608fd7cdd8b9e</title>
<path fill="none" stroke="black" d="M868.79,-724.55C892.09,-733.84 918.63,-744.19 943,-753.1 959.24,-759.04 976.46,-765.1 993.41,-770.92"/>
<polygon fill="black" stroke="black" points="991.89,-774.1 1002.49,-774.03 994.16,-767.48 991.89,-774.1"/>
<text text-anchor="middle" x="978" y="-745.1" font-family="Times,serif" font-size="10.00">wasDerivedFrom</text>
</g>
<!-- _357f00248bdc728725be43338ec69113a99cec9793681d0accd1f777e4dd5fbf -->
<g id="node12" class="node">
<title>_357f00248bdc728725be43338ec69113a99cec9793681d0accd1f777e4dd5fbf</title>
<polygon fill="#cdc673" stroke="#808080" points="819,-56.18 816,-60.18 795,-60.18 792,-56.18 655,-56.18 655,-20.18 819,-20.18 819,-56.18"/>
<text text-anchor="middle" x="737" y="-34.48" font-family="Times,serif" font-size="14.00">ID &#45; prov:EmptyCollection</text>
</g>
</g>
</svg>
