<?xml version="1.0" encoding="UTF-8" standalone="no"?>
<!DOCTYPE svg PUBLIC "-//W3C//DTD SVG 1.1//EN"
 "http://www.w3.org/Graphics/SVG/1.1/DTD/svg11.dtd">
<!-- Generated by graphviz version 7.1.0 (20230121.1956)
 -->
<!-- Title: PROV&#45;O render Pages: 1 -->
<svg width="1165pt" height="919pt"
 viewBox="0.00 0.00 1165.00 919.10" xmlns="http://www.w3.org/2000/svg" xmlns:xlink="http://www.w3.org/1999/xlink">
<g id="graph0" class="graph" transform="scale(1 1) rotate(0) translate(4 915.1)">
<title>PROV&#45;O render</title>
<polygon fill="white" stroke="none" points="-4,4 -4,-915.1 1161,-915.1 1161,4 -4,4"/>
<!-- _1f04d829546c397900d5164d5f2d881a9d7141a66bfedb6c9fbc0aa88bbfc164 -->
<g id="node1" class="node">
<title>_1f04d829546c397900d5164d5f2d881a9d7141a66bfedb6c9fbc0aa88bbfc164</title>
<ellipse fill="#fff68f" stroke="#808080" cx="269" cy="-38.18" rx="219.41" ry="38.37"/>
<text text-anchor="middle" x="269" y="-49.98" font-family="Times,serif" font-size="14.00">ID &#45; kb:file&#45;2352f3d0&#45;d02f&#45;40ba&#45;85a4&#45;b00dd97050c8</text>
<text text-anchor="middle" x="269" y="-18.98" font-family="Times,serif" font-size="14.00">android_7.tar.gz</text>
</g>
<!-- _c1a739983405a7bfa4936ec3a1ea5fbf93592d8df15f9a6b45f2537d7c543d15 -->
<g id="node2" class="node">
<title>_c1a739983405a7bfa4936ec3a1ea5fbf93592d8df15f9a6b45f2537d7c543d15</title>
<ellipse fill="#fff68f" stroke="#808080" cx="498" cy="-345.55" rx="216.25" ry="38.37"/>
<text text-anchor="middle" x="498" y="-357.35" font-family="Times,serif" font-size="14.00">ID &#45; kb:file&#45;3af91026&#45;4c09&#45;4047&#45;a914&#45;15e75a711ff0</text>
<text text-anchor="middle" x="498" y="-326.35" font-family="Times,serif" font-size="14.00">Android7&#45;ImageCreationDocumentation.pdf</text>
</g>
<!-- _1f04d829546c397900d5164d5f2d881a9d7141a66bfedb6c9fbc0aa88bbfc164&#45;&gt;_c1a739983405a7bfa4936ec3a1ea5fbf93592d8df15f9a6b45f2537d7c543d15 -->
<g id="edge1" class="edge">
<title>_1f04d829546c397900d5164d5f2d881a9d7141a66bfedb6c9fbc0aa88bbfc164&#45;&gt;_c1a739983405a7bfa4936ec3a1ea5fbf93592d8df15f9a6b45f2537d7c543d15</title>
<path fill="none" stroke="black" d="M261.4,-76.97C254.07,-124.64 249.22,-206.83 289,-260.37 305.25,-282.24 328.13,-298.44 352.83,-310.44"/>
<polygon fill="black" stroke="black" points="351.2,-313.54 361.75,-314.53 354.12,-307.18 351.2,-313.54"/>
<text text-anchor="middle" x="299" y="-198.37" font-family="Times,serif" font-size="10.00">wasDerivedFrom</text>
</g>
<!-- _457e8792d4af0b60ec728dc4a5ed79d03fe6e76d0730385fad463089f8a49c0e -->
<g id="node3" class="node">
<title>_457e8792d4af0b60ec728dc4a5ed79d03fe6e76d0730385fad463089f8a49c0e</title>
<ellipse fill="#fff68f" stroke="#808080" cx="494" cy="-771.92" rx="226.05" ry="38.37"/>
<text text-anchor="middle" x="494" y="-783.72" font-family="Times,serif" font-size="14.00">ID &#45; kb:image&#45;9c77c0e9&#45;fd0b&#45;4912&#45;afcf&#45;0d1b1b86f4d6</text>
<text text-anchor="middle" x="494" y="-752.72" font-family="Times,serif" font-size="14.00">blk32_mmcblk0rpmb.bin</text>
</g>
<!-- _1f04d829546c397900d5164d5f2d881a9d7141a66bfedb6c9fbc0aa88bbfc164&#45;&gt;_457e8792d4af0b60ec728dc4a5ed79d03fe6e76d0730385fad463089f8a49c0e -->
<g id="edge2" class="edge">
<title>_1f04d829546c397900d5164d5f2d881a9d7141a66bfedb6c9fbc0aa88bbfc164&#45;&gt;_457e8792d4af0b60ec728dc4a5ed79d03fe6e76d0730385fad463089f8a49c0e</title>
<path fill="none" stroke="black" d="M82.54,-58.59C36.46,-74.33 0,-101.8 0,-149.37 0,-149.37 0,-149.37 0,-660.74 0,-719.76 136.03,-747.17 265.32,-759.91"/>
<polygon fill="black" stroke="black" points="264.81,-763.37 275.1,-760.84 265.48,-756.4 264.81,-763.37"/>
<text text-anchor="middle" x="35" y="-404.74" font-family="Times,serif" font-size="10.00">wasDerivedFrom</text>
</g>
<!-- _a090ef842d68a040bb034c775f6a3fceaacfb2dc9c12cc5b055c7067bfa69f5a -->
<g id="node6" class="node">
<title>_a090ef842d68a040bb034c775f6a3fceaacfb2dc9c12cc5b055c7067bfa69f5a</title>
<polygon fill="#9fb1fc" stroke="#0000ff" points="1006.5,-177.37 609.5,-177.37 609.5,-123.37 1006.5,-123.37 1006.5,-177.37"/>
<text text-anchor="middle" x="808" y="-162.17" font-family="Times,serif" font-size="14.00">ID &#45; kb:investigative&#45;action&#45;a12c4001&#45;82dc&#45;445d&#45;be3f&#45;ccce026d55d9</text>
<text text-anchor="middle" x="808" y="-131.17" font-family="Times,serif" font-size="14.00">Compile dataset tarball</text>
</g>
<!-- _1f04d829546c397900d5164d5f2d881a9d7141a66bfedb6c9fbc0aa88bbfc164&#45;&gt;_a090ef842d68a040bb034c775f6a3fceaacfb2dc9c12cc5b055c7067bfa69f5a -->
<g id="edge3" class="edge">
<title>_1f04d829546c397900d5164d5f2d881a9d7141a66bfedb6c9fbc0aa88bbfc164&#45;&gt;_a090ef842d68a040bb034c775f6a3fceaacfb2dc9c12cc5b055c7067bfa69f5a</title>
<path fill="none" stroke="darkgreen" d="M409.91,-67.99C489.3,-84.22 588.14,-104.42 667.47,-120.64"/>
<polygon fill="darkgreen" stroke="darkgreen" points="666.55,-124.02 677.05,-122.6 667.95,-117.17 666.55,-124.02"/>
<text text-anchor="middle" x="621" y="-97.37" font-family="Times,serif" font-size="10.00" fill="darkgreen">wasGeneratedBy</text>
</g>
<!-- _ebc267bba83123d50851bec30bc40b11891becea7dea22c9a75002f38bd181f3 -->
<g id="node8" class="node">
<title>_ebc267bba83123d50851bec30bc40b11891becea7dea22c9a75002f38bd181f3</title>
<polygon fill="#cdc673" stroke="#808080" points="418,-585.74 415,-589.74 394,-589.74 391,-585.74 28,-585.74 28,-531.74 418,-531.74 418,-585.74"/>
<text text-anchor="middle" x="223" y="-570.54" font-family="Times,serif" font-size="14.00">ID &#45; kb:provenance&#45;record&#45;1fd441e5&#45;e7c6&#45;4610&#45;aeaa&#45;3530aa37873c</text>
<text text-anchor="middle" x="223" y="-539.54" font-family="Times,serif" font-size="14.00">Record of blk32_mmcblk0rpmb.bin being hashed</text>
</g>
<!-- _1f04d829546c397900d5164d5f2d881a9d7141a66bfedb6c9fbc0aa88bbfc164&#45;&gt;_ebc267bba83123d50851bec30bc40b11891becea7dea22c9a75002f38bd181f3 -->
<g id="edge4" class="edge">
<title>_1f04d829546c397900d5164d5f2d881a9d7141a66bfedb6c9fbc0aa88bbfc164&#45;&gt;_ebc267bba83123d50851bec30bc40b11891becea7dea22c9a75002f38bd181f3</title>
<path fill="none" stroke="black" d="M193.76,-74.52C167.29,-92.5 144,-117.4 144,-149.37 144,-149.37 144,-149.37 144,-458.74 144,-484.1 160.04,-506.7 177.66,-523.88"/>
<polygon fill="black" stroke="black" points="174.97,-526.17 184.7,-530.36 179.71,-521.02 174.97,-526.17"/>
<text text-anchor="middle" x="179" y="-281.37" font-family="Times,serif" font-size="10.00">wasDerivedFrom</text>
</g>
<!-- _a02c2e16e16ca8e40604e0031a59adedf64d57096fdb251d9226c253b8a229a9 -->
<g id="node9" class="node">
<title>_a02c2e16e16ca8e40604e0031a59adedf64d57096fdb251d9226c253b8a229a9</title>
<polygon fill="#cdc673" stroke="#808080" points="692.5,-260.37 689.5,-264.37 668.5,-264.37 665.5,-260.37 297.5,-260.37 297.5,-224.37 692.5,-224.37 692.5,-260.37"/>
<text text-anchor="middle" x="495" y="-238.67" font-family="Times,serif" font-size="14.00">ID &#45; kb:provenance&#45;record&#45;2dbd4ba1&#45;76b1&#45;4041&#45;a460&#45;8a5922940f79</text>
</g>
<!-- _1f04d829546c397900d5164d5f2d881a9d7141a66bfedb6c9fbc0aa88bbfc164&#45;&gt;_a02c2e16e16ca8e40604e0031a59adedf64d57096fdb251d9226c253b8a229a9 -->
<g id="edge5" class="edge">
<title>_1f04d829546c397900d5164d5f2d881a9d7141a66bfedb6c9fbc0aa88bbfc164&#45;&gt;_a02c2e16e16ca8e40604e0031a59adedf64d57096fdb251d9226c253b8a229a9</title>
<path fill="none" stroke="black" d="M310.45,-76.27C356.06,-117.07 428.09,-181.51 467.31,-216.6"/>
<polygon fill="black" stroke="black" points="464.71,-218.97 474.5,-223.02 469.38,-213.75 464.71,-218.97"/>
<text text-anchor="middle" x="457" y="-147.87" font-family="Times,serif" font-size="10.00">wasDerivedFrom</text>
</g>
<!-- _c1a739983405a7bfa4936ec3a1ea5fbf93592d8df15f9a6b45f2537d7c543d15&#45;&gt;_457e8792d4af0b60ec728dc4a5ed79d03fe6e76d0730385fad463089f8a49c0e -->
<g id="edge6" class="edge">
<title>_c1a739983405a7bfa4936ec3a1ea5fbf93592d8df15f9a6b45f2537d7c543d15&#45;&gt;_457e8792d4af0b60ec728dc4a5ed79d03fe6e76d0730385fad463089f8a49c0e</title>
<path fill="none" stroke="black" d="M484.55,-384.2C480.01,-398.57 475.48,-415.23 473,-430.74 460.06,-511.51 461.26,-533.21 468,-614.74 470.99,-650.93 477.82,-691.36 483.73,-722.02"/>
<polygon fill="black" stroke="black" points="480.28,-722.64 485.65,-731.78 487.15,-721.29 480.28,-722.64"/>
<text text-anchor="middle" x="500" y="-556.24" font-family="Times,serif" font-size="10.00">wasDerivedFrom</text>
</g>
<!-- _1b78d8b10f20bab9ac9decdab66ba558c139b30a952b49e41d8564fcefdf5825 -->
<g id="node5" class="node">
<title>_1b78d8b10f20bab9ac9decdab66ba558c139b30a952b49e41d8564fcefdf5825</title>
<polygon fill="#9fb1fc" stroke="#0000ff" points="882.5,-484.74 481.5,-484.74 481.5,-430.74 882.5,-430.74 882.5,-484.74"/>
<text text-anchor="middle" x="682" y="-469.54" font-family="Times,serif" font-size="14.00">ID &#45; kb:investigative&#45;action&#45;8ed7908a&#45;994f&#45;4c69&#45;86d4&#45;1b4b6762890d</text>
<text text-anchor="middle" x="682" y="-438.54" font-family="Times,serif" font-size="14.00">Document dataset creation and file hashes</text>
</g>
<!-- _c1a739983405a7bfa4936ec3a1ea5fbf93592d8df15f9a6b45f2537d7c543d15&#45;&gt;_1b78d8b10f20bab9ac9decdab66ba558c139b30a952b49e41d8564fcefdf5825 -->
<g id="edge7" class="edge">
<title>_c1a739983405a7bfa4936ec3a1ea5fbf93592d8df15f9a6b45f2537d7c543d15&#45;&gt;_1b78d8b10f20bab9ac9decdab66ba558c139b30a952b49e41d8564fcefdf5825</title>
<path fill="none" stroke="darkgreen" d="M558.5,-382.78C580.94,-396.22 606.22,-411.35 628.03,-424.42"/>
<polygon fill="darkgreen" stroke="darkgreen" points="626.11,-427.35 636.49,-429.48 629.71,-421.34 626.11,-427.35"/>
<text text-anchor="middle" x="641" y="-404.74" font-family="Times,serif" font-size="10.00" fill="darkgreen">wasGeneratedBy</text>
</g>
<!-- _c1a739983405a7bfa4936ec3a1ea5fbf93592d8df15f9a6b45f2537d7c543d15&#45;&gt;_ebc267bba83123d50851bec30bc40b11891becea7dea22c9a75002f38bd181f3 -->
<g id="edge8" class="edge">
<title>_c1a739983405a7bfa4936ec3a1ea5fbf93592d8df15f9a6b45f2537d7c543d15&#45;&gt;_ebc267bba83123d50851bec30bc40b11891becea7dea22c9a75002f38bd181f3</title>
<path fill="none" stroke="black" d="M438.72,-382.82C416.4,-397.1 391.08,-414.05 369,-430.74 329.84,-460.32 287.84,-497.49 258.98,-523.96"/>
<polygon fill="black" stroke="black" points="256.93,-521.09 251.95,-530.44 261.67,-526.24 256.93,-521.09"/>
<text text-anchor="middle" x="404" y="-455.24" font-family="Times,serif" font-size="10.00">wasDerivedFrom</text>
</g>
<!-- _714995513e5350ac5b9c0da4e3b220fc0ed9ced5f72ebf41dc3e1565441b169f -->
<g id="node4" class="node">
<title>_714995513e5350ac5b9c0da4e3b220fc0ed9ced5f72ebf41dc3e1565441b169f</title>
<polygon fill="#9fb1fc" stroke="#0000ff" points="1051.5,-911.1 656.5,-911.1 656.5,-857.1 1051.5,-857.1 1051.5,-911.1"/>
<text text-anchor="middle" x="854" y="-895.9" font-family="Times,serif" font-size="14.00">ID &#45; kb:investigative&#45;action&#45;6ea701f0&#45;411a&#45;4e9c&#45;aaa7&#45;801f40416214</text>
<text text-anchor="middle" x="854" y="-864.9" font-family="Times,serif" font-size="14.00">Phone imaged</text>
</g>
<!-- _457e8792d4af0b60ec728dc4a5ed79d03fe6e76d0730385fad463089f8a49c0e&#45;&gt;_714995513e5350ac5b9c0da4e3b220fc0ed9ced5f72ebf41dc3e1565441b169f -->
<g id="edge9" class="edge">
<title>_457e8792d4af0b60ec728dc4a5ed79d03fe6e76d0730385fad463089f8a49c0e&#45;&gt;_714995513e5350ac5b9c0da4e3b220fc0ed9ced5f72ebf41dc3e1565441b169f</title>
<path fill="none" stroke="darkgreen" d="M602.01,-805.98C651.1,-821 708.75,-838.65 756.51,-853.26"/>
<polygon fill="darkgreen" stroke="darkgreen" points="755.45,-856.6 766.03,-856.18 757.49,-849.91 755.45,-856.6"/>
<text text-anchor="middle" x="741" y="-831.1" font-family="Times,serif" font-size="10.00" fill="darkgreen">wasGeneratedBy</text>
</g>
<!-- _1b78d8b10f20bab9ac9decdab66ba558c139b30a952b49e41d8564fcefdf5825&#45;&gt;_457e8792d4af0b60ec728dc4a5ed79d03fe6e76d0730385fad463089f8a49c0e -->
<g id="edge10" class="edge">
<title>_1b78d8b10f20bab9ac9decdab66ba558c139b30a952b49e41d8564fcefdf5825&#45;&gt;_457e8792d4af0b60ec728dc4a5ed79d03fe6e76d0730385fad463089f8a49c0e</title>
<path fill="none" stroke="#8b0000" d="M664.17,-485.23C640.64,-518.68 596.49,-576.47 548,-614.74 534.27,-625.57 523.11,-618.46 513,-632.74 494.86,-658.35 490.22,-693.46 490.06,-721.88"/>
<polygon fill="#8b0000" stroke="#8b0000" points="486.55,-721.74 490.2,-731.69 493.55,-721.64 486.55,-721.74"/>
<text text-anchor="middle" x="570.5" y="-606.74" font-family="Times,serif" font-size="10.00" fill="red">used</text>
</g>
<!-- _1b78d8b10f20bab9ac9decdab66ba558c139b30a952b49e41d8564fcefdf5825&#45;&gt;_714995513e5350ac5b9c0da4e3b220fc0ed9ced5f72ebf41dc3e1565441b169f -->
<g id="edge11" class="edge">
<title>_1b78d8b10f20bab9ac9decdab66ba558c139b30a952b49e41d8564fcefdf5825&#45;&gt;_714995513e5350ac5b9c0da4e3b220fc0ed9ced5f72ebf41dc3e1565441b169f</title>
<path fill="none" stroke="#0000cd" d="M882.94,-474.42C914.32,-480.86 940.02,-489.94 951,-502.74 981.53,-538.32 952,-561.34 952,-608.24 952,-608.24 952,-608.24 952,-772.92 952,-804.13 929.77,-830.61 906.49,-849.78"/>
<polygon fill="#0000cd" stroke="#0000cd" points="904.47,-846.91 898.75,-855.83 908.78,-852.43 904.47,-846.91"/>
<text text-anchor="middle" x="984.5" y="-657.24" font-family="Times,serif" font-size="10.00">wasInformedBy</text>
</g>
<!-- _4a81c03d6d0ea608ef88b04a5f4c68d71cdcf57f56537e01d481edddc389b245 -->
<g id="node7" class="node">
<title>_4a81c03d6d0ea608ef88b04a5f4c68d71cdcf57f56537e01d481edddc389b245</title>
<polygon fill="#9fb1fc" stroke="#0000ff" points="874,-686.74 522,-686.74 522,-632.74 874,-632.74 874,-686.74"/>
<text text-anchor="middle" x="698" y="-671.54" font-family="Times,serif" font-size="14.00">ID &#45; kb:observation&#45;e5c108e4&#45;c0a5&#45;4658&#45;95ed&#45;99171828fcf1</text>
<text text-anchor="middle" x="698" y="-640.54" font-family="Times,serif" font-size="14.00">Hash blk32_mmcblk0rpmb.bin</text>
</g>
<!-- _1b78d8b10f20bab9ac9decdab66ba558c139b30a952b49e41d8564fcefdf5825&#45;&gt;_4a81c03d6d0ea608ef88b04a5f4c68d71cdcf57f56537e01d481edddc389b245 -->
<g id="edge12" class="edge">
<title>_1b78d8b10f20bab9ac9decdab66ba558c139b30a952b49e41d8564fcefdf5825&#45;&gt;_4a81c03d6d0ea608ef88b04a5f4c68d71cdcf57f56537e01d481edddc389b245</title>
<path fill="none" stroke="#0000cd" d="M684.09,-484.88C686.87,-519.6 691.79,-581.14 694.97,-620.92"/>
<polygon fill="#0000cd" stroke="#0000cd" points="691.48,-621.07 695.76,-630.75 698.45,-620.51 691.48,-621.07"/>
<text text-anchor="middle" x="724.5" y="-556.24" font-family="Times,serif" font-size="10.00">wasInformedBy</text>
</g>
<!-- _1b78d8b10f20bab9ac9decdab66ba558c139b30a952b49e41d8564fcefdf5825&#45;&gt;_ebc267bba83123d50851bec30bc40b11891becea7dea22c9a75002f38bd181f3 -->
<g id="edge13" class="edge">
<title>_1b78d8b10f20bab9ac9decdab66ba558c139b30a952b49e41d8564fcefdf5825&#45;&gt;_ebc267bba83123d50851bec30bc40b11891becea7dea22c9a75002f38bd181f3</title>
<path fill="none" stroke="#8b0000" d="M559.3,-485.2C496.79,-498.68 420.68,-515.1 356.68,-528.9"/>
<polygon fill="#8b0000" stroke="#8b0000" points="356.22,-525.42 347.18,-530.95 357.69,-532.26 356.22,-525.42"/>
<text text-anchor="middle" x="475.5" y="-505.74" font-family="Times,serif" font-size="10.00" fill="red">used</text>
</g>
<!-- _a090ef842d68a040bb034c775f6a3fceaacfb2dc9c12cc5b055c7067bfa69f5a&#45;&gt;_c1a739983405a7bfa4936ec3a1ea5fbf93592d8df15f9a6b45f2537d7c543d15 -->
<g id="edge14" class="edge">
<title>_a090ef842d68a040bb034c775f6a3fceaacfb2dc9c12cc5b055c7067bfa69f5a&#45;&gt;_c1a739983405a7bfa4936ec3a1ea5fbf93592d8df15f9a6b45f2537d7c543d15</title>
<path fill="none" stroke="#8b0000" d="M787.72,-177.7C768,-201.85 736.09,-237.27 702,-260.37 674.5,-279 642.23,-294.66 611.57,-307.24"/>
<polygon fill="#8b0000" stroke="#8b0000" points="610.62,-303.84 602.65,-310.82 613.23,-310.34 610.62,-303.84"/>
<text text-anchor="middle" x="753.5" y="-239.87" font-family="Times,serif" font-size="10.00" fill="red">used</text>
</g>
<!-- _a090ef842d68a040bb034c775f6a3fceaacfb2dc9c12cc5b055c7067bfa69f5a&#45;&gt;_457e8792d4af0b60ec728dc4a5ed79d03fe6e76d0730385fad463089f8a49c0e -->
<g id="edge15" class="edge">
<title>_a090ef842d68a040bb034c775f6a3fceaacfb2dc9c12cc5b055c7067bfa69f5a&#45;&gt;_457e8792d4af0b60ec728dc4a5ed79d03fe6e76d0730385fad463089f8a49c0e</title>
<path fill="none" stroke="#8b0000" d="M845.45,-177.58C899.64,-218.18 997.21,-302.07 1032,-401.74 1052.89,-461.57 1063.09,-639.35 1021,-686.74 1018.01,-690.11 823.64,-720.53 671.84,-743.84"/>
<polygon fill="#8b0000" stroke="#8b0000" points="671.38,-740.37 662.02,-745.35 672.44,-747.29 671.38,-740.37"/>
<text text-anchor="middle" x="1056.5" y="-455.24" font-family="Times,serif" font-size="10.00" fill="red">used</text>
</g>
<!-- _a090ef842d68a040bb034c775f6a3fceaacfb2dc9c12cc5b055c7067bfa69f5a&#45;&gt;_714995513e5350ac5b9c0da4e3b220fc0ed9ced5f72ebf41dc3e1565441b169f -->
<g id="edge16" class="edge">
<title>_a090ef842d68a040bb034c775f6a3fceaacfb2dc9c12cc5b055c7067bfa69f5a&#45;&gt;_714995513e5350ac5b9c0da4e3b220fc0ed9ced5f72ebf41dc3e1565441b169f</title>
<path fill="none" stroke="#0000cd" d="M978.94,-177.85C1039.09,-192.12 1092,-212.79 1092,-241.37 1092,-241.37 1092,-241.37 1092,-772.92 1092,-810.84 1066.81,-835.75 1032.83,-852.1"/>
<polygon fill="#0000cd" stroke="#0000cd" points="1031.61,-848.81 1023.9,-856.08 1034.46,-855.2 1031.61,-848.81"/>
<text text-anchor="middle" x="1124.5" y="-505.74" font-family="Times,serif" font-size="10.00">wasInformedBy</text>
</g>
<!-- _a090ef842d68a040bb034c775f6a3fceaacfb2dc9c12cc5b055c7067bfa69f5a&#45;&gt;_1b78d8b10f20bab9ac9decdab66ba558c139b30a952b49e41d8564fcefdf5825 -->
<g id="edge17" class="edge">
<title>_a090ef842d68a040bb034c775f6a3fceaacfb2dc9c12cc5b055c7067bfa69f5a&#45;&gt;_1b78d8b10f20bab9ac9decdab66ba558c139b30a952b49e41d8564fcefdf5825</title>
<path fill="none" stroke="#0000cd" d="M815.92,-177.57C828.02,-223.01 845.97,-317.85 808,-383.74 798.09,-400.92 782.42,-414.43 765.45,-424.9"/>
<polygon fill="#0000cd" stroke="#0000cd" points="764.13,-421.62 757.23,-429.66 767.64,-427.68 764.13,-421.62"/>
<text text-anchor="middle" x="862.5" y="-281.37" font-family="Times,serif" font-size="10.00">wasInformedBy</text>
</g>
<!-- _a090ef842d68a040bb034c775f6a3fceaacfb2dc9c12cc5b055c7067bfa69f5a&#45;&gt;_4a81c03d6d0ea608ef88b04a5f4c68d71cdcf57f56537e01d481edddc389b245 -->
<g id="edge18" class="edge">
<title>_a090ef842d68a040bb034c775f6a3fceaacfb2dc9c12cc5b055c7067bfa69f5a&#45;&gt;_4a81c03d6d0ea608ef88b04a5f4c68d71cdcf57f56537e01d481edddc389b245</title>
<path fill="none" stroke="#0000cd" d="M830.32,-177.63C850.43,-202.33 879.73,-241 899,-278.37 924.23,-327.28 1004.53,-466.68 976,-513.74 941.19,-571.15 875.39,-606.9 816.54,-628.53"/>
<polygon fill="#0000cd" stroke="#0000cd" points="815.7,-625.12 807.45,-631.77 818.04,-631.71 815.7,-625.12"/>
<text text-anchor="middle" x="995.5" y="-404.74" font-family="Times,serif" font-size="10.00">wasInformedBy</text>
</g>
<!-- _a090ef842d68a040bb034c775f6a3fceaacfb2dc9c12cc5b055c7067bfa69f5a&#45;&gt;_ebc267bba83123d50851bec30bc40b11891becea7dea22c9a75002f38bd181f3 -->
<g id="edge19" class="edge">
<title>_a090ef842d68a040bb034c775f6a3fceaacfb2dc9c12cc5b055c7067bfa69f5a&#45;&gt;_ebc267bba83123d50851bec30bc40b11891becea7dea22c9a75002f38bd181f3</title>
<path fill="none" stroke="#8b0000" d="M609.04,-172.27C474.82,-187.57 317.2,-208.38 289,-224.37 247.76,-247.75 237.79,-262.67 222,-307.37 196.6,-379.27 206.48,-470.2 215.22,-520.32"/>
<polygon fill="#8b0000" stroke="#8b0000" points="211.76,-520.86 217.01,-530.06 218.64,-519.6 211.76,-520.86"/>
<text text-anchor="middle" x="231.5" y="-343.05" font-family="Times,serif" font-size="10.00" fill="red">used</text>
</g>
<!-- _a090ef842d68a040bb034c775f6a3fceaacfb2dc9c12cc5b055c7067bfa69f5a&#45;&gt;_a02c2e16e16ca8e40604e0031a59adedf64d57096fdb251d9226c253b8a229a9 -->
<g id="edge20" class="edge">
<title>_a090ef842d68a040bb034c775f6a3fceaacfb2dc9c12cc5b055c7067bfa69f5a&#45;&gt;_a02c2e16e16ca8e40604e0031a59adedf64d57096fdb251d9226c253b8a229a9</title>
<path fill="none" stroke="#8b0000" d="M716.2,-177.76C668.48,-191.49 611.01,-208.01 566.61,-220.78"/>
<polygon fill="#8b0000" stroke="#8b0000" points="565.71,-217.39 557.07,-223.52 567.65,-224.12 565.71,-217.39"/>
<text text-anchor="middle" x="660.5" y="-198.37" font-family="Times,serif" font-size="10.00" fill="red">used</text>
</g>
<!-- _4a81c03d6d0ea608ef88b04a5f4c68d71cdcf57f56537e01d481edddc389b245&#45;&gt;_457e8792d4af0b60ec728dc4a5ed79d03fe6e76d0730385fad463089f8a49c0e -->
<g id="edge21" class="edge">
<title>_4a81c03d6d0ea608ef88b04a5f4c68d71cdcf57f56537e01d481edddc389b245&#45;&gt;_457e8792d4af0b60ec728dc4a5ed79d03fe6e76d0730385fad463089f8a49c0e</title>
<path fill="none" stroke="#8b0000" d="M649.14,-687.13C625.62,-699.83 596.87,-715.35 570.55,-729.58"/>
<polygon fill="#8b0000" stroke="#8b0000" points="569.06,-726.4 561.92,-734.23 572.38,-732.56 569.06,-726.4"/>
<text text-anchor="middle" x="623.5" y="-707.74" font-family="Times,serif" font-size="10.00" fill="red">used</text>
</g>
<!-- _4a81c03d6d0ea608ef88b04a5f4c68d71cdcf57f56537e01d481edddc389b245&#45;&gt;_714995513e5350ac5b9c0da4e3b220fc0ed9ced5f72ebf41dc3e1565441b169f -->
<g id="edge22" class="edge">
<title>_4a81c03d6d0ea608ef88b04a5f4c68d71cdcf57f56537e01d481edddc389b245&#45;&gt;_714995513e5350ac5b9c0da4e3b220fc0ed9ced5f72ebf41dc3e1565441b169f</title>
<path fill="none" stroke="#0000cd" d="M716.51,-687.12C744.48,-726.99 797.58,-802.68 828.97,-847.43"/>
<polygon fill="#0000cd" stroke="#0000cd" points="826.04,-849.34 834.65,-855.52 831.77,-845.32 826.04,-849.34"/>
<text text-anchor="middle" x="833.5" y="-769.42" font-family="Times,serif" font-size="10.00">wasInformedBy</text>
</g>
<!-- _ebc267bba83123d50851bec30bc40b11891becea7dea22c9a75002f38bd181f3&#45;&gt;_457e8792d4af0b60ec728dc4a5ed79d03fe6e76d0730385fad463089f8a49c0e -->
<g id="edge23" class="edge">
<title>_ebc267bba83123d50851bec30bc40b11891becea7dea22c9a75002f38bd181f3&#45;&gt;_457e8792d4af0b60ec728dc4a5ed79d03fe6e76d0730385fad463089f8a49c0e</title>
<path fill="none" stroke="black" d="M224.86,-586.18C228.08,-614.05 236.89,-657.84 261,-686.74 280.21,-709.75 306.22,-726.47 333.92,-738.62"/>
<polygon fill="black" stroke="black" points="332.21,-741.7 342.79,-742.31 334.9,-735.24 332.21,-741.7"/>
<text text-anchor="middle" x="285.5" y="-657.24" font-family="Times,serif" font-size="10.00">hadMember</text>
</g>
<!-- _ebc267bba83123d50851bec30bc40b11891becea7dea22c9a75002f38bd181f3&#45;&gt;_457e8792d4af0b60ec728dc4a5ed79d03fe6e76d0730385fad463089f8a49c0e -->
<g id="edge24" class="edge">
<title>_ebc267bba83123d50851bec30bc40b11891becea7dea22c9a75002f38bd181f3&#45;&gt;_457e8792d4af0b60ec728dc4a5ed79d03fe6e76d0730385fad463089f8a49c0e</title>
<path fill="none" stroke="black" d="M255.04,-586.17C271.57,-599.92 291.99,-617.09 310,-632.74 337.08,-656.27 341.76,-664.61 370,-686.74 388.05,-700.88 408.36,-715.26 427.24,-728.03"/>
<polygon fill="black" stroke="black" points="425.16,-730.85 435.42,-733.52 429.07,-725.04 425.16,-730.85"/>
<text text-anchor="middle" x="405" y="-657.24" font-family="Times,serif" font-size="10.00">wasDerivedFrom</text>
</g>
<!-- _ebc267bba83123d50851bec30bc40b11891becea7dea22c9a75002f38bd181f3&#45;&gt;_4a81c03d6d0ea608ef88b04a5f4c68d71cdcf57f56537e01d481edddc389b245 -->
<g id="edge25" class="edge">
<title>_ebc267bba83123d50851bec30bc40b11891becea7dea22c9a75002f38bd181f3&#45;&gt;_4a81c03d6d0ea608ef88b04a5f4c68d71cdcf57f56537e01d481edddc389b245</title>
<path fill="none" stroke="darkgreen" d="M349.98,-586.2C414.8,-599.71 493.76,-616.17 560.07,-629.99"/>
<polygon fill="darkgreen" stroke="darkgreen" points="559.04,-633.35 569.54,-631.96 560.46,-626.49 559.04,-633.35"/>
<text text-anchor="middle" x="509" y="-606.74" font-family="Times,serif" font-size="10.00" fill="darkgreen">wasGeneratedBy</text>
</g>
<!-- _a02c2e16e16ca8e40604e0031a59adedf64d57096fdb251d9226c253b8a229a9&#45;&gt;_c1a739983405a7bfa4936ec3a1ea5fbf93592d8df15f9a6b45f2537d7c543d15 -->
<g id="edge26" class="edge">
<title>_a02c2e16e16ca8e40604e0031a59adedf64d57096fdb251d9226c253b8a229a9&#45;&gt;_c1a739983405a7bfa4936ec3a1ea5fbf93592d8df15f9a6b45f2537d7c543d15</title>
<path fill="none" stroke="black" d="M495.51,-260.53C495.8,-270.2 496.17,-282.82 496.54,-295.33"/>
<polygon fill="black" stroke="black" points="493.04,-295.29 496.83,-305.18 500.03,-295.08 493.04,-295.29"/>
<text text-anchor="middle" x="520.5" y="-281.37" font-family="Times,serif" font-size="10.00">hadMember</text>
</g>
<!-- _a02c2e16e16ca8e40604e0031a59adedf64d57096fdb251d9226c253b8a229a9&#45;&gt;_457e8792d4af0b60ec728dc4a5ed79d03fe6e76d0730385fad463089f8a49c0e -->
<g id="edge27" class="edge">
<title>_a02c2e16e16ca8e40604e0031a59adedf64d57096fdb251d9226c253b8a229a9&#45;&gt;_457e8792d4af0b60ec728dc4a5ed79d03fe6e76d0730385fad463089f8a49c0e</title>
<path fill="none" stroke="black" d="M635.2,-260.81C704.73,-271.66 779.77,-287.36 808,-307.37 862.12,-345.72 872.47,-367.34 892,-430.74 911.79,-494.96 944.03,-614.43 883,-686.74 868.27,-704.18 765.08,-726.05 668.69,-743.12"/>
<polygon fill="black" stroke="black" points="668.31,-739.64 659.07,-744.81 669.53,-746.53 668.31,-739.64"/>
<text text-anchor="middle" x="947" y="-505.74" font-family="Times,serif" font-size="10.00">wasDerivedFrom</text>
</g>
<!-- _a02c2e16e16ca8e40604e0031a59adedf64d57096fdb251d9226c253b8a229a9&#45;&gt;_1b78d8b10f20bab9ac9decdab66ba558c139b30a952b49e41d8564fcefdf5825 -->
<g id="edge28" class="edge">
<title>_a02c2e16e16ca8e40604e0031a59adedf64d57096fdb251d9226c253b8a229a9&#45;&gt;_1b78d8b10f20bab9ac9decdab66ba558c139b30a952b49e41d8564fcefdf5825</title>
<path fill="none" stroke="darkgreen" d="M603,-260.86C654.28,-271.59 707.7,-287.18 723,-307.37 748.17,-340.58 727.84,-388.32 707.88,-420.82"/>
<polygon fill="darkgreen" stroke="darkgreen" points="705.01,-418.81 702.56,-429.12 710.91,-422.59 705.01,-418.81"/>
<text text-anchor="middle" x="769" y="-343.05" font-family="Times,serif" font-size="10.00" fill="darkgreen">wasGeneratedBy</text>
</g>
<!-- _a02c2e16e16ca8e40604e0031a59adedf64d57096fdb251d9226c253b8a229a9&#45;&gt;_ebc267bba83123d50851bec30bc40b11891becea7dea22c9a75002f38bd181f3 -->
<g id="edge29" class="edge">
<title>_a02c2e16e16ca8e40604e0031a59adedf64d57096fdb251d9226c253b8a229a9&#45;&gt;_ebc267bba83123d50851bec30bc40b11891becea7dea22c9a75002f38bd181f3</title>
<path fill="none" stroke="black" d="M349.83,-260.8C321.04,-270.47 293.43,-285.15 273,-307.37 244.88,-337.94 231.14,-457.94 225.79,-520.04"/>
<polygon fill="black" stroke="black" points="222.32,-519.52 224.98,-529.78 229.3,-520.1 222.32,-519.52"/>
<text text-anchor="middle" x="276" y="-404.74" font-family="Times,serif" font-size="10.00">wasDerivedFrom</text>
</g>
<!-- _357f00248bdc728725be43338ec69113a99cec9793681d0accd1f777e4dd5fbf -->
<g id="node10" class="node">
<title>_357f00248bdc728725be43338ec69113a99cec9793681d0accd1f777e4dd5fbf</title>
<polygon fill="#cdc673" stroke="#808080" points="670,-56.18 667,-60.18 646,-60.18 643,-56.18 506,-56.18 506,-20.18 670,-20.18 670,-56.18"/>
<text text-anchor="middle" x="588" y="-34.48" font-family="Times,serif" font-size="14.00">ID &#45; prov:EmptyCollection</text>
</g>
</g>
</svg>
