<?xml version="1.0" encoding="UTF-8" standalone="no"?>
<!DOCTYPE svg PUBLIC "-//W3C//DTD SVG 1.1//EN"
 "http://www.w3.org/Graphics/SVG/1.1/DTD/svg11.dtd">
<!-- Generated by graphviz version 7.1.0 (20230121.1956)
 -->
<!-- Title: PROV&#45;O render Pages: 1 -->
<svg width="1627pt" height="913pt"
 viewBox="0.00 0.00 1627.00 913.47" xmlns="http://www.w3.org/2000/svg" xmlns:xlink="http://www.w3.org/1999/xlink">
<g id="graph0" class="graph" transform="scale(1 1) rotate(0) translate(4 909.47)">
<title>PROV&#45;O render</title>
<polygon fill="white" stroke="none" points="-4,4 -4,-909.47 1623,-909.47 1623,4 -4,4"/>
<!-- _1f04d829546c397900d5164d5f2d881a9d7141a66bfedb6c9fbc0aa88bbfc164 -->
<g id="node1" class="node">
<title>_1f04d829546c397900d5164d5f2d881a9d7141a66bfedb6c9fbc0aa88bbfc164</title>
<ellipse fill="#fff68f" stroke="#808080" cx="293" cy="-38.18" rx="219.41" ry="38.37"/>
<text text-anchor="middle" x="293" y="-49.98" font-family="Times,serif" font-size="14.00">ID &#45; kb:file&#45;2352f3d0&#45;d02f&#45;40ba&#45;85a4&#45;b00dd97050c8</text>
<text text-anchor="middle" x="293" y="-18.98" font-family="Times,serif" font-size="14.00">android_7.tar.gz</text>
</g>
<!-- _c1a739983405a7bfa4936ec3a1ea5fbf93592d8df15f9a6b45f2537d7c543d15 -->
<g id="node2" class="node">
<title>_c1a739983405a7bfa4936ec3a1ea5fbf93592d8df15f9a6b45f2537d7c543d15</title>
<ellipse fill="#fff68f" stroke="#808080" cx="627" cy="-302.55" rx="216.25" ry="38.37"/>
<text text-anchor="middle" x="627" y="-314.35" font-family="Times,serif" font-size="14.00">ID &#45; kb:file&#45;3af91026&#45;4c09&#45;4047&#45;a914&#45;15e75a711ff0</text>
<text text-anchor="middle" x="627" y="-283.35" font-family="Times,serif" font-size="14.00">Android7&#45;ImageCreationDocumentation.pdf</text>
</g>
<!-- _1f04d829546c397900d5164d5f2d881a9d7141a66bfedb6c9fbc0aa88bbfc164&#45;&gt;_c1a739983405a7bfa4936ec3a1ea5fbf93592d8df15f9a6b45f2537d7c543d15 -->
<g id="edge1" class="edge">
<title>_1f04d829546c397900d5164d5f2d881a9d7141a66bfedb6c9fbc0aa88bbfc164&#45;&gt;_c1a739983405a7bfa4936ec3a1ea5fbf93592d8df15f9a6b45f2537d7c543d15</title>
<path fill="none" stroke="black" d="M329.75,-76.39C374.09,-120.14 452.07,-193.5 527,-246.37 533.57,-251 540.57,-255.56 547.7,-259.94"/>
<polygon fill="black" stroke="black" points="545.79,-262.88 556.17,-265.01 549.39,-256.87 545.79,-262.88"/>
<text text-anchor="middle" x="450" y="-138.87" font-family="Times,serif" font-size="10.00">wasDerivedFrom</text>
</g>
<!-- _2a4fbbcb7bd477dfe0f7d0497df08f1814dc4799866304fbb2c1d587e028daee -->
<g id="node3" class="node">
<title>_2a4fbbcb7bd477dfe0f7d0497df08f1814dc4799866304fbb2c1d587e028daee</title>
<ellipse fill="#fff68f" stroke="#808080" cx="497" cy="-642.92" rx="219.82" ry="38.37"/>
<text text-anchor="middle" x="497" y="-654.72" font-family="Times,serif" font-size="14.00">ID &#45; kb:file&#45;736c63b5&#45;5e15&#45;4a48&#45;b948&#45;13757bae0aae</text>
<text text-anchor="middle" x="497" y="-623.72" font-family="Times,serif" font-size="14.00">LG GSM_H790 Nexus 5X.ufd</text>
</g>
<!-- _1f04d829546c397900d5164d5f2d881a9d7141a66bfedb6c9fbc0aa88bbfc164&#45;&gt;_2a4fbbcb7bd477dfe0f7d0497df08f1814dc4799866304fbb2c1d587e028daee -->
<g id="edge2" class="edge">
<title>_1f04d829546c397900d5164d5f2d881a9d7141a66bfedb6c9fbc0aa88bbfc164&#45;&gt;_2a4fbbcb7bd477dfe0f7d0497df08f1814dc4799866304fbb2c1d587e028daee</title>
<path fill="none" stroke="black" d="M231.51,-75.35C143.03,-132.46 -4.26,-249.47 47,-369.74 101.62,-497.89 250.99,-569.97 362.75,-607.29"/>
<polygon fill="black" stroke="black" points="361.42,-610.54 372.01,-610.32 363.6,-603.88 361.42,-610.54"/>
<text text-anchor="middle" x="82" y="-361.74" font-family="Times,serif" font-size="10.00">wasDerivedFrom</text>
</g>
<!-- _457e8792d4af0b60ec728dc4a5ed79d03fe6e76d0730385fad463089f8a49c0e -->
<g id="node4" class="node">
<title>_457e8792d4af0b60ec728dc4a5ed79d03fe6e76d0730385fad463089f8a49c0e</title>
<ellipse fill="#fff68f" stroke="#808080" cx="901" cy="-867.29" rx="226.05" ry="38.37"/>
<text text-anchor="middle" x="901" y="-879.09" font-family="Times,serif" font-size="14.00">ID &#45; kb:image&#45;9c77c0e9&#45;fd0b&#45;4912&#45;afcf&#45;0d1b1b86f4d6</text>
<text text-anchor="middle" x="901" y="-848.09" font-family="Times,serif" font-size="14.00">blk32_mmcblk0rpmb.bin</text>
</g>
<!-- _1f04d829546c397900d5164d5f2d881a9d7141a66bfedb6c9fbc0aa88bbfc164&#45;&gt;_457e8792d4af0b60ec728dc4a5ed79d03fe6e76d0730385fad463089f8a49c0e -->
<g id="edge3" class="edge">
<title>_1f04d829546c397900d5164d5f2d881a9d7141a66bfedb6c9fbc0aa88bbfc164&#45;&gt;_457e8792d4af0b60ec728dc4a5ed79d03fe6e76d0730385fad463089f8a49c0e</title>
<path fill="none" stroke="black" d="M138.78,-65.74C68.19,-82.42 0,-107.14 0,-140.37 0,-140.37 0,-140.37 0,-756.1 0,-823.27 399.61,-849.84 666.57,-860.1"/>
<polygon fill="black" stroke="black" points="666.35,-863.59 676.48,-860.48 666.62,-856.6 666.35,-863.59"/>
<text text-anchor="middle" x="35" y="-462.74" font-family="Times,serif" font-size="10.00">wasDerivedFrom</text>
</g>
<!-- _ebc267bba83123d50851bec30bc40b11891becea7dea22c9a75002f38bd181f3 -->
<g id="node5" class="node">
<title>_ebc267bba83123d50851bec30bc40b11891becea7dea22c9a75002f38bd181f3</title>
<polygon fill="#cdc673" stroke="#808080" points="1521,-441.74 1518,-445.74 1497,-445.74 1494,-441.74 1131,-441.74 1131,-387.74 1521,-387.74 1521,-441.74"/>
<text text-anchor="middle" x="1326" y="-426.54" font-family="Times,serif" font-size="14.00">ID &#45; kb:provenance&#45;record&#45;1fd441e5&#45;e7c6&#45;4610&#45;aeaa&#45;3530aa37873c</text>
<text text-anchor="middle" x="1326" y="-395.54" font-family="Times,serif" font-size="14.00">Record of blk32_mmcblk0rpmb.bin being hashed</text>
</g>
<!-- _1f04d829546c397900d5164d5f2d881a9d7141a66bfedb6c9fbc0aa88bbfc164&#45;&gt;_ebc267bba83123d50851bec30bc40b11891becea7dea22c9a75002f38bd181f3 -->
<g id="edge4" class="edge">
<title>_1f04d829546c397900d5164d5f2d881a9d7141a66bfedb6c9fbc0aa88bbfc164&#45;&gt;_ebc267bba83123d50851bec30bc40b11891becea7dea22c9a75002f38bd181f3</title>
<path fill="none" stroke="black" d="M444.77,-66.22C470.16,-70.08 496.28,-73.66 521,-76.37 674,-93.13 1072.43,-58.5 1212,-123.37 1291.8,-160.46 1317.62,-182.95 1351,-264.37 1365.99,-300.93 1354.77,-346.04 1342.94,-377.06"/>
<polygon fill="black" stroke="black" points="1339.83,-375.42 1339.34,-386 1346.32,-378.03 1339.83,-375.42"/>
<text text-anchor="middle" x="1377" y="-209.37" font-family="Times,serif" font-size="10.00">wasDerivedFrom</text>
</g>
<!-- _1aa3504fd0f5004a0b62e45f40456297227f4299319f47b6ae52f20305601d7f -->
<g id="node6" class="node">
<title>_1aa3504fd0f5004a0b62e45f40456297227f4299319f47b6ae52f20305601d7f</title>
<polygon fill="#cdc673" stroke="#808080" points="558.5,-441.74 555.5,-445.74 534.5,-445.74 531.5,-441.74 163.5,-441.74 163.5,-387.74 558.5,-387.74 558.5,-441.74"/>
<text text-anchor="middle" x="361" y="-426.54" font-family="Times,serif" font-size="14.00">ID &#45; kb:provenance&#45;record&#45;27610dc7&#45;3dc7&#45;4d57&#45;8143&#45;629c72fb6be7</text>
<text text-anchor="middle" x="361" y="-395.54" font-family="Times,serif" font-size="14.00">Record of procdata.zip being hashed</text>
</g>
<!-- _1f04d829546c397900d5164d5f2d881a9d7141a66bfedb6c9fbc0aa88bbfc164&#45;&gt;_1aa3504fd0f5004a0b62e45f40456297227f4299319f47b6ae52f20305601d7f -->
<g id="edge5" class="edge">
<title>_1f04d829546c397900d5164d5f2d881a9d7141a66bfedb6c9fbc0aa88bbfc164&#45;&gt;_1aa3504fd0f5004a0b62e45f40456297227f4299319f47b6ae52f20305601d7f</title>
<path fill="none" stroke="black" d="M281.88,-76.63C271.11,-118.44 258.15,-187.9 271,-246.37 283.97,-305.36 297.04,-317.87 328,-369.74 329.65,-372.5 331.44,-375.3 333.3,-378.08"/>
<polygon fill="black" stroke="black" points="330.34,-379.96 338.95,-386.13 336.07,-375.93 330.34,-379.96"/>
<text text-anchor="middle" x="306" y="-209.37" font-family="Times,serif" font-size="10.00">wasDerivedFrom</text>
</g>
<!-- _a02c2e16e16ca8e40604e0031a59adedf64d57096fdb251d9226c253b8a229a9 -->
<g id="node7" class="node">
<title>_a02c2e16e16ca8e40604e0031a59adedf64d57096fdb251d9226c253b8a229a9</title>
<polygon fill="#cdc673" stroke="#808080" points="1202.5,-159.37 1199.5,-163.37 1178.5,-163.37 1175.5,-159.37 807.5,-159.37 807.5,-123.37 1202.5,-123.37 1202.5,-159.37"/>
<text text-anchor="middle" x="1005" y="-137.67" font-family="Times,serif" font-size="14.00">ID &#45; kb:provenance&#45;record&#45;2dbd4ba1&#45;76b1&#45;4041&#45;a460&#45;8a5922940f79</text>
</g>
<!-- _1f04d829546c397900d5164d5f2d881a9d7141a66bfedb6c9fbc0aa88bbfc164&#45;&gt;_a02c2e16e16ca8e40604e0031a59adedf64d57096fdb251d9226c253b8a229a9 -->
<g id="edge6" class="edge">
<title>_1f04d829546c397900d5164d5f2d881a9d7141a66bfedb6c9fbc0aa88bbfc164&#45;&gt;_a02c2e16e16ca8e40604e0031a59adedf64d57096fdb251d9226c253b8a229a9</title>
<path fill="none" stroke="black" d="M448.29,-65.65C472.59,-69.47 497.45,-73.17 521,-76.37 594.54,-86.34 613.38,-85.05 687,-94.37 750.69,-102.42 821.38,-112.53 879.91,-121.22"/>
<polygon fill="black" stroke="black" points="879.16,-124.65 889.57,-122.66 880.19,-117.73 879.16,-124.65"/>
<text text-anchor="middle" x="800" y="-97.37" font-family="Times,serif" font-size="10.00">wasDerivedFrom</text>
</g>
<!-- _b5ab4f9e376265609eda39155c81c1c21d11e2e36515c2a87670364c122d98c3 -->
<g id="node9" class="node">
<title>_b5ab4f9e376265609eda39155c81c1c21d11e2e36515c2a87670364c122d98c3</title>
<polygon fill="#cdc673" stroke="#808080" points="989.5,-246.37 986.5,-250.37 965.5,-250.37 962.5,-246.37 602.5,-246.37 602.5,-177.37 989.5,-177.37 989.5,-246.37"/>
<text text-anchor="middle" x="796" y="-231.17" font-family="Times,serif" font-size="14.00">ID &#45; kb:provenance&#45;record&#45;529f9bf1&#45;c9ca&#45;450c&#45;8311&#45;98c8a800fac5</text>
<text text-anchor="middle" x="796" y="-200.17" font-family="Times,serif" font-size="14.00">Record of blk0_mmcblk0.bin being hashed before entry into </text>
<text text-anchor="middle" x="796" y="-185.17" font-family="Times,serif" font-size="14.00">tarball</text>
</g>
<!-- _1f04d829546c397900d5164d5f2d881a9d7141a66bfedb6c9fbc0aa88bbfc164&#45;&gt;_b5ab4f9e376265609eda39155c81c1c21d11e2e36515c2a87670364c122d98c3 -->
<g id="edge7" class="edge">
<title>_1f04d829546c397900d5164d5f2d881a9d7141a66bfedb6c9fbc0aa88bbfc164&#45;&gt;_b5ab4f9e376265609eda39155c81c1c21d11e2e36515c2a87670364c122d98c3</title>
<path fill="none" stroke="black" d="M391.78,-72.9C476.37,-101.77 598.06,-143.31 685.8,-173.25"/>
<polygon fill="black" stroke="black" points="684.56,-176.53 695.16,-176.45 686.82,-169.91 684.56,-176.53"/>
<text text-anchor="middle" x="515" y="-97.37" font-family="Times,serif" font-size="10.00">wasDerivedFrom</text>
</g>
<!-- _0a56478b124850e46a803da26039a994826dbcfde99c095ebc9693539de82b15 -->
<g id="node11" class="node">
<title>_0a56478b124850e46a803da26039a994826dbcfde99c095ebc9693539de82b15</title>
<polygon fill="#cdc673" stroke="#808080" points="1028.5,-557.74 1025.5,-561.74 1004.5,-561.74 1001.5,-557.74 633.5,-557.74 633.5,-488.74 1028.5,-488.74 1028.5,-557.74"/>
<text text-anchor="middle" x="831" y="-542.54" font-family="Times,serif" font-size="14.00">ID &#45; kb:provenance&#45;record&#45;8c357d9b&#45;13a4&#45;4333&#45;9e11&#45;2194bfdd534b</text>
<text text-anchor="middle" x="831" y="-511.54" font-family="Times,serif" font-size="14.00">Record of phone imaging process being completed, including </text>
<text text-anchor="middle" x="831" y="-496.54" font-family="Times,serif" font-size="14.00">log</text>
</g>
<!-- _1f04d829546c397900d5164d5f2d881a9d7141a66bfedb6c9fbc0aa88bbfc164&#45;&gt;_0a56478b124850e46a803da26039a994826dbcfde99c095ebc9693539de82b15 -->
<g id="edge8" class="edge">
<title>_1f04d829546c397900d5164d5f2d881a9d7141a66bfedb6c9fbc0aa88bbfc164&#45;&gt;_0a56478b124850e46a803da26039a994826dbcfde99c095ebc9693539de82b15</title>
<path fill="none" stroke="black" d="M258.73,-76.43C191.84,-153.65 58.48,-333.04 155,-441.74 185.93,-476.57 435.14,-499.03 622.05,-511.14"/>
<polygon fill="black" stroke="black" points="621.71,-514.63 631.92,-511.78 622.16,-507.64 621.71,-514.63"/>
<text text-anchor="middle" x="172" y="-300.05" font-family="Times,serif" font-size="10.00">wasDerivedFrom</text>
</g>
<!-- _c1a739983405a7bfa4936ec3a1ea5fbf93592d8df15f9a6b45f2537d7c543d15&#45;&gt;_457e8792d4af0b60ec728dc4a5ed79d03fe6e76d0730385fad463089f8a49c0e -->
<g id="edge9" class="edge">
<title>_c1a739983405a7bfa4936ec3a1ea5fbf93592d8df15f9a6b45f2537d7c543d15&#45;&gt;_457e8792d4af0b60ec728dc4a5ed79d03fe6e76d0730385fad463089f8a49c0e</title>
<path fill="none" stroke="black" d="M473.44,-329.93C336.8,-353.56 157.99,-384.92 155,-387.74 110.33,-429.93 123,-460.79 123,-522.24 123,-522.24 123,-522.24 123,-756.1 123,-812.12 443.26,-841.61 672.82,-855.56"/>
<polygon fill="black" stroke="black" points="672.32,-859.03 682.51,-856.14 672.74,-852.05 672.32,-859.03"/>
<text text-anchor="middle" x="158" y="-578.74" font-family="Times,serif" font-size="10.00">wasDerivedFrom</text>
</g>
<!-- _c1a739983405a7bfa4936ec3a1ea5fbf93592d8df15f9a6b45f2537d7c543d15&#45;&gt;_ebc267bba83123d50851bec30bc40b11891becea7dea22c9a75002f38bd181f3 -->
<g id="edge10" class="edge">
<title>_c1a739983405a7bfa4936ec3a1ea5fbf93592d8df15f9a6b45f2537d7c543d15&#45;&gt;_ebc267bba83123d50851bec30bc40b11891becea7dea22c9a75002f38bd181f3</title>
<path fill="none" stroke="black" d="M776.81,-330.51C847.72,-342.98 933.63,-357.67 1011,-369.74 1045.98,-375.19 1083.2,-380.67 1119.34,-385.83"/>
<polygon fill="black" stroke="black" points="1118.63,-389.26 1129.02,-387.2 1119.61,-382.33 1118.63,-389.26"/>
<text text-anchor="middle" x="1046" y="-361.74" font-family="Times,serif" font-size="10.00">wasDerivedFrom</text>
</g>
<!-- _c1a739983405a7bfa4936ec3a1ea5fbf93592d8df15f9a6b45f2537d7c543d15&#45;&gt;_1aa3504fd0f5004a0b62e45f40456297227f4299319f47b6ae52f20305601d7f -->
<g id="edge11" class="edge">
<title>_c1a739983405a7bfa4936ec3a1ea5fbf93592d8df15f9a6b45f2537d7c543d15&#45;&gt;_1aa3504fd0f5004a0b62e45f40456297227f4299319f47b6ae52f20305601d7f</title>
<path fill="none" stroke="black" d="M543.2,-338.26C508.56,-352.61 468.74,-369.11 435.17,-383.01"/>
<polygon fill="black" stroke="black" points="434.27,-379.6 426.37,-386.66 436.95,-386.06 434.27,-379.6"/>
<text text-anchor="middle" x="521" y="-361.74" font-family="Times,serif" font-size="10.00">wasDerivedFrom</text>
</g>
<!-- _d39fd74adc51b4a1f5dbc40716bcb6c4f44db1c4f75fe9dece0d18b9c6a9370b -->
<g id="node10" class="node">
<title>_d39fd74adc51b4a1f5dbc40716bcb6c4f44db1c4f75fe9dece0d18b9c6a9370b</title>
<polygon fill="#cdc673" stroke="#808080" points="1074.5,-441.74 1071.5,-445.74 1050.5,-445.74 1047.5,-441.74 683.5,-441.74 683.5,-387.74 1074.5,-387.74 1074.5,-441.74"/>
<text text-anchor="middle" x="879" y="-426.54" font-family="Times,serif" font-size="14.00">ID &#45; kb:provenance&#45;record&#45;75fb2a26&#45;0b7e&#45;428b&#45;acba&#45;17d114caca39</text>
<text text-anchor="middle" x="879" y="-395.54" font-family="Times,serif" font-size="14.00">Record of blk0_mmcblk0.bin being hashed</text>
</g>
<!-- _c1a739983405a7bfa4936ec3a1ea5fbf93592d8df15f9a6b45f2537d7c543d15&#45;&gt;_d39fd74adc51b4a1f5dbc40716bcb6c4f44db1c4f75fe9dece0d18b9c6a9370b -->
<g id="edge12" class="edge">
<title>_c1a739983405a7bfa4936ec3a1ea5fbf93592d8df15f9a6b45f2537d7c543d15&#45;&gt;_d39fd74adc51b4a1f5dbc40716bcb6c4f44db1c4f75fe9dece0d18b9c6a9370b</title>
<path fill="none" stroke="black" d="M707.08,-338.57C739.58,-352.78 776.8,-369.05 808.28,-382.81"/>
<polygon fill="black" stroke="black" points="806.77,-385.97 817.34,-386.77 809.58,-379.56 806.77,-385.97"/>
<text text-anchor="middle" x="810" y="-361.74" font-family="Times,serif" font-size="10.00">wasDerivedFrom</text>
</g>
<!-- _c1a739983405a7bfa4936ec3a1ea5fbf93592d8df15f9a6b45f2537d7c543d15&#45;&gt;_0a56478b124850e46a803da26039a994826dbcfde99c095ebc9693539de82b15 -->
<g id="edge13" class="edge">
<title>_c1a739983405a7bfa4936ec3a1ea5fbf93592d8df15f9a6b45f2537d7c543d15&#45;&gt;_0a56478b124850e46a803da26039a994826dbcfde99c095ebc9693539de82b15</title>
<path fill="none" stroke="black" d="M607.36,-341.2C594.8,-371.04 584.35,-412.45 605,-441.74 617.06,-458.84 633.09,-472.32 651.07,-482.96"/>
<polygon fill="black" stroke="black" points="648.88,-485.74 659.32,-487.53 652.27,-479.62 648.88,-485.74"/>
<text text-anchor="middle" x="640" y="-412.24" font-family="Times,serif" font-size="10.00">wasDerivedFrom</text>
</g>
<!-- _2a4fbbcb7bd477dfe0f7d0497df08f1814dc4799866304fbb2c1d587e028daee&#45;&gt;_457e8792d4af0b60ec728dc4a5ed79d03fe6e76d0730385fad463089f8a49c0e -->
<g id="edge14" class="edge">
<title>_2a4fbbcb7bd477dfe0f7d0497df08f1814dc4799866304fbb2c1d587e028daee&#45;&gt;_457e8792d4af0b60ec728dc4a5ed79d03fe6e76d0730385fad463089f8a49c0e</title>
<path fill="none" stroke="black" d="M462.83,-681.27C439.74,-711.15 417.54,-752.74 442,-782.1 473.34,-819.71 577.37,-840.57 678.48,-852.12"/>
<polygon fill="black" stroke="black" points="678.01,-855.58 688.33,-853.21 678.78,-848.63 678.01,-855.58"/>
<text text-anchor="middle" x="477" y="-752.6" font-family="Times,serif" font-size="10.00">wasDerivedFrom</text>
</g>
<!-- _e264b7293df474c115e21778029b26cd0c594a392b8edd2ecdc026d38239a600 -->
<g id="node8" class="node">
<title>_e264b7293df474c115e21778029b26cd0c594a392b8edd2ecdc026d38239a600</title>
<polygon fill="#cdc673" stroke="#808080" points="915.5,-782.1 912.5,-786.1 891.5,-786.1 888.5,-782.1 520.5,-782.1 520.5,-728.1 915.5,-728.1 915.5,-782.1"/>
<text text-anchor="middle" x="718" y="-766.9" font-family="Times,serif" font-size="14.00">ID &#45; kb:provenance&#45;record&#45;37290c6d&#45;3dc2&#45;4519&#45;a80f&#45;136e73981d8b</text>
<text text-anchor="middle" x="718" y="-735.9" font-family="Times,serif" font-size="14.00">Record of blk32_mmcblk0rpmb.bin being hashed</text>
</g>
<!-- _2a4fbbcb7bd477dfe0f7d0497df08f1814dc4799866304fbb2c1d587e028daee&#45;&gt;_e264b7293df474c115e21778029b26cd0c594a392b8edd2ecdc026d38239a600 -->
<g id="edge15" class="edge">
<title>_2a4fbbcb7bd477dfe0f7d0497df08f1814dc4799866304fbb2c1d587e028daee&#45;&gt;_e264b7293df474c115e21778029b26cd0c594a392b8edd2ecdc026d38239a600</title>
<path fill="none" stroke="black" d="M568.45,-679.54C596.29,-693.42 627.93,-709.2 654.92,-722.65"/>
<polygon fill="black" stroke="black" points="653.15,-725.68 663.66,-727.01 656.27,-719.42 653.15,-725.68"/>
<text text-anchor="middle" x="662" y="-702.1" font-family="Times,serif" font-size="10.00">wasDerivedFrom</text>
</g>
<!-- _ebc267bba83123d50851bec30bc40b11891becea7dea22c9a75002f38bd181f3&#45;&gt;_457e8792d4af0b60ec728dc4a5ed79d03fe6e76d0730385fad463089f8a49c0e -->
<g id="edge16" class="edge">
<title>_ebc267bba83123d50851bec30bc40b11891becea7dea22c9a75002f38bd181f3&#45;&gt;_457e8792d4af0b60ec728dc4a5ed79d03fe6e76d0730385fad463089f8a49c0e</title>
<path fill="none" stroke="black" d="M1326.38,-441.99C1326.67,-463.55 1327,-494.87 1327,-522.24 1327,-522.24 1327,-522.24 1327,-756.1 1327,-805.07 1220.15,-832.63 1113.47,-847.94"/>
<polygon fill="black" stroke="black" points="1113.07,-844.46 1103.65,-849.31 1114.04,-851.39 1113.07,-844.46"/>
<text text-anchor="middle" x="1351.5" y="-640.42" font-family="Times,serif" font-size="10.00">hadMember</text>
</g>
<!-- _ebc267bba83123d50851bec30bc40b11891becea7dea22c9a75002f38bd181f3&#45;&gt;_457e8792d4af0b60ec728dc4a5ed79d03fe6e76d0730385fad463089f8a49c0e -->
<g id="edge17" class="edge">
<title>_ebc267bba83123d50851bec30bc40b11891becea7dea22c9a75002f38bd181f3&#45;&gt;_457e8792d4af0b60ec728dc4a5ed79d03fe6e76d0730385fad463089f8a49c0e</title>
<path fill="none" stroke="black" d="M1276.27,-442.16C1249.13,-460.51 1221,-487.83 1221,-522.24 1221,-522.24 1221,-522.24 1221,-756.1 1221,-792.16 1147.45,-818.97 1070.88,-837.11"/>
<polygon fill="black" stroke="black" points="1070.49,-833.61 1061.54,-839.27 1072.07,-840.42 1070.49,-833.61"/>
<text text-anchor="middle" x="1256" y="-640.42" font-family="Times,serif" font-size="10.00">wasDerivedFrom</text>
</g>
<!-- _ebc267bba83123d50851bec30bc40b11891becea7dea22c9a75002f38bd181f3&#45;&gt;_0a56478b124850e46a803da26039a994826dbcfde99c095ebc9693539de82b15 -->
<g id="edge18" class="edge">
<title>_ebc267bba83123d50851bec30bc40b11891becea7dea22c9a75002f38bd181f3&#45;&gt;_0a56478b124850e46a803da26039a994826dbcfde99c095ebc9693539de82b15</title>
<path fill="none" stroke="black" d="M1195.56,-442.18C1175.74,-447.32 1155.68,-453.18 1137,-459.74 1126.31,-463.49 1124.78,-467.25 1114,-470.74 1090.31,-478.4 1065.1,-485.04 1039.88,-490.75"/>
<polygon fill="black" stroke="black" points="1039.17,-487.33 1030.16,-492.9 1040.68,-494.16 1039.17,-487.33"/>
<text text-anchor="middle" x="1172" y="-462.74" font-family="Times,serif" font-size="10.00">wasDerivedFrom</text>
</g>
<!-- _1aa3504fd0f5004a0b62e45f40456297227f4299319f47b6ae52f20305601d7f&#45;&gt;_0a56478b124850e46a803da26039a994826dbcfde99c095ebc9693539de82b15 -->
<g id="edge19" class="edge">
<title>_1aa3504fd0f5004a0b62e45f40456297227f4299319f47b6ae52f20305601d7f&#45;&gt;_0a56478b124850e46a803da26039a994826dbcfde99c095ebc9693539de82b15</title>
<path fill="none" stroke="black" d="M424.74,-442.18C451.08,-452.29 482.15,-463.2 511,-470.74 546.55,-480.02 584.79,-487.92 622.03,-494.54"/>
<polygon fill="black" stroke="black" points="621.08,-497.93 631.53,-496.2 622.29,-491.03 621.08,-497.93"/>
<text text-anchor="middle" x="546" y="-462.74" font-family="Times,serif" font-size="10.00">wasDerivedFrom</text>
</g>
<!-- _a02c2e16e16ca8e40604e0031a59adedf64d57096fdb251d9226c253b8a229a9&#45;&gt;_c1a739983405a7bfa4936ec3a1ea5fbf93592d8df15f9a6b45f2537d7c543d15 -->
<g id="edge20" class="edge">
<title>_a02c2e16e16ca8e40604e0031a59adedf64d57096fdb251d9226c253b8a229a9&#45;&gt;_c1a739983405a7bfa4936ec3a1ea5fbf93592d8df15f9a6b45f2537d7c543d15</title>
<path fill="none" stroke="black" d="M807.13,-145.11C691,-148.84 563.43,-157.49 545,-177.37 524.15,-199.86 530.59,-219.3 545,-246.37 547.12,-250.34 549.66,-254.08 552.52,-257.6"/>
<polygon fill="black" stroke="black" points="549.82,-259.83 559.2,-264.75 554.94,-255.05 549.82,-259.83"/>
<text text-anchor="middle" x="569.5" y="-209.37" font-family="Times,serif" font-size="10.00">hadMember</text>
</g>
<!-- _a02c2e16e16ca8e40604e0031a59adedf64d57096fdb251d9226c253b8a229a9&#45;&gt;_457e8792d4af0b60ec728dc4a5ed79d03fe6e76d0730385fad463089f8a49c0e -->
<g id="edge21" class="edge">
<title>_a02c2e16e16ca8e40604e0031a59adedf64d57096fdb251d9226c253b8a229a9&#45;&gt;_457e8792d4af0b60ec728dc4a5ed79d03fe6e76d0730385fad463089f8a49c0e</title>
<path fill="none" stroke="black" d="M1194.88,-159.81C1351.82,-185.91 1549,-251.07 1549,-413.74 1549,-413.74 1549,-413.74 1549,-756.1 1549,-800.89 1305.29,-832.19 1116.78,-849.69"/>
<polygon fill="black" stroke="black" points="1116.73,-846.18 1107.09,-850.58 1117.37,-853.15 1116.73,-846.18"/>
<text text-anchor="middle" x="1584" y="-520.74" font-family="Times,serif" font-size="10.00">wasDerivedFrom</text>
</g>
<!-- _a02c2e16e16ca8e40604e0031a59adedf64d57096fdb251d9226c253b8a229a9&#45;&gt;_ebc267bba83123d50851bec30bc40b11891becea7dea22c9a75002f38bd181f3 -->
<g id="edge22" class="edge">
<title>_a02c2e16e16ca8e40604e0031a59adedf64d57096fdb251d9226c253b8a229a9&#45;&gt;_ebc267bba83123d50851bec30bc40b11891becea7dea22c9a75002f38bd181f3</title>
<path fill="none" stroke="black" d="M1080.74,-159.83C1093.39,-164.46 1105.97,-170.22 1117,-177.37 1199.93,-231.09 1269.75,-326.45 1303.77,-378.1"/>
<polygon fill="black" stroke="black" points="1300.68,-379.78 1309.07,-386.26 1306.55,-375.96 1300.68,-379.78"/>
<text text-anchor="middle" x="1312" y="-300.05" font-family="Times,serif" font-size="10.00">wasDerivedFrom</text>
</g>
<!-- _a02c2e16e16ca8e40604e0031a59adedf64d57096fdb251d9226c253b8a229a9&#45;&gt;_1aa3504fd0f5004a0b62e45f40456297227f4299319f47b6ae52f20305601d7f -->
<g id="edge23" class="edge">
<title>_a02c2e16e16ca8e40604e0031a59adedf64d57096fdb251d9226c253b8a229a9&#45;&gt;_1aa3504fd0f5004a0b62e45f40456297227f4299319f47b6ae52f20305601d7f</title>
<path fill="none" stroke="black" d="M807.23,-150C700.02,-155.49 579.05,-164.28 527,-177.37 434.96,-200.51 383.66,-184.76 332,-264.37 309.94,-298.36 324.73,-345.25 340.13,-377.37"/>
<polygon fill="black" stroke="black" points="336.8,-378.54 344.42,-385.89 343.05,-375.39 336.8,-378.54"/>
<text text-anchor="middle" x="367" y="-300.05" font-family="Times,serif" font-size="10.00">wasDerivedFrom</text>
</g>
<!-- _a02c2e16e16ca8e40604e0031a59adedf64d57096fdb251d9226c253b8a229a9&#45;&gt;_d39fd74adc51b4a1f5dbc40716bcb6c4f44db1c4f75fe9dece0d18b9c6a9370b -->
<g id="edge24" class="edge">
<title>_a02c2e16e16ca8e40604e0031a59adedf64d57096fdb251d9226c253b8a229a9&#45;&gt;_d39fd74adc51b4a1f5dbc40716bcb6c4f44db1c4f75fe9dece0d18b9c6a9370b</title>
<path fill="none" stroke="black" d="M1006.26,-159.84C1009.32,-207.16 1015.2,-336.48 991,-369.74 988.17,-373.63 984.93,-377.18 981.4,-380.42"/>
<polygon fill="black" stroke="black" points="979.45,-377.49 973.82,-386.47 983.82,-382.96 979.45,-377.49"/>
<text text-anchor="middle" x="1043" y="-300.05" font-family="Times,serif" font-size="10.00">wasDerivedFrom</text>
</g>
<!-- _a02c2e16e16ca8e40604e0031a59adedf64d57096fdb251d9226c253b8a229a9&#45;&gt;_0a56478b124850e46a803da26039a994826dbcfde99c095ebc9693539de82b15 -->
<g id="edge25" class="edge">
<title>_a02c2e16e16ca8e40604e0031a59adedf64d57096fdb251d9226c253b8a229a9&#45;&gt;_0a56478b124850e46a803da26039a994826dbcfde99c095ebc9693539de82b15</title>
<path fill="none" stroke="black" d="M1020.46,-159.82C1039.17,-182.2 1069.7,-223.08 1082,-264.37 1104.51,-339.92 1130.53,-378.1 1084,-441.74 1071.55,-458.77 1055.46,-472.28 1037.43,-482.99"/>
<polygon fill="black" stroke="black" points="1036.19,-479.67 1029.16,-487.6 1039.6,-485.79 1036.19,-479.67"/>
<text text-anchor="middle" x="1144" y="-361.74" font-family="Times,serif" font-size="10.00">wasDerivedFrom</text>
</g>
<!-- _e264b7293df474c115e21778029b26cd0c594a392b8edd2ecdc026d38239a600&#45;&gt;_457e8792d4af0b60ec728dc4a5ed79d03fe6e76d0730385fad463089f8a49c0e -->
<g id="edge26" class="edge">
<title>_e264b7293df474c115e21778029b26cd0c594a392b8edd2ecdc026d38239a600&#45;&gt;_457e8792d4af0b60ec728dc4a5ed79d03fe6e76d0730385fad463089f8a49c0e</title>
<path fill="none" stroke="black" d="M738.85,-782.45C747.67,-792.37 758.55,-803.17 770,-811.1 778.27,-816.83 787.22,-822.14 796.44,-827"/>
<polygon fill="black" stroke="black" points="794.67,-830.03 805.17,-831.43 797.83,-823.79 794.67,-830.03"/>
<text text-anchor="middle" x="794.5" y="-803.1" font-family="Times,serif" font-size="10.00">hadMember</text>
</g>
<!-- _e264b7293df474c115e21778029b26cd0c594a392b8edd2ecdc026d38239a600&#45;&gt;_457e8792d4af0b60ec728dc4a5ed79d03fe6e76d0730385fad463089f8a49c0e -->
<g id="edge27" class="edge">
<title>_e264b7293df474c115e21778029b26cd0c594a392b8edd2ecdc026d38239a600&#45;&gt;_457e8792d4af0b60ec728dc4a5ed79d03fe6e76d0730385fad463089f8a49c0e</title>
<path fill="none" stroke="black" d="M785.55,-782.52C796.99,-787.83 808.53,-793.76 819,-800.1 829.77,-806.63 840.68,-814.43 850.87,-822.35"/>
<polygon fill="black" stroke="black" points="848.43,-824.89 858.43,-828.37 852.79,-819.41 848.43,-824.89"/>
<text text-anchor="middle" x="868" y="-803.1" font-family="Times,serif" font-size="10.00">wasDerivedFrom</text>
</g>
<!-- _b5ab4f9e376265609eda39155c81c1c21d11e2e36515c2a87670364c122d98c3&#45;&gt;_d39fd74adc51b4a1f5dbc40716bcb6c4f44db1c4f75fe9dece0d18b9c6a9370b -->
<g id="edge28" class="edge">
<title>_b5ab4f9e376265609eda39155c81c1c21d11e2e36515c2a87670364c122d98c3&#45;&gt;_d39fd74adc51b4a1f5dbc40716bcb6c4f44db1c4f75fe9dece0d18b9c6a9370b</title>
<path fill="none" stroke="black" d="M839.15,-246.79C844.08,-252.21 848.56,-258.12 852,-264.37 871.09,-299.07 877.07,-344.51 878.76,-376.12"/>
<polygon fill="black" stroke="black" points="875.26,-376.14 879.15,-385.99 882.25,-375.86 875.26,-376.14"/>
<text text-anchor="middle" x="910" y="-300.05" font-family="Times,serif" font-size="10.00">wasDerivedFrom</text>
</g>
<!-- _d39fd74adc51b4a1f5dbc40716bcb6c4f44db1c4f75fe9dece0d18b9c6a9370b&#45;&gt;_0a56478b124850e46a803da26039a994826dbcfde99c095ebc9693539de82b15 -->
<g id="edge29" class="edge">
<title>_d39fd74adc51b4a1f5dbc40716bcb6c4f44db1c4f75fe9dece0d18b9c6a9370b&#45;&gt;_0a56478b124850e46a803da26039a994826dbcfde99c095ebc9693539de82b15</title>
<path fill="none" stroke="black" d="M867.13,-442.06C862.19,-453.03 856.31,-466.07 850.75,-478.42"/>
<polygon fill="black" stroke="black" points="847.72,-476.63 846.8,-487.18 854.1,-479.5 847.72,-476.63"/>
<text text-anchor="middle" x="892" y="-462.74" font-family="Times,serif" font-size="10.00">wasDerivedFrom</text>
</g>
<!-- _0a56478b124850e46a803da26039a994826dbcfde99c095ebc9693539de82b15&#45;&gt;_2a4fbbcb7bd477dfe0f7d0497df08f1814dc4799866304fbb2c1d587e028daee -->
<g id="edge30" class="edge">
<title>_0a56478b124850e46a803da26039a994826dbcfde99c095ebc9693539de82b15&#45;&gt;_2a4fbbcb7bd477dfe0f7d0497df08f1814dc4799866304fbb2c1d587e028daee</title>
<path fill="none" stroke="black" d="M734.84,-558.12C693.98,-572.51 646.17,-589.36 604.17,-604.16"/>
<polygon fill="black" stroke="black" points="603.04,-600.84 594.77,-607.47 605.37,-607.45 603.04,-600.84"/>
<text text-anchor="middle" x="707.5" y="-578.74" font-family="Times,serif" font-size="10.00">hadMember</text>
</g>
<!-- _0a56478b124850e46a803da26039a994826dbcfde99c095ebc9693539de82b15&#45;&gt;_457e8792d4af0b60ec728dc4a5ed79d03fe6e76d0730385fad463089f8a49c0e -->
<g id="edge31" class="edge">
<title>_0a56478b124850e46a803da26039a994826dbcfde99c095ebc9693539de82b15&#45;&gt;_457e8792d4af0b60ec728dc4a5ed79d03fe6e76d0730385fad463089f8a49c0e</title>
<path fill="none" stroke="black" d="M852.13,-557.97C875.3,-597.14 911.05,-664.53 925,-728.1 931.48,-757.65 926.02,-791.07 918.68,-817.64"/>
<polygon fill="black" stroke="black" points="915.35,-816.54 915.88,-827.12 922.07,-818.53 915.35,-816.54"/>
<text text-anchor="middle" x="944.5" y="-702.1" font-family="Times,serif" font-size="10.00">hadMember</text>
</g>
<!-- _0a56478b124850e46a803da26039a994826dbcfde99c095ebc9693539de82b15&#45;&gt;_457e8792d4af0b60ec728dc4a5ed79d03fe6e76d0730385fad463089f8a49c0e -->
<g id="edge32" class="edge">
<title>_0a56478b124850e46a803da26039a994826dbcfde99c095ebc9693539de82b15&#45;&gt;_457e8792d4af0b60ec728dc4a5ed79d03fe6e76d0730385fad463089f8a49c0e</title>
<path fill="none" stroke="black" d="M872.14,-558.01C907.36,-590 955.11,-641.59 973,-699.1 986.08,-741.17 963.57,-786.99 940.35,-820.01"/>
<polygon fill="black" stroke="black" points="937.77,-817.6 934.7,-827.74 943.43,-821.73 937.77,-817.6"/>
<text text-anchor="middle" x="1010" y="-702.1" font-family="Times,serif" font-size="10.00">wasDerivedFrom</text>
</g>
<!-- _0a56478b124850e46a803da26039a994826dbcfde99c095ebc9693539de82b15&#45;&gt;_e264b7293df474c115e21778029b26cd0c594a392b8edd2ecdc026d38239a600 -->
<g id="edge33" class="edge">
<title>_0a56478b124850e46a803da26039a994826dbcfde99c095ebc9693539de82b15&#45;&gt;_e264b7293df474c115e21778029b26cd0c594a392b8edd2ecdc026d38239a600</title>
<path fill="none" stroke="black" d="M814.33,-558.15C793.34,-600.84 757.44,-673.87 735.9,-717.7"/>
<polygon fill="black" stroke="black" points="732.81,-716.03 731.54,-726.55 739.1,-719.12 732.81,-716.03"/>
<text text-anchor="middle" x="826" y="-640.42" font-family="Times,serif" font-size="10.00">wasDerivedFrom</text>
</g>
<!-- _357f00248bdc728725be43338ec69113a99cec9793681d0accd1f777e4dd5fbf -->
<g id="node12" class="node">
<title>_357f00248bdc728725be43338ec69113a99cec9793681d0accd1f777e4dd5fbf</title>
<polygon fill="#cdc673" stroke="#808080" points="694,-56.18 691,-60.18 670,-60.18 667,-56.18 530,-56.18 530,-20.18 694,-20.18 694,-56.18"/>
<text text-anchor="middle" x="612" y="-34.48" font-family="Times,serif" font-size="14.00">ID &#45; prov:EmptyCollection</text>
</g>
</g>
</svg>
