<?xml version="1.0" encoding="UTF-8" standalone="no"?>
<!DOCTYPE svg PUBLIC "-//W3C//DTD SVG 1.1//EN"
 "http://www.w3.org/Graphics/SVG/1.1/DTD/svg11.dtd">
<!-- Generated by graphviz version 7.1.0 (20230121.1956)
 -->
<!-- Title: PROV&#45;O render Pages: 1 -->
<svg width="1086pt" height="515pt"
 viewBox="0.00 0.00 1085.70 515.10" xmlns="http://www.w3.org/2000/svg" xmlns:xlink="http://www.w3.org/1999/xlink">
<g id="graph0" class="graph" transform="scale(1 1) rotate(0) translate(4 511.1)">
<title>PROV&#45;O render</title>
<polygon fill="white" stroke="none" points="-4,4 -4,-511.1 1081.7,-511.1 1081.7,4 -4,4"/>
<!-- _1f04d829546c397900d5164d5f2d881a9d7141a66bfedb6c9fbc0aa88bbfc164 -->
<g id="node1" class="node">
<title>_1f04d829546c397900d5164d5f2d881a9d7141a66bfedb6c9fbc0aa88bbfc164</title>
<ellipse fill="#fff68f" stroke="#808080" cx="219.2" cy="-38.18" rx="219.41" ry="38.37"/>
<text text-anchor="middle" x="219.2" y="-49.98" font-family="Times,serif" font-size="14.00">ID &#45; kb:file&#45;2352f3d0&#45;d02f&#45;40ba&#45;85a4&#45;b00dd97050c8</text>
<text text-anchor="middle" x="219.2" y="-18.98" font-family="Times,serif" font-size="14.00">android_7.tar.gz</text>
</g>
<!-- _c1a739983405a7bfa4936ec3a1ea5fbf93592d8df15f9a6b45f2537d7c543d15 -->
<g id="node2" class="node">
<title>_c1a739983405a7bfa4936ec3a1ea5fbf93592d8df15f9a6b45f2537d7c543d15</title>
<ellipse fill="#fff68f" stroke="#808080" cx="350.2" cy="-244.55" rx="216.25" ry="38.37"/>
<text text-anchor="middle" x="350.2" y="-256.35" font-family="Times,serif" font-size="14.00">ID &#45; kb:file&#45;3af91026&#45;4c09&#45;4047&#45;a914&#45;15e75a711ff0</text>
<text text-anchor="middle" x="350.2" y="-225.35" font-family="Times,serif" font-size="14.00">Android7&#45;ImageCreationDocumentation.pdf</text>
</g>
<!-- _1f04d829546c397900d5164d5f2d881a9d7141a66bfedb6c9fbc0aa88bbfc164&#45;&gt;_c1a739983405a7bfa4936ec3a1ea5fbf93592d8df15f9a6b45f2537d7c543d15 -->
<g id="edge1" class="edge">
<title>_1f04d829546c397900d5164d5f2d881a9d7141a66bfedb6c9fbc0aa88bbfc164&#45;&gt;_c1a739983405a7bfa4936ec3a1ea5fbf93592d8df15f9a6b45f2537d7c543d15</title>
<path fill="none" stroke="black" d="M136.34,-74.04C96.15,-96.1 61.22,-126.58 85.2,-159.37 104.98,-186.41 133.52,-204.97 164.6,-217.67"/>
<polygon fill="black" stroke="black" points="163.23,-220.89 173.82,-221.22 165.74,-214.36 163.23,-220.89"/>
<text text-anchor="middle" x="120.2" y="-138.87" font-family="Times,serif" font-size="10.00">wasDerivedFrom</text>
</g>
<!-- _5090b4bd42dac0fe6075f8ff9b6b3a5930561b67224e38a36ae608fd7cdd8b9e -->
<g id="node3" class="node">
<title>_5090b4bd42dac0fe6075f8ff9b6b3a5930561b67224e38a36ae608fd7cdd8b9e</title>
<ellipse fill="#fff68f" stroke="#808080" cx="481.2" cy="-468.92" rx="230.53" ry="38.37"/>
<text text-anchor="middle" x="481.2" y="-480.72" font-family="Times,serif" font-size="14.00">ID &#45; kb:image&#45;a3c3e13d&#45;98ef&#45;4901&#45;b984&#45;81c10142d90e</text>
<text text-anchor="middle" x="481.2" y="-449.72" font-family="Times,serif" font-size="14.00">blk0_mmcblk0.bin, as generated by imaging process</text>
</g>
<!-- _1f04d829546c397900d5164d5f2d881a9d7141a66bfedb6c9fbc0aa88bbfc164&#45;&gt;_5090b4bd42dac0fe6075f8ff9b6b3a5930561b67224e38a36ae608fd7cdd8b9e -->
<g id="edge2" class="edge">
<title>_1f04d829546c397900d5164d5f2d881a9d7141a66bfedb6c9fbc0aa88bbfc164&#45;&gt;_5090b4bd42dac0fe6075f8ff9b6b3a5930561b67224e38a36ae608fd7cdd8b9e</title>
<path fill="none" stroke="black" d="M66.7,-66.15C33.56,-81.09 8.2,-104.31 8.2,-140.37 8.2,-140.37 8.2,-140.37 8.2,-357.74 8.2,-412.98 132.13,-440.53 253.11,-454.28"/>
<polygon fill="black" stroke="black" points="252.6,-457.74 262.93,-455.36 253.37,-450.78 252.6,-457.74"/>
<text text-anchor="middle" x="43.2" y="-242.05" font-family="Times,serif" font-size="10.00">wasDerivedFrom</text>
</g>
<!-- _a02c2e16e16ca8e40604e0031a59adedf64d57096fdb251d9226c253b8a229a9 -->
<g id="node4" class="node">
<title>_a02c2e16e16ca8e40604e0031a59adedf64d57096fdb251d9226c253b8a229a9</title>
<polygon fill="#cdc673" stroke="#808080" points="559.7,-159.37 556.7,-163.37 535.7,-163.37 532.7,-159.37 164.7,-159.37 164.7,-123.37 559.7,-123.37 559.7,-159.37"/>
<text text-anchor="middle" x="362.2" y="-137.67" font-family="Times,serif" font-size="14.00">ID &#45; kb:provenance&#45;record&#45;2dbd4ba1&#45;76b1&#45;4041&#45;a460&#45;8a5922940f79</text>
</g>
<!-- _1f04d829546c397900d5164d5f2d881a9d7141a66bfedb6c9fbc0aa88bbfc164&#45;&gt;_a02c2e16e16ca8e40604e0031a59adedf64d57096fdb251d9226c253b8a229a9 -->
<g id="edge3" class="edge">
<title>_1f04d829546c397900d5164d5f2d881a9d7141a66bfedb6c9fbc0aa88bbfc164&#45;&gt;_a02c2e16e16ca8e40604e0031a59adedf64d57096fdb251d9226c253b8a229a9</title>
<path fill="none" stroke="black" d="M270.83,-75.71C290,-89.28 311.24,-104.31 328.41,-116.46"/>
<polygon fill="black" stroke="black" points="326.08,-119.09 336.26,-122.01 330.12,-113.38 326.08,-119.09"/>
<text text-anchor="middle" x="347.2" y="-97.37" font-family="Times,serif" font-size="10.00">wasDerivedFrom</text>
</g>
<!-- _b5ab4f9e376265609eda39155c81c1c21d11e2e36515c2a87670364c122d98c3 -->
<g id="node5" class="node">
<title>_b5ab4f9e376265609eda39155c81c1c21d11e2e36515c2a87670364c122d98c3</title>
<polygon fill="#cdc673" stroke="#808080" points="1077.7,-279.05 1074.7,-283.05 1053.7,-283.05 1050.7,-279.05 690.7,-279.05 690.7,-210.05 1077.7,-210.05 1077.7,-279.05"/>
<text text-anchor="middle" x="884.2" y="-263.85" font-family="Times,serif" font-size="14.00">ID &#45; kb:provenance&#45;record&#45;529f9bf1&#45;c9ca&#45;450c&#45;8311&#45;98c8a800fac5</text>
<text text-anchor="middle" x="884.2" y="-232.85" font-family="Times,serif" font-size="14.00">Record of blk0_mmcblk0.bin being hashed before entry into </text>
<text text-anchor="middle" x="884.2" y="-217.85" font-family="Times,serif" font-size="14.00">tarball</text>
</g>
<!-- _1f04d829546c397900d5164d5f2d881a9d7141a66bfedb6c9fbc0aa88bbfc164&#45;&gt;_b5ab4f9e376265609eda39155c81c1c21d11e2e36515c2a87670364c122d98c3 -->
<g id="edge4" class="edge">
<title>_1f04d829546c397900d5164d5f2d881a9d7141a66bfedb6c9fbc0aa88bbfc164&#45;&gt;_b5ab4f9e376265609eda39155c81c1c21d11e2e36515c2a87670364c122d98c3</title>
<path fill="none" stroke="black" d="M357.87,-68.22C422.61,-82.88 500.4,-102.06 569.2,-123.37 645.98,-147.14 731.01,-179.98 793.36,-205.33"/>
<polygon fill="black" stroke="black" points="791.97,-208.54 802.55,-209.08 794.61,-202.06 791.97,-208.54"/>
<text text-anchor="middle" x="706.2" y="-138.87" font-family="Times,serif" font-size="10.00">wasDerivedFrom</text>
</g>
<!-- _c1a739983405a7bfa4936ec3a1ea5fbf93592d8df15f9a6b45f2537d7c543d15&#45;&gt;_5090b4bd42dac0fe6075f8ff9b6b3a5930561b67224e38a36ae608fd7cdd8b9e -->
<g id="edge5" class="edge">
<title>_c1a739983405a7bfa4936ec3a1ea5fbf93592d8df15f9a6b45f2537d7c543d15&#45;&gt;_5090b4bd42dac0fe6075f8ff9b6b3a5930561b67224e38a36ae608fd7cdd8b9e</title>
<path fill="none" stroke="black" d="M318.91,-282.74C298.51,-311.76 279.09,-352.28 299.2,-383.74 311.91,-403.61 330.64,-418.87 351.32,-430.55"/>
<polygon fill="black" stroke="black" points="349.47,-433.53 359.94,-435.13 352.75,-427.35 349.47,-433.53"/>
<text text-anchor="middle" x="334.2" y="-354.24" font-family="Times,serif" font-size="10.00">wasDerivedFrom</text>
</g>
<!-- _d39fd74adc51b4a1f5dbc40716bcb6c4f44db1c4f75fe9dece0d18b9c6a9370b -->
<g id="node6" class="node">
<title>_d39fd74adc51b4a1f5dbc40716bcb6c4f44db1c4f75fe9dece0d18b9c6a9370b</title>
<polygon fill="#cdc673" stroke="#808080" points="769.7,-383.74 766.7,-387.74 745.7,-387.74 742.7,-383.74 378.7,-383.74 378.7,-329.74 769.7,-329.74 769.7,-383.74"/>
<text text-anchor="middle" x="574.2" y="-368.54" font-family="Times,serif" font-size="14.00">ID &#45; kb:provenance&#45;record&#45;75fb2a26&#45;0b7e&#45;428b&#45;acba&#45;17d114caca39</text>
<text text-anchor="middle" x="574.2" y="-337.54" font-family="Times,serif" font-size="14.00">Record of blk0_mmcblk0.bin being hashed</text>
</g>
<!-- _c1a739983405a7bfa4936ec3a1ea5fbf93592d8df15f9a6b45f2537d7c543d15&#45;&gt;_d39fd74adc51b4a1f5dbc40716bcb6c4f44db1c4f75fe9dece0d18b9c6a9370b -->
<g id="edge6" class="edge">
<title>_c1a739983405a7bfa4936ec3a1ea5fbf93592d8df15f9a6b45f2537d7c543d15&#45;&gt;_d39fd74adc51b4a1f5dbc40716bcb6c4f44db1c4f75fe9dece0d18b9c6a9370b</title>
<path fill="none" stroke="black" d="M422.62,-281.17C450.84,-295.05 482.91,-310.83 510.26,-324.28"/>
<polygon fill="black" stroke="black" points="508.62,-327.38 519.14,-328.65 511.71,-321.1 508.62,-327.38"/>
<text text-anchor="middle" x="517.2" y="-303.74" font-family="Times,serif" font-size="10.00">wasDerivedFrom</text>
</g>
<!-- _a02c2e16e16ca8e40604e0031a59adedf64d57096fdb251d9226c253b8a229a9&#45;&gt;_c1a739983405a7bfa4936ec3a1ea5fbf93592d8df15f9a6b45f2537d7c543d15 -->
<g id="edge7" class="edge">
<title>_a02c2e16e16ca8e40604e0031a59adedf64d57096fdb251d9226c253b8a229a9&#45;&gt;_c1a739983405a7bfa4936ec3a1ea5fbf93592d8df15f9a6b45f2537d7c543d15</title>
<path fill="none" stroke="black" d="M360.17,-159.53C359.02,-169.2 357.52,-181.82 356.04,-194.33"/>
<polygon fill="black" stroke="black" points="352.57,-193.85 354.87,-204.19 359.52,-194.67 352.57,-193.85"/>
<text text-anchor="middle" x="382.7" y="-180.37" font-family="Times,serif" font-size="10.00">hadMember</text>
</g>
<!-- _a02c2e16e16ca8e40604e0031a59adedf64d57096fdb251d9226c253b8a229a9&#45;&gt;_5090b4bd42dac0fe6075f8ff9b6b3a5930561b67224e38a36ae608fd7cdd8b9e -->
<g id="edge8" class="edge">
<title>_a02c2e16e16ca8e40604e0031a59adedf64d57096fdb251d9226c253b8a229a9&#45;&gt;_5090b4bd42dac0fe6075f8ff9b6b3a5930561b67224e38a36ae608fd7cdd8b9e</title>
<path fill="none" stroke="black" d="M247.4,-159.85C194.91,-170.41 140.91,-185.85 125.2,-206.37 104.57,-233.31 109.56,-252.62 125.2,-282.74 166.16,-361.57 254.65,-407.82 333.16,-434.38"/>
<polygon fill="black" stroke="black" points="331.64,-437.56 342.23,-437.37 333.82,-430.92 331.64,-437.56"/>
<text text-anchor="middle" x="178.2" y="-303.74" font-family="Times,serif" font-size="10.00">wasDerivedFrom</text>
</g>
<!-- _a02c2e16e16ca8e40604e0031a59adedf64d57096fdb251d9226c253b8a229a9&#45;&gt;_d39fd74adc51b4a1f5dbc40716bcb6c4f44db1c4f75fe9dece0d18b9c6a9370b -->
<g id="edge9" class="edge">
<title>_a02c2e16e16ca8e40604e0031a59adedf64d57096fdb251d9226c253b8a229a9&#45;&gt;_d39fd74adc51b4a1f5dbc40716bcb6c4f44db1c4f75fe9dece0d18b9c6a9370b</title>
<path fill="none" stroke="black" d="M459.1,-159.82C508.24,-170.85 560.6,-186.73 575.2,-206.37 598.94,-238.29 593.87,-285.59 585.99,-318.38"/>
<polygon fill="black" stroke="black" points="582.66,-317.3 583.52,-327.86 589.43,-319.07 582.66,-317.3"/>
<text text-anchor="middle" x="627.2" y="-242.05" font-family="Times,serif" font-size="10.00">wasDerivedFrom</text>
</g>
<!-- _b5ab4f9e376265609eda39155c81c1c21d11e2e36515c2a87670364c122d98c3&#45;&gt;_5090b4bd42dac0fe6075f8ff9b6b3a5930561b67224e38a36ae608fd7cdd8b9e -->
<g id="edge10" class="edge">
<title>_b5ab4f9e376265609eda39155c81c1c21d11e2e36515c2a87670364c122d98c3&#45;&gt;_5090b4bd42dac0fe6075f8ff9b6b3a5930561b67224e38a36ae608fd7cdd8b9e</title>
<path fill="none" stroke="black" d="M892.42,-279.4C897.68,-309.29 900.23,-352.81 880.2,-383.74 858.68,-416.97 779.79,-437.23 697.77,-449.52"/>
<polygon fill="black" stroke="black" points="697.33,-446.04 687.94,-450.94 698.34,-452.97 697.33,-446.04"/>
<text text-anchor="middle" x="919.7" y="-354.24" font-family="Times,serif" font-size="10.00">hadMember</text>
</g>
<!-- _b5ab4f9e376265609eda39155c81c1c21d11e2e36515c2a87670364c122d98c3&#45;&gt;_5090b4bd42dac0fe6075f8ff9b6b3a5930561b67224e38a36ae608fd7cdd8b9e -->
<g id="edge11" class="edge">
<title>_b5ab4f9e376265609eda39155c81c1c21d11e2e36515c2a87670364c122d98c3&#45;&gt;_5090b4bd42dac0fe6075f8ff9b6b3a5930561b67224e38a36ae608fd7cdd8b9e</title>
<path fill="none" stroke="black" d="M848.81,-279.28C834.54,-293.97 818.56,-311.88 806.2,-329.74 790.93,-351.8 799.88,-366.63 779.2,-383.74 747.43,-410.03 707.93,-428.12 668.2,-440.57"/>
<polygon fill="black" stroke="black" points="667.29,-437.19 658.72,-443.42 669.31,-443.89 667.29,-437.19"/>
<text text-anchor="middle" x="841.2" y="-354.24" font-family="Times,serif" font-size="10.00">wasDerivedFrom</text>
</g>
<!-- _b5ab4f9e376265609eda39155c81c1c21d11e2e36515c2a87670364c122d98c3&#45;&gt;_d39fd74adc51b4a1f5dbc40716bcb6c4f44db1c4f75fe9dece0d18b9c6a9370b -->
<g id="edge12" class="edge">
<title>_b5ab4f9e376265609eda39155c81c1c21d11e2e36515c2a87670364c122d98c3&#45;&gt;_d39fd74adc51b4a1f5dbc40716bcb6c4f44db1c4f75fe9dece0d18b9c6a9370b</title>
<path fill="none" stroke="black" d="M783.38,-279.42C763.09,-286.37 741.94,-293.71 722.2,-300.74 700.23,-308.56 676.52,-317.26 654.65,-325.38"/>
<polygon fill="black" stroke="black" points="653.64,-322.02 645.49,-328.79 656.09,-328.58 653.64,-322.02"/>
<text text-anchor="middle" x="757.2" y="-303.74" font-family="Times,serif" font-size="10.00">wasDerivedFrom</text>
</g>
<!-- _d39fd74adc51b4a1f5dbc40716bcb6c4f44db1c4f75fe9dece0d18b9c6a9370b&#45;&gt;_5090b4bd42dac0fe6075f8ff9b6b3a5930561b67224e38a36ae608fd7cdd8b9e -->
<g id="edge13" class="edge">
<title>_d39fd74adc51b4a1f5dbc40716bcb6c4f44db1c4f75fe9dece0d18b9c6a9370b&#45;&gt;_5090b4bd42dac0fe6075f8ff9b6b3a5930561b67224e38a36ae608fd7cdd8b9e</title>
<path fill="none" stroke="black" d="M566.85,-384.12C563.38,-393.72 558.57,-404.27 552.2,-412.74 549.4,-416.45 546.29,-420.05 542.98,-423.51"/>
<polygon fill="black" stroke="black" points="540.77,-420.79 536.03,-430.27 545.64,-425.81 540.77,-420.79"/>
<text text-anchor="middle" x="582.7" y="-404.74" font-family="Times,serif" font-size="10.00">hadMember</text>
</g>
<!-- _d39fd74adc51b4a1f5dbc40716bcb6c4f44db1c4f75fe9dece0d18b9c6a9370b&#45;&gt;_5090b4bd42dac0fe6075f8ff9b6b3a5930561b67224e38a36ae608fd7cdd8b9e -->
<g id="edge14" class="edge">
<title>_d39fd74adc51b4a1f5dbc40716bcb6c4f44db1c4f75fe9dece0d18b9c6a9370b&#45;&gt;_5090b4bd42dac0fe6075f8ff9b6b3a5930561b67224e38a36ae608fd7cdd8b9e</title>
<path fill="none" stroke="black" d="M495.14,-383.98C488.51,-388.93 482.66,-394.79 478.2,-401.74 474.86,-406.94 473.06,-412.87 472.29,-419.01"/>
<polygon fill="black" stroke="black" points="468.81,-418.51 471.97,-428.62 475.8,-418.75 468.81,-418.51"/>
<text text-anchor="middle" x="513.2" y="-404.74" font-family="Times,serif" font-size="10.00">wasDerivedFrom</text>
</g>
<!-- _357f00248bdc728725be43338ec69113a99cec9793681d0accd1f777e4dd5fbf -->
<g id="node7" class="node">
<title>_357f00248bdc728725be43338ec69113a99cec9793681d0accd1f777e4dd5fbf</title>
<polygon fill="#cdc673" stroke="#808080" points="620.2,-56.18 617.2,-60.18 596.2,-60.18 593.2,-56.18 456.2,-56.18 456.2,-20.18 620.2,-20.18 620.2,-56.18"/>
<text text-anchor="middle" x="538.2" y="-34.48" font-family="Times,serif" font-size="14.00">ID &#45; prov:EmptyCollection</text>
</g>
</g>
</svg>
