<?xml version="1.0" encoding="UTF-8" standalone="no"?>
<!DOCTYPE svg PUBLIC "-//W3C//DTD SVG 1.1//EN"
 "http://www.w3.org/Graphics/SVG/1.1/DTD/svg11.dtd">
<!-- Generated by graphviz version 7.1.0 (20230121.1956)
 -->
<!-- Title: PROV&#45;O render Pages: 1 -->
<svg width="1146pt" height="717pt"
 viewBox="0.00 0.00 1145.50 717.10" xmlns="http://www.w3.org/2000/svg" xmlns:xlink="http://www.w3.org/1999/xlink">
<g id="graph0" class="graph" transform="scale(1 1) rotate(0) translate(4 713.1)">
<title>PROV&#45;O render</title>
<polygon fill="white" stroke="none" points="-4,4 -4,-713.1 1141.5,-713.1 1141.5,4 -4,4"/>
<!-- _1f04d829546c397900d5164d5f2d881a9d7141a66bfedb6c9fbc0aa88bbfc164 -->
<g id="node1" class="node">
<title>_1f04d829546c397900d5164d5f2d881a9d7141a66bfedb6c9fbc0aa88bbfc164</title>
<ellipse fill="#fff68f" stroke="#808080" cx="736.5" cy="-38.18" rx="219.41" ry="38.37"/>
<text text-anchor="middle" x="736.5" y="-49.98" font-family="Times,serif" font-size="14.00">ID &#45; kb:file&#45;2352f3d0&#45;d02f&#45;40ba&#45;85a4&#45;b00dd97050c8</text>
<text text-anchor="middle" x="736.5" y="-18.98" font-family="Times,serif" font-size="14.00">android_7.tar.gz</text>
</g>
<!-- _c1a739983405a7bfa4936ec3a1ea5fbf93592d8df15f9a6b45f2537d7c543d15 -->
<g id="node2" class="node">
<title>_c1a739983405a7bfa4936ec3a1ea5fbf93592d8df15f9a6b45f2537d7c543d15</title>
<ellipse fill="#fff68f" stroke="#808080" cx="579.5" cy="-345.55" rx="216.25" ry="38.37"/>
<text text-anchor="middle" x="579.5" y="-357.35" font-family="Times,serif" font-size="14.00">ID &#45; kb:file&#45;3af91026&#45;4c09&#45;4047&#45;a914&#45;15e75a711ff0</text>
<text text-anchor="middle" x="579.5" y="-326.35" font-family="Times,serif" font-size="14.00">Android7&#45;ImageCreationDocumentation.pdf</text>
</g>
<!-- _1f04d829546c397900d5164d5f2d881a9d7141a66bfedb6c9fbc0aa88bbfc164&#45;&gt;_c1a739983405a7bfa4936ec3a1ea5fbf93592d8df15f9a6b45f2537d7c543d15 -->
<g id="edge1" class="edge">
<title>_1f04d829546c397900d5164d5f2d881a9d7141a66bfedb6c9fbc0aa88bbfc164&#45;&gt;_c1a739983405a7bfa4936ec3a1ea5fbf93592d8df15f9a6b45f2537d7c543d15</title>
<path fill="none" stroke="black" d="M758.03,-76.63C775.43,-112.32 793.44,-166.39 769.5,-206.37 744.68,-247.82 702.14,-280.5 663.61,-303.65"/>
<polygon fill="black" stroke="black" points="662.07,-300.49 655.21,-308.56 665.61,-306.53 662.07,-300.49"/>
<text text-anchor="middle" x="810.5" y="-198.37" font-family="Times,serif" font-size="10.00">wasDerivedFrom</text>
</g>
<!-- _5090b4bd42dac0fe6075f8ff9b6b3a5930561b67224e38a36ae608fd7cdd8b9e -->
<g id="node3" class="node">
<title>_5090b4bd42dac0fe6075f8ff9b6b3a5930561b67224e38a36ae608fd7cdd8b9e</title>
<ellipse fill="#fff68f" stroke="#808080" cx="579.5" cy="-569.92" rx="230.53" ry="38.37"/>
<text text-anchor="middle" x="579.5" y="-581.72" font-family="Times,serif" font-size="14.00">ID &#45; kb:image&#45;a3c3e13d&#45;98ef&#45;4901&#45;b984&#45;81c10142d90e</text>
<text text-anchor="middle" x="579.5" y="-550.72" font-family="Times,serif" font-size="14.00">blk0_mmcblk0.bin, as generated by imaging process</text>
</g>
<!-- _1f04d829546c397900d5164d5f2d881a9d7141a66bfedb6c9fbc0aa88bbfc164&#45;&gt;_5090b4bd42dac0fe6075f8ff9b6b3a5930561b67224e38a36ae608fd7cdd8b9e -->
<g id="edge2" class="edge">
<title>_1f04d829546c397900d5164d5f2d881a9d7141a66bfedb6c9fbc0aa88bbfc164&#45;&gt;_5090b4bd42dac0fe6075f8ff9b6b3a5930561b67224e38a36ae608fd7cdd8b9e</title>
<path fill="none" stroke="black" d="M888.56,-66.22C927.44,-82.37 958.5,-108.17 958.5,-149.37 958.5,-149.37 958.5,-149.37 958.5,-458.74 958.5,-501.25 869.46,-528.43 777.7,-545.16"/>
<polygon fill="black" stroke="black" points="777.23,-541.69 767.99,-546.89 778.45,-548.59 777.23,-541.69"/>
<text text-anchor="middle" x="993.5" y="-281.37" font-family="Times,serif" font-size="10.00">wasDerivedFrom</text>
</g>
<!-- _a090ef842d68a040bb034c775f6a3fceaacfb2dc9c12cc5b055c7067bfa69f5a -->
<g id="node6" class="node">
<title>_a090ef842d68a040bb034c775f6a3fceaacfb2dc9c12cc5b055c7067bfa69f5a</title>
<polygon fill="#9fb1fc" stroke="#0000ff" points="765,-177.37 368,-177.37 368,-123.37 765,-123.37 765,-177.37"/>
<text text-anchor="middle" x="566.5" y="-162.17" font-family="Times,serif" font-size="14.00">ID &#45; kb:investigative&#45;action&#45;a12c4001&#45;82dc&#45;445d&#45;be3f&#45;ccce026d55d9</text>
<text text-anchor="middle" x="566.5" y="-131.17" font-family="Times,serif" font-size="14.00">Compile dataset tarball</text>
</g>
<!-- _1f04d829546c397900d5164d5f2d881a9d7141a66bfedb6c9fbc0aa88bbfc164&#45;&gt;_a090ef842d68a040bb034c775f6a3fceaacfb2dc9c12cc5b055c7067bfa69f5a -->
<g id="edge3" class="edge">
<title>_1f04d829546c397900d5164d5f2d881a9d7141a66bfedb6c9fbc0aa88bbfc164&#45;&gt;_a090ef842d68a040bb034c775f6a3fceaacfb2dc9c12cc5b055c7067bfa69f5a</title>
<path fill="none" stroke="darkgreen" d="M680.36,-75.57C659.84,-88.87 636.76,-103.83 616.77,-116.78"/>
<polygon fill="darkgreen" stroke="darkgreen" points="614.99,-113.77 608.51,-122.14 618.8,-119.64 614.99,-113.77"/>
<text text-anchor="middle" x="681.5" y="-97.37" font-family="Times,serif" font-size="10.00" fill="darkgreen">wasGeneratedBy</text>
</g>
<!-- _a02c2e16e16ca8e40604e0031a59adedf64d57096fdb251d9226c253b8a229a9 -->
<g id="node7" class="node">
<title>_a02c2e16e16ca8e40604e0031a59adedf64d57096fdb251d9226c253b8a229a9</title>
<polygon fill="#cdc673" stroke="#808080" points="581,-260.37 578,-264.37 557,-264.37 554,-260.37 186,-260.37 186,-224.37 581,-224.37 581,-260.37"/>
<text text-anchor="middle" x="383.5" y="-238.67" font-family="Times,serif" font-size="14.00">ID &#45; kb:provenance&#45;record&#45;2dbd4ba1&#45;76b1&#45;4041&#45;a460&#45;8a5922940f79</text>
</g>
<!-- _1f04d829546c397900d5164d5f2d881a9d7141a66bfedb6c9fbc0aa88bbfc164&#45;&gt;_a02c2e16e16ca8e40604e0031a59adedf64d57096fdb251d9226c253b8a229a9 -->
<g id="edge4" class="edge">
<title>_1f04d829546c397900d5164d5f2d881a9d7141a66bfedb6c9fbc0aa88bbfc164&#45;&gt;_a02c2e16e16ca8e40604e0031a59adedf64d57096fdb251d9226c253b8a229a9</title>
<path fill="none" stroke="black" d="M532.18,-52.54C429.57,-63.96 320.36,-84.96 288.5,-123.37 273.18,-141.84 277.23,-156.18 288.5,-177.37 297.79,-194.83 314.21,-208.39 330.81,-218.43"/>
<polygon fill="black" stroke="black" points="328.81,-221.32 339.23,-223.2 332.25,-215.23 328.81,-221.32"/>
<text text-anchor="middle" x="323.5" y="-147.87" font-family="Times,serif" font-size="10.00">wasDerivedFrom</text>
</g>
<!-- _c1a739983405a7bfa4936ec3a1ea5fbf93592d8df15f9a6b45f2537d7c543d15&#45;&gt;_5090b4bd42dac0fe6075f8ff9b6b3a5930561b67224e38a36ae608fd7cdd8b9e -->
<g id="edge5" class="edge">
<title>_c1a739983405a7bfa4936ec3a1ea5fbf93592d8df15f9a6b45f2537d7c543d15&#45;&gt;_5090b4bd42dac0fe6075f8ff9b6b3a5930561b67224e38a36ae608fd7cdd8b9e</title>
<path fill="none" stroke="black" d="M579.5,-384.27C579.5,-421.68 579.5,-479.18 579.5,-520.06"/>
<polygon fill="black" stroke="black" points="576,-519.87 579.5,-529.87 583,-519.87 576,-519.87"/>
<text text-anchor="middle" x="614.5" y="-455.24" font-family="Times,serif" font-size="10.00">wasDerivedFrom</text>
</g>
<!-- _1b78d8b10f20bab9ac9decdab66ba558c139b30a952b49e41d8564fcefdf5825 -->
<g id="node5" class="node">
<title>_1b78d8b10f20bab9ac9decdab66ba558c139b30a952b49e41d8564fcefdf5825</title>
<polygon fill="#9fb1fc" stroke="#0000ff" points="401,-484.74 0,-484.74 0,-430.74 401,-430.74 401,-484.74"/>
<text text-anchor="middle" x="200.5" y="-469.54" font-family="Times,serif" font-size="14.00">ID &#45; kb:investigative&#45;action&#45;8ed7908a&#45;994f&#45;4c69&#45;86d4&#45;1b4b6762890d</text>
<text text-anchor="middle" x="200.5" y="-438.54" font-family="Times,serif" font-size="14.00">Document dataset creation and file hashes</text>
</g>
<!-- _c1a739983405a7bfa4936ec3a1ea5fbf93592d8df15f9a6b45f2537d7c543d15&#45;&gt;_1b78d8b10f20bab9ac9decdab66ba558c139b30a952b49e41d8564fcefdf5825 -->
<g id="edge6" class="edge">
<title>_c1a739983405a7bfa4936ec3a1ea5fbf93592d8df15f9a6b45f2537d7c543d15&#45;&gt;_1b78d8b10f20bab9ac9decdab66ba558c139b30a952b49e41d8564fcefdf5825</title>
<path fill="none" stroke="darkgreen" d="M505.9,-381.96C480.82,-393.01 452.33,-404.45 425.5,-412.74 407.62,-418.26 388.71,-423.24 369.77,-427.68"/>
<polygon fill="darkgreen" stroke="darkgreen" points="369.05,-424.26 360.09,-429.9 370.62,-431.08 369.05,-424.26"/>
<text text-anchor="middle" x="491.5" y="-404.74" font-family="Times,serif" font-size="10.00" fill="darkgreen">wasGeneratedBy</text>
</g>
<!-- _714995513e5350ac5b9c0da4e3b220fc0ed9ced5f72ebf41dc3e1565441b169f -->
<g id="node4" class="node">
<title>_714995513e5350ac5b9c0da4e3b220fc0ed9ced5f72ebf41dc3e1565441b169f</title>
<polygon fill="#9fb1fc" stroke="#0000ff" points="777,-709.1 382,-709.1 382,-655.1 777,-655.1 777,-709.1"/>
<text text-anchor="middle" x="579.5" y="-693.9" font-family="Times,serif" font-size="14.00">ID &#45; kb:investigative&#45;action&#45;6ea701f0&#45;411a&#45;4e9c&#45;aaa7&#45;801f40416214</text>
<text text-anchor="middle" x="579.5" y="-662.9" font-family="Times,serif" font-size="14.00">Phone imaged</text>
</g>
<!-- _5090b4bd42dac0fe6075f8ff9b6b3a5930561b67224e38a36ae608fd7cdd8b9e&#45;&gt;_714995513e5350ac5b9c0da4e3b220fc0ed9ced5f72ebf41dc3e1565441b169f -->
<g id="edge7" class="edge">
<title>_5090b4bd42dac0fe6075f8ff9b6b3a5930561b67224e38a36ae608fd7cdd8b9e&#45;&gt;_714995513e5350ac5b9c0da4e3b220fc0ed9ced5f72ebf41dc3e1565441b169f</title>
<path fill="none" stroke="darkgreen" d="M579.5,-608.53C579.5,-619.82 579.5,-632.2 579.5,-643.49"/>
<polygon fill="darkgreen" stroke="darkgreen" points="576,-643.26 579.5,-653.26 583,-643.26 576,-643.26"/>
<text text-anchor="middle" x="614.5" y="-629.1" font-family="Times,serif" font-size="10.00" fill="darkgreen">wasGeneratedBy</text>
</g>
<!-- _1b78d8b10f20bab9ac9decdab66ba558c139b30a952b49e41d8564fcefdf5825&#45;&gt;_5090b4bd42dac0fe6075f8ff9b6b3a5930561b67224e38a36ae608fd7cdd8b9e -->
<g id="edge8" class="edge">
<title>_1b78d8b10f20bab9ac9decdab66ba558c139b30a952b49e41d8564fcefdf5825&#45;&gt;_5090b4bd42dac0fe6075f8ff9b6b3a5930561b67224e38a36ae608fd7cdd8b9e</title>
<path fill="none" stroke="#8b0000" d="M291.28,-485.13C340.45,-499.42 401.92,-517.29 455.45,-532.86"/>
<polygon fill="#8b0000" stroke="#8b0000" points="454.36,-536.18 464.94,-535.61 456.32,-529.46 454.36,-536.18"/>
<text text-anchor="middle" x="389" y="-505.74" font-family="Times,serif" font-size="10.00" fill="red">used</text>
</g>
<!-- _1b78d8b10f20bab9ac9decdab66ba558c139b30a952b49e41d8564fcefdf5825&#45;&gt;_714995513e5350ac5b9c0da4e3b220fc0ed9ced5f72ebf41dc3e1565441b169f -->
<g id="edge9" class="edge">
<title>_1b78d8b10f20bab9ac9decdab66ba558c139b30a952b49e41d8564fcefdf5825&#45;&gt;_714995513e5350ac5b9c0da4e3b220fc0ed9ced5f72ebf41dc3e1565441b169f</title>
<path fill="none" stroke="#0000cd" d="M206.29,-485.23C215.09,-518.99 235.12,-576.72 274.5,-608.1 302.48,-630.4 336.18,-646.06 370.83,-657.02"/>
<polygon fill="#0000cd" stroke="#0000cd" points="369.58,-660.3 380.17,-659.83 371.6,-653.59 369.58,-660.3"/>
<text text-anchor="middle" x="307" y="-567.42" font-family="Times,serif" font-size="10.00">wasInformedBy</text>
</g>
<!-- _a090ef842d68a040bb034c775f6a3fceaacfb2dc9c12cc5b055c7067bfa69f5a&#45;&gt;_c1a739983405a7bfa4936ec3a1ea5fbf93592d8df15f9a6b45f2537d7c543d15 -->
<g id="edge10" class="edge">
<title>_a090ef842d68a040bb034c775f6a3fceaacfb2dc9c12cc5b055c7067bfa69f5a&#45;&gt;_c1a739983405a7bfa4936ec3a1ea5fbf93592d8df15f9a6b45f2537d7c543d15</title>
<path fill="none" stroke="#8b0000" d="M576.9,-177.6C581.78,-191.3 587.06,-208.48 589.5,-224.37 593.07,-247.61 591.59,-273.59 588.79,-295.43"/>
<polygon fill="#8b0000" stroke="#8b0000" points="585.34,-294.88 587.39,-305.27 592.27,-295.87 585.34,-294.88"/>
<text text-anchor="middle" x="602" y="-239.87" font-family="Times,serif" font-size="10.00" fill="red">used</text>
</g>
<!-- _a090ef842d68a040bb034c775f6a3fceaacfb2dc9c12cc5b055c7067bfa69f5a&#45;&gt;_5090b4bd42dac0fe6075f8ff9b6b3a5930561b67224e38a36ae608fd7cdd8b9e -->
<g id="edge11" class="edge">
<title>_a090ef842d68a040bb034c775f6a3fceaacfb2dc9c12cc5b055c7067bfa69f5a&#45;&gt;_5090b4bd42dac0fe6075f8ff9b6b3a5930561b67224e38a36ae608fd7cdd8b9e</title>
<path fill="none" stroke="#8b0000" d="M641.29,-177.75C697.38,-201.95 770.16,-243.8 804.5,-307.37 851.83,-394.98 742.81,-479.1 660.54,-527.32"/>
<polygon fill="#8b0000" stroke="#8b0000" points="658.88,-524.23 651.96,-532.26 662.37,-530.3 658.88,-524.23"/>
<text text-anchor="middle" x="826" y="-343.05" font-family="Times,serif" font-size="10.00" fill="red">used</text>
</g>
<!-- _a090ef842d68a040bb034c775f6a3fceaacfb2dc9c12cc5b055c7067bfa69f5a&#45;&gt;_714995513e5350ac5b9c0da4e3b220fc0ed9ced5f72ebf41dc3e1565441b169f -->
<g id="edge12" class="edge">
<title>_a090ef842d68a040bb034c775f6a3fceaacfb2dc9c12cc5b055c7067bfa69f5a&#45;&gt;_714995513e5350ac5b9c0da4e3b220fc0ed9ced5f72ebf41dc3e1565441b169f</title>
<path fill="none" stroke="#0000cd" d="M765.35,-170.53C801.94,-176.79 833.6,-184.92 849.5,-195.37 869.7,-208.64 878.5,-217.2 878.5,-241.37 878.5,-241.37 878.5,-241.37 878.5,-570.92 878.5,-605.92 805.46,-633.24 731.58,-651.92"/>
<polygon fill="#0000cd" stroke="#0000cd" points="731.02,-648.45 722.15,-654.25 732.7,-655.25 731.02,-648.45"/>
<text text-anchor="middle" x="911" y="-404.74" font-family="Times,serif" font-size="10.00">wasInformedBy</text>
</g>
<!-- _a090ef842d68a040bb034c775f6a3fceaacfb2dc9c12cc5b055c7067bfa69f5a&#45;&gt;_1b78d8b10f20bab9ac9decdab66ba558c139b30a952b49e41d8564fcefdf5825 -->
<g id="edge13" class="edge">
<title>_a090ef842d68a040bb034c775f6a3fceaacfb2dc9c12cc5b055c7067bfa69f5a&#45;&gt;_1b78d8b10f20bab9ac9decdab66ba558c139b30a952b49e41d8564fcefdf5825</title>
<path fill="none" stroke="#0000cd" d="M367.73,-177.31C278.39,-191.01 189.87,-208.27 176.5,-224.37 130.52,-279.75 159.83,-370.02 182.13,-420.19"/>
<polygon fill="#0000cd" stroke="#0000cd" points="178.91,-421.56 186.27,-429.18 185.27,-418.64 178.91,-421.56"/>
<text text-anchor="middle" x="187" y="-281.37" font-family="Times,serif" font-size="10.00">wasInformedBy</text>
</g>
<!-- _a090ef842d68a040bb034c775f6a3fceaacfb2dc9c12cc5b055c7067bfa69f5a&#45;&gt;_a02c2e16e16ca8e40604e0031a59adedf64d57096fdb251d9226c253b8a229a9 -->
<g id="edge14" class="edge">
<title>_a090ef842d68a040bb034c775f6a3fceaacfb2dc9c12cc5b055c7067bfa69f5a&#45;&gt;_a02c2e16e16ca8e40604e0031a59adedf64d57096fdb251d9226c253b8a229a9</title>
<path fill="none" stroke="#8b0000" d="M513.08,-177.64C486.47,-190.73 454.62,-206.39 429.17,-218.91"/>
<polygon fill="#8b0000" stroke="#8b0000" points="427.82,-215.67 420.39,-223.22 430.91,-221.95 427.82,-215.67"/>
<text text-anchor="middle" x="485" y="-198.37" font-family="Times,serif" font-size="10.00" fill="red">used</text>
</g>
<!-- _a02c2e16e16ca8e40604e0031a59adedf64d57096fdb251d9226c253b8a229a9&#45;&gt;_c1a739983405a7bfa4936ec3a1ea5fbf93592d8df15f9a6b45f2537d7c543d15 -->
<g id="edge15" class="edge">
<title>_a02c2e16e16ca8e40604e0031a59adedf64d57096fdb251d9226c253b8a229a9&#45;&gt;_c1a739983405a7bfa4936ec3a1ea5fbf93592d8df15f9a6b45f2537d7c543d15</title>
<path fill="none" stroke="black" d="M417.19,-260.76C440.01,-272.54 471.14,-288.61 500.04,-303.53"/>
<polygon fill="black" stroke="black" points="498.32,-306.58 508.81,-308.06 501.53,-300.36 498.32,-306.58"/>
<text text-anchor="middle" x="495" y="-281.37" font-family="Times,serif" font-size="10.00">hadMember</text>
</g>
<!-- _a02c2e16e16ca8e40604e0031a59adedf64d57096fdb251d9226c253b8a229a9&#45;&gt;_5090b4bd42dac0fe6075f8ff9b6b3a5930561b67224e38a36ae608fd7cdd8b9e -->
<g id="edge16" class="edge">
<title>_a02c2e16e16ca8e40604e0031a59adedf64d57096fdb251d9226c253b8a229a9&#45;&gt;_5090b4bd42dac0fe6075f8ff9b6b3a5930561b67224e38a36ae608fd7cdd8b9e</title>
<path fill="none" stroke="black" d="M372.42,-260.64C352.83,-293.59 317.24,-366.24 351.5,-412.74 367.51,-434.47 385.71,-417.99 409.5,-430.74 455.82,-455.54 501.66,-493.82 534.04,-523.8"/>
<polygon fill="black" stroke="black" points="531.6,-526.31 541.29,-530.59 536.38,-521.2 531.6,-526.31"/>
<text text-anchor="middle" x="386.5" y="-404.74" font-family="Times,serif" font-size="10.00">wasDerivedFrom</text>
</g>
<!-- _a02c2e16e16ca8e40604e0031a59adedf64d57096fdb251d9226c253b8a229a9&#45;&gt;_1b78d8b10f20bab9ac9decdab66ba558c139b30a952b49e41d8564fcefdf5825 -->
<g id="edge17" class="edge">
<title>_a02c2e16e16ca8e40604e0031a59adedf64d57096fdb251d9226c253b8a229a9&#45;&gt;_1b78d8b10f20bab9ac9decdab66ba558c139b30a952b49e41d8564fcefdf5825</title>
<path fill="none" stroke="darkgreen" d="M323.8,-260.79C298.52,-270.81 270.57,-285.81 251.5,-307.37 223.57,-338.95 210.79,-386.52 205.04,-419.46"/>
<polygon fill="darkgreen" stroke="darkgreen" points="201.64,-418.52 203.52,-428.95 208.56,-419.63 201.64,-418.52"/>
<text text-anchor="middle" x="286.5" y="-343.05" font-family="Times,serif" font-size="10.00" fill="darkgreen">wasGeneratedBy</text>
</g>
<!-- _357f00248bdc728725be43338ec69113a99cec9793681d0accd1f777e4dd5fbf -->
<g id="node8" class="node">
<title>_357f00248bdc728725be43338ec69113a99cec9793681d0accd1f777e4dd5fbf</title>
<polygon fill="#cdc673" stroke="#808080" points="1137.5,-56.18 1134.5,-60.18 1113.5,-60.18 1110.5,-56.18 973.5,-56.18 973.5,-20.18 1137.5,-20.18 1137.5,-56.18"/>
<text text-anchor="middle" x="1055.5" y="-34.48" font-family="Times,serif" font-size="14.00">ID &#45; prov:EmptyCollection</text>
</g>
</g>
</svg>
