<?xml version="1.0" encoding="UTF-8" standalone="no"?>
<!DOCTYPE svg PUBLIC "-//W3C//DTD SVG 1.1//EN"
 "http://www.w3.org/Graphics/SVG/1.1/DTD/svg11.dtd">
<!-- Generated by graphviz version 7.1.0 (20230121.1956)
 -->
<!-- Title: PROV&#45;O render Pages: 1 -->
<svg width="743pt" height="515pt"
 viewBox="0.00 0.00 743.20 515.10" xmlns="http://www.w3.org/2000/svg" xmlns:xlink="http://www.w3.org/1999/xlink">
<g id="graph0" class="graph" transform="scale(1 1) rotate(0) translate(4 511.1)">
<title>PROV&#45;O render</title>
<polygon fill="white" stroke="none" points="-4,4 -4,-511.1 739.2,-511.1 739.2,4 -4,4"/>
<!-- _1f04d829546c397900d5164d5f2d881a9d7141a66bfedb6c9fbc0aa88bbfc164 -->
<g id="node1" class="node">
<title>_1f04d829546c397900d5164d5f2d881a9d7141a66bfedb6c9fbc0aa88bbfc164</title>
<ellipse fill="#fff68f" stroke="#808080" cx="219.2" cy="-38.18" rx="219.41" ry="38.37"/>
<text text-anchor="middle" x="219.2" y="-49.98" font-family="Times,serif" font-size="14.00">ID &#45; kb:file&#45;2352f3d0&#45;d02f&#45;40ba&#45;85a4&#45;b00dd97050c8</text>
<text text-anchor="middle" x="219.2" y="-18.98" font-family="Times,serif" font-size="14.00">android_7.tar.gz</text>
</g>
<!-- _c1a739983405a7bfa4936ec3a1ea5fbf93592d8df15f9a6b45f2537d7c543d15 -->
<g id="node2" class="node">
<title>_c1a739983405a7bfa4936ec3a1ea5fbf93592d8df15f9a6b45f2537d7c543d15</title>
<ellipse fill="#fff68f" stroke="#808080" cx="353.2" cy="-244.55" rx="216.25" ry="38.37"/>
<text text-anchor="middle" x="353.2" y="-256.35" font-family="Times,serif" font-size="14.00">ID &#45; kb:file&#45;3af91026&#45;4c09&#45;4047&#45;a914&#45;15e75a711ff0</text>
<text text-anchor="middle" x="353.2" y="-225.35" font-family="Times,serif" font-size="14.00">Android7&#45;ImageCreationDocumentation.pdf</text>
</g>
<!-- _1f04d829546c397900d5164d5f2d881a9d7141a66bfedb6c9fbc0aa88bbfc164&#45;&gt;_c1a739983405a7bfa4936ec3a1ea5fbf93592d8df15f9a6b45f2537d7c543d15 -->
<g id="edge1" class="edge">
<title>_1f04d829546c397900d5164d5f2d881a9d7141a66bfedb6c9fbc0aa88bbfc164&#45;&gt;_c1a739983405a7bfa4936ec3a1ea5fbf93592d8df15f9a6b45f2537d7c543d15</title>
<path fill="none" stroke="black" d="M136.3,-74.07C96.09,-96.14 61.16,-126.62 85.2,-159.37 100.53,-180.24 149.26,-198.29 201.04,-212.25"/>
<polygon fill="black" stroke="black" points="200.1,-215.62 210.66,-214.79 201.88,-208.86 200.1,-215.62"/>
<text text-anchor="middle" x="120.2" y="-138.87" font-family="Times,serif" font-size="10.00">wasDerivedFrom</text>
</g>
<!-- _457e8792d4af0b60ec728dc4a5ed79d03fe6e76d0730385fad463089f8a49c0e -->
<g id="node3" class="node">
<title>_457e8792d4af0b60ec728dc4a5ed79d03fe6e76d0730385fad463089f8a49c0e</title>
<ellipse fill="#fff68f" stroke="#808080" cx="257.2" cy="-468.92" rx="226.05" ry="38.37"/>
<text text-anchor="middle" x="257.2" y="-480.72" font-family="Times,serif" font-size="14.00">ID &#45; kb:image&#45;9c77c0e9&#45;fd0b&#45;4912&#45;afcf&#45;0d1b1b86f4d6</text>
<text text-anchor="middle" x="257.2" y="-449.72" font-family="Times,serif" font-size="14.00">blk32_mmcblk0rpmb.bin</text>
</g>
<!-- _1f04d829546c397900d5164d5f2d881a9d7141a66bfedb6c9fbc0aa88bbfc164&#45;&gt;_457e8792d4af0b60ec728dc4a5ed79d03fe6e76d0730385fad463089f8a49c0e -->
<g id="edge2" class="edge">
<title>_1f04d829546c397900d5164d5f2d881a9d7141a66bfedb6c9fbc0aa88bbfc164&#45;&gt;_457e8792d4af0b60ec728dc4a5ed79d03fe6e76d0730385fad463089f8a49c0e</title>
<path fill="none" stroke="black" d="M69.14,-66.55C36.34,-81.51 11.2,-104.63 11.2,-140.37 11.2,-140.37 11.2,-140.37 11.2,-357.74 11.2,-397.52 38.33,-423.03 74.56,-439.36"/>
<polygon fill="black" stroke="black" points="73.04,-442.51 83.61,-443.14 75.74,-436.06 73.04,-442.51"/>
<text text-anchor="middle" x="46.2" y="-242.05" font-family="Times,serif" font-size="10.00">wasDerivedFrom</text>
</g>
<!-- _ebc267bba83123d50851bec30bc40b11891becea7dea22c9a75002f38bd181f3 -->
<g id="node4" class="node">
<title>_ebc267bba83123d50851bec30bc40b11891becea7dea22c9a75002f38bd181f3</title>
<polygon fill="#cdc673" stroke="#808080" points="735.2,-383.74 732.2,-387.74 711.2,-387.74 708.2,-383.74 345.2,-383.74 345.2,-329.74 735.2,-329.74 735.2,-383.74"/>
<text text-anchor="middle" x="540.2" y="-368.54" font-family="Times,serif" font-size="14.00">ID &#45; kb:provenance&#45;record&#45;1fd441e5&#45;e7c6&#45;4610&#45;aeaa&#45;3530aa37873c</text>
<text text-anchor="middle" x="540.2" y="-337.54" font-family="Times,serif" font-size="14.00">Record of blk32_mmcblk0rpmb.bin being hashed</text>
</g>
<!-- _1f04d829546c397900d5164d5f2d881a9d7141a66bfedb6c9fbc0aa88bbfc164&#45;&gt;_ebc267bba83123d50851bec30bc40b11891becea7dea22c9a75002f38bd181f3 -->
<g id="edge3" class="edge">
<title>_1f04d829546c397900d5164d5f2d881a9d7141a66bfedb6c9fbc0aa88bbfc164&#45;&gt;_ebc267bba83123d50851bec30bc40b11891becea7dea22c9a75002f38bd181f3</title>
<path fill="none" stroke="black" d="M388.94,-62.74C448.23,-75.37 513.76,-94.53 569.2,-123.37 618.65,-149.09 640.29,-155.56 663.2,-206.37 677.16,-237.31 680,-253.24 663.2,-282.74 653.55,-299.69 638.23,-313.12 621.64,-323.58"/>
<polygon fill="black" stroke="black" points="619.9,-320.54 613.06,-328.63 623.45,-326.57 619.9,-320.54"/>
<text text-anchor="middle" x="688.2" y="-180.37" font-family="Times,serif" font-size="10.00">wasDerivedFrom</text>
</g>
<!-- _a02c2e16e16ca8e40604e0031a59adedf64d57096fdb251d9226c253b8a229a9 -->
<g id="node5" class="node">
<title>_a02c2e16e16ca8e40604e0031a59adedf64d57096fdb251d9226c253b8a229a9</title>
<polygon fill="#cdc673" stroke="#808080" points="559.7,-159.37 556.7,-163.37 535.7,-163.37 532.7,-159.37 164.7,-159.37 164.7,-123.37 559.7,-123.37 559.7,-159.37"/>
<text text-anchor="middle" x="362.2" y="-137.67" font-family="Times,serif" font-size="14.00">ID &#45; kb:provenance&#45;record&#45;2dbd4ba1&#45;76b1&#45;4041&#45;a460&#45;8a5922940f79</text>
</g>
<!-- _1f04d829546c397900d5164d5f2d881a9d7141a66bfedb6c9fbc0aa88bbfc164&#45;&gt;_a02c2e16e16ca8e40604e0031a59adedf64d57096fdb251d9226c253b8a229a9 -->
<g id="edge4" class="edge">
<title>_1f04d829546c397900d5164d5f2d881a9d7141a66bfedb6c9fbc0aa88bbfc164&#45;&gt;_a02c2e16e16ca8e40604e0031a59adedf64d57096fdb251d9226c253b8a229a9</title>
<path fill="none" stroke="black" d="M270.83,-75.71C290,-89.28 311.24,-104.31 328.41,-116.46"/>
<polygon fill="black" stroke="black" points="326.08,-119.09 336.26,-122.01 330.12,-113.38 326.08,-119.09"/>
<text text-anchor="middle" x="346.2" y="-97.37" font-family="Times,serif" font-size="10.00">wasDerivedFrom</text>
</g>
<!-- _c1a739983405a7bfa4936ec3a1ea5fbf93592d8df15f9a6b45f2537d7c543d15&#45;&gt;_457e8792d4af0b60ec728dc4a5ed79d03fe6e76d0730385fad463089f8a49c0e -->
<g id="edge5" class="edge">
<title>_c1a739983405a7bfa4936ec3a1ea5fbf93592d8df15f9a6b45f2537d7c543d15&#45;&gt;_457e8792d4af0b60ec728dc4a5ed79d03fe6e76d0730385fad463089f8a49c0e</title>
<path fill="none" stroke="black" d="M303.2,-282.06C288.73,-295.35 274.59,-311.61 266.2,-329.74 253.39,-357.42 251.07,-391.6 251.98,-419.04"/>
<polygon fill="black" stroke="black" points="248.48,-419.03 252.48,-428.84 255.47,-418.68 248.48,-419.03"/>
<text text-anchor="middle" x="301.2" y="-354.24" font-family="Times,serif" font-size="10.00">wasDerivedFrom</text>
</g>
<!-- _c1a739983405a7bfa4936ec3a1ea5fbf93592d8df15f9a6b45f2537d7c543d15&#45;&gt;_ebc267bba83123d50851bec30bc40b11891becea7dea22c9a75002f38bd181f3 -->
<g id="edge6" class="edge">
<title>_c1a739983405a7bfa4936ec3a1ea5fbf93592d8df15f9a6b45f2537d7c543d15&#45;&gt;_ebc267bba83123d50851bec30bc40b11891becea7dea22c9a75002f38bd181f3</title>
<path fill="none" stroke="black" d="M414.69,-281.78C437.49,-295.22 463.18,-310.35 485.36,-323.42"/>
<polygon fill="black" stroke="black" points="483.57,-326.43 493.97,-328.49 487.13,-320.4 483.57,-326.43"/>
<text text-anchor="middle" x="498.2" y="-303.74" font-family="Times,serif" font-size="10.00">wasDerivedFrom</text>
</g>
<!-- _ebc267bba83123d50851bec30bc40b11891becea7dea22c9a75002f38bd181f3&#45;&gt;_457e8792d4af0b60ec728dc4a5ed79d03fe6e76d0730385fad463089f8a49c0e -->
<g id="edge7" class="edge">
<title>_ebc267bba83123d50851bec30bc40b11891becea7dea22c9a75002f38bd181f3&#45;&gt;_457e8792d4af0b60ec728dc4a5ed79d03fe6e76d0730385fad463089f8a49c0e</title>
<path fill="none" stroke="black" d="M497.83,-384.23C480.94,-394.06 461.07,-404.75 442.2,-412.74 425.18,-419.95 406.9,-426.61 388.69,-432.64"/>
<polygon fill="black" stroke="black" points="387.87,-429.22 379.43,-435.64 390.03,-435.88 387.87,-429.22"/>
<text text-anchor="middle" x="488.7" y="-404.74" font-family="Times,serif" font-size="10.00">hadMember</text>
</g>
<!-- _ebc267bba83123d50851bec30bc40b11891becea7dea22c9a75002f38bd181f3&#45;&gt;_457e8792d4af0b60ec728dc4a5ed79d03fe6e76d0730385fad463089f8a49c0e -->
<g id="edge8" class="edge">
<title>_ebc267bba83123d50851bec30bc40b11891becea7dea22c9a75002f38bd181f3&#45;&gt;_457e8792d4af0b60ec728dc4a5ed79d03fe6e76d0730385fad463089f8a49c0e</title>
<path fill="none" stroke="black" d="M418.48,-384.21C401.34,-389.28 384.14,-395.11 368.2,-401.74 352.4,-408.31 336.16,-416.84 321.14,-425.58"/>
<polygon fill="black" stroke="black" points="319.57,-422.44 312.77,-430.56 323.15,-428.46 319.57,-422.44"/>
<text text-anchor="middle" x="403.2" y="-404.74" font-family="Times,serif" font-size="10.00">wasDerivedFrom</text>
</g>
<!-- _a02c2e16e16ca8e40604e0031a59adedf64d57096fdb251d9226c253b8a229a9&#45;&gt;_c1a739983405a7bfa4936ec3a1ea5fbf93592d8df15f9a6b45f2537d7c543d15 -->
<g id="edge9" class="edge">
<title>_a02c2e16e16ca8e40604e0031a59adedf64d57096fdb251d9226c253b8a229a9&#45;&gt;_c1a739983405a7bfa4936ec3a1ea5fbf93592d8df15f9a6b45f2537d7c543d15</title>
<path fill="none" stroke="black" d="M360.68,-159.53C359.82,-169.2 358.69,-181.82 357.58,-194.33"/>
<polygon fill="black" stroke="black" points="354.1,-193.92 356.7,-204.19 361.08,-194.54 354.1,-193.92"/>
<text text-anchor="middle" x="382.7" y="-180.37" font-family="Times,serif" font-size="10.00">hadMember</text>
</g>
<!-- _a02c2e16e16ca8e40604e0031a59adedf64d57096fdb251d9226c253b8a229a9&#45;&gt;_457e8792d4af0b60ec728dc4a5ed79d03fe6e76d0730385fad463089f8a49c0e -->
<g id="edge10" class="edge">
<title>_a02c2e16e16ca8e40604e0031a59adedf64d57096fdb251d9226c253b8a229a9&#45;&gt;_457e8792d4af0b60ec728dc4a5ed79d03fe6e76d0730385fad463089f8a49c0e</title>
<path fill="none" stroke="black" d="M249.79,-159.83C197.67,-170.45 143.79,-185.94 128.2,-206.37 75.65,-275.23 150.95,-368.86 206.69,-423.41"/>
<polygon fill="black" stroke="black" points="204.03,-425.7 213.67,-430.11 208.89,-420.66 204.03,-425.7"/>
<text text-anchor="middle" x="158.2" y="-303.74" font-family="Times,serif" font-size="10.00">wasDerivedFrom</text>
</g>
<!-- _a02c2e16e16ca8e40604e0031a59adedf64d57096fdb251d9226c253b8a229a9&#45;&gt;_ebc267bba83123d50851bec30bc40b11891becea7dea22c9a75002f38bd181f3 -->
<g id="edge11" class="edge">
<title>_a02c2e16e16ca8e40604e0031a59adedf64d57096fdb251d9226c253b8a229a9&#45;&gt;_ebc267bba83123d50851bec30bc40b11891becea7dea22c9a75002f38bd181f3</title>
<path fill="none" stroke="black" d="M461.33,-159.84C510.9,-170.81 563.46,-186.62 578.2,-206.37 603.01,-239.59 583.86,-287.33 564.88,-319.83"/>
<polygon fill="black" stroke="black" points="562.05,-317.74 559.83,-328.1 568.03,-321.39 562.05,-317.74"/>
<text text-anchor="middle" x="624.2" y="-242.05" font-family="Times,serif" font-size="10.00">wasDerivedFrom</text>
</g>
<!-- _357f00248bdc728725be43338ec69113a99cec9793681d0accd1f777e4dd5fbf -->
<g id="node6" class="node">
<title>_357f00248bdc728725be43338ec69113a99cec9793681d0accd1f777e4dd5fbf</title>
<polygon fill="#cdc673" stroke="#808080" points="620.2,-56.18 617.2,-60.18 596.2,-60.18 593.2,-56.18 456.2,-56.18 456.2,-20.18 620.2,-20.18 620.2,-56.18"/>
<text text-anchor="middle" x="538.2" y="-34.48" font-family="Times,serif" font-size="14.00">ID &#45; prov:EmptyCollection</text>
</g>
</g>
</svg>
