<?xml version="1.0" encoding="UTF-8" standalone="no"?>
<!DOCTYPE svg PUBLIC "-//W3C//DTD SVG 1.1//EN"
 "http://www.w3.org/Graphics/SVG/1.1/DTD/svg11.dtd">
<!-- Generated by graphviz version 7.1.0 (20230121.1956)
 -->
<!-- Title: PROV&#45;O render Pages: 1 -->
<svg width="1497pt" height="934pt"
 viewBox="0.00 0.00 1496.50 934.10" xmlns="http://www.w3.org/2000/svg" xmlns:xlink="http://www.w3.org/1999/xlink">
<g id="graph0" class="graph" transform="scale(1 1) rotate(0) translate(4 930.1)">
<title>PROV&#45;O render</title>
<polygon fill="white" stroke="none" points="-4,4 -4,-930.1 1492.5,-930.1 1492.5,4 -4,4"/>
<!-- _1f04d829546c397900d5164d5f2d881a9d7141a66bfedb6c9fbc0aa88bbfc164 -->
<g id="node1" class="node">
<title>_1f04d829546c397900d5164d5f2d881a9d7141a66bfedb6c9fbc0aa88bbfc164</title>
<ellipse fill="#fff68f" stroke="#808080" cx="886.5" cy="-38.18" rx="219.41" ry="38.37"/>
<text text-anchor="middle" x="886.5" y="-49.98" font-family="Times,serif" font-size="14.00">ID &#45; kb:file&#45;2352f3d0&#45;d02f&#45;40ba&#45;85a4&#45;b00dd97050c8</text>
<text text-anchor="middle" x="886.5" y="-18.98" font-family="Times,serif" font-size="14.00">android_7.tar.gz</text>
</g>
<!-- _c1a739983405a7bfa4936ec3a1ea5fbf93592d8df15f9a6b45f2537d7c543d15 -->
<g id="node2" class="node">
<title>_c1a739983405a7bfa4936ec3a1ea5fbf93592d8df15f9a6b45f2537d7c543d15</title>
<ellipse fill="#fff68f" stroke="#808080" cx="612.5" cy="-345.55" rx="216.25" ry="38.37"/>
<text text-anchor="middle" x="612.5" y="-357.35" font-family="Times,serif" font-size="14.00">ID &#45; kb:file&#45;3af91026&#45;4c09&#45;4047&#45;a914&#45;15e75a711ff0</text>
<text text-anchor="middle" x="612.5" y="-326.35" font-family="Times,serif" font-size="14.00">Android7&#45;ImageCreationDocumentation.pdf</text>
</g>
<!-- _1f04d829546c397900d5164d5f2d881a9d7141a66bfedb6c9fbc0aa88bbfc164&#45;&gt;_c1a739983405a7bfa4936ec3a1ea5fbf93592d8df15f9a6b45f2537d7c543d15 -->
<g id="edge1" class="edge">
<title>_1f04d829546c397900d5164d5f2d881a9d7141a66bfedb6c9fbc0aa88bbfc164&#45;&gt;_c1a739983405a7bfa4936ec3a1ea5fbf93592d8df15f9a6b45f2537d7c543d15</title>
<path fill="none" stroke="black" d="M759.45,-69.9C729.59,-82.29 700.19,-99.52 678.5,-123.37 666.7,-136.34 640.16,-235.05 624.57,-296.14"/>
<polygon fill="black" stroke="black" points="621.23,-295.05 622.17,-305.61 628.02,-296.78 621.23,-295.05"/>
<text text-anchor="middle" x="686.5" y="-198.37" font-family="Times,serif" font-size="10.00">wasDerivedFrom</text>
</g>
<!-- _5090b4bd42dac0fe6075f8ff9b6b3a5930561b67224e38a36ae608fd7cdd8b9e -->
<g id="node3" class="node">
<title>_5090b4bd42dac0fe6075f8ff9b6b3a5930561b67224e38a36ae608fd7cdd8b9e</title>
<ellipse fill="#fff68f" stroke="#808080" cx="993.5" cy="-786.92" rx="230.53" ry="38.37"/>
<text text-anchor="middle" x="993.5" y="-798.72" font-family="Times,serif" font-size="14.00">ID &#45; kb:image&#45;a3c3e13d&#45;98ef&#45;4901&#45;b984&#45;81c10142d90e</text>
<text text-anchor="middle" x="993.5" y="-767.72" font-family="Times,serif" font-size="14.00">blk0_mmcblk0.bin, as generated by imaging process</text>
</g>
<!-- _1f04d829546c397900d5164d5f2d881a9d7141a66bfedb6c9fbc0aa88bbfc164&#45;&gt;_5090b4bd42dac0fe6075f8ff9b6b3a5930561b67224e38a36ae608fd7cdd8b9e -->
<g id="edge2" class="edge">
<title>_1f04d829546c397900d5164d5f2d881a9d7141a66bfedb6c9fbc0aa88bbfc164&#45;&gt;_5090b4bd42dac0fe6075f8ff9b6b3a5930561b67224e38a36ae608fd7cdd8b9e</title>
<path fill="none" stroke="black" d="M1036.11,-66.57C1193.46,-95.9 1418.5,-139.55 1418.5,-149.37 1418.5,-149.37 1418.5,-149.37 1418.5,-675.74 1418.5,-724.14 1313.89,-751.64 1208.48,-767.05"/>
<polygon fill="black" stroke="black" points="1208.19,-763.56 1198.78,-768.43 1209.18,-770.49 1208.19,-763.56"/>
<text text-anchor="middle" x="1453.5" y="-404.74" font-family="Times,serif" font-size="10.00">wasDerivedFrom</text>
</g>
<!-- _a090ef842d68a040bb034c775f6a3fceaacfb2dc9c12cc5b055c7067bfa69f5a -->
<g id="node6" class="node">
<title>_a090ef842d68a040bb034c775f6a3fceaacfb2dc9c12cc5b055c7067bfa69f5a</title>
<polygon fill="#9fb1fc" stroke="#0000ff" points="1085,-177.37 688,-177.37 688,-123.37 1085,-123.37 1085,-177.37"/>
<text text-anchor="middle" x="886.5" y="-162.17" font-family="Times,serif" font-size="14.00">ID &#45; kb:investigative&#45;action&#45;a12c4001&#45;82dc&#45;445d&#45;be3f&#45;ccce026d55d9</text>
<text text-anchor="middle" x="886.5" y="-131.17" font-family="Times,serif" font-size="14.00">Compile dataset tarball</text>
</g>
<!-- _1f04d829546c397900d5164d5f2d881a9d7141a66bfedb6c9fbc0aa88bbfc164&#45;&gt;_a090ef842d68a040bb034c775f6a3fceaacfb2dc9c12cc5b055c7067bfa69f5a -->
<g id="edge3" class="edge">
<title>_1f04d829546c397900d5164d5f2d881a9d7141a66bfedb6c9fbc0aa88bbfc164&#45;&gt;_a090ef842d68a040bb034c775f6a3fceaacfb2dc9c12cc5b055c7067bfa69f5a</title>
<path fill="none" stroke="darkgreen" d="M886.5,-76.79C886.5,-88.08 886.5,-100.47 886.5,-111.76"/>
<polygon fill="darkgreen" stroke="darkgreen" points="883,-111.52 886.5,-121.52 890,-111.52 883,-111.52"/>
<text text-anchor="middle" x="921.5" y="-97.37" font-family="Times,serif" font-size="10.00" fill="darkgreen">wasGeneratedBy</text>
</g>
<!-- _a02c2e16e16ca8e40604e0031a59adedf64d57096fdb251d9226c253b8a229a9 -->
<g id="node9" class="node">
<title>_a02c2e16e16ca8e40604e0031a59adedf64d57096fdb251d9226c253b8a229a9</title>
<polygon fill="#cdc673" stroke="#808080" points="624,-260.37 621,-264.37 600,-264.37 597,-260.37 229,-260.37 229,-224.37 624,-224.37 624,-260.37"/>
<text text-anchor="middle" x="426.5" y="-238.67" font-family="Times,serif" font-size="14.00">ID &#45; kb:provenance&#45;record&#45;2dbd4ba1&#45;76b1&#45;4041&#45;a460&#45;8a5922940f79</text>
</g>
<!-- _1f04d829546c397900d5164d5f2d881a9d7141a66bfedb6c9fbc0aa88bbfc164&#45;&gt;_a02c2e16e16ca8e40604e0031a59adedf64d57096fdb251d9226c253b8a229a9 -->
<g id="edge4" class="edge">
<title>_1f04d829546c397900d5164d5f2d881a9d7141a66bfedb6c9fbc0aa88bbfc164&#45;&gt;_a02c2e16e16ca8e40604e0031a59adedf64d57096fdb251d9226c253b8a229a9</title>
<path fill="none" stroke="black" d="M722.49,-63.93C670.72,-76.51 614.95,-95.33 568.5,-123.37 523.93,-150.27 478.75,-190.54 451.68,-216.38"/>
<polygon fill="black" stroke="black" points="449.41,-213.71 444.64,-223.17 454.27,-218.75 449.41,-213.71"/>
<text text-anchor="middle" x="603.5" y="-147.87" font-family="Times,serif" font-size="10.00">wasDerivedFrom</text>
</g>
<!-- _b5ab4f9e376265609eda39155c81c1c21d11e2e36515c2a87670364c122d98c3 -->
<g id="node10" class="node">
<title>_b5ab4f9e376265609eda39155c81c1c21d11e2e36515c2a87670364c122d98c3</title>
<polygon fill="#cdc673" stroke="#808080" points="1390,-380.05 1387,-384.05 1366,-384.05 1363,-380.05 1003,-380.05 1003,-311.05 1390,-311.05 1390,-380.05"/>
<text text-anchor="middle" x="1196.5" y="-364.85" font-family="Times,serif" font-size="14.00">ID &#45; kb:provenance&#45;record&#45;529f9bf1&#45;c9ca&#45;450c&#45;8311&#45;98c8a800fac5</text>
<text text-anchor="middle" x="1196.5" y="-333.85" font-family="Times,serif" font-size="14.00">Record of blk0_mmcblk0.bin being hashed before entry into </text>
<text text-anchor="middle" x="1196.5" y="-318.85" font-family="Times,serif" font-size="14.00">tarball</text>
</g>
<!-- _1f04d829546c397900d5164d5f2d881a9d7141a66bfedb6c9fbc0aa88bbfc164&#45;&gt;_b5ab4f9e376265609eda39155c81c1c21d11e2e36515c2a87670364c122d98c3 -->
<g id="edge5" class="edge">
<title>_1f04d829546c397900d5164d5f2d881a9d7141a66bfedb6c9fbc0aa88bbfc164&#45;&gt;_b5ab4f9e376265609eda39155c81c1c21d11e2e36515c2a87670364c122d98c3</title>
<path fill="none" stroke="black" d="M1006.87,-70.71C1037.86,-83.22 1069.26,-100.3 1093.5,-123.37 1144.46,-171.86 1172.65,-250.51 1186.16,-299.79"/>
<polygon fill="black" stroke="black" points="1182.73,-300.51 1188.67,-309.28 1189.5,-298.72 1182.73,-300.51"/>
<text text-anchor="middle" x="1185.5" y="-198.37" font-family="Times,serif" font-size="10.00">wasDerivedFrom</text>
</g>
<!-- _c1a739983405a7bfa4936ec3a1ea5fbf93592d8df15f9a6b45f2537d7c543d15&#45;&gt;_5090b4bd42dac0fe6075f8ff9b6b3a5930561b67224e38a36ae608fd7cdd8b9e -->
<g id="edge6" class="edge">
<title>_c1a739983405a7bfa4936ec3a1ea5fbf93592d8df15f9a6b45f2537d7c543d15&#45;&gt;_5090b4bd42dac0fe6075f8ff9b6b3a5930561b67224e38a36ae608fd7cdd8b9e</title>
<path fill="none" stroke="black" d="M578.95,-383.61C534.08,-437.7 466.43,-538.56 523.5,-600.74 555.17,-635.24 689.17,-603.63 733.5,-618.74 736.21,-619.66 851.23,-693.89 927.36,-743.12"/>
<polygon fill="black" stroke="black" points="925.33,-745.98 935.63,-748.47 929.14,-740.1 925.33,-745.98"/>
<text text-anchor="middle" x="558.5" y="-571.24" font-family="Times,serif" font-size="10.00">wasDerivedFrom</text>
</g>
<!-- _1b78d8b10f20bab9ac9decdab66ba558c139b30a952b49e41d8564fcefdf5825 -->
<g id="node5" class="node">
<title>_1b78d8b10f20bab9ac9decdab66ba558c139b30a952b49e41d8564fcefdf5825</title>
<polygon fill="#9fb1fc" stroke="#0000ff" points="401,-492.24 0,-492.24 0,-438.24 401,-438.24 401,-492.24"/>
<text text-anchor="middle" x="200.5" y="-477.04" font-family="Times,serif" font-size="14.00">ID &#45; kb:investigative&#45;action&#45;8ed7908a&#45;994f&#45;4c69&#45;86d4&#45;1b4b6762890d</text>
<text text-anchor="middle" x="200.5" y="-446.04" font-family="Times,serif" font-size="14.00">Document dataset creation and file hashes</text>
</g>
<!-- _c1a739983405a7bfa4936ec3a1ea5fbf93592d8df15f9a6b45f2537d7c543d15&#45;&gt;_1b78d8b10f20bab9ac9decdab66ba558c139b30a952b49e41d8564fcefdf5825 -->
<g id="edge7" class="edge">
<title>_c1a739983405a7bfa4936ec3a1ea5fbf93592d8df15f9a6b45f2537d7c543d15&#45;&gt;_1b78d8b10f20bab9ac9decdab66ba558c139b30a952b49e41d8564fcefdf5825</title>
<path fill="none" stroke="darkgreen" d="M499.92,-378.71C438.8,-396.17 363.76,-417.6 304.09,-434.64"/>
<polygon fill="darkgreen" stroke="darkgreen" points="303.25,-431.25 294.59,-437.36 305.17,-437.98 303.25,-431.25"/>
<text text-anchor="middle" x="454.5" y="-404.74" font-family="Times,serif" font-size="10.00" fill="darkgreen">wasGeneratedBy</text>
</g>
<!-- _d39fd74adc51b4a1f5dbc40716bcb6c4f44db1c4f75fe9dece0d18b9c6a9370b -->
<g id="node11" class="node">
<title>_d39fd74adc51b4a1f5dbc40716bcb6c4f44db1c4f75fe9dece0d18b9c6a9370b</title>
<polygon fill="#cdc673" stroke="#808080" points="994,-600.74 991,-604.74 970,-604.74 967,-600.74 603,-600.74 603,-546.74 994,-546.74 994,-600.74"/>
<text text-anchor="middle" x="798.5" y="-585.54" font-family="Times,serif" font-size="14.00">ID &#45; kb:provenance&#45;record&#45;75fb2a26&#45;0b7e&#45;428b&#45;acba&#45;17d114caca39</text>
<text text-anchor="middle" x="798.5" y="-554.54" font-family="Times,serif" font-size="14.00">Record of blk0_mmcblk0.bin being hashed</text>
</g>
<!-- _c1a739983405a7bfa4936ec3a1ea5fbf93592d8df15f9a6b45f2537d7c543d15&#45;&gt;_d39fd74adc51b4a1f5dbc40716bcb6c4f44db1c4f75fe9dece0d18b9c6a9370b -->
<g id="edge8" class="edge">
<title>_c1a739983405a7bfa4936ec3a1ea5fbf93592d8df15f9a6b45f2537d7c543d15&#45;&gt;_d39fd74adc51b4a1f5dbc40716bcb6c4f44db1c4f75fe9dece0d18b9c6a9370b</title>
<path fill="none" stroke="black" d="M621.01,-384.1C622.04,-389.98 622.93,-396 623.5,-401.74 623.98,-406.6 625.24,-408.17 623.5,-412.74 619.7,-422.74 611.3,-420.73 607.5,-430.74 596.6,-459.4 590.11,-474.47 607.5,-499.74 619.84,-517.66 637.23,-531.19 656.53,-541.4"/>
<polygon fill="black" stroke="black" points="654.91,-544.5 665.43,-545.77 658,-538.22 654.91,-544.5"/>
<text text-anchor="middle" x="642.5" y="-462.74" font-family="Times,serif" font-size="10.00">wasDerivedFrom</text>
</g>
<!-- _714995513e5350ac5b9c0da4e3b220fc0ed9ced5f72ebf41dc3e1565441b169f -->
<g id="node4" class="node">
<title>_714995513e5350ac5b9c0da4e3b220fc0ed9ced5f72ebf41dc3e1565441b169f</title>
<polygon fill="#9fb1fc" stroke="#0000ff" points="502,-926.1 107,-926.1 107,-872.1 502,-872.1 502,-926.1"/>
<text text-anchor="middle" x="304.5" y="-910.9" font-family="Times,serif" font-size="14.00">ID &#45; kb:investigative&#45;action&#45;6ea701f0&#45;411a&#45;4e9c&#45;aaa7&#45;801f40416214</text>
<text text-anchor="middle" x="304.5" y="-879.9" font-family="Times,serif" font-size="14.00">Phone imaged</text>
</g>
<!-- _5090b4bd42dac0fe6075f8ff9b6b3a5930561b67224e38a36ae608fd7cdd8b9e&#45;&gt;_714995513e5350ac5b9c0da4e3b220fc0ed9ced5f72ebf41dc3e1565441b169f -->
<g id="edge9" class="edge">
<title>_5090b4bd42dac0fe6075f8ff9b6b3a5930561b67224e38a36ae608fd7cdd8b9e&#45;&gt;_714995513e5350ac5b9c0da4e3b220fc0ed9ced5f72ebf41dc3e1565441b169f</title>
<path fill="none" stroke="darkgreen" d="M829.34,-814.17C724.49,-830.94 588.6,-852.67 481.36,-869.82"/>
<polygon fill="darkgreen" stroke="darkgreen" points="480.9,-866.35 471.58,-871.38 482.01,-873.26 480.9,-866.35"/>
<text text-anchor="middle" x="663.5" y="-846.1" font-family="Times,serif" font-size="10.00" fill="darkgreen">wasGeneratedBy</text>
</g>
<!-- _1b78d8b10f20bab9ac9decdab66ba558c139b30a952b49e41d8564fcefdf5825&#45;&gt;_5090b4bd42dac0fe6075f8ff9b6b3a5930561b67224e38a36ae608fd7cdd8b9e -->
<g id="edge10" class="edge">
<title>_1b78d8b10f20bab9ac9decdab66ba558c139b30a952b49e41d8564fcefdf5825&#45;&gt;_5090b4bd42dac0fe6075f8ff9b6b3a5930561b67224e38a36ae608fd7cdd8b9e</title>
<path fill="none" stroke="#8b0000" d="M217.14,-492.58C222.15,-500.61 227.61,-509.5 232.5,-517.74 260.32,-564.53 307.67,-701.35 353.5,-730.74 355.79,-732.2 593.13,-752.39 778.09,-767.93"/>
<polygon fill="#8b0000" stroke="#8b0000" points="777.59,-771.4 787.85,-768.75 778.18,-764.42 777.59,-771.4"/>
<text text-anchor="middle" x="295" y="-621.74" font-family="Times,serif" font-size="10.00" fill="red">used</text>
</g>
<!-- _1b78d8b10f20bab9ac9decdab66ba558c139b30a952b49e41d8564fcefdf5825&#45;&gt;_714995513e5350ac5b9c0da4e3b220fc0ed9ced5f72ebf41dc3e1565441b169f -->
<g id="edge11" class="edge">
<title>_1b78d8b10f20bab9ac9decdab66ba558c139b30a952b49e41d8564fcefdf5825&#45;&gt;_714995513e5350ac5b9c0da4e3b220fc0ed9ced5f72ebf41dc3e1565441b169f</title>
<path fill="none" stroke="#0000cd" d="M207.51,-492.72C212.56,-514.15 218.5,-545.17 218.5,-572.74 218.5,-572.74 218.5,-572.74 218.5,-787.92 218.5,-817.78 238.37,-844.39 259.01,-863.98"/>
<polygon fill="#0000cd" stroke="#0000cd" points="256.63,-866.55 266.41,-870.65 261.32,-861.35 256.63,-866.55"/>
<text text-anchor="middle" x="251" y="-672.24" font-family="Times,serif" font-size="10.00">wasInformedBy</text>
</g>
<!-- _3afdfdfbde6411000f1e66972e74dcce6edc54accfc7174acf82c1cdb1062120 -->
<g id="node8" class="node">
<title>_3afdfdfbde6411000f1e66972e74dcce6edc54accfc7174acf82c1cdb1062120</title>
<polygon fill="#9fb1fc" stroke="#0000ff" points="749.5,-701.74 395.5,-701.74 395.5,-647.74 749.5,-647.74 749.5,-701.74"/>
<text text-anchor="middle" x="572.5" y="-686.54" font-family="Times,serif" font-size="14.00">ID &#45; kb:observation&#45;905dc678&#45;a096&#45;4933&#45;98f8&#45;1e84813d8f8e</text>
<text text-anchor="middle" x="572.5" y="-655.54" font-family="Times,serif" font-size="14.00">Hash blk0_mmcblk0.bin</text>
</g>
<!-- _1b78d8b10f20bab9ac9decdab66ba558c139b30a952b49e41d8564fcefdf5825&#45;&gt;_3afdfdfbde6411000f1e66972e74dcce6edc54accfc7174acf82c1cdb1062120 -->
<g id="edge12" class="edge">
<title>_1b78d8b10f20bab9ac9decdab66ba558c139b30a952b49e41d8564fcefdf5825&#45;&gt;_3afdfdfbde6411000f1e66972e74dcce6edc54accfc7174acf82c1cdb1062120</title>
<path fill="none" stroke="#0000cd" d="M289.35,-492.67C306.93,-499.6 324.78,-507.94 340.5,-517.74 385.86,-545.99 383.82,-569.94 427.5,-600.74 449.87,-616.51 476.14,-630.82 500.13,-642.51"/>
<polygon fill="#0000cd" stroke="#0000cd" points="498.35,-645.54 508.88,-646.7 501.38,-639.23 498.35,-645.54"/>
<text text-anchor="middle" x="460" y="-571.24" font-family="Times,serif" font-size="10.00">wasInformedBy</text>
</g>
<!-- _1b78d8b10f20bab9ac9decdab66ba558c139b30a952b49e41d8564fcefdf5825&#45;&gt;_d39fd74adc51b4a1f5dbc40716bcb6c4f44db1c4f75fe9dece0d18b9c6a9370b -->
<g id="edge13" class="edge">
<title>_1b78d8b10f20bab9ac9decdab66ba558c139b30a952b49e41d8564fcefdf5825&#45;&gt;_d39fd74adc51b4a1f5dbc40716bcb6c4f44db1c4f75fe9dece0d18b9c6a9370b</title>
<path fill="none" stroke="#8b0000" d="M293.38,-492.66C317.13,-500.12 342.46,-508.68 365.5,-517.74 376.05,-521.88 377.57,-525.74 388.5,-528.74 474.56,-552.36 499.76,-537.25 588.5,-546.74 589.52,-546.84 590.54,-546.95 591.56,-547.06"/>
<polygon fill="#8b0000" stroke="#8b0000" points="590.8,-550.5 601.12,-548.11 591.56,-543.54 590.8,-550.5"/>
<text text-anchor="middle" x="398" y="-520.74" font-family="Times,serif" font-size="10.00" fill="red">used</text>
</g>
<!-- _a090ef842d68a040bb034c775f6a3fceaacfb2dc9c12cc5b055c7067bfa69f5a&#45;&gt;_c1a739983405a7bfa4936ec3a1ea5fbf93592d8df15f9a6b45f2537d7c543d15 -->
<g id="edge14" class="edge">
<title>_a090ef842d68a040bb034c775f6a3fceaacfb2dc9c12cc5b055c7067bfa69f5a&#45;&gt;_c1a739983405a7bfa4936ec3a1ea5fbf93592d8df15f9a6b45f2537d7c543d15</title>
<path fill="none" stroke="#8b0000" d="M849.73,-177.73C837,-186.83 822.64,-197.07 809.5,-206.37 764.2,-238.43 712.86,-274.43 673.96,-301.65"/>
<polygon fill="#8b0000" stroke="#8b0000" points="672.28,-298.55 666.09,-307.15 676.29,-304.28 672.28,-298.55"/>
<text text-anchor="middle" x="793" y="-239.87" font-family="Times,serif" font-size="10.00" fill="red">used</text>
</g>
<!-- _a090ef842d68a040bb034c775f6a3fceaacfb2dc9c12cc5b055c7067bfa69f5a&#45;&gt;_5090b4bd42dac0fe6075f8ff9b6b3a5930561b67224e38a36ae608fd7cdd8b9e -->
<g id="edge15" class="edge">
<title>_a090ef842d68a040bb034c775f6a3fceaacfb2dc9c12cc5b055c7067bfa69f5a&#45;&gt;_5090b4bd42dac0fe6075f8ff9b6b3a5930561b67224e38a36ae608fd7cdd8b9e</title>
<path fill="none" stroke="#8b0000" d="M899.71,-177.45C912.54,-203 932.38,-243.11 948.5,-278.37 969.68,-324.68 955.35,-350.01 993.5,-383.74 1021.74,-408.7 1130.45,-403.49 1156.5,-430.74 1185.41,-460.96 1178.5,-480.41 1178.5,-522.24 1178.5,-522.24 1178.5,-522.24 1178.5,-675.74 1178.5,-708.99 1156.17,-732.43 1127.02,-748.87"/>
<polygon fill="#8b0000" stroke="#8b0000" points="1125.47,-745.74 1118.24,-753.48 1128.72,-751.93 1125.47,-745.74"/>
<text text-anchor="middle" x="1189" y="-462.74" font-family="Times,serif" font-size="10.00" fill="red">used</text>
</g>
<!-- _a090ef842d68a040bb034c775f6a3fceaacfb2dc9c12cc5b055c7067bfa69f5a&#45;&gt;_1b78d8b10f20bab9ac9decdab66ba558c139b30a952b49e41d8564fcefdf5825 -->
<g id="edge16" class="edge">
<title>_a090ef842d68a040bb034c775f6a3fceaacfb2dc9c12cc5b055c7067bfa69f5a&#45;&gt;_1b78d8b10f20bab9ac9decdab66ba558c139b30a952b49e41d8564fcefdf5825</title>
<path fill="none" stroke="#0000cd" d="M802.7,-177.83C785.69,-183.44 767.97,-189.45 751.5,-195.37 738.92,-199.89 736.59,-203.65 723.5,-206.37 696.07,-212.07 239.74,-204.99 219.5,-224.37 165.25,-276.32 177.83,-373.62 190.13,-426.94"/>
<polygon fill="#0000cd" stroke="#0000cd" points="186.68,-427.58 192.45,-436.46 193.48,-425.92 186.68,-427.58"/>
<text text-anchor="middle" x="220" y="-281.37" font-family="Times,serif" font-size="10.00">wasInformedBy</text>
</g>
<!-- _d02b7b046fe1b016f968d211877e6982a74bad750d1977a0411017ef4fe99e5e -->
<g id="node7" class="node">
<title>_d02b7b046fe1b016f968d211877e6982a74bad750d1977a0411017ef4fe99e5e</title>
<polygon fill="#9fb1fc" stroke="#0000ff" points="1036.5,-499.74 686.5,-499.74 686.5,-430.74 1036.5,-430.74 1036.5,-499.74"/>
<text text-anchor="middle" x="861.5" y="-484.54" font-family="Times,serif" font-size="14.00">ID &#45; kb:observation&#45;66e7f5a6&#45;b29d&#45;4ca9&#45;9e3f&#45;6d2413daf070</text>
<text text-anchor="middle" x="861.5" y="-453.54" font-family="Times,serif" font-size="14.00">Hash blk0_mmcblk0.bin as entered into tarball (observation </text>
<text text-anchor="middle" x="861.5" y="-438.54" font-family="Times,serif" font-size="14.00">proxied by hashing file extracted from tarball)</text>
</g>
<!-- _a090ef842d68a040bb034c775f6a3fceaacfb2dc9c12cc5b055c7067bfa69f5a&#45;&gt;_d02b7b046fe1b016f968d211877e6982a74bad750d1977a0411017ef4fe99e5e -->
<g id="edge17" class="edge">
<title>_a090ef842d68a040bb034c775f6a3fceaacfb2dc9c12cc5b055c7067bfa69f5a&#45;&gt;_d02b7b046fe1b016f968d211877e6982a74bad750d1977a0411017ef4fe99e5e</title>
<path fill="none" stroke="#0000cd" d="M885.06,-177.53C882.62,-220.58 877.25,-309.03 870.5,-383.74 869.46,-395.29 868.15,-407.76 866.86,-419.35"/>
<polygon fill="#0000cd" stroke="#0000cd" points="863.41,-418.75 865.76,-429.08 870.36,-419.54 863.41,-418.75"/>
<text text-anchor="middle" x="912" y="-281.37" font-family="Times,serif" font-size="10.00">wasInformedBy</text>
</g>
<!-- _a090ef842d68a040bb034c775f6a3fceaacfb2dc9c12cc5b055c7067bfa69f5a&#45;&gt;_a02c2e16e16ca8e40604e0031a59adedf64d57096fdb251d9226c253b8a229a9 -->
<g id="edge18" class="edge">
<title>_a090ef842d68a040bb034c775f6a3fceaacfb2dc9c12cc5b055c7067bfa69f5a&#45;&gt;_a02c2e16e16ca8e40604e0031a59adedf64d57096fdb251d9226c253b8a229a9</title>
<path fill="none" stroke="#8b0000" d="M831.52,-177.84C807.48,-188.35 778.62,-199.53 751.5,-206.37 714.41,-215.72 674.31,-222.58 635.37,-227.6"/>
<polygon fill="#8b0000" stroke="#8b0000" points="635.41,-224.07 625.92,-228.78 636.28,-231.02 635.41,-224.07"/>
<text text-anchor="middle" x="796" y="-198.37" font-family="Times,serif" font-size="10.00" fill="red">used</text>
</g>
<!-- _a090ef842d68a040bb034c775f6a3fceaacfb2dc9c12cc5b055c7067bfa69f5a&#45;&gt;_b5ab4f9e376265609eda39155c81c1c21d11e2e36515c2a87670364c122d98c3 -->
<g id="edge19" class="edge">
<title>_a090ef842d68a040bb034c775f6a3fceaacfb2dc9c12cc5b055c7067bfa69f5a&#45;&gt;_b5ab4f9e376265609eda39155c81c1c21d11e2e36515c2a87670364c122d98c3</title>
<path fill="none" stroke="#8b0000" d="M953.35,-177.75C965.27,-183.14 977.42,-189.1 988.5,-195.37 1045.14,-227.4 1105.03,-271.6 1145.93,-303.56"/>
<polygon fill="#8b0000" stroke="#8b0000" points="1143.66,-306.23 1153.68,-309.66 1147.99,-300.72 1143.66,-306.23"/>
<text text-anchor="middle" x="1096" y="-239.87" font-family="Times,serif" font-size="10.00" fill="red">used</text>
</g>
<!-- _d02b7b046fe1b016f968d211877e6982a74bad750d1977a0411017ef4fe99e5e&#45;&gt;_5090b4bd42dac0fe6075f8ff9b6b3a5930561b67224e38a36ae608fd7cdd8b9e -->
<g id="edge20" class="edge">
<title>_d02b7b046fe1b016f968d211877e6982a74bad750d1977a0411017ef4fe99e5e&#45;&gt;_5090b4bd42dac0fe6075f8ff9b6b3a5930561b67224e38a36ae608fd7cdd8b9e</title>
<path fill="none" stroke="#8b0000" d="M1026.79,-500.1C1048.68,-511.45 1068.39,-526.58 1082.5,-546.74 1093.26,-562.1 1092.35,-670.28 1078.5,-701.74 1072.04,-716.41 1061.74,-729.88 1050.52,-741.55"/>
<polygon fill="#8b0000" stroke="#8b0000" points="1048.37,-738.76 1043.71,-748.27 1053.29,-743.74 1048.37,-738.76"/>
<text text-anchor="middle" x="1100" y="-621.74" font-family="Times,serif" font-size="10.00" fill="red">used</text>
</g>
<!-- _d02b7b046fe1b016f968d211877e6982a74bad750d1977a0411017ef4fe99e5e&#45;&gt;_3afdfdfbde6411000f1e66972e74dcce6edc54accfc7174acf82c1cdb1062120 -->
<g id="edge21" class="edge">
<title>_d02b7b046fe1b016f968d211877e6982a74bad750d1977a0411017ef4fe99e5e&#45;&gt;_3afdfdfbde6411000f1e66972e74dcce6edc54accfc7174acf82c1cdb1062120</title>
<path fill="none" stroke="#0000cd" d="M953.38,-500.19C972.94,-511.87 991.11,-527.11 1002.5,-546.74 1014.55,-567.49 1017.99,-582.4 1002.5,-600.74 986.13,-620.12 869.07,-639.21 761.22,-653.01"/>
<polygon fill="#0000cd" stroke="#0000cd" points="760.8,-649.53 751.32,-654.26 761.68,-656.48 760.8,-649.53"/>
<text text-anchor="middle" x="1046" y="-571.24" font-family="Times,serif" font-size="10.00">wasInformedBy</text>
</g>
<!-- _d02b7b046fe1b016f968d211877e6982a74bad750d1977a0411017ef4fe99e5e&#45;&gt;_d39fd74adc51b4a1f5dbc40716bcb6c4f44db1c4f75fe9dece0d18b9c6a9370b -->
<g id="edge22" class="edge">
<title>_d02b7b046fe1b016f968d211877e6982a74bad750d1977a0411017ef4fe99e5e&#45;&gt;_d39fd74adc51b4a1f5dbc40716bcb6c4f44db1c4f75fe9dece0d18b9c6a9370b</title>
<path fill="none" stroke="#8b0000" d="M841.39,-500.23C834.47,-511.92 826.7,-525.06 819.7,-536.9"/>
<polygon fill="#8b0000" stroke="#8b0000" points="816.88,-534.79 814.8,-545.18 822.9,-538.36 816.88,-534.79"/>
<text text-anchor="middle" x="840" y="-520.74" font-family="Times,serif" font-size="10.00" fill="red">used</text>
</g>
<!-- _3afdfdfbde6411000f1e66972e74dcce6edc54accfc7174acf82c1cdb1062120&#45;&gt;_5090b4bd42dac0fe6075f8ff9b6b3a5930561b67224e38a36ae608fd7cdd8b9e -->
<g id="edge23" class="edge">
<title>_3afdfdfbde6411000f1e66972e74dcce6edc54accfc7174acf82c1cdb1062120&#45;&gt;_5090b4bd42dac0fe6075f8ff9b6b3a5930561b67224e38a36ae608fd7cdd8b9e</title>
<path fill="none" stroke="#8b0000" d="M649.97,-702.17C679.39,-711.77 713.33,-722.32 744.5,-730.74 774.9,-738.95 807.62,-746.85 839.04,-753.99"/>
<polygon fill="#8b0000" stroke="#8b0000" points="838.09,-757.37 848.61,-756.15 839.63,-750.54 838.09,-757.37"/>
<text text-anchor="middle" x="754" y="-722.74" font-family="Times,serif" font-size="10.00" fill="red">used</text>
</g>
<!-- _3afdfdfbde6411000f1e66972e74dcce6edc54accfc7174acf82c1cdb1062120&#45;&gt;_714995513e5350ac5b9c0da4e3b220fc0ed9ced5f72ebf41dc3e1565441b169f -->
<g id="edge24" class="edge">
<title>_3afdfdfbde6411000f1e66972e74dcce6edc54accfc7174acf82c1cdb1062120&#45;&gt;_714995513e5350ac5b9c0da4e3b220fc0ed9ced5f72ebf41dc3e1565441b169f</title>
<path fill="none" stroke="#0000cd" d="M540.7,-702.12C491.85,-742.66 398.35,-820.23 344.81,-864.66"/>
<polygon fill="#0000cd" stroke="#0000cd" points="342.88,-861.71 337.42,-870.79 347.35,-867.1 342.88,-861.71"/>
<text text-anchor="middle" x="515" y="-784.42" font-family="Times,serif" font-size="10.00">wasInformedBy</text>
</g>
<!-- _a02c2e16e16ca8e40604e0031a59adedf64d57096fdb251d9226c253b8a229a9&#45;&gt;_c1a739983405a7bfa4936ec3a1ea5fbf93592d8df15f9a6b45f2537d7c543d15 -->
<g id="edge25" class="edge">
<title>_a02c2e16e16ca8e40604e0031a59adedf64d57096fdb251d9226c253b8a229a9&#45;&gt;_c1a739983405a7bfa4936ec3a1ea5fbf93592d8df15f9a6b45f2537d7c543d15</title>
<path fill="none" stroke="black" d="M458.47,-260.76C479.94,-272.44 509.16,-288.33 536.39,-303.15"/>
<polygon fill="black" stroke="black" points="534.52,-306.12 544.98,-307.82 537.87,-299.97 534.52,-306.12"/>
<text text-anchor="middle" x="533" y="-281.37" font-family="Times,serif" font-size="10.00">hadMember</text>
</g>
<!-- _a02c2e16e16ca8e40604e0031a59adedf64d57096fdb251d9226c253b8a229a9&#45;&gt;_5090b4bd42dac0fe6075f8ff9b6b3a5930561b67224e38a36ae608fd7cdd8b9e -->
<g id="edge26" class="edge">
<title>_a02c2e16e16ca8e40604e0031a59adedf64d57096fdb251d9226c253b8a229a9&#45;&gt;_5090b4bd42dac0fe6075f8ff9b6b3a5930561b67224e38a36ae608fd7cdd8b9e</title>
<path fill="none" stroke="black" d="M412.37,-260.61C403.31,-272.83 392.35,-290.08 387.5,-307.37 374.84,-352.46 368.98,-370.63 389.5,-412.74 394.74,-423.49 404.63,-419.81 409.5,-430.74 421.98,-458.75 410.56,-469.09 409.5,-499.74 409.06,-512.65 413.89,-517.5 407.5,-528.74 400.55,-540.95 388.02,-534.29 381.5,-546.74 369.23,-570.15 371.38,-685.22 386.5,-701.74 413.05,-730.74 611.41,-754.32 774.26,-769.07"/>
<polygon fill="black" stroke="black" points="773.65,-772.53 783.92,-769.94 774.27,-765.56 773.65,-772.53"/>
<text text-anchor="middle" x="446.5" y="-520.74" font-family="Times,serif" font-size="10.00">wasDerivedFrom</text>
</g>
<!-- _a02c2e16e16ca8e40604e0031a59adedf64d57096fdb251d9226c253b8a229a9&#45;&gt;_1b78d8b10f20bab9ac9decdab66ba558c139b30a952b49e41d8564fcefdf5825 -->
<g id="edge27" class="edge">
<title>_a02c2e16e16ca8e40604e0031a59adedf64d57096fdb251d9226c253b8a229a9&#45;&gt;_1b78d8b10f20bab9ac9decdab66ba558c139b30a952b49e41d8564fcefdf5825</title>
<path fill="none" stroke="darkgreen" d="M365.76,-260.78C338.46,-270.94 307.32,-286.05 284.5,-307.37 248.95,-340.57 225.35,-392.27 212.46,-427.16"/>
<polygon fill="darkgreen" stroke="darkgreen" points="209.21,-425.83 209.15,-436.42 215.81,-428.18 209.21,-425.83"/>
<text text-anchor="middle" x="319.5" y="-343.05" font-family="Times,serif" font-size="10.00" fill="darkgreen">wasGeneratedBy</text>
</g>
<!-- _a02c2e16e16ca8e40604e0031a59adedf64d57096fdb251d9226c253b8a229a9&#45;&gt;_d39fd74adc51b4a1f5dbc40716bcb6c4f44db1c4f75fe9dece0d18b9c6a9370b -->
<g id="edge28" class="edge">
<title>_a02c2e16e16ca8e40604e0031a59adedf64d57096fdb251d9226c253b8a229a9&#45;&gt;_d39fd74adc51b4a1f5dbc40716bcb6c4f44db1c4f75fe9dece0d18b9c6a9370b</title>
<path fill="none" stroke="black" d="M624.29,-250.23C715.13,-257.97 808.99,-274.08 837.5,-307.37 859.58,-333.15 859.11,-357.56 837.5,-383.74 819.92,-405.02 611.08,-409.45 593.5,-430.74 564.81,-465.48 580.86,-505.55 619.5,-528.74 627.87,-533.76 636.79,-538.21 646.01,-542.16"/>
<polygon fill="black" stroke="black" points="644.55,-545.34 655.13,-545.83 647.16,-538.85 644.55,-545.34"/>
<text text-anchor="middle" x="797.5" y="-404.74" font-family="Times,serif" font-size="10.00">wasDerivedFrom</text>
</g>
<!-- _b5ab4f9e376265609eda39155c81c1c21d11e2e36515c2a87670364c122d98c3&#45;&gt;_5090b4bd42dac0fe6075f8ff9b6b3a5930561b67224e38a36ae608fd7cdd8b9e -->
<g id="edge29" class="edge">
<title>_b5ab4f9e376265609eda39155c81c1c21d11e2e36515c2a87670364c122d98c3&#45;&gt;_5090b4bd42dac0fe6075f8ff9b6b3a5930561b67224e38a36ae608fd7cdd8b9e</title>
<path fill="none" stroke="black" d="M1209.47,-380.51C1217.19,-403.73 1225.5,-435.41 1225.5,-464.24 1225.5,-464.24 1225.5,-464.24 1225.5,-675.74 1225.5,-713.58 1200,-738.44 1165.91,-754.77"/>
<polygon fill="black" stroke="black" points="1164.68,-751.49 1156.96,-758.74 1167.52,-757.88 1164.68,-751.49"/>
<text text-anchor="middle" x="1250" y="-571.24" font-family="Times,serif" font-size="10.00">hadMember</text>
</g>
<!-- _b5ab4f9e376265609eda39155c81c1c21d11e2e36515c2a87670364c122d98c3&#45;&gt;_5090b4bd42dac0fe6075f8ff9b6b3a5930561b67224e38a36ae608fd7cdd8b9e -->
<g id="edge30" class="edge">
<title>_b5ab4f9e376265609eda39155c81c1c21d11e2e36515c2a87670364c122d98c3&#45;&gt;_5090b4bd42dac0fe6075f8ff9b6b3a5930561b67224e38a36ae608fd7cdd8b9e</title>
<path fill="none" stroke="black" d="M1256.84,-380.51C1284.18,-400.71 1310.5,-429.25 1310.5,-464.24 1310.5,-464.24 1310.5,-464.24 1310.5,-675.74 1310.5,-711.28 1238.51,-737.97 1163.14,-756.17"/>
<polygon fill="black" stroke="black" points="1162.4,-752.75 1153.47,-758.45 1164.01,-759.56 1162.4,-752.75"/>
<text text-anchor="middle" x="1345.5" y="-571.24" font-family="Times,serif" font-size="10.00">wasDerivedFrom</text>
</g>
<!-- _b5ab4f9e376265609eda39155c81c1c21d11e2e36515c2a87670364c122d98c3&#45;&gt;_d02b7b046fe1b016f968d211877e6982a74bad750d1977a0411017ef4fe99e5e -->
<g id="edge31" class="edge">
<title>_b5ab4f9e376265609eda39155c81c1c21d11e2e36515c2a87670364c122d98c3&#45;&gt;_d02b7b046fe1b016f968d211877e6982a74bad750d1977a0411017ef4fe99e5e</title>
<path fill="none" stroke="darkgreen" d="M1053.5,-380.48C1031.51,-386.85 1009.23,-393.97 988.5,-401.74 970.61,-408.44 951.87,-416.83 934.45,-425.27"/>
<polygon fill="darkgreen" stroke="darkgreen" points="933.15,-422.01 925.72,-429.57 936.24,-428.29 933.15,-422.01"/>
<text text-anchor="middle" x="1023.5" y="-404.74" font-family="Times,serif" font-size="10.00" fill="darkgreen">wasGeneratedBy</text>
</g>
<!-- _b5ab4f9e376265609eda39155c81c1c21d11e2e36515c2a87670364c122d98c3&#45;&gt;_d39fd74adc51b4a1f5dbc40716bcb6c4f44db1c4f75fe9dece0d18b9c6a9370b -->
<g id="edge32" class="edge">
<title>_b5ab4f9e376265609eda39155c81c1c21d11e2e36515c2a87670364c122d98c3&#45;&gt;_d39fd74adc51b4a1f5dbc40716bcb6c4f44db1c4f75fe9dece0d18b9c6a9370b</title>
<path fill="none" stroke="black" d="M1144.07,-380.37C1124.59,-394.48 1103.2,-411.96 1086.5,-430.74 1062.8,-457.39 1073.66,-477.84 1045.5,-499.74 1021.53,-518.38 992.9,-532.27 963.76,-542.61"/>
<polygon fill="black" stroke="black" points="962.78,-539.25 954.44,-545.78 965.04,-545.87 962.78,-539.25"/>
<text text-anchor="middle" x="1121.5" y="-462.74" font-family="Times,serif" font-size="10.00">wasDerivedFrom</text>
</g>
<!-- _d39fd74adc51b4a1f5dbc40716bcb6c4f44db1c4f75fe9dece0d18b9c6a9370b&#45;&gt;_5090b4bd42dac0fe6075f8ff9b6b3a5930561b67224e38a36ae608fd7cdd8b9e -->
<g id="edge33" class="edge">
<title>_d39fd74adc51b4a1f5dbc40716bcb6c4f44db1c4f75fe9dece0d18b9c6a9370b&#45;&gt;_5090b4bd42dac0fe6075f8ff9b6b3a5930561b67224e38a36ae608fd7cdd8b9e</title>
<path fill="none" stroke="black" d="M960.16,-601.15C982.06,-611.94 1001.46,-626.95 1014.5,-647.74 1031.18,-674.32 1025.64,-709.31 1016.09,-737.43"/>
<polygon fill="black" stroke="black" points="1012.8,-736.22 1012.63,-746.81 1019.37,-738.64 1012.8,-736.22"/>
<text text-anchor="middle" x="1050" y="-672.24" font-family="Times,serif" font-size="10.00">hadMember</text>
</g>
<!-- _d39fd74adc51b4a1f5dbc40716bcb6c4f44db1c4f75fe9dece0d18b9c6a9370b&#45;&gt;_5090b4bd42dac0fe6075f8ff9b6b3a5930561b67224e38a36ae608fd7cdd8b9e -->
<g id="edge34" class="edge">
<title>_d39fd74adc51b4a1f5dbc40716bcb6c4f44db1c4f75fe9dece0d18b9c6a9370b&#45;&gt;_5090b4bd42dac0fe6075f8ff9b6b3a5930561b67224e38a36ae608fd7cdd8b9e</title>
<path fill="none" stroke="black" d="M822.8,-601.05C854.96,-635.88 912.16,-697.83 951.42,-740.34"/>
<polygon fill="black" stroke="black" points="948.63,-742.49 957.99,-747.46 953.78,-737.74 948.63,-742.49"/>
<text text-anchor="middle" x="950.5" y="-672.24" font-family="Times,serif" font-size="10.00">wasDerivedFrom</text>
</g>
<!-- _d39fd74adc51b4a1f5dbc40716bcb6c4f44db1c4f75fe9dece0d18b9c6a9370b&#45;&gt;_3afdfdfbde6411000f1e66972e74dcce6edc54accfc7174acf82c1cdb1062120 -->
<g id="edge35" class="edge">
<title>_d39fd74adc51b4a1f5dbc40716bcb6c4f44db1c4f75fe9dece0d18b9c6a9370b&#45;&gt;_3afdfdfbde6411000f1e66972e74dcce6edc54accfc7174acf82c1cdb1062120</title>
<path fill="none" stroke="darkgreen" d="M738.23,-601.14C709.11,-613.89 673.96,-629.29 643.54,-642.62"/>
<polygon fill="darkgreen" stroke="darkgreen" points="642.13,-639.41 634.38,-646.63 644.94,-645.82 642.13,-639.41"/>
<text text-anchor="middle" x="727.5" y="-621.74" font-family="Times,serif" font-size="10.00" fill="darkgreen">wasGeneratedBy</text>
</g>
<!-- _357f00248bdc728725be43338ec69113a99cec9793681d0accd1f777e4dd5fbf -->
<g id="node12" class="node">
<title>_357f00248bdc728725be43338ec69113a99cec9793681d0accd1f777e4dd5fbf</title>
<polygon fill="#cdc673" stroke="#808080" points="1287.5,-56.18 1284.5,-60.18 1263.5,-60.18 1260.5,-56.18 1123.5,-56.18 1123.5,-20.18 1287.5,-20.18 1287.5,-56.18"/>
<text text-anchor="middle" x="1205.5" y="-34.48" font-family="Times,serif" font-size="14.00">ID &#45; prov:EmptyCollection</text>
</g>
</g>
</svg>
